<svg width="24" height="12" viewBox="0 0 24 12" version="1.1" xmlns="http://www.w3.org/2000/svg" xmlns:xlink="http://www.w3.org/1999/xlink">
<title>arrow_back</title>
<desc>Created using Figma</desc>
<g id="Canvas" transform="translate(-10070 -4407)">
<g id="arrow_back">
<use xlink:href="#path0_stroke" transform="translate(10071 4408)" fill="#0C9ABE"/>
</g>
</g>
<defs>
<path id="path0_stroke" d="M 5.70711 0.707107C 6.09763 0.316582 6.09763 -0.316582 5.70711 -0.707107C 5.31658 -1.09763 4.68342 -1.09763 4.29289 -0.707107L 5.70711 0.707107ZM 0 5L -0.707107 4.29289C -1.09763 4.68342 -1.09763 5.31658 -0.707107 5.70711L 0 5ZM 4.29289 10.7071C 4.68342 11.0976 5.31658 11.0976 5.70711 10.7071C 6.09763 10.3166 6.09763 9.68342 5.70711 9.29289L 4.29289 10.7071ZM 21.5 6C 22.0523 6 22.5 5.55228 22.5 5C 22.5 4.44772 22.0523 4 21.5 4L 21.5 6ZM 4.29289 -0.707107L -0.707107 4.29289L 0.707107 5.70711L 5.70711 0.707107L 4.29289 -0.707107ZM -0.707107 5.70711L 4.29289 10.7071L 5.70711 9.29289L 0.707107 4.29289L -0.707107 5.70711ZM 21.5 4L 0 4L 0 6L 21.5 6L 21.5 4Z"/>
</defs>
</svg>
