<svg id="Camada_1" data-name="Camada 1" xmlns="http://www.w3.org/2000/svg" viewBox="0 0 295.4 294.93"><defs><style>.cls-1,.cls-2{fill:#2cb6c5;}.cls-2{opacity:0.4;}.cls-2,.cls-3{isolation:isolate;}.cls-3,.cls-5{fill:#262453;}.cls-3{opacity:0.2;}.cls-4{fill:#fff;}</style></defs><g id="empty-state"><g id="Grupo_4024" data-name="Grupo 4024"><path id="Caminho_1961" data-name="Caminho 1961" class="cls-1" d="M294.4,102.56,210.16,66.44a.5.5,0,0,1-.22-.68.49.49,0,0,1,.61-.24l84.55,36.26a.51.51,0,0,1,.3.46v93.23a.51.51,0,0,1-.26.44L210.6,242.22a.53.53,0,0,1-.39,0l-17.44-5.21a.5.5,0,0,1,.29-1l17.24,5.15,84.1-46.06Z"/><path id="Caminho_1962" data-name="Caminho 1962" class="cls-1" d="M138,111.79a.5.5,0,0,1-.5.5.51.51,0,0,1-.5-.5V87.12a.5.5,0,0,1,.36-.48l72.81-21.08a.45.45,0,0,1,.34,0l30.61,13a.5.5,0,0,1,.3.64.5.5,0,0,1-.63.31l-.06,0-30.45-13L138,87.49v24.29Zm-1,38.94a.5.5,0,0,1,.5-.5.5.5,0,0,1,.5.5v49.9a.5.5,0,0,1-.5.5.5.5,0,0,1-.5-.5Z"/><path id="Caminho_1963" data-name="Caminho 1963" class="cls-1" d="M200.36,231.93V209.18l-59.52-8.67L1,236.06V269.3l84.94,24.56,114.42-61.93ZM85.86,294.87.36,270.16a.51.51,0,0,1-.36-.48v-34a.5.5,0,0,1,.38-.49l140.31-35.67a.45.45,0,0,1,.2,0l60,8.74a.51.51,0,0,1,.43.5v23.48a.5.5,0,0,1-.26.44L86.24,294.83a.47.47,0,0,1-.38,0Z"/><path id="Caminho_1964" data-name="Caminho 1964" class="cls-1" d="M85.15,255.19.53,236.5a.5.5,0,0,1-.35-.62.51.51,0,0,1,.57-.36l85,18.78a.5.5,0,0,1,.39.49V294a.5.5,0,0,1-.5.5.5.5,0,0,1-.5-.5Z"/><path id="Caminho_1965" data-name="Caminho 1965" class="cls-1" d="M200.57,208.28a.5.5,0,0,1,.44.9l-.07,0L85.77,255.4a.49.49,0,0,1-.66-.25.49.49,0,0,1,.24-.66l.05,0,115.17-46.19Z"/><path id="Caminho_1966" data-name="Caminho 1966" class="cls-1" d="M46.43,246.35a.5.5,0,0,1-.6-.38.51.51,0,0,1,.32-.58L141,218.19a.65.65,0,0,1,.24,0l22.46,4.76a.5.5,0,0,1-.21,1l-22.34-4.72L46.43,246.36Zm164.47-4.57a.51.51,0,0,1-.5.5.5.5,0,0,1-.5-.5V66.58a.5.5,0,0,1,.5-.5.5.5,0,0,1,.5.5Zm-69.5-150v19a.5.5,0,1,1-1,0V91.38a.49.49,0,0,1,.38-.48L200.72,76a.51.51,0,0,1,.61.37.49.49,0,0,1,0,.12V212.71a.5.5,0,0,1-1,0V77.09Z"/><path id="Caminho_1967" data-name="Caminho 1967" class="cls-1" d="M140.4,151.07a.5.5,0,0,1,1,0V218.8a.5.5,0,0,1-1,0Z"/><path id="Caminho_1968" data-name="Caminho 1968" class="cls-1" d="M200.47,141.83a.49.49,0,0,1,.41.57.51.51,0,0,1-.41.42l-59.35,8.41H141l-44.88-2.91a.5.5,0,0,1-.46-.54.49.49,0,0,1,.38-.45l55.5-12h.17Zm-48.78-5.46L99.78,147.56,141,150.24l55.7-7.9-45-6Z"/><path id="Caminho_1969" data-name="Caminho 1969" class="cls-1" d="M96.33,147.82a.5.5,0,0,1-.5.5.5.5,0,0,1-.5-.5V124.14a.49.49,0,0,1,.36-.48l55.59-16.28a.5.5,0,0,1,.64.3.49.49,0,0,1-.3.64l-.06,0L96.32,124.51Z"/><path id="Caminho_1970" data-name="Caminho 1970" class="cls-1" d="M152.29,135.8a.5.5,0,0,1-1,0V107.93a.5.5,0,0,1,.5-.5h.09l48.91,9.39a.49.49,0,0,1,.36.6.49.49,0,0,1-.54.38l-48.32-9.28V135.8Zm48.54,41.29a.49.49,0,0,1,.49.51.51.51,0,0,1-.51.49l-59.94-1.34a.5.5,0,0,1-.49-.51.52.52,0,0,1,.52-.49Z"/><g id="Grupo_4018" data-name="Grupo 4018"><path id="Caminho_1971" data-name="Caminho 1971" class="cls-1" d="M167.66,98.41a4.49,4.49,0,1,1,4.49-4.49h0A4.49,4.49,0,0,1,167.66,98.41Zm0-1a3.49,3.49,0,1,0-3.49-3.49h0a3.49,3.49,0,0,0,3.49,3.49Z"/><path id="Caminho_1972" data-name="Caminho 1972" class="cls-1" d="M168.73,89.86l.43.9a3.5,3.5,0,0,0,0,6.31l-.43.9a4.5,4.5,0,0,1,0-8.11Z"/></g><g id="Grupo_4019" data-name="Grupo 4019"><path id="Caminho_1973" data-name="Caminho 1973" class="cls-1" d="M121.75,128.35a4.49,4.49,0,1,1,4.49-4.49h0A4.49,4.49,0,0,1,121.75,128.35Zm0-1a3.5,3.5,0,1,0-3.49-3.49h0a3.49,3.49,0,0,0,3.49,3.49Z"/><path id="Caminho_1974" data-name="Caminho 1974" class="cls-1" d="M122.82,119.8l.43.9a3.5,3.5,0,0,0,0,6.31l-.43.9a4.49,4.49,0,0,1-2.1-6,4.43,4.43,0,0,1,2.12-2.11Z"/></g><g id="Grupo_4020" data-name="Grupo 4020"><path id="Caminho_1975" data-name="Caminho 1975" class="cls-1" d="M41.42,261.08a6.49,6.49,0,1,1,6.48-6.49h0A6.48,6.48,0,0,1,41.42,261.08Zm0-1a5.49,5.49,0,1,0-5.49-5.49h0a5.49,5.49,0,0,0,5.49,5.49Z"/><path id="Caminho_1976" data-name="Caminho 1976" class="cls-1" d="M43.13,248.73l.43.9a5.49,5.49,0,0,0,0,9.91l-.43.9a6.49,6.49,0,0,1,0-11.71Z"/></g><g id="Grupo_4021" data-name="Grupo 4021"><path id="Caminho_1977" data-name="Caminho 1977" class="cls-1" d="M167.66,159.79a4.49,4.49,0,1,1,4.49-4.49h0A4.49,4.49,0,0,1,167.66,159.79Zm0-1a3.5,3.5,0,1,0-3.49-3.5h0a3.49,3.49,0,0,0,3.49,3.49Z"/><path id="Caminho_1978" data-name="Caminho 1978" class="cls-1" d="M168.73,151.24l.43.9a3.49,3.49,0,0,0,0,6.3l-.43.9a4.48,4.48,0,0,1,0-8.1Z"/></g><g id="Grupo_4022" data-name="Grupo 4022"><path id="Caminho_1979" data-name="Caminho 1979" class="cls-1" d="M167.66,188.23a4.49,4.49,0,1,1,4.49-4.49h0A4.49,4.49,0,0,1,167.66,188.23Zm0-1a3.5,3.5,0,1,0-3.49-3.5h0a3.49,3.49,0,0,0,3.49,3.49Z"/><path id="Caminho_1980" data-name="Caminho 1980" class="cls-1" d="M168.73,179.68l.43.9a3.5,3.5,0,0,0,0,6.31l-.43.9a4.49,4.49,0,0,1,0-8.11Z"/></g><g id="Grupo_4023" data-name="Grupo 4023"><path id="Caminho_1981" data-name="Caminho 1981" class="cls-2" d="M89.5,256.4c-3.78,1.93-5.67,5.12-5.67,9.54V290.6c0,3.11,1.86,5.6,5.67,3.62s101-54.6,104.64-56.67,4.3-5.42,4.3-8.5V217a2.84,2.84,0,0,0-4.3-2.4q-2.58,1.32-104.64,41.81ZM14.84,234.55c-5.73,1.58-6.1,5.53-2.06,6.33s21,4.45,24.74,5.36a29.41,29.41,0,0,0,13.86-.63C56,244.27,131.13,223,134,222.28s5-2.3,5-5.7V207c0-1.16-1.65-3.12-5-2.23S20.57,233,14.84,234.55Z"/><path id="Caminho_1982" data-name="Caminho 1982" class="cls-2" d="M148,223.74a32.35,32.35,0,0,0-14,.6c-5.6,1.45-72.42,20.15-76.09,21.27s-6.85,4-2.9,5,17.54,4.08,21.08,4.78a36.09,36.09,0,0,0,18.73-2.23c7.28-3,57.56-23.33,60.64-24.42s2.25-3,0-3.46-3.74-.88-7.47-1.53Z"/><path id="Caminho_1983" data-name="Caminho 1983" class="cls-2" d="M156.61,112c-3.29-.61-7.07-.09-7.07,4.37v16c0,2.58,1.1,5.36,7,6s32.08,4.43,36.63,4.79,4.8-3,4.67-6,.12-11.18,0-13.23-.48-4-4.67-5S159.89,112.57,156.61,112Z"/><path id="Caminho_1984" data-name="Caminho 1984" class="cls-2" d="M159.51,139.92c-3.43-.29-9.86-1.52-19.71.46s-28.45,6-31.66,6.77-2,3,2.29,3.4,19.51,1.09,22.48,1.24a77.35,77.35,0,0,0,12.36-.64c3.77-.57,34.8-4.55,37.86-5s2.31-2.85-3.3-3.59-16.89-2.31-20.32-2.6Z"/><path id="Caminho_1985" data-name="Caminho 1985" class="cls-2" d="M207.18,81.74c0-5.62-.4-14.37,5.75-11.82s67.27,28.89,71.35,30.59,6.09,5.13,6.09,15.12v73.85c0,3.48-.84,6.5-6.73,9.74s-64.13,35.15-67.42,37-9,.49-9-8.6Z"/></g></g><g id="Grupo_4028" data-name="Grupo 4028"><path id="Caminho_1986" data-name="Caminho 1986" class="cls-3" d="M168.66,79.64c1.91-.51,2.05-2,.81-2.84s-3.42-4.06-5.85-3.34-2.56,3.2-2.56,5.14A2.43,2.43,0,0,0,163.55,81a2.35,2.35,0,0,0,.74-.13c1.38-.36,2.45-.68,4.37-1.2Zm20-34.87c-2.71,1.24-5.21,2.75-3,4.74s6.33,4.84,8.15,8.66,4.54,11.27,7.82,11.29,7.32-2,9.07-2.48,2.72-.3,5.15,1.1,8.93,4.14,10.33,3.92,2-1.53,3.5-1.53,2.74.82,2.74-2.68V51.92c0-2.07-.93-3.71-3.26-5.16s-6.74-2.74-8.46-1.24S218.54,44,218.1,42s-2.48-6.48-5.7-8.13q-3.22-1.65-6.9,2.87a42.17,42.17,0,0,1-5.05,4.77c-2.53,2-9.13,2-11.84,3.23Z"/><path id="Caminho_1987" data-name="Caminho 1987" class="cls-4" d="M231.81,78.08c2,.73,7.39,3.32,5.25,8.69s-5.71,10.77-3.93,13.83,10.47,8,14.83,2.62,3.2-11.42,5.81-14.07a3.34,3.34,0,0,1,2.45-1.05c.5,0-.16-2.83-.16-4,0-4.34-11.29-6.92-15-6.8-1.72.05,1.45,2.13,0,2.13-2.66,0-10.33-1.75-9.3-1.37Z"/><g id="Grupo_4027" data-name="Grupo 4027"><g id="Grupo_4025" data-name="Grupo 4025"><path id="Caminho_1988" data-name="Caminho 1988" class="cls-5" d="M155.55,69.58a.51.51,0,0,0-.13-.69.5.5,0,0,0-.67.09l-1,1.31a50.49,50.49,0,0,1-4.42,5.57,12.43,12.43,0,0,1-5.06,3.49c-2.1.7-7-1.55-12.11-5.93a68.74,68.74,0,0,1-16.46-21.77.51.51,0,0,0-.68-.19.5.5,0,0,0-.21.63,69.55,69.55,0,0,0,16.71,22.09c5.4,4.59,10.53,7,13.07,6.11a13.37,13.37,0,0,0,5.46-3.74,50.22,50.22,0,0,0,4.5-5.67Z"/><path id="Caminho_1989" data-name="Caminho 1989" class="cls-5" d="M137,62.83a.5.5,0,0,1,.36.93,5.39,5.39,0,0,1-4.31,0,.51.51,0,0,1-.28-.34l-2-8.33a.51.51,0,0,1,.33-.63.5.5,0,0,1,.62.34.14.14,0,0,1,0,.06L133.64,63A4.54,4.54,0,0,0,137,62.83Z"/><ellipse id="Elipse_72" data-name="Elipse 72" class="cls-5" cx="154.72" cy="49.4" rx="1.12" ry="1.11" transform="translate(-3.34 86.74) rotate(-31)"/><path id="Caminho_1990" data-name="Caminho 1990" class="cls-5" d="M154.81,66.75A2.73,2.73,0,1,0,152.08,64,2.72,2.72,0,0,0,154.81,66.75Zm0-1A1.73,1.73,0,1,1,156.55,64a1.73,1.73,0,0,1-1.74,1.73Z"/><path id="Caminho_1991" data-name="Caminho 1991" class="cls-5" d="M155.34,52.67a.5.5,0,0,0-1,0v9.1a.5.5,0,0,0,.47.53.5.5,0,0,0,.53-.47V52.67Z"/><path id="Caminho_1992" data-name="Caminho 1992" class="cls-5" d="M124.7,28.73a.5.5,0,0,0-.86.51c5.92,9.84,12.42,13.06,22.69,13.11A.5.5,0,0,0,147,42,7.3,7.3,0,1,1,153.43,52a.5.5,0,0,0-.56.43.51.51,0,0,0,.44.56h.07a8.29,8.29,0,1,0-7.17-11.6C136.46,41.24,130.36,38.15,124.7,28.73ZM174.3,43a.51.51,0,0,0-.83.58h0a2.4,2.4,0,0,1,.18.26,4.54,4.54,0,0,1-1.59,6.22,4.49,4.49,0,0,1-2.65.62.5.5,0,0,0-.15,1h.07a5.54,5.54,0,0,0,5.18-8.35Z"/><path id="Caminho_1993" data-name="Caminho 1993" class="cls-5" d="M164.31,16.92a.5.5,0,0,0-.49.51.5.5,0,0,0,.44.49,14.52,14.52,0,0,1,9.36,24.94.5.5,0,0,0,.65.76l0,0a15.52,15.52,0,0,0-10-26.65Z"/><path id="Caminho_1994" data-name="Caminho 1994" class="cls-5" d="M135.53,8.53a.51.51,0,0,0,.26.66.52.52,0,0,0,.63-.2,14.61,14.61,0,0,1,25.49-.94,14.4,14.4,0,0,1,2,9.13.5.5,0,0,0,.4.59.51.51,0,0,0,.59-.4.17.17,0,0,1,0-.07,15.58,15.58,0,0,0-29.35-8.77ZM121.66,62.58a.5.5,0,0,0,.14-.69.51.51,0,0,0-.7-.14l0,0a16.13,16.13,0,0,1-1.39.94,14.53,14.53,0,0,1-15.5-24.58.5.5,0,0,0-.55-.84,15.53,15.53,0,0,0,16.56,26.28,16.93,16.93,0,0,0,1.49-1Z"/><path id="Caminho_1995" data-name="Caminho 1995" class="cls-5" d="M103.51,37.85a.51.51,0,0,0,.7.14.5.5,0,0,0,.14-.69c-.19-.28-.36-.56-.53-.84A21.33,21.33,0,0,1,135.61,9a.5.5,0,0,0,.69-.73l-.05,0A22.33,22.33,0,0,0,103,37C103.14,37.27,103.32,37.57,103.51,37.85ZM109,52.43a.5.5,0,1,0-.09,1H109q11.51.27,22.17-16.24a.5.5,0,0,0-.84-.54c-6.95,10.72-14,16-21.31,15.78Zm49.39-1.73a.5.5,0,0,0-.47.52.52.52,0,0,0,.47.48h19.66a.5.5,0,0,0,.52-.48.49.49,0,0,0-.47-.52H158.41Zm-3.19,18a.5.5,0,0,0-.47.53.51.51,0,0,0,.47.47H168.6a.5.5,0,0,0,.47-.53.49.49,0,0,0-.47-.47Zm-13.34,1a.5.5,0,0,0,.7.72l0,0,6-6.58a.52.52,0,0,0-.07-.71.49.49,0,0,0-.67,0Z"/></g><g id="Grupo_4026" data-name="Grupo 4026"><ellipse id="Elipse_73" data-name="Elipse 73" class="cls-5" cx="138.06" cy="52.31" rx="1.13" ry="1" transform="translate(-7.22 78.58) rotate(-31)"/><ellipse id="Elipse_74" data-name="Elipse 74" class="cls-5" cx="129.39" cy="58.69" rx="1.13" ry="1" transform="translate(-11.74 75.02) rotate(-31)"/></g><path id="Caminho_1996" data-name="Caminho 1996" class="cls-5" d="M172,51.62a.5.5,0,0,1-.67-.73q10.21-9.35,25.73-11.1a.5.5,0,0,1,.58.41.49.49,0,0,1-.41.57h-.06Q182,42.51,172,51.63Z"/><path id="Caminho_1997" data-name="Caminho 1997" class="cls-5" d="M242.43,71.11a.5.5,0,0,1,1,0v.27h-1Zm0-23c0-26.48-1.39-31-9.77-31-8.8,0-36.38,20.76-37.54,28.09-.45,2.82.13,4.87,1.45,6.35a.5.5,0,1,1-.7.72l0-.05c-1.53-1.71-2.19-4.07-1.7-7.18,1.24-7.84,29.27-28.93,38.53-28.93,5,0,7.59,1.74,9,6.4,1.34,4.33,1.75,11.08,1.75,25.58V71.38h-1V48.06Z"/><path id="Caminho_1998" data-name="Caminho 1998" class="cls-5" d="M230.5,31.84a.5.5,0,1,1,1,0V70.47a.5.5,0,1,1-1,0Z"/><path id="Caminho_1999" data-name="Caminho 1999" class="cls-5" d="M209.43,50.67a.5.5,0,0,1-.33-.94A13.31,13.31,0,0,0,213.49,47q2.35-2.1,20.94-18.94a.5.5,0,0,1,.71,0,.49.49,0,0,1,0,.7s0,0,0,0q-18.58,16.85-20.94,19A14.33,14.33,0,0,1,209.43,50.67Z"/><path id="Caminho_2000" data-name="Caminho 2000" class="cls-5" d="M218.15,46.63a.5.5,0,0,1-1,0c.32-9.14-3.72-15-12.22-17.57a.51.51,0,0,1-.29-.64.5.5,0,0,1,.59-.31C214.16,30.83,218.48,37.06,218.15,46.63Zm21.12,29.84a.5.5,0,0,1,.81-.59l0,.06Q244.06,82.1,242,88.1c-.22.6-.44,1.19-.68,1.79-.07.15-2,4.53-2.23,5.38-.35,1.24-.14,1.84.85,2.29,2.31,1,5.34-2.52,6.49-7.36a32.94,32.94,0,0,0,1.08-7,.5.5,0,0,1,.5-.5.51.51,0,0,1,.5.5,34.34,34.34,0,0,1-1.1,7.21c-1.28,5.37-4.76,9.46-7.88,8-1.48-.68-1.87-1.79-1.4-3.47.26-.93,2.23-5.41,2.27-5.49q.36-.89.66-1.74C242.31,84.09,241.74,80.34,239.27,76.47Z"/><path id="Caminho_2001" data-name="Caminho 2001" class="cls-5" d="M240.8,98.14a.5.5,0,1,1,1,.2s0,0,0,.06c-.49,1.78.08,2.82,1.81,3.34,2.37.71,6.65-5,7.7-10a29.94,29.94,0,0,0,.77-8,.5.5,0,0,1,.47-.53.5.5,0,0,1,.53.47,30.76,30.76,0,0,1-.79,8.22c-1.15,5.49-5.8,11.67-8.95,10.73-2.26-.68-3.12-2.26-2.5-4.56Z"/><path id="Caminho_2002" data-name="Caminho 2002" class="cls-5" d="M246.35,101a.5.5,0,0,1,.94-.34,1.76,1.76,0,0,0,2,1.22c1.12-.06,2.73-1.55,4-4a27.81,27.81,0,0,0,2.53-12.51c0-5.07-2-8.72-5.43-11A16.71,16.71,0,0,0,240.18,72c-4.45.37-6.54.22-8.87-.44L229.54,71c-1.67-.49-2.81-.22-3.54.78a.51.51,0,0,1-.69.16.5.5,0,0,1-.15-.69l0-.06c1-1.37,2.58-1.74,4.62-1.14l1.77.53c2.2.63,4.17.77,8.5.41a17.62,17.62,0,0,1,10.83,2.55c3.75,2.45,5.89,6.41,5.89,11.82a28.71,28.71,0,0,1-2.65,13c-1.42,2.77-3.28,4.49-4.84,4.57a2.72,2.72,0,0,1-3-1.87ZM178.19,46.74a.51.51,0,0,1-.36-.61.5.5,0,0,1,.61-.36l.05,0q11.65,3.66,18.2,23.13a.49.49,0,0,1-.34.61.5.5,0,0,1-.6-.29Q189.32,50.21,178.19,46.74ZM162.71,70a.5.5,0,0,1,0-.71.5.5,0,0,1,.71,0l0,0a29.12,29.12,0,0,0,6.18,5.22,19.26,19.26,0,0,0,1.85,1l.49.2.16.06a.49.49,0,0,1,.36.6.51.51,0,0,1-.61.37l-.05,0c-.26-.09-.51-.19-.76-.3a18.45,18.45,0,0,1-2-1,30,30,0,0,1-6.4-5.39Z"/><path id="Caminho_2003" data-name="Caminho 2003" class="cls-5" d="M161.82,69.05a.5.5,0,1,1,.8.6s0,0-.05,0c-3,3.51-4.18,6.88-3.53,10.14a.5.5,0,0,1-.43.56.49.49,0,0,1-.55-.36c-.72-3.6.55-7.26,3.76-11Zm58.25-26.66.28-1q7.26,2.15,11.07,5.85l-.7.71q-3.61-3.51-10.66-5.6Z"/></g></g></g></svg>