<svg xmlns="http://www.w3.org/2000/svg" width="248.095" height="257.601" viewBox="0 0 248.095 257.601"><defs><style>.a{fill:rgba(216,216,216,0);}.b,.e{fill:#2cb6c5;}.c{fill:rgba(44,182,197,0.4);}.d{fill:rgba(44,182,197,0.2);}.e{opacity:0.4;}.f{fill:rgba(44,182,197,0.6);}.g,.i{fill:#262254;}.g{opacity:0.2;}.h{fill:#fff;}</style></defs><g transform="translate(0 30.018)"><rect class="a" width="248.095" height="248.095" rx="2" transform="translate(0 -20.512)"/><g transform="translate(0 34.807)"><path class="b" d="M471.269,163.145,400.517,132.8a.419.419,0,0,1,.331-.77l71.006,30.45a.419.419,0,0,1,.254.385v78.306a.419.419,0,0,1-.218.368l-71.006,38.893a.419.419,0,0,1-.321.034l-14.646-4.376a.419.419,0,0,1,.24-.8l14.478,4.326,70.635-38.69Z" transform="translate(-224.013 -132)"/><path class="b" d="M275.486,170.966a.419.419,0,0,1-.838,0V150.249a.419.419,0,0,1,.3-.4L336.1,132.14a.419.419,0,0,1,.281.017l25.706,10.94a.419.419,0,1,1-.328.771l-25.569-10.882-60.705,17.576v20.4Zm-.838,32.707a.419.419,0,0,1,.838,0V245.58a.419.419,0,1,1-.838,0Z" transform="translate(-159.549 -132.072)"/><path class="b" d="M168.275,427.83V408.719l-49.986-7.281L.838,431.3v27.916l71.34,20.624,96.1-52.008ZM72.11,480.692.3,459.933a.419.419,0,0,1-.3-.4V430.973a.419.419,0,0,1,.316-.406l117.847-29.962a.419.419,0,0,1,.163-.008l50.428,7.345a.419.419,0,0,1,.359.415V428.08a.419.419,0,0,1-.22.369L72.426,480.658a.419.419,0,0,1-.316.034Z" transform="translate(0 -288.031)"/><path class="b" d="M71.679,489.287.606,473.588a.419.419,0,1,1,.181-.818l71.4,15.772a.419.419,0,0,1,.329.409v32.942a.419.419,0,0,1-.838,0Z" transform="translate(-0.161 -329.954)"/><path class="b" d="M267.51,418.15a.419.419,0,1,1,.312.778l-96.733,38.794a.419.419,0,1,1-.312-.778L267.51,418.15Z" transform="translate(-99.054 -298.213)"/><path class="b" d="M92.315,284.609a.419.419,0,0,1-.231-.805l79.684-22.848a.419.419,0,0,1,.2-.007l18.86,3.993a.419.419,0,0,1-.173.82L171.9,261.79,92.316,284.609Zm138.132-3.84a.419.419,0,1,1-.838,0V133.626a.419.419,0,0,1,.838,0ZM172.079,154.783v15.944a.419.419,0,1,1-.838,0V154.456a.419.419,0,0,1,.318-.406L221.9,141.514a.419.419,0,0,1,.521.406V256.358a.419.419,0,1,1-.838,0v-113.9Z" transform="translate(-53.323 -132.701)"/><path class="b" d="M281.373,302.949a.419.419,0,0,1,.838,0v56.886a.419.419,0,0,1-.838,0Z" transform="translate(-163.456 -231.064)"/><path class="b" d="M279.746,277.488a.419.419,0,0,1,0,.83L229.9,285.386l-.086,0-37.693-2.447a.419.419,0,0,1-.061-.828l46.615-10.041a.42.42,0,0,1,.143-.005Zm-40.962-4.581L195.179,282.3l34.65,2.25,46.777-6.632-37.822-5.011Z" transform="translate(-111.381 -213.365)"/><path class="b" d="M191.885,249.915a.419.419,0,1,1-.838,0V230.024a.419.419,0,0,1,.3-.4l46.695-13.674a.419.419,0,0,1,.236.8l-46.393,13.586Z" transform="translate(-110.983 -180.757)"/><path class="b" d="M291.341,239.9a.419.419,0,1,1-.838,0V216.489a.419.419,0,0,1,.5-.412l41.079,7.885a.419.419,0,0,1-.158.823L291.341,217v22.9Zm40.768,34.673a.419.419,0,1,1-.018.838l-50.338-1.119a.419.419,0,1,1,.018-.838Z" transform="translate(-163.437 -180.838)"/><g transform="translate(137.039 20.116)"><path class="b" d="M330.772,187.543a3.772,3.772,0,1,1,3.772-3.772A3.772,3.772,0,0,1,330.772,187.543Zm0-.838a2.934,2.934,0,1,0-2.934-2.934A2.934,2.934,0,0,0,330.772,186.705Z" transform="translate(-327 -180)"/><path class="b" d="M335.156,180.865l.36.757a2.935,2.935,0,0,0-.014,5.3l-.363.756a3.773,3.773,0,0,1,.018-6.81Z" transform="translate(-330.486 -180.503)"/></g><g transform="translate(98.484 45.261)"><path class="b" d="M238.772,247.543a3.772,3.772,0,1,1,3.772-3.772A3.772,3.772,0,0,1,238.772,247.543Zm0-.838a2.934,2.934,0,1,0-2.934-2.934A2.934,2.934,0,0,0,238.772,246.705Z" transform="translate(-235 -240)"/><path class="b" d="M243.156,240.865l.36.757a2.935,2.935,0,0,0-.014,5.3l-.363.756a3.773,3.773,0,0,1,.018-6.81Z" transform="translate(-238.486 -240.502)"/></g><g transform="translate(29.336 153.383)"><path class="b" d="M75.448,508.9a5.448,5.448,0,1,1,5.448-5.448A5.448,5.448,0,0,1,75.448,508.9Zm0-.838a4.61,4.61,0,1,0-4.61-4.61A4.61,4.61,0,0,0,75.448,508.058Z" transform="translate(-70 -498)"/><path class="b" d="M82.115,499.249l.359.757a4.612,4.612,0,0,0-.021,8.324l-.363.755a5.45,5.45,0,0,1,.027-9.837Z" transform="translate(-75.228 -498.725)"/></g><g transform="translate(137.039 71.663)"><path class="b" d="M330.772,310.543a3.772,3.772,0,1,1,3.772-3.772A3.772,3.772,0,0,1,330.772,310.543Zm0-.838a2.934,2.934,0,1,0-2.934-2.934A2.934,2.934,0,0,0,330.772,309.705Z" transform="translate(-327 -303)"/><path class="b" d="M335.156,303.865l.36.757a2.935,2.935,0,0,0-.014,5.3l-.363.756a3.773,3.773,0,0,1,.018-6.81Z" transform="translate(-330.486 -303.502)"/></g><g transform="translate(137.039 95.55)"><path class="b" d="M330.772,367.543a3.772,3.772,0,1,1,3.772-3.772A3.772,3.772,0,0,1,330.772,367.543Zm0-.838a2.934,2.934,0,1,0-2.934-2.934A2.934,2.934,0,0,0,330.772,366.705Z" transform="translate(-327 -360)"/><path class="b" d="M335.156,360.865l.36.757a2.935,2.935,0,0,0-.014,5.3l-.363.756a3.773,3.773,0,0,1,.018-6.81Z" transform="translate(-330.486 -360.503)"/></g><g transform="translate(8.476 3.348)"><path class="c" d="M86.916,454.2a8.345,8.345,0,0,0-4.762,8.018v20.709c0,2.611,1.559,4.7,4.762,3.042s84.836-45.863,87.885-47.6,3.614-4.547,3.614-7.139V421.09a2.4,2.4,0,0,0-3.614-2.012q-2.169,1.115-87.885,35.12Zm-62.7-18.345c-4.812,1.325-5.127,4.643-1.729,5.316s17.6,3.733,20.776,4.5a24.7,24.7,0,0,0,11.636-.525c3.9-1.124,66.979-19.031,69.412-19.593s4.213-1.929,4.213-4.79v-8.08c0-.973-1.387-2.623-4.213-1.875s-95.284,23.727-100.1,25.051Z" transform="translate(-20.225 -297.199)"/><path class="d" d="M186.193,448.593a27.161,27.161,0,0,0-11.742.508c-4.7,1.215-60.825,16.926-63.9,17.865s-5.756,3.348-2.439,4.187,14.731,3.425,17.7,4.017a30.276,30.276,0,0,0,15.732-1.87c6.113-2.537,48.336-19.593,50.929-20.509s1.888-2.535,0-2.908-3.147-.739-6.279-1.291Z" transform="translate(-70.391 -319.022)"/><path class="e" d="M305.617,224.92c-2.76-.511-5.939-.075-5.939,3.671v13.429c0,2.175.929,4.508,5.913,5.044s26.948,3.724,30.77,4.022,4.025-2.493,3.923-5.066.1-9.385,0-11.109-.4-3.353-3.923-4.191S308.378,225.43,305.617,224.92Z" transform="translate(-182.565 -189.225)"/><path class="f" d="M257.741,280.432a48.536,48.536,0,0,0-16.553.383c-8.27,1.662-23.9,5.05-26.591,5.691s-1.693,2.5,1.927,2.855,16.383.913,18.881,1.038a64.184,64.184,0,0,0,10.381-.54c3.16-.472,29.222-3.82,31.793-4.233s1.938-2.392-2.771-3.008-14.183-1.94-17.066-2.186Z" transform="translate(-132.251 -221.259)"/><path class="c" d="M415.2,150.3c0-4.716-.335-12.067,4.83-9.928s56.491,24.266,59.925,25.694,5.112,4.3,5.112,12.7v62.025c0,2.929-.706,5.464-5.649,8.183s-53.867,29.522-56.628,31.1-7.59.415-7.59-7.225V150.3Z" transform="translate(-249.67 -139.988)"/></g></g><g transform="translate(66.394 -35.309)"><path class="g" d="M329.154,106.612c1.609-.433,1.727-1.676.686-2.385s-2.879-3.415-4.914-2.8-2.154,2.69-2.154,4.317a2.04,2.04,0,0,0,2.717,1.875c1.153-.3,2.056-.57,3.664-1Zm16.754-29.285c-2.275,1.042-4.374,2.3-2.527,3.981s5.321,4.065,6.844,7.271,3.82,9.47,6.571,9.481,6.145-1.665,7.618-2.084,2.288-.246,4.328.925,7.5,3.483,8.675,3.3,1.688-1.287,2.936-1.287,2.3.689,2.3-2.246V83.335c0-1.743-.776-3.117-2.734-4.334s-5.66-2.3-7.1-1.046-1.769-1.27-2.138-2.934-2.08-5.442-4.788-6.828q-2.707-1.386-5.8,2.412a34.691,34.691,0,0,1-4.24,4c-2.127,1.671-7.665,1.675-9.94,2.717Z" transform="translate(-253.899 -24.603)"/><path class="h" d="M464.446,156.357c1.647.617,6.207,2.788,4.409,7.3s-4.794,9.048-3.3,11.613,8.789,6.684,12.454,2.2,2.69-9.6,4.877-11.822a2.826,2.826,0,0,1,2.063-.88c.419,0-.14-2.374-.14-3.345,0-3.646-9.482-5.813-12.558-5.714-1.451.046,1.212,1.789,0,1.789-2.236,0-8.679-1.472-7.808-1.145Z" transform="translate(-336.153 -75.658)"/><g transform="translate(97.085 60.541) rotate(149)"><path class="i" d="M.264,3.192a.419.419,0,0,0,.311.779c.384-.154.779-.315,1.277-.521a42.614,42.614,0,0,1,5.594-2.1,10.471,10.471,0,0,1,5.149-.322c1.811.4,4.337,4.123,6.148,9.507a57.629,57.629,0,0,1,2.431,22.794.419.419,0,0,0,.835.07,58.458,58.458,0,0,0-2.471-23.132C17.638,4.624,14.974.7,12.776.211A11.279,11.279,0,0,0,7.222.544a43.231,43.231,0,0,0-5.69,2.131C1.037,2.88.645,3.039.264,3.192Z" transform="translate(34.59 2.563)"/><path class="i" d="M.35.833A.419.419,0,0,1,.489.006,4.521,4.521,0,0,1,3.607,1.844a.419.419,0,0,1,.056.365L1.5,9.079a.419.419,0,1,1-.8-.251L2.8,2.161A3.757,3.757,0,0,0,.35.832Z" transform="translate(44.967 17.823)"/><ellipse class="i" cx="0.94" cy="0.935" rx="0.94" ry="0.935" transform="translate(25.783 19.706)"/><path class="i" d="M3.475.33a2.29,2.29,0,1,0,.791,3.146A2.294,2.294,0,0,0,3.475.33Zm-.432.718a1.451,1.451,0,1,1-2,.492,1.456,1.456,0,0,1,2-.492Z" transform="translate(30.686 7.777)"/><path class="i" d="M.06,6.76a.419.419,0,0,0,.719.432L4.718.635A.419.419,0,1,0,4,.2Z" transform="translate(27.631 11.264)"/><path class="i" d="M29.527,36.7a.419.419,0,0,0,.838,0c0-9.642-3.292-14.774-10.67-19.25a.419.419,0,0,0-.474.027A6.128,6.128,0,1,1,18.89,7.55a.419.419,0,1,0,.467-.7A6.966,6.966,0,1,0,19.5,18.313C26.472,22.609,29.527,27.475,29.527,36.7ZM.011,4.95a.419.419,0,0,0,.836-.058Q.838,4.76.838,4.628a3.812,3.812,0,0,1,6.014-3.09A.419.419,0,1,0,7.336.854,4.651,4.651,0,0,0,0,4.628q0,.162.011.323Z" transform="translate(9.864 11.805)"/><path class="i" d="M5.767,23.524a.419.419,0,0,0,.469-.7,12.19,12.19,0,0,1,4.05-22,.419.419,0,1,0-.191-.816A13.028,13.028,0,0,0,5.767,23.524Z" transform="translate(0 16.346)"/><path class="i" d="M20.04,33a.419.419,0,0,0-.443-.712A12.276,12.276,0,0,1,.838,21.93,12.114,12.114,0,0,1,3.369,14.5a.419.419,0,1,0-.664-.512A13.035,13.035,0,0,0,13.1,34.976,13.082,13.082,0,0,0,20.04,33ZM53.4.085a.419.419,0,1,0,.1.833A12.478,12.478,0,0,1,54.9.838a12.206,12.206,0,0,1,.526,24.4.419.419,0,1,0,.035.837A13.044,13.044,0,0,0,54.9,0,13.3,13.3,0,0,0,53.4.085Z" transform="translate(2.818 25.366)"/><path class="i" d="M48.319,51.1a.419.419,0,1,0-.837.039q.019.414.019.83a17.914,17.914,0,0,1-34.761,6,.419.419,0,1,0-.789.283,18.752,18.752,0,0,0,36.387-6.279Q48.339,51.537,48.319,51.1Zm2.344-12.877a.419.419,0,0,0,.449-.708c-5.442-3.45-13.11-2.73-22.98,2.1a.419.419,0,1,0,.369.753c9.635-4.713,17.015-5.406,22.162-2.142ZM14.352,18.109a.419.419,0,0,0,.432-.719L.635,8.889A.419.419,0,0,0,.2,9.608l14.149,8.5ZM24.413,6.566a.419.419,0,0,0,.432-.719L15.213.06a.419.419,0,0,0-.432.719ZM34.43,11.646a.419.419,0,1,0-.243-.8L27.051,13a.419.419,0,0,0,.243.8Z" transform="translate(10.273 0)"/></g><g transform="translate(51.237 60.006) rotate(149)"><ellipse class="i" cx="0.948" cy="0.838" rx="0.948" ry="0.838" transform="translate(0 0.838)"/><ellipse class="i" cx="0.948" cy="0.838" rx="0.948" ry="0.838" transform="translate(9.001 0)"/></g><path class="i" d="M343.732,90.446a.419.419,0,0,1-.566-.619q8.578-7.844,21.612-9.325a.419.419,0,0,1,.094.833q-12.773,1.452-21.14,9.111Z" transform="translate(-265.667 -31.967)"/><path class="i" d="M429.431,79.218a.419.419,0,0,1,.838,0v.23h-.838Zm0-19.361c0-22.24-1.166-26.019-8.21-26.019-7.384,0-30.553,17.438-31.527,23.591a6.139,6.139,0,0,0,1.222,5.337.419.419,0,1,1-.624.559,6.962,6.962,0,0,1-1.425-6.027c1.041-6.584,24.578-24.3,32.355-24.3,4.2,0,6.374,1.46,7.581,5.373,1.123,3.641,1.466,9.307,1.466,21.484V79.448h-.838V59.857Z" transform="translate(-292.216 -4.373)"/><path class="i" d="M461.938,64.005a.419.419,0,0,1,.838,0V96.448a.419.419,0,1,1-.838,0Z" transform="translate(-334.743 -22.141)"/><path class="i" d="M418.94,75.793a.419.419,0,1,1-.275-.792,11.166,11.166,0,0,0,3.685-2.33q1.974-1.77,17.586-15.907a.419.419,0,0,1,.563.621Q424.886,71.524,422.91,73.3A11.979,11.979,0,0,1,418.94,75.793Z" transform="translate(-309.442 -18.116)"/><path class="i" d="M421.391,72.6a.419.419,0,1,1-.838-.029c.272-7.672-3.126-12.557-10.257-14.754a.419.419,0,0,1,.246-.8C418.039,59.327,421.676,64.555,421.391,72.6Zm17.743,25.062a.419.419,0,1,1,.707-.451c2.2,3.452,2.726,6.869,1.546,10.215q-.268.757-.571,1.5c-.054.132-1.675,3.806-1.872,4.522-.288,1.042-.114,1.545.717,1.923,1.937.88,4.487-2.118,5.452-6.177a27.391,27.391,0,0,0,.9-5.861.419.419,0,1,1,.838,0,28.094,28.094,0,0,1-.925,6.055c-1.071,4.5-3.991,7.938-6.614,6.747-1.245-.565-1.568-1.5-1.178-2.909.217-.785,1.875-4.542,1.9-4.614.2-.5.386-.981.557-1.464,1.09-3.092.609-6.241-1.463-9.485Z" transform="translate(-304.571 -18.315)"/><path class="i" d="M482.34,180.156a.419.419,0,1,1,.809.22,1.989,1.989,0,0,0,1.525,2.8c1.985.594,5.581-4.2,6.463-8.382a25.158,25.158,0,0,0,.644-6.679.419.419,0,1,1,.836-.054,25.972,25.972,0,0,1-.66,6.906c-.972,4.609-4.872,9.8-7.524,9.011a2.807,2.807,0,0,1-2.094-3.826Z" transform="translate(-346.499 -82.607)"/><path class="i" d="M396.162,138.88a.419.419,0,0,1,.79-.282,1.464,1.464,0,0,0,1.663,1.017c.942-.048,2.294-1.3,3.365-3.384a23.292,23.292,0,0,0,2.131-10.506c0-4.257-1.653-7.321-4.567-9.224a13.967,13.967,0,0,0-8.565-2.007c-3.732.308-5.489.185-7.445-.376-.26-.075-1.248-.377-1.487-.447-1.4-.411-2.362-.185-2.973.653a.419.419,0,1,1-.678-.493c.84-1.154,2.168-1.467,3.886-.964.247.072,1.231.374,1.483.446,1.849.531,3.507.647,7.144.347A14.793,14.793,0,0,1,400,115.8c3.151,2.057,4.946,5.385,4.946,9.925a24.1,24.1,0,0,1-2.224,10.889c-1.193,2.324-2.759,3.772-4.068,3.839a2.291,2.291,0,0,1-2.495-1.572Zm-57.24-45.572a.419.419,0,1,1,.251-.8q9.781,3.08,15.286,19.426a.419.419,0,0,1-.794.268Q348.264,96.222,338.922,93.308ZM325.916,112.8a.419.419,0,1,1,.617-.567,24.448,24.448,0,0,0,5.192,4.379,13.864,13.864,0,0,0,1.551.826c.158.07.3.127.412.171.067.025.111.04.129.046a.419.419,0,1,1-.251.8,6.524,6.524,0,0,1-.632-.251,14.7,14.7,0,0,1-1.647-.876,25.281,25.281,0,0,1-5.373-4.528Z" transform="translate(-255.657 -38.931)"/><path class="i" d="M319.692,107a.419.419,0,0,1,.634.548c-2.54,2.944-3.518,5.775-2.971,8.513a.419.419,0,0,1-.821.164c-.6-3.017.462-6.1,3.158-9.225Zm48.921-22.391.238-.8a22.188,22.188,0,0,1,9.3,4.909l-.584.6a21.394,21.394,0,0,0-8.953-4.707Z" transform="translate(-250.18 -33.888)"/></g></g></svg>