<svg id="face_recog" xmlns="http://www.w3.org/2000/svg" width="24" height="23.701" viewBox="0 0 24 23.701">
  <g id="Grupo_4301" data-name="Grupo 4301" transform="translate(5.376 9.453)">
    <g id="Grupo_4300" data-name="Grupo 4300">
      <path id="Caminho_2948" data-name="Caminho 2948" d="M16.9,24.5a3.75,3.75,0,0,1,.1-1.1.752.752,0,0,0-1.5-.1c0,.4-.1.9-.1,1.3a5.283,5.283,0,0,0,.1,1.3c.1.4.4.7.8.6s.7-.4.6-.8Z" transform="translate(-15.4 -22.6)" fill="#0c9abe" fill-rule="evenodd"/>
    </g>
  </g>
  <g id="Grupo_4303" data-name="Grupo 4303" transform="translate(10.13 3.783)">
    <g id="Grupo_4302" data-name="Grupo 4302">
      <path id="Caminho_2949" data-name="Caminho 2949" d="M23.4,17a5.283,5.283,0,0,0-1.3-.1,5.283,5.283,0,0,0-1.3.1c-.4.1-.7.4-.6.8s.4.7.8.6c.3,0,.7-.1,1.1-.1a3.75,3.75,0,0,1,1.1.1.707.707,0,1,0,.2-1.4Z" transform="translate(-20.181 -16.9)" fill="#0c9abe" fill-rule="evenodd"/>
    </g>
  </g>
  <g id="Grupo_4305" data-name="Grupo 4305" transform="translate(15.089 4.796)">
    <g id="Grupo_4304" data-name="Grupo 4304">
      <path id="Caminho_2950" data-name="Caminho 2950" d="M28,20.3a5.951,5.951,0,0,0-1.7-2.2.668.668,0,0,0-1,.1.758.758,0,0,0,.1,1,4.813,4.813,0,0,1,1.2,1.6.819.819,0,0,0,1,.4A.608.608,0,0,0,28,20.3Z" transform="translate(-25.161 -17.919)" fill="#0c9abe" fill-rule="evenodd"/>
    </g>
  </g>
  <g id="Grupo_4307" data-name="Grupo 4307" transform="translate(6.37 14.628)">
    <g id="Grupo_4306" data-name="Grupo 4306">
      <path id="Caminho_2951" data-name="Caminho 2951" d="M19.1,30.1a9.064,9.064,0,0,1-1.3-1.9.738.738,0,1,0-1.3.7A8.554,8.554,0,0,0,18,31.1a.782.782,0,0,0,1.1,0A.758.758,0,0,0,19.1,30.1Z" transform="translate(-16.4 -27.8)" fill="#0c9abe" fill-rule="evenodd"/>
    </g>
  </g>
  <g id="Grupo_4309" data-name="Grupo 4309" transform="translate(6.093 4.895)">
    <g id="Grupo_4308" data-name="Grupo 4308">
      <path id="Caminho_2952" data-name="Caminho 2952" d="M18.9,18.3a.675.675,0,0,0-1-.1,5.951,5.951,0,0,0-1.7,2.2.762.762,0,0,0,1.4.6,4.813,4.813,0,0,1,1.2-1.6A.792.792,0,0,0,18.9,18.3Z" transform="translate(-16.122 -18.019)" fill="#0c9abe" fill-rule="evenodd"/>
    </g>
  </g>
  <g id="Grupo_4311" data-name="Grupo 4311" transform="translate(17.104 9.453)">
    <g id="Grupo_4310" data-name="Grupo 4310">
      <path id="Caminho_2953" data-name="Caminho 2953" d="M28.7,23.3a.752.752,0,1,0-1.5.1c0,.4.1.8.1,1.1a3.75,3.75,0,0,1-.1,1.1.641.641,0,0,0,.6.8c.4,0,.8-.2.8-.6a5.7,5.7,0,0,0,.1-1.3A2.438,2.438,0,0,0,28.7,23.3Z" transform="translate(-27.181 -22.6)" fill="#0c9abe" fill-rule="evenodd"/>
    </g>
  </g>
  <g id="Grupo_4313" data-name="Grupo 4313" transform="translate(9.885 18.339)">
    <g id="Grupo_4312" data-name="Grupo 4312">
      <path id="Caminho_2954" data-name="Caminho 2954" d="M24,32a.7.7,0,0,0-1-.4,3.553,3.553,0,0,1-1,.2,4.4,4.4,0,0,1-1-.2.951.951,0,0,0-1,.4c-.2.3.1.8.4,1a3.9,3.9,0,0,0,3,0C24,32.8,24.2,32.4,24,32Z" transform="translate(-19.935 -31.522)" fill="#0c9abe" fill-rule="evenodd"/>
    </g>
  </g>
  <g id="Grupo_4315" data-name="Grupo 4315" transform="translate(14.805 14.648)">
    <g id="Grupo_4314" data-name="Grupo 4314">
      <path id="Caminho_2955" data-name="Caminho 2955" d="M27.4,27.9a.777.777,0,0,0-1,.3,12.735,12.735,0,0,1-1.3,1.9.778.778,0,1,0,1.1,1.1A8.554,8.554,0,0,0,27.7,29C27.9,28.5,27.8,28.1,27.4,27.9Z" transform="translate(-24.875 -27.819)" fill="#0c9abe" fill-rule="evenodd"/>
    </g>
  </g>
  <g id="Grupo_4317" data-name="Grupo 4317" transform="translate(19.2 18.301)">
    <g id="Grupo_4316" data-name="Grupo 4316">
      <path id="Caminho_2956" data-name="Caminho 2956" d="M33.4,31.5h-1v3.1a.789.789,0,0,1-.8.8H29.3v1.5h2.3a2.263,2.263,0,0,0,2.3-2.3V31.5Z" transform="translate(-29.3 -31.5)" fill="#0c9abe" fill-rule="evenodd"/>
    </g>
  </g>
  <g id="Grupo_4319" data-name="Grupo 4319" transform="translate(0 18.301)">
    <g id="Grupo_4318" data-name="Grupo 4318">
      <path id="Caminho_2957" data-name="Caminho 2957" d="M12.3,35.4a.789.789,0,0,1-.8-.8V31.5H10v3.1a2.263,2.263,0,0,0,2.3,2.3h2.3V35.4Z" transform="translate(-10 -31.5)" fill="#0c9abe" fill-rule="evenodd"/>
    </g>
  </g>
  <g id="Grupo_4321" data-name="Grupo 4321" transform="translate(19.3 0)">
    <g id="Grupo_4320" data-name="Grupo 4320">
      <path id="Caminho_2958" data-name="Caminho 2958" d="M31.7,13.1H29.4v1.5h2.3a.789.789,0,0,1,.8.8v3.1h1.6V15.4A2.414,2.414,0,0,0,31.7,13.1Z" transform="translate(-29.4 -13.1)" fill="#0c9abe" fill-rule="evenodd"/>
    </g>
  </g>
  <g id="Grupo_4323" data-name="Grupo 4323" transform="translate(0)">
    <g id="Grupo_4322" data-name="Grupo 4322">
      <path id="Caminho_2959" data-name="Caminho 2959" d="M12.3,13.1A2.263,2.263,0,0,0,10,15.4v3.1h1.5V15.4a.789.789,0,0,1,.8-.8h2.3V13.1H12.3Z" transform="translate(-10 -13.1)" fill="#0c9abe" fill-rule="evenodd"/>
    </g>
  </g>
</svg>
