<svg xmlns="http://www.w3.org/2000/svg" viewBox="0 0 153.167 187.032">
  <defs>
    <style>
      .cls-1 {
        fill: #00a0db;
      }

      .cls-2 {
        fill: #fff;
      }

      .cls-3 {
        fill: rgba(0,160,219,0.5);
      }
    </style>
  </defs>
  <g id="Untitled-1_copy" data-name="Untitled-1 copy" transform="translate(0.001 -0.005)">
    <path id="Path_17" data-name="Path 17" d="M331.078,126.962a28.459,28.459,0,0,0,1.108-3.485c2.587-13.659,6.517-26.887,13.755-38.841a56.928,56.928,0,0,1,7.711-10.029c7.028-7.286,15.508-9.416,25.2-6.028C393.7,73.769,402.8,84.561,407.889,98.973c3.936,11.115,4.033,22.273-1.253,33.082-9.142,18.713-18.488,37.335-27.532,56.1-3.6,7.458-6.523,15.234-9.943,22.779-2.5,5.506-4.759,11.233-8.066,16.218-6.991,10.454-16.923,13.4-28.683,9.018A57.409,57.409,0,0,1,310.5,221.943c-.946-1-1.667-.946-2.877-.737-5.958,1.075-11.927,2.549-17.934,2.753-14.089.479-23.069-6.926-25.43-20.816a74.654,74.654,0,0,1-.946-16.923c.618-9.964-.538-19.783-1.3-29.646-1.479-19.192-3-38.379-4.35-57.576-.71-10.077,2.479-19.127,8.5-27.081,10.061-13.288,23.064-21.192,40.234-20.811,10.631.231,17.891,5.48,22.015,15.213a58.994,58.994,0,0,1,4.2,19.821,137,137,0,0,1-2.388,32.662c-.473,2.592-.07,5.34-.07,8.018ZM387.611,166.8c14.627-17.5,8.217-51.026-12.277-65.572-.747,1.979-1.371,3.942-2.221,5.8a3.054,3.054,0,0,0,.624,3.619,89.059,89.059,0,0,1,15.713,31.221c1.613,5.539,2.215,11.051.269,16.67C388.848,161.071,388.38,163.728,387.611,166.8ZM298.083,82.545c-10.8,4.2-20.117,9.986-27.344,18.773-4.049,4.92-7.528,10.346-8.227,16.751s-.5,12.868-.656,19.31a10.906,10.906,0,0,0,.592,2.151c.468-3.485.995-6.238,1.172-9.013a25.557,25.557,0,0,1,5.463-14.035,91.9,91.9,0,0,1,27.172-24.537A3.6,3.6,0,0,0,298,89.794C298.238,87.519,298.083,85.2,298.083,82.545Zm75.628,18.02c-12.675,2.92-24.2,7.082-33.367,16.025-7.491,7.313-15.412,23.86-15.508,33.189,1.382-3.07,2.689-5.695,3.764-8.4,1.613-4.092,3.409-8.039,7.093-10.755q10.674-7.9,21.338-15.81a33.878,33.878,0,0,1,12.4-6.023,2.56,2.56,0,0,0,1.613-1.075C371.979,105.517,372.721,103.269,373.71,100.565Zm-47.079,34.647c8.529-11.524-9.679-46.343-26.618-51.892-.086,1.866-.1,3.694-.28,5.512a3.843,3.843,0,0,0,1.613,3.6,46.909,46.909,0,0,1,7.265,7.528c3.872,5.377,7.528,10.889,10.9,16.584S327.008,127.522,326.631,135.211Zm1.237-52.064c.161-4.334-.129-4.963-2.366-5.13q-26.763-1.957-53.532-3.9c-3.13-.226-4.689,1.151-5.232,4.555Zm78.51,26.07c-.032-4.893-.269-5.243-4.366-6.539L353.7,87.358c-4.087-1.3-4.087-1.3-5.958,2.57a2.473,2.473,0,0,0-.038.672Zm-97.154,91.12,53.742,17.041,2.086-4.571L311.171,195.7Zm79.328-47.321c-.9-.328-1.549-.592-2.2-.8-11.293-3.565-22.585-7.087-33.851-10.706-4.947-1.613-9.819-3.409-14.761-5.022-.9-.3-2.576-.484-2.829-.07a12.4,12.4,0,0,0-1.21,4.049c-.032.177.618.618,1.016.742,6.41,2.006,12.841,3.947,19.251,5.964q14.938,4.7,29.855,9.5c1.21.393,2.092.538,2.8-.774a34.221,34.221,0,0,1,1.936-2.855Zm-65.733-23.042-55.925-4.1c.538,5.039.538,5.028,5.119,5.377l48.214,3.56c.6.043,1.2,0,1.844,0C322.329,133.157,322.534,131.754,322.819,129.974Zm-9.631,62.184,53.451,16.982c.6-1.683,1.075-3.07,1.645-4.646L315.8,187.824Zm23.542-59.775,52.2,16.471c-.124-5.125-.215-5.254-4.522-6.614L344.484,129.6c-4.178-1.317-4.571-1.194-7.77,2.78Zm-14.153-6.453c-1.043-3.764-2.823-5.377-6.776-5.566-13.852-.683-27.678-1.893-41.508-2.952-4.033-.307-4.759.134-6.238,4.517ZM269.91,138.3c.774,5.055.78,5.017,5.351,5.329,5.42.371,10.83.823,16.245,1.221,9.077.667,18.154,1.291,27.226,2.011,2.092.167,2.764-.774,2.6-2.651-.059-.688-.2-1.371-.328-2.215Zm38.513,69.482c-.538,4.017.183,5.227,3.635,6.324L352,226.789c3.883,1.231,4.517.952,6.641-3.081Zm23.585-60.028c-.409,1.226-.769,2.194-1.076,3.178-.35,1.183-.027,1.839,1.312,2.259q20.87,6.453,41.686,13.072c4.372,1.377,4.372,1.382,6.9-2.436.065-.1,0-.28,0-.565Zm-12.433,33.033,51.15,16.224,2.151-4.883c-1.732,0-3.124-.274-4.356.048-3.474.92-5.286.3-7.346-2.689a4.152,4.152,0,0,0-2.049-1.366c-7.588-2.457-15.191-4.84-22.789-7.26l-14.831-4.705ZM267.017,173.4c16.466,1.215,32.695,2.431,48.934,3.576a2.076,2.076,0,0,0,1.64-.85,28.336,28.336,0,0,0,1.468-3.667,6.2,6.2,0,0,0-.952-.28q-18.9-1.393-37.723-2.748a3.081,3.081,0,0,0-1.748.495c-3.226,2.081-4.974,1.941-7.985-.307-.989-.737-2.377-.936-3.9-1.495.091,2.156.188,3.576.247,5.275ZM354.4,79.835l47.407,15.024.629-.817c-1.732-1.952-3.1-4.936-5.254-5.689-12.26-4.275-24.709-8.034-37.1-11.895a3.1,3.1,0,0,0-2.307.4,29.871,29.871,0,0,0-3.388,2.979Zm-29.253-9.2c-1.178-4.84-1.382-5.087-5.738-5.426-11.379-.877-22.784-1.49-34.136-2.64-4.216-.425-6.679,1.581-9.642,4.436ZM313.908,184.7l-47.439-3.458v4.947c14.255,1.032,28.35,1.963,42.417,3.157,2.463.21,3.533-.6,4.248-2.619C313.338,186.146,313.575,185.576,313.908,184.7ZM388.3,157.183l-.317-.151c-.409.538-.828,1.075-1.231,1.613-6.743,8.959-12.669,18.611-21.908,25.414a5.915,5.915,0,0,0-1.14,1.226c-.946,1.258-1.877,2.818-.538,4.055.952.871,2.9,1.694,3.883,1.28A18.208,18.208,0,0,0,373.5,186.4c3.49-3.915,6.528-8.233,9.706-12.422a7.571,7.571,0,0,0,1.334-2.506C385.853,166.718,387.057,161.948,388.3,157.183ZM265.538,129.554a44.707,44.707,0,0,1-.747,4.9c-2.9,10.335.608,19.837,4,29.269.769,2.151,2.8,3.969,4.6,5.539.64.538,2.635.36,3.431-.253a4.107,4.107,0,0,0,1.075-3.291,14.087,14.087,0,0,0-1.613-3.952c-1.538-3.485-3.415-6.856-4.565-10.459C269.518,144.321,267.7,137.228,265.538,129.554Zm52.553,21.268-45.6-3.35c.721,5.012.753,5.039,5.178,5.377,11.223.823,22.445,1.613,33.663,2.49,4.657.333,4.926.226,6.754-4.533Zm13.2,6.114a36.462,36.462,0,0,0,.855,4.34,2.689,2.689,0,0,0,1.436,1.57q18.557,6,37.169,11.83a2.237,2.237,0,0,0,1.877-.333,35.159,35.159,0,0,0,2.785-3.393Zm-64.8,33.275c0,1.323.043,2.345,0,3.366-.07,1.36.6,1.721,1.871,1.807,12.427.877,24.849,1.818,37.276,2.689a2.216,2.216,0,0,0,1.726-.747,37.455,37.455,0,0,0,2.033-3.969ZM304.67,205.4l-36.47-2.689c.86,4.91.86,4.958,5.211,5.3,7.458.586,14.944,1.124,22.429,1.662,2.9.21,5.808.376,8.808.575Zm24.736-60.56-.613-.07c-1.274,3.049-2.64,6.06-3.8,9.142-2.49,6.641-1.683,13.191,1.156,19.477a7.625,7.625,0,0,0,3.8,3.329c2.409,1.022,3.963-.419,3.5-2.968-.366-2.038-1.108-4.006-1.447-6.044q-1.613-9.381-2.931-18.821a16.085,16.085,0,0,1,.3-4.06Zm-14.627-31.791c-1.414-2.011-1.307-5.152-4.657-5.377-8.523-.575-17.063-1.016-25.548-1.963-3.936-.436-5.641,1.769-7.835,4.555Zm33.614,10.05L384.96,134.7c-.661-4.243-2.635-6.415-6.62-7.448a192.288,192.288,0,0,1-20.945-6.668C353.518,119.068,351.179,120.574,348.394,123.1Zm3.151,107.763-38.717-12.277c3.017,3.8,6.152,7.238,10.862,8.69,5.711,1.758,11.475,3.409,17.068,5.5C344.71,234.247,347.867,233.048,351.545,230.865Zm-79.392-18.88c2.716,3.291,5,5.592,9.039,5.695,6.216.161,12.406.952,18.622,1.226a47.65,47.65,0,0,0,7.238-.758c-.462-3.022-1.877-4-4.469-4.049-4.06-.081-8.115-.538-12.174-.833C284.537,212.845,278.659,212.442,272.153,211.985Zm62.625-40.97a23.241,23.241,0,0,0,.436,3.764,3.085,3.085,0,0,0,1.409,1.925c7.942,2.624,15.923,5.141,23.908,7.631a2.253,2.253,0,0,0,1.861-.247,40.916,40.916,0,0,0,3-3.361ZM309.961,162.6l-32.377-2.361a31.955,31.955,0,0,0,1.71,3.764,3.014,3.014,0,0,0,1.812,1.409c8.808.715,17.622,1.323,26.392,1.957Zm13.169-16.519c-2.409,3.845-5.221,8.453-8.163,12.981-1.382,2.151-3.119,4.055-4.447,6.222-.538.877-.946,2.689-.484,3.151a5,5,0,0,0,3.56,1.323c3.28-.237,8.093-5.377,8.357-8.647.446-5.3.839-10.615,1.183-15.03Zm46.106,54.887c-.1-.118-.134-.215-.2-.231l-49.881-15.906c-1.538-.489-1.941.226-2.108,1.613q25.306,8.066,50.429,16.025C369.005,202.94,369.285,202.149,369.236,200.966ZM406.755,118.8c.1-.834.118-1.312.226-1.775.592-2.608-.538-3.727-3.06-4.442-6.13-1.732-12.174-3.8-18.251-5.722-.758-.242-1.522-.43-2.769-.785,1.355,1.737,2.307,3.011,3.323,4.232.8.957,1.516,2.318,2.56,2.689C394.618,115.035,400.554,116.81,406.755,118.8ZM289.409,84.384c-7.8-.581-14.9-1.129-22.01-1.613-3.63-.253-4.474.645-4.469,4.673,4.91.36,9.894.344,14.729,1.188C282.364,89.428,285.317,86.686,289.409,84.384Zm-.538-25.408,30.56,2.237c-5.523-6.695-20.483-7.846-30.544-2.248ZM393.5,82.825c-7.394-8.744-23.161-14.191-29.683-9.41Zm-78.2,98.148q-7.873-.592-15.734-1.167l-30.818-2.237c-1.344-.1-2.737-.237-1.85,1.979,3.226.247,6.512.505,9.771.747l36.072,2.646C314.113,183.043,315.339,183.059,315.3,180.973Zm64.787-57.253c-1.613-4.189-3.673-7.136-8.066-7.792a17.407,17.407,0,0,1-5.463-1.715c-3.689-1.947-6.141,0-8.894,2.4ZM285.4,101.887l23.4,1.678c-1.576-3.888-3.872-5.915-7.937-5.555a17.745,17.745,0,0,1-5.48-.414c-4.194-.973-6.926,1.242-9.98,4.291Zm119.088-.21c.161-.28.328-.538.489-.844a11.205,11.205,0,0,0-2.3-1.441c-6.593-2.151-13.212-4.227-19.816-6.329L353.7,83.793c-1.645-.538-1.651-.5-2.463,1ZM270.846,71.4l.145.963,55.834,4.081.263-.887a6.516,6.516,0,0,0-1.957-.9q-25.924-1.968-51.827-3.807A8.733,8.733,0,0,0,270.846,71.4Zm57.813,20.816c-.086-1.834-.156-3.318-.237-5l-21.407-1.554c1.689,1.457,2.8,2.484,3.979,3.409.979.769,1.99,1.914,3.081,2.038,4.727.532,9.486.747,14.583,1.1Zm14.9,6.512c4.84,1.533,9.287,2.968,13.761,4.356a2.791,2.791,0,0,0,1.613.075c2.232-.731,4.431-1.565,7.1-2.527L345.6,94.149Zm17.057,123.046-.048-.957L308.509,204.3l-.505.747c.511.441.941,1.113,1.533,1.3q24.489,7.824,49.015,15.535A5.778,5.778,0,0,0,360.616,221.771ZM282.7,58.976c4.329-1.533,8.174-3.388,12.228-4.248,18.353-3.882,29.409,2.581,33.555,20.477,2.689,11.535,2.124,23.123.581,34.76-.22,1.651-.446,3.3-.667,4.953l.618.108a4.593,4.593,0,0,0,.264-.78c1.613-10.217,2.463-20.434,1.436-30.77-.726-7.27-2.151-14.374-6.087-20.714-2.861-4.6-6.776-7.889-12.121-9.082C302.024,51.329,292.275,53.469,282.7,58.976Zm51.881,60.9.57.258c.3-.957.661-1.9.887-2.877,2.345-10.067,5.555-19.816,10.588-28.893,3.167-5.705,6.937-10.938,12.395-14.713a19.923,19.923,0,0,1,16.406-3.226,38.378,38.378,0,0,1,15.218,7.254c.57.441,1.178.844,1.764,1.264a4.017,4.017,0,0,0-1.511-1.92c-1.753-1.242-3.479-2.554-5.345-3.624C371.4,65.289,360.116,67.6,350.5,80.77,341.951,92.488,337.752,106,334.584,119.875Zm-65.438,15.2-.237,1.043a21.74,21.74,0,0,0,3.06.667q16,1.215,32,2.361c5.195.376,10.384.747,15.594,1.075a7.98,7.98,0,0,0,2.1-.441l-.113-.914Zm113.711,26.376v-.86c-8.389-2.689-16.788-5.334-25.166-8.066-6.652-2.151-13.261-4.431-19.9-6.593-1.613-.538-3.291-.8-4.942-1.183l-.323,1.032a14.908,14.908,0,0,0,2.054,1.022c4.91,1.613,9.835,3.151,14.761,4.711q15.686,4.969,31.388,9.905A7.172,7.172,0,0,0,382.857,161.448ZM272.223,114.793l.231.844,46.187,3.372.247-.79a6.624,6.624,0,0,0-2.043-.973q-21.219-1.613-42.444-3.13A6.445,6.445,0,0,0,272.223,114.793Zm114.883,26.538.452-.694a7.635,7.635,0,0,0-1.855-1.452c-2.549-.92-5.152-1.688-7.738-2.511l-31.915-10.136c-1.963-.624-1.968-.613-3.1.79Zm-81.656,61.84-.21-1.075-37.733-2.759-.285.758c.538.344,1.032.9,1.613.989,1.414.226,2.861.242,4.3.35,9.948.721,19.9,1.457,29.845,2.151a11.146,11.146,0,0,0,2.468-.441ZM333.993,167.2l-.505.624c.575.538,1.076,1.291,1.742,1.506q15.594,5.033,31.264,9.894c.64.2,1.473-.22,2.221-.35l-.1-.694Zm-21.639-7.141-.156-.688-36.33-2.662-.323.635c.6.382,1.183,1.049,1.812,1.075q16.439,1.291,32.888,2.409c.683.091,1.4-.468,2.108-.747Zm81.618-37.1c1.366,5.861,2.608,6.894,9.265,7.8l1.8-4.3ZM272.766,96.01l-11.319-.828v4.711c6.652,1.441,8.184.925,11.319-3.866Zm-4.071,36.7.059.538,52.973,4.135.07-.9Zm67.046.979-.22.715,53.489,16.912.194-.613Zm-13.013-5.42v-.645l-55.651-4.071-.043.64ZM309,202.026l-.194.608L361.649,219.4l.194-.608Zm56.517,9.168.194-.608L312.6,193.744l-.194.608Zm4.178-12.072.253-.6-50.876-16.132-.194.6ZM273.868,68.569l-.048.629,51.9,3.8.048-.645Zm79.768,12.782-.215.613,49.5,15.7.194-.6Zm30.388,77.779.177-.565-46.154-14.713-.21.683ZM276.713,93.37l-.167-.93-14.573-1.075c-.656,2.1-.661,2.151,1.183,2.275,3.323.258,6.646.565,9.975.635A14.123,14.123,0,0,0,276.713,93.37Zm-9.271,81.737-.043.651,48.553,3.538.048-.624Zm64.12-20.569-.188.656L376.5,169.482l.188-.581ZM405.953,122.7,391.8,118.262l-.4.656c.817.737,1.511,1.8,2.468,2.151,3.35,1.242,6.8,2.189,10.185,3.345,1.42.484,1.9-.005,1.9-1.694Zm-86.99,26.457v-.635L272.147,145.1l-.043.645Zm-8.206,66.325-.28.586,42.745,13.551.194-.6Zm-.629-23.784-.038-.651-43.245-3.14-.043.629Zm38.051-83.264-7.308-2.312c-.495,1.651-.936,3.124-1.328,4.447,3.759,2.8,5.614-.618,8.636-2.135ZM328.4,100.118l-7.141-.538c2.151,4.985,2.829,5.512,6.727,5.087.129-1.436.258-2.9.414-4.549Zm-53.236,11.707-.043.64,41.089,3,.043-.629Zm110.694,25.591.194-.613-39.524-12.519-.188.6Zm-118.6,59.523-.048.645,38.448,2.791.043-.624Zm102.929-20,.188-.6L333.3,164.567l-.194.608Zm-95.223-22.585-.043.635L313.58,157.8l.043-.635Zm86.383-79.973-.113.635,34.9,11.067.194-.6ZM284.79,60.358l-.048.629L321.2,63.676l.043-.629Zm-18.713,142.7c1.554,11.454,11.637,20.294,20.918,18.9C276.39,220.594,271.567,216.313,266.076,203.058Zm38.422,9.593.065-.656-33.146-2.4-.043.608ZM341.446,103.63l.242,1.075c3.533.2,6.62,3.619,11.1,1.167-3.474-1.113-6.394-2.119-9.367-2.941-.554-.145-1.312.452-1.979.7Zm-12.938-7.415-10.518-.726c.941,2.689,1.188,2.323,10.314,2.689C328.363,97.639,328.422,97.048,328.508,96.214Zm29.441,131.746c-6.582,6.759-14.4,9.174-23.607,6.808a19.39,19.39,0,0,0,23.607-6.781ZM334.2,177.725l-.317.575,26.828,8.507.188-.6Zm-53.9-10.669-.043.64,27.629,2,.043-.613Zm12.454-84.146.118-.618-27.317-2.006-.043.64Zm88.421,43.595.269-.586-25.629-8.125-.188.6Zm-.731-23.736-.194.6,26.14,8.3.194-.6ZM310.074,106l.038-.624-26.462-1.92-.043.629Zm-6.743-9.427c-2.619-3.226-6.286-3.511-9.566-.753ZM397.4,133.421l-.479.371c1.108,1.613-.742,4.426,2.463,5.48l2.081-4.549Zm-22.671-18.342c-2.242-3.9-5.679-4.963-9.142-2.92ZM328.035,85.5l.048-.635-23.72-1.748-.048.629ZM347,92.149l-.29.581L369.3,99.892l.188-.6ZM261.742,109.12c3.409.177,2.812-3,4.9-4.625l-4.9-.215Zm.774-20.02-.086.64,16.546,1.194.043-.608ZM390.165,115.31c-.075.2-.145.4-.22.592l16.224,5.13.183-.581Zm-46.95-14.89-.21.6,12.164,3.8.177-.581ZM328.158,94.5l.043-.608-12.325-.866-.043.6Z" transform="translate(-257.57 -51.09)"/>
    <path id="Path_18" data-name="Path 18" class="cls-1" d="M486.64,209.911c.769-3.076,1.237-5.732,2.108-8.249,1.947-5.63,1.334-11.142-.269-16.67a89.059,89.059,0,0,0-15.713-31.221,3.049,3.049,0,0,1-.624-3.619c.85-1.861,1.473-3.823,2.221-5.8C494.856,158.885,501.266,192.408,486.64,209.911Z" transform="translate(-356.599 -94.198)"/>
    <path id="Path_19" data-name="Path 19" class="cls-1" d="M301.777,109.58c0,2.651.156,4.974-.081,7.254a3.486,3.486,0,0,1-1.748,2.151,91.9,91.9,0,0,0-27.161,24.559,25.556,25.556,0,0,0-5.463,14.035c-.177,2.775-.7,5.528-1.172,9.013a11.105,11.105,0,0,1-.591-2.151c.156-6.453-.059-12.906.656-19.31s4.178-11.83,8.227-16.751C281.66,119.566,290.973,113.78,301.777,109.58Z" transform="translate(-261.264 -78.125)"/>
    <path id="Path_20" data-name="Path 20" class="cls-1" d="M431.54,143.09c-.989,2.689-1.732,4.953-2.662,7.12a2.56,2.56,0,0,1-1.613,1.075,33.878,33.878,0,0,0-12.4,6.023q-10.685,7.883-21.338,15.81c-3.684,2.721-5.469,6.668-7.093,10.755-1.075,2.689-2.366,5.334-3.764,8.4.1-9.33,8.018-25.876,15.508-33.189C407.331,150.172,418.876,146.01,431.54,143.09Z" transform="translate(-315.399 -93.615)"/>
    <path id="Path_21" data-name="Path 21" class="cls-1" d="M362.859,162.9c.393-7.69-3.807-13.056-7.114-18.681s-7.028-11.223-10.9-16.584a48.283,48.283,0,0,0-7.265-7.528,3.811,3.811,0,0,1-1.613-3.6c.177-1.818.194-3.646.28-5.512C353.142,116.556,371.371,151.374,362.859,162.9Z" transform="translate(-293.798 -78.777)"/>
    <path id="Path_22" data-name="Path 22" class="cls-2" d="M335.72,102.918l-61.13-4.474c.538-3.4,2.1-4.781,5.232-4.555q26.774,1.936,53.532,3.9C335.575,97.955,335.882,98.584,335.72,102.918Z" transform="translate(-265.439 -70.861)"/>
    <path id="Path_23" data-name="Path 23" class="cls-2" d="M483.831,139.721,425.153,121.1a2.473,2.473,0,0,1,.038-.672c1.871-3.872,1.871-3.866,5.958-2.57l48.316,15.309C483.563,134.478,483.8,134.827,483.831,139.721Z" transform="translate(-335.034 -81.594)"/>
    <path id="Path_24" data-name="Path 24" class="cls-2" d="M353.63,324.659l1.947-4.619,53.882,17.089-2.086,4.571Z" transform="translate(-301.975 -175.412)"/>
    <path id="Path_25" data-name="Path 25" class="cls-2" d="M453.994,226.194a34.227,34.227,0,0,0-1.936,2.877c-.7,1.3-1.586,1.167-2.8.774q-14.906-4.8-29.855-9.5c-6.41-2.017-12.841-3.958-19.251-5.964-.4-.124-1.049-.565-1.016-.742a12.4,12.4,0,0,1,1.21-4.049c.253-.414,1.925-.226,2.829.07,4.942,1.613,9.814,3.436,14.761,5.022,11.266,3.619,22.585,7.141,33.851,10.706C452.445,225.6,453.091,225.866,453.994,226.194Z" transform="translate(-323.012 -124.247)"/>
    <path id="Path_26" data-name="Path 26" class="cls-2" d="M330.817,194.258c-.285,1.78-.505,3.183-.769,4.84-.64,0-1.248.038-1.844,0l-48.214-3.56c-4.587-.333-4.587-.323-5.119-5.377Z" transform="translate(-265.568 -115.374)"/>
    <path id="Path_27" data-name="Path 27" class="cls-2" d="M361,309.69l2.63-4.34,52.483,16.67c-.538,1.576-1.049,2.963-1.645,4.646Z" transform="translate(-305.382 -168.622)"/>
    <path id="Path_28" data-name="Path 28" class="cls-2" d="M404.75,199.225c3.2-3.974,3.592-4.1,7.754-2.78l39.927,12.637c4.3,1.36,4.4,1.49,4.522,6.614Z" transform="translate(-325.606 -117.932)"/>
    <path id="Path_29" data-name="Path 29" class="cls-2" d="M331.543,182.907l-54.543-4c1.479-4.383,2.2-4.84,6.238-4.517,13.831,1.075,27.656,2.269,41.508,2.952C328.72,177.535,330.5,179.132,331.543,182.907Z" transform="translate(-266.553 -108.046)"/>
    <path id="Path_30" data-name="Path 30" class="cls-2" d="M280.49,213.31,331.575,217c.129.844.269,1.527.328,2.215.161,1.877-.511,2.818-2.6,2.651-9.072-.721-18.149-1.344-27.226-2.011-5.415-.4-10.825-.85-16.245-1.221C281.27,218.327,281.264,218.365,280.49,213.31Z" transform="translate(-268.166 -126.075)"/>
    <path id="Path_31" data-name="Path 31" class="cls-2" d="M351.971,342.52l50.214,15.928c-2.124,4.033-2.759,4.3-6.641,3.081l-39.938-12.685C352.153,347.747,351.427,346.542,351.971,342.52Z" transform="translate(-301.133 -185.804)"/>
    <path id="Path_32" data-name="Path 32" class="cls-2" d="M394.968,230.84l48.854,15.508c0,.285.054.462,0,.565-2.527,3.818-2.527,3.813-6.9,2.436q-20.859-6.566-41.713-13.046c-1.339-.419-1.662-1.075-1.312-2.258C394.183,233.034,394.543,232.066,394.968,230.84Z" transform="translate(-320.529 -134.179)"/>
    <path id="Path_33" data-name="Path 33" class="cls-2" d="M372.85,288.308l1.957-4.608,14.831,4.705c7.6,2.414,15.2,4.8,22.789,7.259a4.151,4.151,0,0,1,2.049,1.366c2.06,2.968,3.872,3.587,7.346,2.689,1.231-.323,2.624-.048,4.356-.048l-2.151,4.883Z" transform="translate(-310.86 -158.614)"/>
    <path id="Path_34" data-name="Path 34" class="cls-2" d="M274.879,274.005c-.086-1.7-.156-3.119-.269-5.275,1.522.538,2.909.758,3.9,1.495,3.011,2.248,4.781,2.388,7.985.307a3.082,3.082,0,0,1,1.748-.495q18.859,1.328,37.717,2.748a6.208,6.208,0,0,1,.952.28,28.337,28.337,0,0,1-1.468,3.667,2.076,2.076,0,0,1-1.64.85C307.574,276.436,291.344,275.221,274.879,274.005Z" transform="translate(-265.448 -151.694)"/>
    <path id="Path_35" data-name="Path 35" class="cls-2" d="M437.61,101.575a32.415,32.415,0,0,1,3.361-2.979,3.1,3.1,0,0,1,2.307-.4c12.406,3.861,24.854,7.62,37.1,11.895,2.151.753,3.522,3.764,5.254,5.689l-.629.817Z" transform="translate(-340.796 -72.83)"/>
    <path id="Path_36" data-name="Path 36" class="cls-2" d="M340.645,80.451l-49.515-3.63c2.963-2.855,5.426-4.84,9.642-4.436,11.352,1.151,22.757,1.764,34.136,2.64C339.263,75.38,339.457,75.617,340.645,80.451Z" transform="translate(-273.084 -60.907)"/>
    <path id="Path_37" data-name="Path 37" class="cls-2" d="M321.56,296.588c-.333.871-.57,1.441-.774,2.027-.715,2.022-1.785,2.829-4.248,2.619-14.067-1.194-28.161-2.124-42.417-3.157V293.13Z" transform="translate(-265.221 -162.973)"/>
    <path id="Path_38" data-name="Path 38" class="cls-3" d="M478.482,248.237c-1.242,4.764-2.447,9.534-3.764,14.277a7.572,7.572,0,0,1-1.334,2.506c-3.178,4.189-6.216,8.507-9.706,12.422a18,18,0,0,1-6.453,4.216c-.979.414-2.931-.409-3.882-1.28-1.361-1.237-.43-2.8.538-4.055a5.915,5.915,0,0,1,1.14-1.226c9.238-6.8,15.164-16.455,21.908-25.414.4-.538.823-1.076,1.231-1.613Z" transform="translate(-347.752 -142.143)"/>
    <path id="Path_39" data-name="Path 39" class="cls-3" d="M270.84,197c2.151,7.69,3.979,14.783,6.2,21.752,1.151,3.6,3.027,6.991,4.565,10.459a15.5,15.5,0,0,1,1.613,3.952,4.157,4.157,0,0,1-1.075,3.291c-.78.6-2.791.812-3.431.253-1.8-1.57-3.834-3.393-4.6-5.539-3.388-9.432-6.894-18.934-4-29.269C270.475,200.528,270.529,199.081,270.84,197Z" transform="translate(-262.872 -118.536)"/>
    <path id="Path_40" data-name="Path 40" class="cls-2" d="M330.925,233.631c-1.828,4.759-2.1,4.84-6.754,4.506-11.217-.866-22.44-1.667-33.663-2.49-4.426-.328-4.458-.355-5.178-5.377Z" transform="translate(-270.403 -133.915)"/>
    <path id="Path_41" data-name="Path 41" class="cls-2" d="M394.66,247.89,438.755,261.9a35.159,35.159,0,0,1-2.786,3.393,2.237,2.237,0,0,1-1.877.333q-18.606-5.834-37.169-11.83a2.689,2.689,0,0,1-1.436-1.57,36.451,36.451,0,0,1-.828-4.334Z" transform="translate(-320.942 -142.06)"/>
    <path id="Path_42" data-name="Path 42" class="cls-2" d="M274.146,309.77l42.9,3.14a37.454,37.454,0,0,1-2.033,3.969,2.216,2.216,0,0,1-1.726.747c-12.427-.866-24.849-1.807-37.276-2.689-1.269-.086-1.941-.446-1.871-1.807C274.19,312.115,274.146,311.093,274.146,309.77Z" transform="translate(-265.226 -170.665)"/>
    <path id="Path_43" data-name="Path 43" class="cls-2" d="M313.77,335.7v4.888c-3-.2-5.915-.366-8.808-.575-7.485-.538-14.971-1.076-22.451-1.689-4.35-.344-4.35-.393-5.211-5.3Z" transform="translate(-266.691 -181.412)"/>
    <path id="Path_44" data-name="Path 44" class="cls-3" d="M386.006,225.363a17.549,17.549,0,0,0-.339,4.071c.882,6.281,1.877,12.551,2.931,18.821.339,2.038,1.075,4.006,1.447,6.044.462,2.549-1.076,3.99-3.5,2.968a7.575,7.575,0,0,1-3.8-3.329c-2.839-6.286-3.646-12.836-1.156-19.477,1.162-3.092,2.527-6.1,3.8-9.142Z" transform="translate(-314.214 -131.627)"/>
    <path id="Path_45" data-name="Path 45" class="cls-2" d="M331.18,159.927l-38.04-2.78c2.194-2.785,3.9-4.99,7.835-4.555,8.486.946,17.025,1.387,25.548,1.963C329.873,154.776,329.766,157.916,331.18,159.927Z" transform="translate(-274.013 -97.983)"/>
    <path id="Path_46" data-name="Path 46" class="cls-2" d="M426.47,182.313c2.785-2.527,5.125-4.033,9.023-2.522a192.286,192.286,0,0,0,20.945,6.668c3.985,1.032,5.958,3.226,6.62,7.448Z" transform="translate(-335.646 -110.302)"/>
    <path id="Path_47" data-name="Path 47" class="cls-2" d="M399.075,374.847c-3.678,2.183-6.835,3.382-10.755,1.909-5.592-2.086-11.357-3.737-17.068-5.5-4.711-1.452-7.846-4.893-10.862-8.69Z" transform="translate(-305.1 -195.072)"/>
    <path id="Path_48" data-name="Path 48" class="cls-2" d="M284.69,350.29c6.507.457,12.368.86,18.256,1.28,4.06.29,8.115.753,12.174.833,2.592.048,4.006,1.027,4.469,4.049a47.579,47.579,0,0,1-7.238.758c-6.216-.274-12.406-1.076-18.622-1.226C289.7,355.883,287.406,353.581,284.69,350.29Z" transform="translate(-270.107 -189.395)"/>
    <path id="Path_49" data-name="Path 49" class="cls-2" d="M401.15,274.1l30.614,9.679a40.916,40.916,0,0,1-3,3.361,2.253,2.253,0,0,1-1.861.247c-7.985-2.49-15.966-5.006-23.908-7.631a3.085,3.085,0,0,1-1.409-1.925A22.082,22.082,0,0,1,401.15,274.1Z" transform="translate(-323.942 -154.176)"/>
    <path id="Path_50" data-name="Path 50" class="cls-2" d="M327.167,256.407,324.7,261.16c-8.771-.635-17.584-1.242-26.392-1.957a3.014,3.014,0,0,1-1.812-1.409,31.963,31.963,0,0,1-1.71-3.764Z" transform="translate(-274.776 -144.898)"/>
    <path id="Path_51" data-name="Path 51" class="cls-3" d="M368.07,227.73c-.344,4.415-.737,9.728-1.178,15.057-.263,3.253-5.076,8.41-8.357,8.647a5,5,0,0,1-3.56-1.323c-.462-.479-.059-2.275.484-3.151,1.328-2.151,3.065-4.081,4.447-6.222C362.849,236.183,365.65,231.575,368.07,227.73Z" transform="translate(-302.504 -132.741)"/>
    <path id="Path_52" data-name="Path 52" class="cls-2" d="M420.368,315.791c.048,1.2-.231,1.974-1.758,1.49q-25.166-8.012-50.429-16.025c.167-1.377.57-2.092,2.108-1.613q24.93,7.975,49.881,15.906C420.244,315.576,420.271,315.672,420.368,315.791Z" transform="translate(-308.701 -165.914)"/>
    <path id="Path_53" data-name="Path 53" class="cls-2" d="M514.494,166.058c-6.184-1.968-12.121-3.764-17.971-5.808-1.043-.366-1.758-1.726-2.56-2.689-1.016-1.221-1.968-2.5-3.323-4.232,1.248.355,2.011.538,2.769.785,6.076,1.925,12.121,3.99,18.251,5.722,2.527.715,3.651,1.834,3.06,4.442A11.762,11.762,0,0,0,514.494,166.058Z" transform="translate(-365.31 -98.349)"/>
    <path id="Path_54" data-name="Path 54" class="cls-2" d="M294.018,111.566c-4.092,2.312-7.044,5.055-11.75,4.232-4.84-.844-9.819-.828-14.729-1.188,0-4.028.839-4.926,4.469-4.673C279.118,110.426,286.221,110.974,294.018,111.566Z" transform="translate(-262.18 -78.272)"/>
    <path id="Path_55" data-name="Path 55" class="cls-2" d="M315.81,62.657c10.061-5.6,25.021-4.447,30.56,2.237Z" transform="translate(-284.493 -54.782)"/>
    <path id="Path_56" data-name="Path 56" class="cls-2" d="M484.863,100.463l-29.683-9.41C461.7,86.272,477.469,91.719,484.863,100.463Z" transform="translate(-348.918 -68.739)"/>
    <path id="Path_57" data-name="Path 57" class="cls-2" d="M323.072,289.656c.038,2.086-1.183,2.07-2.56,1.968q-18.036-1.339-36.072-2.646c-3.259-.242-6.517-.5-9.771-.747-.887-2.216.505-2.076,1.85-1.979l30.818,2.237Q315.2,289.064,323.072,289.656Z" transform="translate(-265.346 -159.773)"/>
    <path id="Path_58" data-name="Path 58" class="cls-2" d="M466.128,177.294l-22.418-7.109c2.753-2.393,5.205-4.345,8.894-2.4a17.407,17.407,0,0,0,5.463,1.715C462.456,170.159,464.537,173.105,466.128,177.294Z" transform="translate(-343.616 -104.665)"/>
    <path id="Path_59" data-name="Path 59" class="cls-2" d="M309.32,141.656c3.054-3.049,5.786-5.264,9.98-4.3a17.746,17.746,0,0,0,5.48.414c4.065-.36,6.361,1.667,7.937,5.555Z" transform="translate(-281.493 -90.859)"/>
    <path id="Path_60" data-name="Path 60" class="cls-2" d="M485.016,129.52,431.78,112.635c.812-1.5.817-1.522,2.463-1l29.167,9.271c6.6,2.1,13.223,4.178,19.816,6.329a11.208,11.208,0,0,1,2.3,1.441C485.344,128.961,485.178,129.24,485.016,129.52Z" transform="translate(-338.101 -78.932)"/>
    <path id="Path_61" data-name="Path 61" class="cls-2" d="M282.26,88.381a8.35,8.35,0,0,1,2.457-.538q25.925,1.839,51.827,3.807a6.516,6.516,0,0,1,1.957.9l-.263.887-55.834-4.092Z" transform="translate(-268.984 -68.073)"/>
    <path id="Path_62" data-name="Path 62" class="cls-2" d="M371.164,121.953c-5.1-.355-9.857-.57-14.584-1.075-1.075-.124-2.1-1.269-3.081-2.038-1.183-.925-2.291-1.952-3.979-3.409l21.407,1.554C371.008,118.635,371.078,120.119,371.164,121.953Z" transform="translate(-300.076 -80.829)"/>
    <path id="Path_63" data-name="Path 63" class="cls-2" d="M417.48,135.736l2.011-4.576,20.434,6.48c-2.689.963-4.867,1.8-7.1,2.527a2.791,2.791,0,0,1-1.613-.075C426.767,138.7,422.3,137.269,417.48,135.736Z" transform="translate(-331.491 -88.101)"/>
    <path id="Path_64" data-name="Path 64" class="cls-2" d="M403.973,353.48a6.049,6.049,0,0,1-2.065.124q-24.521-7.711-49.015-15.535c-.592-.188-1.022-.86-1.533-1.3l.505-.747,52.059,16.5Z" transform="translate(-300.926 -182.799)"/>
    <path id="Path_65" data-name="Path 65" class="cls-2" d="M304.31,60.386c9.572-5.506,19.321-7.647,29.807-5.3,5.345,1.194,9.26,4.479,12.121,9.082,3.942,6.34,5.377,13.444,6.087,20.714,1.027,10.319.183,20.569-1.436,30.77a4.591,4.591,0,0,1-.263.78l-.618-.108c.22-1.651.446-3.3.667-4.953,1.543-11.615,2.092-23.225-.581-34.76-4.146-17.9-15.2-24.36-33.555-20.477C312.484,57,308.639,58.853,304.31,60.386Z" transform="translate(-279.177 -52.5)"/>
    <path id="Path_66" data-name="Path 66" class="cls-2" d="M400.79,134.99c3.167-13.9,7.367-27.425,15.912-39.115,9.62-13.175,20.9-15.482,35.061-7.372,1.866,1.075,3.592,2.382,5.345,3.624a4.017,4.017,0,0,1,1.511,1.92c-.586-.419-1.194-.823-1.764-1.264a38.379,38.379,0,0,0-15.218-7.254,19.923,19.923,0,0,0-16.406,3.226c-5.458,3.764-9.228,9.007-12.395,14.713a110.637,110.637,0,0,0-10.588,28.893c-.226.973-.586,1.92-.887,2.877Z" transform="translate(-323.776 -66.205)"/>
    <path id="Path_67" data-name="Path 67" class="cls-2" d="M278.883,207.26l52.387,3.764.113.914a7.98,7.98,0,0,1-2.1.441c-5.195-.312-10.384-.683-15.595-1.076q-16-1.162-32-2.361a21.739,21.739,0,0,1-3.06-.667Z" transform="translate(-267.306 -123.279)"/>
    <path id="Path_68" data-name="Path 68" class="cls-2" d="M447.274,241.957a7.567,7.567,0,0,1-2.151-.027q-15.707-4.91-31.388-9.905c-4.926-1.559-9.851-3.114-14.761-4.711a14.906,14.906,0,0,1-2.054-1.022l.323-1.032c1.651.387,3.334.661,4.942,1.183,6.646,2.151,13.255,4.436,19.9,6.593,8.378,2.726,16.778,5.377,25.166,8.066A7.525,7.525,0,0,1,447.274,241.957Z" transform="translate(-321.987 -131.599)"/>
    <path id="Path_69" data-name="Path 69" class="cls-2" d="M284.82,168.964a6.444,6.444,0,0,1,2.178-.678q21.23,1.484,42.444,3.13a6.624,6.624,0,0,1,2.043.973l-.247.79-46.187-3.372Z" transform="translate(-270.167 -105.261)"/>
    <path id="Path_70" data-name="Path 70" class="cls-2" d="M460.5,205.862,416.34,191.881c1.135-1.4,1.14-1.414,3.1-.79l31.915,10.136c2.587.823,5.189,1.613,7.738,2.511a7.634,7.634,0,0,1,1.855,1.452Z" transform="translate(-330.964 -115.621)"/>
    <path id="Path_71" data-name="Path 71" class="cls-2" d="M313.734,330.531a11.151,11.151,0,0,1-2.484.387c-9.948-.688-19.9-1.425-29.845-2.151-1.43-.108-2.877-.124-4.3-.35-.575-.091-1.075-.645-1.613-.989l.285-.758,37.733,2.759Z" transform="translate(-265.855 -178.477)"/>
    <path id="Path_72" data-name="Path 72" class="cls-2" d="M399.26,267l34.625,10.981.1.694c-.747.129-1.581.538-2.221.35q-15.664-4.84-31.259-9.873c-.672-.215-1.167-.989-1.742-1.506Z" transform="translate(-322.837 -150.894)"/>
    <path id="Path_73" data-name="Path 73" class="cls-2" d="M327.808,250.9c-.7.28-1.425.839-2.108.8q-16.444-1.124-32.888-2.409c-.629-.054-1.21-.721-1.812-1.075l.323-.635,36.33,2.662Z" transform="translate(-273.024 -141.917)"/>
    <path id="Path_74" data-name="Path 74" class="cls-2" d="M511.23,184.75l11.061,3.511-1.8,4.3C513.838,191.644,512.6,190.611,511.23,184.75Z" transform="translate(-374.828 -112.873)"/>
    <path id="Path_75" data-name="Path 75" class="cls-2" d="M276.1,133.938c-3.119,4.791-4.668,5.308-11.319,3.883V133.11Z" transform="translate(-260.904 -89.002)"/>
    <path id="Path_76" data-name="Path 76" class="cls-2" d="M278.26,202.9l53.1,3.764-.07.9-52.973-4.135Z" transform="translate(-267.135 -121.263)"/>
    <path id="Path_77" data-name="Path 77" class="cls-2" d="M402.75,204.72l53.441,17-.194.613-53.468-16.9Z" transform="translate(-324.58 -122.104)"/>
    <path id="Path_78" data-name="Path 78" class="cls-2" d="M330.873,190.586,275.19,186.51l.043-.64,55.651,4.071Z" transform="translate(-265.716 -113.391)"/>
    <path id="Path_79" data-name="Path 79" class="cls-2" d="M353.044,331.77l52.844,16.794-.194.608L352.85,332.378Z" transform="translate(-301.615 -180.834)"/>
    <path id="Path_80" data-name="Path 80" class="cls-2" d="M412.657,333.82,359.55,316.978l.194-.608,53.107,16.842Z" transform="translate(-304.712 -173.716)"/>
    <path id="Path_81" data-name="Path 81" class="cls-2" d="M422.4,311.984,371.58,295.852l.194-.6,50.876,16.132Z" transform="translate(-310.273 -163.953)"/>
    <path id="Path_82" data-name="Path 82" class="cls-2" d="M287.838,83.59l51.9,3.764-.048.645-51.9-3.8Z" transform="translate(-271.54 -66.111)"/>
    <path id="Path_83" data-name="Path 83" class="cls-2" d="M436.035,107.36l49.472,15.707-.194.6-49.494-15.7Z" transform="translate(-339.969 -77.099)"/>
    <path id="Path_84" data-name="Path 84" class="cls-2" d="M453.027,238.867,406.84,224.273l.21-.683L453.2,238.329Z" transform="translate(-326.572 -130.827)"/>
    <path id="Path_85" data-name="Path 85" class="cls-2" d="M280.155,127.977a13.927,13.927,0,0,1-3.581.893c-3.329-.07-6.652-.376-9.975-.635-1.844-.14-1.839-.177-1.183-2.275l14.573,1.075Z" transform="translate(-261.013 -85.697)"/>
    <path id="Path_86" data-name="Path 86" class="cls-2" d="M275.893,281.74l48.558,3.565-.048.624-48.553-3.511Z" transform="translate(-266.021 -157.708)"/>
    <path id="Path_87" data-name="Path 87" class="cls-2" d="M395.008,243.49l45.127,14.363-.188.581L394.82,244.146Z" transform="translate(-321.016 -140.026)"/>
    <path id="Path_88" data-name="Path 88" class="cls-2" d="M521,180.458c0,1.689-.484,2.178-1.9,1.694-3.382-1.156-6.835-2.1-10.185-3.345-.957-.355-1.651-1.42-2.468-2.151l.4-.656Z" transform="translate(-372.613 -108.828)"/>
    <path id="Path_89" data-name="Path 89" class="cls-2" d="M331.463,230l-46.853-3.415.043-.645,46.816,3.425Z" transform="translate(-270.07 -131.914)"/>
    <path id="Path_90" data-name="Path 90" class="cls-2" d="M356.258,356.8l42.659,13.551-.194.6L356,357.386Z" transform="translate(-303.071 -192.405)"/>
    <path id="Path_91" data-name="Path 91" class="cls-2" d="M318.066,309.311l-43.326-3.162.043-.629,43.245,3.14Z" transform="translate(-265.508 -168.7)"/>
    <path id="Path_92" data-name="Path 92" class="cls-2" d="M418.646,155.756c-3.022,1.516-4.84,4.936-8.636,2.151.393-1.323.833-2.8,1.328-4.447Z" transform="translate(-328.038 -98.409)"/>
    <path id="Path_93" data-name="Path 93" class="cls-2" d="M383.151,141.784c-.151,1.651-.285,3.114-.414,4.533-3.9.425-4.587-.1-6.727-5.087Z" transform="translate(-312.321 -92.756)"/>
    <path id="Path_94" data-name="Path 94" class="cls-2" d="M290.243,164l41.089,3.006-.043.629-41.089-3Z" transform="translate(-272.654 -103.281)"/>
    <path id="Path_95" data-name="Path 95" class="cls-2" d="M462.182,200.332,422.69,187.8l.188-.6,39.5,12.519Z" transform="translate(-333.899 -114.006)"/>
    <path id="Path_96" data-name="Path 96" class="cls-2" d="M275.548,322.31l38.443,2.812-.043.624L275.5,322.955Z" transform="translate(-265.859 -176.461)"/>
    <path id="Path_97" data-name="Path 97" class="cls-2" d="M435.1,274.478,398,262.718l.194-.608L435.3,273.881Z" transform="translate(-322.486 -148.633)"/>
    <path id="Path_98" data-name="Path 98" class="cls-2" d="M289.9,243.09l38.658,2.818-.043.635-38.658-2.818Z" transform="translate(-272.497 -139.841)"/>
    <path id="Path_99" data-name="Path 99" class="cls-2" d="M450.463,94.39l34.98,11.083-.194.6-34.9-11.067Z" transform="translate(-346.685 -71.103)"/>
    <path id="Path_100" data-name="Path 100" class="cls-2" d="M308.148,68.32,344.6,71.009l-.043.629L308.1,68.949Z" transform="translate(-280.929 -59.052)"/>
    <path id="Path_101" data-name="Path 101" class="cls-2" d="M273.39,333.69c5.49,13.255,10.314,17.536,20.918,18.9C285.011,353.984,274.944,345.149,273.39,333.69Z" transform="translate(-264.884 -181.722)"/>
    <path id="Path_102" data-name="Path 102" class="cls-2" d="M316.365,348.914l-33.125-2.436.043-.608,33.168,2.388Z" transform="translate(-269.437 -187.352)"/>
    <path id="Path_103" data-name="Path 103" class="cls-2" d="M413.55,148.176c.667-.247,1.425-.844,1.979-.688,2.974.823,5.915,1.828,9.367,2.941-4.485,2.452-7.571-.963-11.1-1.167Z" transform="translate(-329.674 -95.637)"/>
    <path id="Path_104" data-name="Path 104" class="cls-2" d="M380.448,134.394c-.086.817-.145,1.409-.2,1.984-9.142-.387-9.373,0-10.314-2.689Z" transform="translate(-309.51 -89.27)"/>
    <path id="Path_105" data-name="Path 105" class="cls-2" d="M423.947,380.05c-4.9,7.528-15.439,10.507-23.607,6.808C409.552,389.224,417.365,386.809,423.947,380.05Z" transform="translate(-323.568 -203.152)"/>
    <path id="Path_106" data-name="Path 106" class="cls-2" d="M399.807,286.63l26.7,8.486-.188.6-26.828-8.507Z" transform="translate(-323.175 -159.968)"/>
    <path id="Path_107" data-name="Path 107" class="cls-2" d="M299.8,266.74l27.629,2.027-.043.613-27.629-2Z" transform="translate(-277.074 -150.774)"/>
    <path id="Path_108" data-name="Path 108" class="cls-2" d="M299.582,108,272.34,106.02l.043-.64,27.317,2.006Z" transform="translate(-264.398 -76.184)"/>
    <path id="Path_109" data-name="Path 109" class="cls-2" d="M465.468,183.841l-25.548-8.115.188-.6,25.629,8.125Z" transform="translate(-341.864 -108.426)"/>
    <path id="Path_110" data-name="Path 110" class="cls-2" d="M485.9,147.19l26.14,8.3-.194.6-26.14-8.3Z" transform="translate(-363.031 -95.511)"/>
    <path id="Path_111" data-name="Path 111" class="cls-2" d="M332.462,151,306,149.089l.043-.629,26.457,1.9Z" transform="translate(-279.958 -96.098)"/>
    <path id="Path_112" data-name="Path 112" class="cls-2" d="M334.446,133.4l-9.566-.753C328.171,129.884,331.828,130.18,334.446,133.4Z" transform="translate(-288.686 -87.916)"/>
    <path id="Path_113" data-name="Path 113" class="cls-2" d="M517.2,204.19l4.065,1.3-2.081,4.549c-3.226-1.075-1.355-3.85-2.463-5.48Z" transform="translate(-377.365 -121.859)"/>
    <path id="Path_114" data-name="Path 114" class="cls-2" d="M467.592,166.694l-9.142-2.92C461.913,161.731,465.349,162.79,467.592,166.694Z" transform="translate(-350.429 -102.706)"/>
    <path id="Path_115" data-name="Path 115" class="cls-2" d="M368.22,113.042l-23.72-1.753.048-.629,23.72,1.748Z" transform="translate(-297.755 -78.624)"/>
    <path id="Path_116" data-name="Path 116" class="cls-2" d="M423.621,127.45l22.472,7.147-.188.6-22.585-7.163Z" transform="translate(-334.19 -86.386)"/>
    <path id="Path_117" data-name="Path 117" class="cls-2" d="M265.33,154.84V150l4.9.215C268.142,151.812,268.739,154.99,265.33,154.84Z" transform="translate(-261.158 -96.81)"/>
    <path id="Path_118" data-name="Path 118" class="cls-2" d="M266.7,121.72l16.5,1.226-.043.608L266.61,122.36Z" transform="translate(-261.75 -83.737)"/>
    <path id="Path_119" data-name="Path 119" class="cls-2" d="M503.96,170.46l16.186,5.141-.183.581-16.224-5.13C503.815,170.858,503.88,170.659,503.96,170.46Z" transform="translate(-371.365 -106.267)"/>
    <path id="Path_120" data-name="Path 120" class="cls-2" d="M416.66,142.77l12.131,3.856-.177.581-12.164-3.839Z" transform="translate(-331.015 -93.467)"/>
    <path id="Path_121" data-name="Path 121" class="cls-2" d="M378.282,130.543,366,129.677l.043-.6,12.309.855Z" transform="translate(-307.694 -87.139)"/>
  </g>
</svg>
