<svg width="12" height="14" viewBox="0 0 12 14" version="1.1" xmlns="http://www.w3.org/2000/svg" xmlns:xlink="http://www.w3.org/1999/xlink">
<title>icones_de_sistema_expand_close</title>
<desc>Created using Figma</desc>
<g id="Canvas" transform="translate(1286 -958)">
<g id="icones_de_sistema_expand_close">
<g id="Vector">
<use xlink:href="#path0_fill" transform="translate(-1286 958)" fill="#C64840"/>
</g>
</g>
</g>
<defs>
<path id="path0_fill" d="M 7.46954 6.50221L 11.7595 1.8563C 11.9234 1.64912 12.009 1.38263 11.9993 1.11008C 11.9895 0.837522 11.8852 0.578976 11.7071 0.386107C 11.529 0.193237 11.2903 0.0802493 11.0386 0.0697217C 10.7869 0.0591941 10.5408 0.151902 10.3495 0.32932L 6.05954 4.97523L 1.76954 0.31849C 1.58124 0.114564 1.32585 -1.33132e-07 1.05954 -1.30984e-07C 0.793242 -1.28835e-07 0.537847 0.114564 0.349544 0.31849C 0.16124 0.522416 0.0554519 0.798999 0.0554519 1.08739C 0.0554519 1.37579 0.16124 1.65237 0.349544 1.8563L 4.64954 6.50221L 0.349544 11.1481C 0.244862 11.2452 0.159841 11.3647 0.0998178 11.499C 0.0397945 11.6334 0.00606479 11.7797 0.000745293 11.9289C -0.0045742 12.078 0.0186313 12.2267 0.0689058 12.3657C 0.11918 12.5047 0.195439 12.6309 0.292893 12.7364C 0.390348 12.842 0.506895 12.9246 0.635221 12.979C 0.763546 13.0335 0.900878 13.0586 1.0386 13.0528C 1.17632 13.0471 1.31145 13.0105 1.43551 12.9455C 1.55958 12.8805 1.6699 12.7885 1.75954 12.6751L 6.05954 8.02918L 10.3495 12.6751C 10.5408 12.8525 10.7869 12.9452 11.0386 12.9347C 11.2903 12.9242 11.529 12.8112 11.7071 12.6183C 11.8852 12.4254 11.9895 12.1669 11.9993 11.8943C 12.009 11.6218 11.9234 11.3553 11.7595 11.1481L 7.46954 6.50221Z"/>
</defs>
</svg>
