<?xml version="1.0" encoding="utf-8"?>
<!-- Generator: Adobe Illustrator 25.2.0, SVG Export Plug-In . SVG Version: 6.00 Build 0)  -->
<svg version="1.1" id="Camada_1" xmlns="http://www.w3.org/2000/svg" xmlns:xlink="http://www.w3.org/1999/xlink" x="0px" y="0px"
	 viewBox="0 0 24 24" style="enable-background:new 0 0 24 24;" xml:space="preserve">
<style type="text/css">
	.st0{fill:#EA9B3E;}
	.st1{fill:#FFFFFF;}
</style>
<g id="Grupo_5458" transform="translate(2 2)">
	<circle id="Elipse_83" class="st0" cx="10" cy="10" r="10"/>
	<g id="Grupo_4316" transform="translate(5 4)">
		<path id="Caminho_2949" class="st1" d="M10.7,8.8C7.5,8.7,5.1,6.1,5.1,3c0-1.1,0.3-2.1,0.9-3C3,0.1,0.6,2.6,0.6,5.7
			c0,0.1,0,0.2,0,0.2C1,5.8,1.4,5.7,1.7,5.7l0,0c0-1.7,0.9-3.3,2.4-4C3.8,3.2,4,4.8,4.8,6.2C5.6,7.8,6.9,9,8.6,9.6
			c-1,0.6-2.1,0.8-3.2,0.6c-0.2,0.4-0.5,0.7-0.9,0.9c2.4,0.8,5.1-0.1,6.5-2.3C10.9,8.8,10.8,8.8,10.7,8.8z"/>
		<path id="Caminho_2950" class="st1" d="M3.7,7.6H3.6c-0.3-1-1.4-1.5-2.4-1.1c-1,0.3-1.5,1.4-1.1,2.4c0.3,0.7,1,1.2,1.8,1.2h1.9
			C4.4,10.1,5,9.6,5,8.9S4.4,7.6,3.7,7.6z"/>
	</g>
</g>
</svg>
