<svg width="14" height="11" viewBox="0 0 14 11" version="1.1" xmlns="http://www.w3.org/2000/svg" xmlns:xlink="http://www.w3.org/1999/xlink">
<title>icones_de_sistema_expand_ok</title>
<desc>Created using Figma</desc>
<g id="Canvas" transform="translate(1185 -959)">
<g id="icones_de_sistema_expand_ok">
<g id="Vector">
<use xlink:href="#path0_fill" transform="translate(-1185 959)" fill="#0C9ABE"/>
</g>
</g>
</g>
<defs>
<path id="path0_fill" d="M 13.6505 0.319896C 13.4631 0.115005 13.2096 2.1196e-07 12.9455 2.1196e-07C 12.6813 2.1196e-07 12.4278 0.115005 12.2405 0.319896L 4.94046 8.35051L 1.65046 4.72023C 1.45916 4.54001 1.21308 4.44584 0.961404 4.45653C 0.709728 4.46723 0.470988 4.582 0.292894 4.77792C 0.114799 4.97384 0.0104671 5.23647 0.00074599 5.51333C -0.00897516 5.7902 0.0766309 6.0609 0.240457 6.27135L 4.24046 10.6717C 4.42782 10.8766 4.68127 10.9916 4.94546 10.9916C 5.20964 10.9916 5.46309 10.8766 5.65046 10.6717L 13.6505 1.87102C 13.8367 1.6649 13.9413 1.38608 13.9413 1.09546C 13.9413 0.804829 13.8367 0.526011 13.6505 0.319896Z"/>
</defs>
</svg>
