<?xml version="1.0" encoding="utf-8"?>
<!-- Generator: Adobe Illustrator 25.2.0, SVG Export Plug-In . SVG Version: 6.00 Build 0)  -->
<svg version="1.1" id="Camada_1" xmlns="http://www.w3.org/2000/svg" xmlns:xlink="http://www.w3.org/1999/xlink" x="0px" y="0px"
	 viewBox="0 0 24 24" style="enable-background:new 0 0 24 24;" xml:space="preserve">
<style type="text/css">
	.st0{fill:#00B28E;}
	.st1{fill:#FFFFFF;}
</style>
<g>
	<circle id="Elipse_83" class="st0" cx="12" cy="12" r="10"/>
	<g id="Grupo_4316" transform="translate(5 4)">
		<path id="Caminho_2949" class="st1" d="M12.7,10.8C9.5,10.7,7.1,8.1,7.1,5c0-1.1,0.3-2.1,0.9-3C5,2.1,2.6,4.6,2.6,7.7
			c0,0.1,0,0.2,0,0.2C3,7.8,3.4,7.7,3.7,7.7l0,0c0-1.7,0.9-3.3,2.4-4C5.8,5.2,6,6.8,6.8,8.2c0.8,1.6,2.2,2.8,3.8,3.3
			c-1,0.6-2.1,0.8-3.2,0.6c-0.2,0.4-0.5,0.7-0.9,0.9c2.4,0.8,5.1-0.1,6.5-2.3C12.9,10.8,12.8,10.8,12.7,10.8z"/>
		<path id="Caminho_2950" class="st1" d="M5.7,9.6H5.6c-0.3-1-1.4-1.5-2.4-1.1c-1,0.3-1.5,1.4-1.1,2.4c0.3,0.7,1,1.2,1.8,1.2h1.9
			c0.7,0,1.2-0.6,1.2-1.2S6.4,9.6,5.7,9.6z"/>
	</g>
</g>
</svg>
