<?xml version="1.0" encoding="UTF-8"?>
<svg width="224px" height="167px" viewBox="0 0 224 167" version="1.1" xmlns="http://www.w3.org/2000/svg" xmlns:xlink="http://www.w3.org/1999/xlink">
    <title>Group</title>
    <g id="Mobile" stroke="none" stroke-width="1" fill="none" fill-rule="evenodd">
        <g id="11.1" transform="translate(-76.000000, -197.000000)" fill-rule="nonzero">
            <g id="Group" transform="translate(76.000000, 197.000000)">
                <polygon id="Path" fill="#EBEBEB" points="224 146.943997 0 146.943997 0 147.056003 224 147.056003"></polygon>
                <polygon id="Path" fill="#EBEBEB" points="199 150.943997 184 150.943997 184 151.056003 199 151.056003"></polygon>
                <polygon id="Path" fill="#EBEBEB" points="81 151.943997 59 151.943997 59 152.056003 81 152.056003"></polygon>
                <polygon id="Path" fill="#EBEBEB" points="183 154.943997 170 154.943997 170 155.056003 183 155.056003"></polygon>
                <polygon id="Path" fill="#EBEBEB" points="33 154.943997 23 154.943997 23 155.056003 33 155.056003"></polygon>
                <polygon id="Path" fill="#EBEBEB" points="54 154.943997 37 154.943997 37 155.056003 54 155.056003"></polygon>
                <polygon id="Path" fill="#EBEBEB" points="148 149.943997 106 149.943997 106 150.056003 148 150.056003"></polygon>
                <path d="M106.431198,127 L19.5643032,127 C18.8837506,127 18.2315403,126.728306 17.750846,126.24779 C17.2700391,125.766151 17,125.114984 17,124.43575 L17,2.54179632 C17.0059609,1.86639029 17.2785868,1.2205899 17.7587188,0.744673347 C18.2388509,0.268755667 18.887687,0 19.5643032,0 L106.431198,0 C107.112538,0 107.765873,0.270161289 108.247579,0.751051414 C108.729399,1.23194042 109,1.88417389 109,2.56425035 L109,124.43575 C109,125.116107 108.729399,125.768396 108.247579,126.248913 C107.765873,126.729429 107.112538,127 106.431198,127 L106.431198,127 Z M19.5643032,0.0898164613 C18.9136675,0.0898164613 18.2900244,0.349862995 17.8303619,0.809569988 C17.3705868,1.26928147 17.1124694,1.89226856 17.1124694,2.54179632 L17.1124694,124.43575 C17.1124694,125.085794 17.3705868,125.707771 17.8303619,126.168078 C18.2900244,126.627263 18.9136675,126.88773 19.5643032,126.88773 L106.431198,126.88773 C107.082284,126.88773 107.706377,126.628386 108.166826,126.168078 C108.627164,125.708893 108.886293,125.085794 108.887531,124.43575 L108.887531,2.54179632 C108.886293,1.89185316 108.627164,1.2688773 108.166826,0.809296048 C107.706377,0.349717044 107.082284,0.0898164613 106.431198,0.0898164613 L19.5643032,0.0898164613 Z" id="Shape" fill="#EBEBEB"></path>
                <path d="M203.440196,127 L116.568802,127 C115.888362,127 115.234914,126.728306 114.753545,126.24779 C114.272176,125.767274 114.001125,125.114984 114,124.43575 L114,2.54179632 C114.006748,1.86598612 114.281174,1.22018573 114.761418,0.744392671 C115.242787,0.268598488 115.891736,0 116.568802,0 L203.440196,0 C204.116137,0.0023372401 204.763961,0.270458805 205.243081,0.74624962 C205.7222,1.22203819 205.994377,1.86716496 206,2.54179632 L206,124.43575 C206,125.113861 205.730073,125.765028 205.250954,126.245545 C204.770709,126.726061 204.119511,126.997755 203.440196,127 L203.440196,127 Z M116.568802,0.0898164613 C115.917604,0.0898164613 115.293399,0.349717044 114.833399,0.809296048 C114.372274,1.2688773 114.113594,1.89185316 114.112469,2.54179632 L114.112469,124.43575 C114.113594,125.085794 114.372274,125.708893 114.833399,126.168078 C115.293399,126.628386 115.917604,126.88773 116.568802,126.88773 L203.440196,126.88773 C204.091394,126.88773 204.715599,126.628386 205.175599,126.168078 C205.636724,125.708893 205.895403,125.085794 205.896528,124.43575 L205.896528,2.54179632 C205.895403,1.89185316 205.636724,1.2688773 205.175599,0.809296048 C204.715599,0.349717044 204.091394,0.0898164613 203.440196,0.0898164613 L116.568802,0.0898164613 Z" id="Shape" fill="#EBEBEB"></path>
                <polygon id="Path" fill="#F0F0F0" points="60 144 66 144 66 71 60 71"></polygon>
                <polygon id="Path" fill="#F0F0F0" points="32 146 64 146 64 144 32 144"></polygon>
                <polygon id="Path" fill="#FAFAFA" points="60 71 30 71 30 144 60 144"></polygon>
                <polygon id="Path" fill="#F0F0F0" points="56 109 33 109 33 122 56 122"></polygon>
                <polygon id="Path" fill="#F0F0F0" points="56 126 33 126 33 139 56 139"></polygon>
                <path d="M41.7157418,110 L48.2842582,110 C48.6795017,110 49,109.647132 49,109.21197 L49,108.78803 C49,108.352743 48.6795017,108 48.2842582,108 L41.7157418,108 C41.3204983,108 41,108.352743 41,108.78803 L41,109.21197 C41,109.647132 41.3204983,110 41.7157418,110 Z" id="Path" fill="#FAFAFA"></path>
                <path d="M41.7157418,128 L48.2842582,128 C48.6795017,128 49,127.647132 49,127.21197 L49,126.78803 C49,126.352868 48.6795017,126 48.2842582,126 L41.7157418,126 C41.3204983,126 41,126.352868 41,126.78803 L41,127.21197 C41,127.647132 41.3204983,128 41.7157418,128 Z" id="Path" fill="#FAFAFA"></path>
                <polygon id="Path" fill="#F0F0F0" points="56 75 33 75 33 88 56 88"></polygon>
                <polygon id="Path" fill="#F0F0F0" points="56 92 33 92 33 105 56 105"></polygon>
                <path d="M41.7157418,76 L48.2842582,76 C48.6795017,76 49,75.6471322 49,75.2119701 L49,74.7880299 C49,74.3528678 48.6795017,74 48.2842582,74 L41.7157418,74 C41.3204983,74 41,74.3528678 41,74.7880299 L41,75.2119701 C41,75.6471322 41.3204983,76 41.7157418,76 Z" id="Path" fill="#FAFAFA"></path>
                <path d="M41.7157418,93 L48.2842582,93 C48.6795017,93 49,92.6471322 49,92.2119701 L49,91.7880299 C49,91.3528678 48.6795017,91 48.2842582,91 L41.7157418,91 C41.3204983,91 41,91.3528678 41,91.7880299 L41,92.2119701 C41,92.6471322 41.3204983,93 41.7157418,93 Z" id="Path" fill="#FAFAFA"></path>
                <polygon id="Path" fill="#F0F0F0" points="92 144 102 144 102 71 92 71"></polygon>
                <polygon id="Path" fill="#F0F0F0" points="64 146 100 146 100 144 64 144"></polygon>
                <polygon id="Path" fill="#FAFAFA" points="92 71 62 71 62 144 92 144"></polygon>
                <polygon id="Path" fill="#F0F0F0" points="88 109 65 109 65 122 88 122"></polygon>
                <polygon id="Path" fill="#F0F0F0" points="88 126 65 126 65 139 88 139"></polygon>
                <path d="M73.7157418,110 L80.2842582,110 C80.6795017,110 81,109.647132 81,109.21197 L81,108.78803 C81,108.352743 80.6795017,108 80.2842582,108 L73.7157418,108 C73.3204983,108 73,108.352743 73,108.78803 L73,109.21197 C73,109.647132 73.3204983,110 73.7157418,110 Z" id="Path" fill="#FAFAFA"></path>
                <path d="M73.7157418,128 L80.2842582,128 C80.6795017,128 81,127.647132 81,127.21197 L81,126.78803 C81,126.352868 80.6795017,126 80.2842582,126 L73.7157418,126 C73.3204983,126 73,126.352868 73,126.78803 L73,127.21197 C73,127.647132 73.3204983,128 73.7157418,128 Z" id="Path" fill="#FAFAFA"></path>
                <polygon id="Path" fill="#F0F0F0" points="88 75 65 75 65 88 88 88"></polygon>
                <polygon id="Path" fill="#F0F0F0" points="88 92 65 92 65 105 88 105"></polygon>
                <path d="M73.7157418,76 L80.2842582,76 C80.6795017,76 81,75.6471322 81,75.2119701 L81,74.7880299 C81,74.3528678 80.6795017,74 80.2842582,74 L73.7157418,74 C73.3204983,74 73,74.3528678 73,74.7880299 L73,75.2119701 C73,75.6471322 73.3204983,76 73.7157418,76 Z" id="Path" fill="#FAFAFA"></path>
                <path d="M73.7157418,93 L80.2842582,93 C80.6795017,93 81,92.6471322 81,92.2119701 L81,91.7880299 C81,91.3528678 80.6795017,91 80.2842582,91 L73.7157418,91 C73.3204983,91 73,91.3528678 73,91.7880299 L73,92.2119701 C73,92.6471322 73.3204983,93 73.7157418,93 Z" id="Path" fill="#FAFAFA"></path>
                <polygon id="Path" fill="#E6E6E6" points="29 48 105 48 105 16 29 16"></polygon>
                <polygon id="Path" fill="#F0F0F0" points="26 48 104 48 104 16 26 16"></polygon>
                <polygon id="Path" fill="#FAFAFA" points="100 44 100 20 30 20 30 44"></polygon>
                <polygon id="Path" fill="#FFFFFF" points="66 44 59.1886844 20 50 20 56.8113156 44"></polygon>
                <polygon id="Path" fill="#FFFFFF" points="91 44 84.1886844 20 75 20 81.8113156 44"></polygon>
                <polygon id="Path" fill="#FFFFFF" points="54 44 47.1886844 20 38 20 44.8113156 44"></polygon>
                <polygon id="Path" fill="#EBEBEB" points="172 7 130 7 130 73 172 73"></polygon>
                <polygon id="Path" fill="#FAFAFA" points="169 70 169 10 133 10 133 70"></polygon>
                <polygon id="Path" fill="#E0E0E0" points="149.300774 70 148 70 151.699226 10 153 10"></polygon>
                <polygon id="Path" fill="#E0E0E0" points="152 23.2829181 152 25 169 20.6049822 169 20"></polygon>
                <polygon id="Path" fill="#E0E0E0" points="151 43.2046512 151 45 169 37.6325581 169 37"></polygon>
                <polygon id="Path" fill="#E0E0E0" points="149 63.6969697 149 66 169 55.5887446 169 55"></polygon>
                <polygon id="Path" fill="#E0E0E0" points="151 32.2046512 151 34 133 26.6325581 133 26"></polygon>
                <polygon id="Path" fill="#E0E0E0" points="149 52.7189138 149 55 133 46.5831348 133 46"></polygon>
                <polygon id="Path" fill="#E0E0E0" points="133.177778 70 133.177778 10 132.822222 10 132.822222 70"></polygon>
                <polygon id="Path" fill="#E0E0E0" points="172 73 173 73 173 7 172 7"></polygon>
                <path d="M187.664117,67.7879339 C187.664117,65.0700826 188.730876,61 188.730876,61 L180.273644,61 C180.273644,61 181.344924,65.0700826 181.344924,67.7879339 C181.344924,70.5057851 178,75.3747107 178,79.266281 C178,83.1578512 181.372045,88 181.372045,88 L187.627955,88 C187.627955,88 191,83.1533884 191,79.266281 C191,75.3791736 187.664117,70.5191736 187.664117,67.7879339 Z" id="Path" fill="#E0E0E0"></path>
                <path d="M193.714417,71.5336049 C193.714417,69.3201629 194.12764,66 194.12764,66 L190.87236,66 C190.87236,66 191.285583,69.3201629 191.285583,71.5336049 C191.285583,73.7470468 190,77.7169043 190,80.8847251 C190,84.0525458 191.294766,88 191.294766,88 L193.705234,88 C193.705234,88 195,84.0525458 195,80.8847251 C195,77.7169043 193.714417,73.7425662 193.714417,71.5336049 Z" id="Path" fill="#F0F0F0"></path>
                <polygon id="Path" fill="#E6E6E6" points="116 147 121 147 121 89 116 89"></polygon>
                <polygon id="Path" fill="#F0F0F0" points="114 147 117 147 117 89 114 89"></polygon>
                <polygon id="Path" fill="#F0F0F0" points="182 88 114 88 114 91 182 91"></polygon>
                <polygon id="Path" fill="#E6E6E6" points="204 147 209 147 209 89 204 89"></polygon>
                <polygon id="Path" fill="#F0F0F0" points="203 147 206 147 206 89 203 89"></polygon>
                <polygon id="Path" fill="#E6E6E6" points="210 88 183 88 183 91 210 91"></polygon>
                <polygon id="Path" fill="#E6E6E6" points="182 147 187 147 187 89 182 89"></polygon>
                <polygon id="Path" fill="#F0F0F0" points="180 147 183 147 183 89 180 89"></polygon>
                <polygon id="Path" fill="#FAFAFA" points="115 88 147 107 179 88"></polygon>
                <polygon id="Path" fill="#EBEBEB" points="119 89 148 106 177 89"></polygon>
                <polygon id="Path" fill="#FAFAFA" points="186 89 197.497769 106 209 89"></polygon>
                <polygon id="Path" fill="#EBEBEB" points="187 88 197.5 104 208 88"></polygon>
                <path d="M112,167 C160.048778,167 199,164.761705 199,162 C199,159.238295 160.048778,157 112,157 C63.9512223,157 25,159.238295 25,162 C25,164.761705 63.9512223,167 112,167 Z" id="Path" fill="#F5F5F5"></path>
                <polygon id="Path" fill="#FFB573" points="90.3472107 158 87 156.797814 88.6527893 148 92 149.202186"></polygon>
                <polygon id="Path" fill="#FFB573" points="122 158 117.993377 158 117 149 121.001892 149"></polygon>
                <path d="M117.168489,158 L121.888364,158 C121.966189,158 122.040581,158.023909 122.101239,158.067568 C122.161897,158.111227 122.205388,158.172557 122.222555,158.241164 L122.987074,161.367983 C123.005386,161.443867 123.004241,161.522869 122.983641,161.598753 C122.96304,161.674636 122.924127,161.745322 122.869192,161.805613 C122.815401,161.865904 122.746731,161.914761 122.668906,161.948025 C122.589936,161.980249 122.505244,161.996881 122.419407,161.995842 C120.899525,161.970894 119.791659,161.891892 117.878072,161.891892 C116.696959,161.891892 113.149041,162 111.523866,162 C109.898691,162 109.692682,160.540541 110.34733,160.407484 C113.332159,159.817048 115.584515,158.997921 116.53673,158.216216 C116.711837,158.077963 116.936157,158.00104 117.168489,158 Z" id="Path" fill="#263238"></path>
                <path d="M86.9124214,156.044463 L90.7661767,157.049632 C90.8357043,157.069119 90.8965815,157.109121 90.9388604,157.165534 C90.9811392,157.22092 91.0026571,157.288615 90.9997376,157.357336 L90.8310547,160.516436 C90.8277027,160.592337 90.8060767,160.667211 90.7677986,160.734906 C90.7295206,160.801576 90.6756718,160.86004 90.6102531,160.90517 C90.5449426,160.949274 90.4696841,160.979019 90.3903166,160.992353 C90.310841,161.005687 90.2294191,161.001584 90.151998,160.980044 C88.7679332,160.594388 86.7826653,159.991287 85.0352836,159.531782 C82.9937881,158.998427 82.6131703,158.813804 80.2170082,158.19019 C78.7680654,157.808636 78.7680654,156.315243 79.4125205,156.348065 C82.3406825,156.495763 83.1970726,156.852701 85.9868281,156.081388 C86.2856996,155.987025 86.6063052,155.974717 86.9124214,156.044463 L86.9124214,156.044463 Z" id="Path" fill="#263238"></path>
                <path d="M105,42.506104 C104.762231,42.8175599 104.581703,43.0489272 104.370352,43.31144 C104.159002,43.5739529 103.956458,43.8053202 103.745108,44.0500356 C103.304795,44.5350169 102.864481,45.0066502 102.424168,45.4693848 C101.535727,46.4125401 100.594887,47.3038602 99.6061644,48.1390071 C97.5625612,49.9256518 95.2221869,51.3325428 92.6932485,52.2947192 C91.9959026,52.5431053 91.2784124,52.7292002 90.5489237,52.8508905 C90.3639922,52.8775867 90.1746575,52.9131817 89.9853229,52.9354285 L89.4085127,52.988821 C89.1651296,53.0037263 88.920976,53.0037263 88.677593,52.988821 C88.437182,52.9748054 88.1975416,52.9481092 87.9598826,52.9087323 C87.1848214,52.7671311 86.430455,52.5279774 85.7142857,52.196833 C85.0921233,51.9223068 84.4890044,51.6056229 83.909002,51.2491171 C82.814934,50.5830463 81.76875,49.8395565 80.7783757,49.0244318 C79.7995597,48.2398966 78.8714897,47.3928476 78,46.4882906 L79.6863992,44.2369091 C81.7558708,45.2736125 83.8737769,46.3681576 85.8992172,47.1556962 C86.4055773,47.3470191 86.9031311,47.5205446 87.369863,47.6540257 C87.7637231,47.7727126 88.1702422,47.8430127 88.5807241,47.8631461 C88.6379648,47.8660382 88.6952055,47.8660382 88.7524462,47.8631461 C88.7832681,47.8631461 88.778865,47.8631461 88.915362,47.8275511 L89.2235812,47.7741587 L89.5406067,47.6985194 C89.7475538,47.6540257 89.9809198,47.5650383 90.1790607,47.5071965 C90.3772016,47.4493546 90.6193738,47.3514685 90.8307241,47.249133 C91.7514188,46.8519154 92.6268713,46.3551432 93.4417808,45.7674926 C94.3252691,45.1567052 95.1681385,44.4878536 95.964775,43.7652758 C96.7881605,43.0444778 97.5763209,42.2569392 98.351272,41.4560525 C98.7387476,41.0556092 99.1174168,40.6418177 99.4828767,40.2235769 L100.028865,39.5962157 L100.530822,39 L105,42.506104 Z" id="Path" fill="#FFB573"></path>
                <path d="M107.993074,41.148095 C108.269732,44.7152383 100.166332,52 100.166332,52 L93,45.8393753 C93,45.8393753 96.0164637,42.6705482 99.4077542,39.4795924 C101.737035,37.288853 107.689643,37.2844273 107.993074,41.148095 Z" id="Path" fill="#FFFFFF"></path>
                <path d="M107.993074,41.148095 C108.269732,44.7152383 100.166332,52 100.166332,52 L93,45.8393753 C93,45.8393753 96.0164637,42.6705482 99.4077542,39.4795924 C101.737035,37.288853 107.689643,37.2844273 107.993074,41.148095 Z" id="Path" fill="#0C9ABE" opacity="0.4"></path>
                <path d="M104.042288,43.0127398 C100.518782,43.3126091 98.265817,45.958515 97.2786687,48.8822409 C97.1700351,49.2085693 97.0755712,49.5437174 97,49.8744556 L99.626098,52 C99.626098,52 103.532183,48.6970275 105.978799,45.4557929 C106.111049,43.9167576 105.643452,42.8716248 104.042288,43.0127398 Z" id="Path" fill="#000000" opacity="0.2"></path>
                <path d="M81,46.207331 L79.8664468,43 L76,44.3195876 C76.8413026,45.3127148 77.7691674,46.2105384 78.7699918,47 L81,46.207331 Z" id="Path" fill="#FFB573"></path>
                <polygon id="Path" fill="#FFB573" points="77.7241379 40 74 41.4885954 75.4867682 44 80 42.6170468"></polygon>
                <polygon id="Path" fill="#000000" opacity="0.2" points="88.1457335 148 87 153.087719 90.9117929 154 92 149.157895"></polygon>
                <polygon id="Path" fill="#000000" opacity="0.2" points="120.543455 149 117 149 117.456545 154 121 154"></polygon>
                <path d="M123,38.9376694 C121.865345,43.0628952 121.042634,47.2660343 120.54101,51.5121951 C120.17536,54.4706414 119.955971,57.298103 119.818853,59.8635953 C119.49891,65.870822 119.631457,70.4507678 119.448633,72 L98.8123099,70.5862692 C96.0059528,48.8428184 101.371854,37.6413731 101.371854,37.6413731 C103.003335,37.3418022 104.651841,37.1412602 106.308117,37.0406504 C106.658569,37.0165989 107.015077,37.0030488 107.377641,37 C110.310832,37.0389566 113.239453,37.2440154 116.148649,37.6142728 C116.701694,37.6820235 117.259309,37.7588076 117.803212,37.8446251 C120.568433,38.2737127 123,38.9376694 123,38.9376694 Z" id="Path" fill="#FFFFFF"></path>
                <path d="M123,38.9376694 C121.865345,43.0628952 121.042634,47.2660343 120.54101,51.5121951 C120.17536,54.4706414 119.955971,57.298103 119.818853,59.8635953 C119.49891,65.870822 119.631457,70.4507678 119.448633,72 L98.8123099,70.5862692 C96.0059528,48.8428184 101.371854,37.6413731 101.371854,37.6413731 C103.003335,37.3418022 104.651841,37.1412602 106.308117,37.0406504 C106.658569,37.0165989 107.015077,37.0030488 107.377641,37 C110.310832,37.0389566 113.239453,37.2440154 116.148649,37.6142728 C116.701694,37.6820235 117.259309,37.7588076 117.803212,37.8446251 C120.568433,38.2737127 123,38.9376694 123,38.9376694 Z" id="Path" fill="#0C9ABE" opacity="0.4"></path>
                <path d="M118.000992,44 C117.965455,47.1861196 118.885843,50.3132285 120.649624,53 C120.71122,52.4110429 120.782292,51.8082822 120.858103,51.2055215 C121.142393,48.9371166 121.511969,46.6042945 122,44.2208589 L118.000992,44 Z" id="Path" fill="#000000" opacity="0.2"></path>
                <path d="M115.82391,28 C115.078914,30.7335691 114.180404,35.7742886 116,37.7582583 C115.078914,38.5889895 113.988511,39.2134687 112.804419,39.5898394 C111.61965,39.9660979 110.367493,40.0854952 109.132493,39.9397272 C106.739476,39.7197849 106.734961,38.0455299 107.326443,37.1567833 C110.487031,36.6361035 110.568303,34.3379304 110.175487,32.1474842 L115.82391,28 Z" id="Path" fill="#FFB573"></path>
                <path d="M113.956641,30 L111,32.4511785 C111.087619,32.9617284 111.134429,33.4801347 111.14003,34 C112.204261,33.9102132 113.728591,32.7295174 113.920633,31.4994388 C114.012653,31.0060606 114.024655,30.4982043 113.956641,30 L113.956641,30 Z" id="Path" fill="#000000" opacity="0.2"></path>
                <path d="M110.245417,23.6345845 C109.325457,24.9233152 106.910561,22.5507757 107.002557,20.4469115 C110.498407,19.9915296 108.842478,17.4550526 112.016341,18.1062487 C114.656627,18.6208302 111.257374,22.2183469 110.245417,23.6345845 Z" id="Path" fill="#263238"></path>
                <path d="M118.739509,24.8994125 C117.571573,28.5768696 117.074971,30.7925375 114.702314,32.2543267 C111.134133,34.4240264 106.954394,31.5510131 107.000376,27.5977467 C107.04176,24.0398069 108.950001,18.6201544 112.977999,18.0547454 C113.864297,17.9259195 114.770137,18.0253257 115.607004,18.3437706 C116.445021,18.6622154 117.186476,19.189126 117.763547,19.8743972 C118.340617,20.5597832 118.732612,21.3810054 118.903894,22.2603773 C119.074026,23.1397492 119.017698,24.0480812 118.739509,24.8994125 Z" id="Path" fill="#FFB573"></path>
                <path d="M116.793549,28 C116.61964,27.1355066 116.570589,26.2513133 116.646396,25.3733583 C116.774598,24.6867104 116.995328,24.0198718 117.301898,23.3902439 C117.301898,23.3902439 115.16594,22.1513446 115.116889,20.6585366 C115.116889,20.6585366 111.299811,21.7617261 109.261955,20.0762977 C107.224099,18.3908693 109.043454,16.4427767 108,15.6985616 C110.497154,15.4621639 111.255219,16.9505941 112.833777,16.6266417 C114.412335,16.3026892 113.016604,15.2126329 113.226186,14 C117.984157,18.0231395 120.053227,16.1363352 122.363094,18.4390244 C123.839091,19.9099437 122.287288,22.6679174 122.287288,22.6679174 C122.287288,22.6679174 124.641747,26.590369 116.793549,28 Z" id="Path" fill="#263238"></path>
                <path d="M121,22.6325922 C121,22.6325922 123.479632,23.0324106 123.545881,21 C124.823554,23.0583248 123.224097,23.3804008 121,22.6325922 Z" id="Path" fill="#263238"></path>
                <path d="M111.059336,27.8742491 C111.388282,28.0229673 111.734421,28.0400403 112.068291,27.924057 C112.402075,27.8082147 112.713998,27.5627026 112.977535,27.208262 C112.991359,27.1849807 113,27.1535157 113,27.1207807 C113,27.0880457 112.991359,27.0565807 112.977535,27.0332994 C112.96371,27.0118523 112.944701,27 112.925691,27 C112.906682,27 112.887673,27.0118523 112.873848,27.0332994 C112.627593,27.3559926 112.338135,27.5793523 112.028459,27.6853176 C111.719214,27.7912829 111.399082,27.7766086 111.093899,27.6428468 C111.074285,27.6370617 111.054066,27.6429879 111.036957,27.6596376 C111.019849,27.6762872 111.006888,27.7022494 111.000581,27.7331501 C110.998248,27.764333 111.003,27.795798 111.013801,27.8216191 C111.024602,27.8475814 111.040759,27.8663475 111.059336,27.8742491 Z" id="Path" fill="#263238"></path>
                <path d="M119.47138,28.9614129 C119.158093,29.3021358 118.788787,29.5691729 118.384211,29.7471977 C117.979635,29.9252224 117.548087,30.0108158 117.114464,29.9989082 C115.952604,29.9611811 115.716082,28.6878914 116.326059,27.6409644 C116.877942,26.6977868 118.14354,25.598985 119.172616,26.146028 C120.201692,26.693071 120.234888,28.1219849 119.47138,28.9614129 Z" id="Path" fill="#FFB573"></path>
                <path d="M86,151.28866 L92.1609472,153 C92.1609472,153 99.8788607,128.442268 101.77488,114.954205 C102.278998,111.373901 103.055251,106.347965 104.237474,100.993272 C105.736445,94.2379816 107.610158,86.9377645 109.144818,81.2182854 C110.768703,75.1925665 112,70.9322301 112,70.9322301 L98.759094,70 C98.759094,70 93.3387097,99.9439501 92.0672615,111.504504 C90.7556623,123.519913 86,151.28866 86,151.28866 Z" id="Path" fill="#0C9ABE"></path>
                <path d="M86,151.28866 L92.1609472,153 C92.1609472,153 99.8788607,128.442268 101.77488,114.954205 C102.278998,111.373901 103.055251,106.347965 104.237474,100.993272 C105.736445,94.2379816 107.610158,86.9377645 109.144818,81.2182854 C110.768703,75.1925665 112,70.9322301 112,70.9322301 L98.759094,70 C98.759094,70 93.3387097,99.9439501 92.0672615,111.504504 C90.7556623,123.519913 86,151.28866 86,151.28866 Z" id="Path" fill="#000000" opacity="0.3"></path>
                <path d="M105.195401,101 C106.662987,94.1750742 108.497471,86.7996044 110,81.0211672 L108.654712,78 C105.422527,81.9766568 104.557699,94.3024728 105.195401,101 Z" id="Path" fill="#000000" opacity="0.2"></path>
                <path d="M106,71 C106,71 107.421927,103.53234 109.003322,114.562079 C110.735327,126.629224 115.138427,153 115.138427,153 L122,153 C122,153 119.732004,125.250507 118.726467,113.403417 C117.58361,99.9306096 118.908084,71.9206419 118.908084,71.9206419 L106,71 Z" id="Path" fill="#0C9ABE"></path>
                <path d="M106,71 C106,71 107.421927,103.53234 109.003322,114.562079 C110.735327,126.629224 115.138427,153 115.138427,153 L122,153 C122,153 119.732004,125.250507 118.726467,113.403417 C117.58361,99.9306096 118.908084,71.9206419 118.908084,71.9206419 L106,71 Z" id="Path" fill="#000000" opacity="0.3"></path>
                <polygon id="Path" fill="#0C9ABE" points="114.948529 153 123 153 123 151.12069 114 151"></polygon>
                <polygon id="Path" fill="#0C9ABE" points="86 150.912621 92.9955157 153 94 150.393204 86.0313901 148"></polygon>
                <path d="M112.967975,24.5804752 C112.87223,24.8528528 112.579013,25.0385649 112.3217,24.9931686 C112.064386,24.9477723 111.932738,24.6919024 112.034466,24.4195248 C112.136195,24.1471472 112.423428,23.9614351 112.680742,24.0068314 C112.938055,24.0522277 113.063719,24.3080976 112.967975,24.5804752 Z" id="Path" fill="#263238"></path>
                <path d="M109.965713,23.5822478 C109.864512,23.8534746 109.57877,24.0384019 109.322792,23.9931975 C109.066814,23.947993 108.935849,23.6932042 109.031096,23.4178679 C109.126344,23.1425317 109.423992,22.9617138 109.67997,23.0069183 C109.935948,23.0521227 110.066913,23.311021 109.965713,23.5822478 Z" id="Path" fill="#263238"></path>
                <path d="M111,24 C110.433769,24.8945138 109.760784,25.6970247 109,26.384716 C109.392157,27.0667644 110.368192,26.9980689 110.368192,26.9980689 L111,24 Z" id="Path" fill="#ED893E"></path>
                <path d="M113.867978,23 C113.845019,22.9980623 113.823591,22.9891319 113.805224,22.97422 C113.786857,22.959308 113.772317,22.9390884 113.763899,22.9157515 C113.707267,22.7583754 113.618493,22.6177647 113.503699,22.5053773 C113.388906,22.3929898 113.251153,22.3119428 113.102686,22.2687234 C113.070544,22.262152 113.041463,22.2418481 113.023096,22.2122769 C113.003964,22.1826214 112.996311,22.1460576 113.001668,22.1103363 C113.004729,22.0928126 113.010851,22.0761314 113.01927,22.0612194 C113.028453,22.0462232 113.039933,22.0334174 113.052943,22.0233919 C113.066718,22.0133663 113.081258,22.0063737 113.097329,22.002751 C113.113401,21.9992125 113.129472,21.9990441 113.145543,22.0024982 C113.33457,22.0536371 113.509822,22.1537242 113.656758,22.2943349 C113.803694,22.4350298 113.918487,22.6122043 113.990425,22.8112835 C114.00267,22.8443931 114.003435,22.8815467 113.99119,22.9149091 C113.978946,22.9481872 113.955987,22.9751467 113.92614,22.9898902 C113.907008,22.9965458 113.887876,22.9999158 113.867978,23 L113.867978,23 Z" id="Path" fill="#263238"></path>
                <path d="M108.180394,21.9985817 C108.135852,21.9940671 108.093931,21.977977 108.059869,21.952279 C108.021485,21.9176677 108,21.8711335 108,21.8226314 C108,21.7741293 108.021485,21.7275951 108.059869,21.6929839 C108.269085,21.462628 108.537514,21.2798481 108.842887,21.1598083 C109.14826,21.0398843 109.481668,20.9860575 109.815338,21.0030737 C109.870492,21.0100191 109.920536,21.0356013 109.954728,21.0744956 C109.98892,21.1133899 110.004772,21.1624707 109.998746,21.2114358 C109.989706,21.2597064 109.960492,21.3032309 109.916736,21.3332119 C109.872981,21.3633087 109.81809,21.3776625 109.762936,21.3734953 L109.762936,21.3734953 C109.499747,21.3624984 109.237475,21.4072962 108.997735,21.5038374 C108.757996,21.6004942 108.547864,21.7463477 108.384762,21.9291276 C108.359609,21.9544783 108.327906,21.9740412 108.292273,21.9860799 C108.256639,21.9982344 108.218255,22.0025174 108.180394,21.9985817 Z" id="Path" fill="#263238"></path>
                <path d="M116.922453,157.996719 C116.663642,158.016459 116.404832,157.946787 116.188781,157.796992 C116.121265,157.73661 116.068378,157.661132 116.03687,157.575203 C116.004237,157.489275 115.992985,157.396379 116.004237,157.304644 C116.004237,157.250068 116.017741,157.196653 116.044747,157.150205 C116.071753,157.103757 116.111138,157.065437 116.157273,157.039891 C116.580373,156.816941 117.809161,157.597266 117.957696,157.685517 C117.97345,157.695968 117.985828,157.709903 117.992579,157.727321 C118.000456,157.744739 118.001581,157.764479 117.998206,157.783058 C117.995955,157.801637 117.988078,157.817894 117.9757,157.831828 C117.963322,157.844602 117.947569,157.853891 117.93069,157.857375 C117.600987,157.943304 117.262283,157.989752 116.922453,157.996719 Z M116.35532,157.183879 C116.31481,157.183879 116.275426,157.190847 116.238292,157.207103 C116.215787,157.207103 116.188781,157.244262 116.18428,157.318579 C116.176403,157.380122 116.183155,157.442827 116.204535,157.502048 C116.224789,157.560108 116.260798,157.612362 116.305808,157.653004 C116.512857,157.834151 117.012474,157.86202 117.656125,157.727321 C117.261158,157.459084 116.818929,157.274453 116.35532,157.183879 L116.35532,157.183879 Z" id="Shape" fill="#0C9ABE"></path>
                <path d="M116.925884,157.99607 C116.913863,158.00131 116.900917,158.00131 116.888896,157.99607 C116.567106,157.744546 115.93832,156.77513 116.004897,156.282562 C116.015993,156.20527 116.045583,156.134529 116.088119,156.084748 C116.131579,156.033657 116.185211,156.006147 116.241616,156.004837 C116.298022,155.994357 116.355353,156.000907 116.408984,156.024487 C116.463541,156.048068 116.513474,156.087368 116.556009,156.141079 C116.925884,156.560286 116.99616,157.838867 116.999858,157.896508 C117.000783,157.914849 116.997084,157.933189 116.991536,157.950219 C116.985988,157.965939 116.977666,157.98035 116.96657,157.99083 C116.953624,157.99738 116.939754,157.99869 116.925884,157.99607 L116.925884,157.99607 Z M116.293399,156.19872 L116.26011,156.19872 C116.163943,156.19872 116.156545,156.277322 116.152847,156.303522 C116.11216,156.596967 116.522721,157.351539 116.833415,157.676425 C116.811223,157.172066 116.681767,156.687358 116.463541,156.287802 C116.416382,156.230161 116.356277,156.19872 116.293399,156.19872 L116.293399,156.19872 Z" id="Shape" fill="#0C9ABE"></path>
                <path d="M85.9129211,155.998817 C85.3428209,155.961061 84.3461708,155.851225 84.0713743,155.494257 C84.0330258,155.44363 84.0094426,155.386137 84.002265,155.326929 C83.9951901,155.266862 84.0047259,155.206795 84.0303599,155.151019 C84.0442023,155.114979 84.0688109,155.08323 84.10193,155.058345 C84.1349466,155.032602 84.1753458,155.01544 84.2190262,155.006859 C84.682489,154.914185 85.8596024,155.789442 85.9744427,155.892413 C85.9861318,155.901853 85.9942322,155.913866 85.9978209,155.927595 C86.0015122,155.941325 86.0004869,155.955054 85.9949499,155.967926 C85.986747,155.979939 85.9744427,155.98852 85.9597801,155.994527 C85.9451174,155.999675 85.9287117,156.001392 85.9129211,155.998817 L85.9129211,155.998817 Z M84.2723449,155.126993 L84.2477363,155.126993 C84.2303051,155.130425 84.2141044,155.13729 84.2011849,155.147587 C84.1881628,155.157884 84.1787295,155.170755 84.1739103,155.185343 C84.1553513,155.223099 84.1478662,155.264288 84.1521727,155.304618 C84.1563767,155.344949 84.1723723,155.384421 84.198519,155.418745 C84.3543737,155.621255 84.8957639,155.761983 85.6709361,155.840928 C85.1869661,155.511419 84.5389385,155.106398 84.2682435,155.130425 L84.2723449,155.126993 Z" id="Shape" fill="#0C9ABE"></path>
                <path d="M85.0418923,154.283897 C84.8379211,154.719971 85.4261173,155.520694 85.7866247,155.956768 C85.7950444,155.972745 85.8101051,155.984963 85.8291977,155.992481 C85.8482904,156 85.8702292,156.00188 85.8909821,155.99812 C85.9096004,155.994361 85.9263213,155.985903 85.9391288,155.974625 C85.9518177,155.963347 85.9598817,155.94925 85.9621348,155.934213 C85.9811089,155.761287 86.1234144,154.332767 85.6964978,154.054582 C85.6559407,154.028267 85.6076754,154.01135 85.5562083,154.003832 C85.5047411,153.996313 85.4518509,154.000073 85.4023997,154.01323 C85.3190324,154.032026 85.2426617,154.06586 85.1798101,154.112851 C85.1169585,154.159841 85.0696419,154.21905 85.0418923,154.283897 Z" id="Path" fill="#0C9ABE"></path>
                <path d="M123.642903,42 C124.499446,43.210787 125.228606,44.3819483 125.975335,45.601541 C126.722065,46.8211337 127.402907,48.0539351 128.070572,49.3175564 C129.45312,51.8944414 130.576509,54.6022014 131.426463,57.4012108 C131.527492,57.7710512 131.624127,58.1408916 131.711978,58.5239406 C131.755903,58.7132636 131.795436,58.9069895 131.834969,59.1051183 L131.892071,59.3957072 L131.918427,59.5454045 L131.953567,59.7831591 C132.065576,60.7847001 131.974431,61.7985691 131.685623,62.7638965 C131.250762,64.2554761 130.635808,65.6882774 129.853938,67.0302697 C129.147839,68.2871767 128.369264,69.501486 127.521506,70.6670336 C126.694612,71.8259769 125.804027,72.9386901 124.855241,74 L122.571126,72.3929554 C123.761501,70.0022014 124.973839,67.5498074 125.905055,65.1458448 C126.137859,64.5470556 126.344308,63.9482664 126.524402,63.3626857 C126.703397,62.8166208 126.838467,62.2571271 126.928514,61.6895982 C127.003187,61.3236103 127.003187,60.9460649 126.928514,60.5800771 C126.928514,60.5800771 126.928514,60.5800771 126.928514,60.5800771 L126.897766,60.4788112 L126.840664,60.2718767 C126.805523,60.1309851 126.765991,59.9900936 126.717673,59.8315905 C126.634215,59.5498074 126.537579,59.2592185 126.436551,58.9730325 C125.522905,56.5621354 124.41489,54.2297193 123.124584,51.9988993 C122.483275,50.8409466 121.806826,49.7050083 121.112806,48.5602642 C120.418787,47.4155201 119.689627,46.2795817 119,45.218492 L123.642903,42 Z" id="Path" fill="#FFB573"></path>
                <path d="M123.595963,39.1524849 C127.008867,39.8878685 130,48.8043938 130,48.8043938 L122.87723,55 C122.87723,55 120.544577,50.468199 118.676733,46.0972631 C116.641041,41.3356548 119.464326,38.2654285 123.595963,39.1524849 Z" id="Path" fill="#FFFFFF"></path>
                <path d="M123.595963,39.1524849 C127.008867,39.8878685 130,48.8043938 130,48.8043938 L122.87723,55 C122.87723,55 120.544577,50.468199 118.676733,46.0972631 C116.641041,41.3356548 119.464326,38.2654285 123.595963,39.1524849 Z" id="Path" fill="#0C9ABE" opacity="0.4"></path>
                <polygon id="Path" fill="#0C9ABE" points="73.6146817 51 72 56.8918956 72.3853183 57 74 51.1081044"></polygon>
                <polygon id="Path" fill="#0C9ABE" points="70.6444279 60 70 62.877909 70.3555721 63 71 60.122091"></polygon>
                <path d="M121.140928,48.6074452 L84.1323132,38.1989372 C81.3197107,37.4079085 78.3983984,39.0466116 77.6073749,41.8592327 L67.1989359,78.8675341 C66.4079124,81.6801552 68.0466047,84.6014868 70.8592072,85.3925155 L107.867264,95.8010235 C110.679866,96.592164 113.601625,94.9533491 114.392649,92.140728 L124.801088,55.1324266 C125.592111,52.3198055 123.953084,49.3984739 121.140928,48.6074452 Z" id="Path" fill="#0C9ABE"></path>
                <path d="M99.1361177,59 C98.9429755,59.0015245 98.7504826,58.9740454 98.5648065,58.9181789 C98.0214117,58.7538723 97.5610085,58.3729126 97.2819533,57.8567151 C97.0027899,57.3406311 96.9273725,56.7304143 97.0716069,56.156647 L98.8028528,49.6116346 C98.9619111,49.0461565 99.3263383,48.5689065 99.8175793,48.2826474 C100.30882,47.9965018 100.887489,47.9241706 101.428936,48.0814371 C101.970492,48.2387036 102.431436,48.6129639 102.712547,49.1233704 C102.993658,49.6338904 103.07243,50.2399059 102.931874,50.8107209 L101.200628,57.3557332 C101.071759,57.826965 100.800927,58.241649 100.428817,58.5380141 C100.056708,58.8343791 99.6032295,58.9964147 99.1361177,59 L99.1361177,59 Z" id="Path" fill="#FFFFFF"></path>
                <path d="M91.4734168,85 C91.3390856,85.0011283 91.2053746,84.9851166 91.076501,84.9523359 C90.7025319,84.8584293 90.3856194,84.6404321 90.1937354,84.3451892 C90.0017274,84.0499462 89.9500043,83.7009343 90.0494813,83.3728024 L92.0340605,77.1412185 C92.059984,76.9558938 92.1313048,76.7776012 92.2434336,76.618566 C92.3554382,76.4595308 92.505522,76.3234313 92.6833899,76.2194634 C92.8612578,76.1156036 93.0626926,76.046472 93.2740503,76.0166123 C93.485408,75.9868608 93.701479,75.9971386 93.9078753,76.0469047 C94.1141475,76.0965627 94.3057834,76.1845189 94.4696352,76.3047149 C94.633363,76.4249109 94.7655856,76.5744256 94.8571243,76.7431977 C94.948539,76.9119698 94.9972852,77.0959962 94.9998899,77.2826192 C95.0024947,77.4693503 94.958834,77.6543505 94.8720086,77.8249617 L92.8874295,84.0565457 C92.7997359,84.3257155 92.6147979,84.56297 92.3599035,84.7329322 C92.1051332,84.9028943 91.7941745,84.9965844 91.4734168,85 L91.4734168,85 Z" id="Path" fill="#FFFFFF"></path>
                <path d="M105.65628,62 C105.512036,62.0015393 105.371415,61.9501886 105.256591,61.8537849 C105.141766,61.7575024 105.059216,61.6218591 105.022002,61.4680492 C104.984789,61.3143605 104.994998,61.1513463 105.050983,61.004682 C105.106968,60.8580176 105.205655,60.7360598 105.331347,60.6580648 L111.039631,57.0877388 C111.189254,56.9979962 111.364674,56.9760753 111.528677,57.0266993 C111.692791,57.0774445 111.832204,57.1966168 111.917829,57.3590255 C112.001257,57.523493 112.022115,57.7178747 111.976009,57.8995399 C111.929904,58.0812051 111.821227,58.2352571 111.671933,58.3279064 L105.96365,61.8982324 C105.870122,61.9590296 105.764628,61.9939093 105.65628,62 L105.65628,62 Z" id="Path" fill="#FFFFFF"></path>
                <path d="M80.5942293,77 C80.2427869,77.0019859 79.9005026,76.8957735 79.6214092,76.6979769 C79.3423159,76.5000743 79.1420967,76.2219294 79.0524617,75.9073204 C78.9627122,75.5926054 78.9886984,75.2592344 79.1259555,74.9596774 C79.2633272,74.6600145 79.5044144,74.4112317 79.811211,74.2524432 L85.7639817,71.1275533 C86.1241244,70.9788348 86.5310878,70.9594368 86.9057689,71.0731751 C87.2805645,71.1869135 87.5961759,71.4255202 87.7914725,71.7427792 C87.9867692,72.0599322 88.0476706,72.4330534 87.9623857,72.7895326 C87.8771009,73.1460117 87.6516969,73.4604087 87.3300183,73.6715613 L81.3772476,76.7964512 C81.1393658,76.9251356 80.8697739,76.9952019 80.5942293,77 L80.5942293,77 Z" id="Path" fill="#FFFFFF"></path>
                <path d="M113.163057,73 C113.083165,73.000249 113.004383,72.9883606 112.92782,72.9645837 L106.536478,70.9410208 C106.339744,70.8443957 106.180294,70.6699899 106.08753,70.4499274 C105.994767,70.229865 105.975016,69.9790696 106.031717,69.743704 C106.088529,69.5082118 106.21802,69.3042114 106.396445,69.1690121 C106.57487,69.0339393 106.790134,68.9769001 107.002513,69.0085183 L113.398293,71.0320812 C113.593584,71.1077118 113.758916,71.2582143 113.867658,71.4579147 C113.97529,71.657615 114.019674,71.893866 113.991934,72.1264493 C113.964194,72.3590325 113.866548,72.5734037 113.714532,72.7327593 C113.563625,72.8921149 113.368334,72.9865899 113.163057,73 Z" id="Path" fill="#FFFFFF"></path>
                <path d="M85.2685026,65 C85.1026601,65.0008214 84.9373967,64.9809085 84.7774606,64.9406589 L78.1067016,63.2459389 C77.6992758,63.0819748 77.3700229,62.7893178 77.1790492,62.4215636 C76.9881914,62.0538094 76.9483521,61.6354254 77.0670592,61.2429918 C77.1856505,60.8506642 77.4547971,60.5104491 77.8251632,60.2846277 C78.1956451,60.0588063 78.642447,59.9624191 79.0841531,60.0132607 L85.7549121,61.7079806 C86.1588636,61.8362497 86.5017823,62.0883393 86.7256465,62.4214577 C86.9495107,62.754682 87.0405387,63.1483866 86.9833277,63.535842 C86.9260009,63.9234032 86.7240251,64.2808832 86.4114491,64.5476957 C86.0989889,64.8145081 85.6951532,64.9743414 85.2685026,65 L85.2685026,65 Z" id="Path" fill="#FFFFFF"></path>
                <path d="M104.799737,84 C104.587197,83.9996617 104.378549,83.9481761 104.194842,83.8505425 C104.011135,83.7529089 103.858817,83.6126857 103.753459,83.4439952 L100.166915,77.6571464 C100.085646,77.5313792 100.032724,77.3921568 100.011068,77.2473744 C99.9894125,77.1027031 99.9996319,76.9555855 100.040875,76.8144727 C100.082239,76.6734711 100.153897,76.5413655 100.251712,76.4259398 C100.349527,76.3105142 100.471552,76.2139926 100.61061,76.1421574 C100.749789,76.0703222 100.903081,76.0245078 101.061726,76.0074942 C101.220371,75.9904806 101.381206,76.0024902 101.534741,76.042967 C101.688276,76.0833326 101.83147,76.1512758 101.955807,76.2429046 C102.080265,76.3345334 102.183555,76.4478462 102.259471,76.5762823 L105.841149,82.3586831 C105.919863,82.4841167 105.970717,82.6225607 105.990547,82.7660087 C106.010378,82.9094568 105.998942,83.0550176 105.956848,83.1944624 C105.914753,83.333796 105.842852,83.4642336 105.74528,83.5779913 C105.647831,83.6918601 105.526535,83.7869361 105.388573,83.8576593 C105.209367,83.9515121 105.006316,84.0005513 104.799737,84 L104.799737,84 Z" id="Path" fill="#FFFFFF"></path>
                <path d="M91.0855398,59 C90.7460297,59.0004548 90.4124364,58.9052862 90.1190764,58.7239637 C89.8257165,58.5427553 89.5830249,58.2818974 89.4159593,57.9684342 L86.2489199,52.0346582 C86.1248847,51.8024421 86.0451708,51.546491 86.0144041,51.2815251 C85.9836373,51.0165592 86.002248,50.7478276 86.0693754,50.4905071 C86.1365029,50.2333007 86.2507487,49.9925263 86.4056582,49.7821055 C86.5604602,49.5716847 86.7529138,49.3956113 86.971831,49.2640412 C87.1907483,49.1324712 87.4320415,49.0479148 87.6818331,49.0152791 C87.9316247,48.9826433 88.1849663,49.0023845 88.4275504,49.0735898 C88.6700268,49.1447951 88.8970123,49.2659811 89.0953826,49.4303011 C89.2937528,49.5945069 89.4597427,49.7986516 89.5837779,50.0308677 L92.7508173,55.9646437 C92.8749601,56.1965174 92.9547815,56.4521262 92.9855483,56.7167498 C93.0164226,56.9813734 92.9977044,57.2498768 92.9305769,57.5068549 C92.8634494,57.7638331 92.7490961,58.004151 92.5941865,58.2142295 C92.439277,58.4241939 92.2468234,58.5996967 92.0279061,58.7306962 C91.7416462,58.9071119 91.4165514,59 91.0855398,59 Z" id="Path" fill="#FFFFFF"></path>
                <path d="M123.814086,71.155 L120,71 L121.844808,76 C121.844808,76 125.12101,75.32 124.996541,73.33 L123.814086,71.155 Z" id="Path" fill="#FFB573"></path>
                <polygon id="Path" fill="#FFB573" points="117 72.7531915 117.83552 76 121 75.2468085 119.320888 71"></polygon>
            </g>
        </g>
    </g>
</svg>