<?xml version="1.0" encoding="UTF-8"?>
<svg width="383px" height="382px" viewBox="0 0 383 382" version="1.1" xmlns="http://www.w3.org/2000/svg" xmlns:xlink="http://www.w3.org/1999/xlink">
    <title>let-s-start</title>
    <g id="Desktop" stroke="none" stroke-width="1" fill="none" fill-rule="evenodd">
        <g id="1-Card-tela-toda---subtitulos" transform="translate(-369.000000, -217.000000)" fill-rule="nonzero">
            <g id="let-s-start" transform="translate(369.000000, 217.000000)">
                <g id="Group" transform="translate(0.000000, 288.000000)" fill="#ED9C2D">
                    <path d="M62.3161703,85.0524396 C73.0060108,82.3997802 282.299984,30.705978 298.482251,27.1443077 C307.226038,25.2188571 311.448354,26.8271868 319.418895,34.0238681 C324.962043,39.0296264 370.675681,75.6720659 377.71667,82.0589011 C385.095114,88.7525275 382.495889,92.967033 370.031827,92.967033 L60.6340757,92.967033 C55.9014378,92.967033 51.6263297,87.7050989 62.3161703,85.0524396 L62.3161703,85.0524396 Z M329.18643,20.2327253 C349.557889,15.1887473 362.963924,12.1776484 364.42243,11.8336703 C371.617654,10.1344396 381.964865,7.58817582 381.964865,19.8422637 L381.964865,65.7545495 C381.964865,75.5790989 363.225814,58.8305714 343.501314,44.1655385 C334.595011,37.5442198 312.096349,24.4647912 329.185395,20.2327253 L329.18643,20.2327253 Z" id="Shape" opacity="0.2"></path>
                    <path d="M1.18626486,93.844022 C0.960863654,93.9030223 0.721107095,93.835882 0.559375481,93.6684709 C0.397643867,93.5010598 0.339181531,93.2595087 0.40651452,93.0368893 C0.473847509,92.81427 0.656465966,92.6453305 0.884005405,92.5951648 L381.813735,0.413186813 C382.041233,0.347592505 382.286452,0.411910426 382.452227,0.580655423 C382.618002,0.749400421 382.677574,0.995334119 382.607339,1.22100844 C382.537104,1.44668276 382.348398,1.61566995 382.115995,1.66101099 L1.18626486,93.842989 L1.18626486,93.844022 Z" id="Path"></path>
                </g>
                <g id="Group" transform="translate(1.000000, 263.000000)" fill="#9DA7A9">
                    <path d="M38.6586848,4.6185283 C43.140017,3.97969811 45.1494217,6.50037736 45.9768236,11.7862642 C46.8052533,17.0711321 51.1796914,36.4479623 52.0163437,40.0211321 C52.8529961,43.593283 54.8295103,50.2841887 50.0326348,51.5659245 C45.2357593,52.8476604 43.4750891,53.3795094 39.2794932,53.8991321 C35.085953,54.4187547 31.6365606,52.8873962 30.8965241,47.2530566 C30.1564876,41.618717 27.4882449,18.167434 27.0288055,13.8953208 C26.5693662,9.62218868 26.5786167,6.51260377 30.8965241,5.81569811 C35.2154594,5.11981132 34.1773526,5.25735849 38.6586848,4.6185283 L38.6586848,4.6185283 Z" id="Path" opacity="0.2"></path>
                    <path d="M41.1778924,0.189509434 C41.4081246,0.144009332 41.644993,0.227255605 41.7948971,0.406352781 C41.9448012,0.585449956 41.983623,0.831583293 41.8960219,1.04749111 C41.8084207,1.26339892 41.6084905,1.41434405 41.3752355,1.44067925 C33.5174867,2.66230189 28.0134652,3.58233962 24.8693379,4.20181132 C22.9781335,4.57369811 20.0899355,5.76169811 16.2653857,7.65577358 C15.6137424,7.97875472 14.9374313,8.32109434 14.2230905,8.68788679 C12.8005759,9.41841509 7.48875831,12.2396604 6.56165702,12.6991698 C2.8511962,14.5433208 1.30637,17.4175472 1.30637,22.5526415 C1.30637,28.5924906 2.29822448,31.0622264 7.11874006,35.3669434 C9.40858168,37.4166629 11.7009836,39.4635701 13.9959404,41.5076604 C18.9346563,45.8836981 22.3213511,48.746717 24.3872864,50.2179623 C27.5386085,52.4615094 30.8153257,52.5338491 38.5672081,51.0646415 C42.8326963,50.2556604 50.5064637,48.2780377 61.5741208,45.1317736 C61.7963737,45.0601766 62.0403264,45.114496 62.2103402,45.2734364 C62.380354,45.4323768 62.449335,45.670609 62.39024,45.894737 C62.3311451,46.1188651 62.1533917,46.2931712 61.9266659,46.3493208 C50.8230349,49.5057736 43.1215161,51.4905283 38.8066921,52.3096981 C30.7259046,53.8410566 27.1747572,53.7615849 23.6421107,51.2470189 C21.524784,49.7390943 18.1195883,46.8607925 13.1448984,42.4521509 L12.5076448,41.8866792 C10.9936534,40.5417736 5.752756,35.8519245 6.26358676,36.3073585 C1.15939053,31.7499623 0.0287791975,28.9348302 0.0287791975,22.5526415 C0.0287791975,16.9661887 1.81720075,13.6395849 5.99018438,11.5672075 C6.8967291,11.1158491 12.1982684,8.30173585 13.6351726,7.5630566 C14.3546526,7.19320755 15.0371307,6.84883019 15.6939131,6.52381132 C19.6181622,4.57981132 22.5803639,3.36022642 24.6206034,2.95879245 C27.7863151,2.33626415 33.3026706,1.41316981 41.1778924,0.189509434 L41.1778924,0.189509434 Z" id="Path"></path>
                    <path d="M41.0586643,0.189509434 C41.4020232,0.144603412 41.719018,0.378890982 41.7736052,0.717914892 C41.8281924,1.0569388 41.6005197,1.37740238 41.2601187,1.44067925 C34.4456159,2.51864151 29.8275825,3.30316981 27.4111577,3.79324528 C24.2690861,4.42901887 23.796285,6.03067925 24.700774,13.6558868 C26.3093256,27.2109057 28.3043407,43.6615472 28.655858,46.0151321 C29.2458316,49.9683396 32.5410497,52.4075094 38.7943582,51.068717 C39.1291185,51.0168182 39.4465855,51.2328327 39.5180646,51.5611497 C39.5895436,51.8894666 39.390206,52.2160432 39.0636492,52.3056226 C32.0682486,53.8043774 28.0864411,50.8578113 27.391629,46.1995472 C27.0370282,43.8276226 25.0440688,27.3912453 23.4314059,13.8046415 C22.4570245,5.59460377 23.1148347,3.37041509 27.1552285,2.55226415 C29.5952933,2.05709434 34.2266884,1.2705283 41.0586643,0.189509434 L41.0586643,0.189509434 Z" id="Path"></path>
                    <path d="M132.711158,19.6702642 C132.004012,16.7889057 130.780896,16.0400377 129.404634,16.1296981 C128.029399,16.2193585 127.184524,18.2703396 127.828972,21.4838491 C128.474449,24.6983774 128.498089,33.1610943 130.95871,35.2202264 C133.418304,37.2783396 134.733924,36.7862264 136.735106,36.6252453 C138.73526,36.4622264 138.384771,34.1259623 136.29314,31.983283 C134.201509,29.8406038 133.418304,22.5526415 132.711158,19.6702642 L132.711158,19.6702642 Z" id="Path" opacity="0.2"></path>
                    <g transform="translate(112.033304, 13.245283)" id="Path">
                        <path d="M0.46663413,12.9559245 C0.224367748,12.7189876 0.211821251,12.3354439 0.438093582,12.0834462 C0.664365912,11.8314484 1.05012894,11.7993438 1.31562045,12.0104151 C5.71678201,15.8923019 8.8239075,18.5016226 10.7490302,19.872 C13.8982967,22.1155472 17.1760417,22.1889057 24.9268963,20.7186792 C26.9568576,20.334566 29.7628293,19.6835094 33.3417281,18.7675472 C33.5652754,18.7036771 33.8061778,18.7652284 33.9707272,18.9282584 C34.1352766,19.0912883 34.1974947,19.3300584 34.1331794,19.5516901 C34.068864,19.7733217 33.8881691,19.9428246 33.6613827,19.9942642 C30.0588439,20.9163396 27.2282043,21.5724906 25.1674082,21.9637358 C17.0866207,23.4950943 13.5344454,23.4156226 10.0028268,20.9010566 C8.02939609,19.4950189 4.90171402,16.8693962 0.46663413,12.9559245 L0.46663413,12.9559245 Z"></path>
                        <path d="M11.2752784,1.14724528 C11.2440935,0.920480904 11.3386702,0.694665935 11.5227066,0.556476579 C11.7067429,0.418287224 11.9516443,0.389194577 12.1634084,0.480365481 C12.3751726,0.571536385 12.5208968,0.768805212 12.5446466,0.99645283 C13.5169723,9.02309434 14.1799217,14.348717 14.3772648,15.6681509 C14.9672383,19.6213585 18.2634843,22.0615472 24.5157649,20.7217358 C24.7402674,20.6709024 24.975001,20.7436848 25.1302676,20.9122708 C25.2855341,21.0808568 25.3373375,21.3191919 25.2658823,21.5362016 C25.1944271,21.7532113 25.0107564,21.9153574 24.785056,21.9606792 C17.7896553,23.4584151 13.8078478,20.5118491 13.1130358,15.8546038 C12.913637,14.5168302 12.2517155,9.19630189 11.2752784,1.14724528 L11.2752784,1.14724528 Z"></path>
                    </g>
                </g>
                <path d="M169.502149,170.404977 C166.932238,167.535002 162.848151,163.757784 157.723643,165.397919 C152.598114,167.038055 147.232645,168.913091 145.721533,169.529055 C144.210421,170.143976 142.038708,173.239457 145.277389,177.087667 C148.51607,180.936921 170.764132,206.553723 172.619328,208.718994 C174.474525,210.88322 173.931341,212.80315 170.279147,214.854623 C166.626952,216.907141 142.304174,230.8248 140.029337,232.046288 C137.755522,233.267777 136.923389,235.24095 140.029337,236.69734 C143.136306,238.15373 155.510068,244.308152 157.723643,245.5453 C159.937218,246.783492 162.87674,245.19869 164.098903,244.284139 C165.322086,243.370633 167.329415,242.465479 164.772777,240.695887 C162.21716,238.925251 166.373739,237.292424 171.565634,234.942364 C176.757529,232.592304 187.728407,227.507989 195.000124,222.578188 C202.272861,217.647342 203.30103,208.922575 196.054839,200.603927 C188.808648,192.285278 172.07104,173.274953 169.502149,170.404977 L169.502149,170.404977 Z" id="Path" fill="#2CB6C5" opacity="0.4"></path>
                <path d="M109.477706,198.232031 C110.531407,191.606582 109.8469,187.128088 103.492766,183.407525 C97.1366357,179.686962 87.1434421,170.449488 82.1253921,163.621924 C77.1073421,156.795392 71.5085593,160.725289 72.0344118,166.313352 C72.5592665,171.900384 75.797201,188.426367 80.6516081,200.930677 C85.5050173,213.433955 90.1927881,231.487143 97.5846581,230.584844 C104.978524,229.682546 108.424005,204.856448 109.478704,198.232031 L109.477706,198.232031 Z M128.50319,251.365551 C126.91765,247.165481 125.799091,246.2869 124.228518,246.2869 C122.656947,246.2869 121.673094,249.104134 120.884814,253.133025 C120.096534,257.160885 117.452304,269.96218 116.943415,272.563894 C116.436521,275.166638 117.541111,278.633526 120.884814,277.900344 C124.228518,277.168194 130.760265,273.528064 131.777046,268.40404 C132.794825,263.281047 130.087732,255.565622 128.50319,251.365551 L128.50319,251.365551 Z M94.671016,251.469702 C97.377111,252.357564 97.7403184,255.034555 97.1835334,257.421779 C96.6267484,259.810034 95.5630695,266.264303 95.1170427,268.80002 C94.671016,271.336768 92.1425335,270.866541 90.3135246,270.437563 C88.4855135,270.007553 85.8532574,267.934845 84.0801266,268.971199 C82.3069958,270.007553 84.4363493,275.634802 80.9449679,274.099348 C77.4525887,272.563894 77.8028245,271.241897 77.8028245,268.40404 L77.8028245,249.673355 C77.8028245,247.494433 79.194787,246.391051 81.422925,247.165481 C83.6520607,247.93888 91.9649211,250.580809 94.671016,251.469702 L94.671016,251.469702 Z" id="Shape" fill="#2CB6C5" opacity="0.2"></path>
                <path d="M151.513397,161.518162 C144.588591,161.94923 141.422702,163.218148 140.439443,169.190364 C139.456185,175.163592 135.779206,176.784651 129.797715,175.487399 C123.818271,174.190147 117.649346,172.248317 116.811528,176.170429 C115.973709,180.092542 111.012349,181.981754 103.326542,177.000185 C95.640735,172.019628 82.1434584,158.959074 78.4347288,147.924338 C74.7259992,136.890614 72.4440193,132.385648 80.0816875,121.206211 C87.7193556,110.026773 106.391032,95.7752165 126.195505,87.9208724 C146.001001,80.0665282 162.767614,77.9253543 165.748117,82.072108 C168.728621,86.2178498 163.936258,87.079986 163.936258,94.8523665 C163.936258,102.625759 168.330196,114.534774 173.873318,121.900372 C179.415416,129.264958 182.807659,124.800469 187.6287,121.833587 C192.450765,118.866705 195.656599,117.00785 197.994912,115.613456 C200.333224,114.21805 212.842121,116.238809 218.521465,127.928242 C224.200809,139.616664 225.427834,160.472872 225.869277,163.812132 C226.309695,167.151392 225.81192,171.173682 221.631021,172.328257 C217.451147,173.481819 214.668319,173.957411 211.817893,174.109195 C208.967466,174.259968 203.502186,172.302959 202.635689,168.282693 C201.769192,164.262426 201.769192,153.464474 192.330931,156.433379 C182.891646,159.403297 158.436154,161.086082 151.512372,161.518162 L151.513397,161.518162 Z" id="Path" fill="#262254" opacity="0.2"></path>
                <g id="Group" transform="translate(41.000000, 0.000000)" fill="#262254">
                    <path d="M151.662438,38.332093 C151.737757,37.9950209 152.065539,37.7775021 152.405199,37.8391902 C152.744859,37.9008782 152.97532,38.2197835 152.927429,38.5618372 C151.572451,46.0150698 147.920215,52.5286279 141.842464,58.4067674 C141.612403,58.6288896 141.254225,58.6482847 141.001549,58.4523023 C138.766645,56.7144236 136.015592,55.773244 133.185082,55.7781628 C126.137124,55.7781628 120.423459,61.4948605 120.423459,68.5465581 C120.423459,75.5982558 126.137124,81.3149535 133.185082,81.3149535 C135.761609,81.3149535 138.223326,80.5491395 140.313717,79.138593 C140.503759,78.9964584 140.756566,78.9705174 140.971488,79.0710979 C141.18641,79.1716784 141.328555,79.3824516 141.341332,79.6195031 C141.354109,79.8565546 141.235444,80.0814003 141.032579,80.2045233 C138.715114,81.7705571 135.981596,82.6054308 133.185082,82.6013291 C125.426536,82.6013291 119.136747,76.3092209 119.136747,68.5465581 C119.136747,60.7838953 125.426536,54.4907674 133.185082,54.4907674 C136.152588,54.4907674 138.981494,55.4149186 141.338742,57.1007442 C146.994485,51.5051279 150.386069,45.3506744 151.661403,38.332093 L151.662438,38.332093 Z M141.569399,100.210895 C141.345756,99.9345507 141.38836,99.5291341 141.664558,99.3053721 C141.940756,99.0816101 142.345958,99.1242367 142.569601,99.4005814 C145.600202,103.143756 152.137197,107.183942 159.169639,109.519674 C167.220901,112.193814 174.886356,112.389407 180.538996,109.594186 C184.469468,107.651709 186.849472,102.783616 188.180661,94.4683256 C189.2543,87.7591744 189.587356,80.7933721 189.905931,64.0272209 C190.102455,53.6235349 190.183133,50.1183837 190.386897,44.5206977 C190.38549,44.2841297 190.513892,44.0658532 190.721291,43.9522471 C190.92869,43.8386409 191.181659,43.8480151 191.380091,43.97666 C191.578522,44.1053049 191.690435,44.3324867 191.671541,44.5683023 C191.468811,50.1546047 191.388133,53.6556163 191.191609,64.0510233 C190.872,80.8844419 190.536876,87.8792209 189.44979,94.6711628 C188.059644,103.359012 185.510009,108.571721 181.108914,110.748081 C175.10667,113.716128 167.108159,113.511221 158.76418,110.740837 C151.515562,108.333698 144.772734,104.165186 141.570433,100.210895 L141.569399,100.210895 Z" id="Shape"></path>
                    <path d="M169.568841,98.0417791 C169.913846,98.0279299 170.186406,97.7440645 170.186406,97.3985988 C170.186406,97.0531332 169.913846,96.7692677 169.568841,96.7554186 C161.46276,96.7554186 154.891631,90.1808023 154.891631,82.0704186 C154.901092,81.8344785 154.780679,81.6122946 154.577888,81.4915069 C154.375098,81.3707193 154.122486,81.3707193 153.919695,81.4915069 C153.716905,81.6122946 153.596492,81.8344785 153.605953,82.0704186 C153.605953,90.8917674 160.753206,98.0417791 169.568841,98.0417791 L169.568841,98.0417791 Z M173.993725,80.6050233 C173.65338,80.6738863 173.42906,81.000545 173.486869,81.3431156 C173.544679,81.6856861 173.863757,81.9205479 174.207833,81.8737907 C176.967438,81.408093 179.053691,80.1807209 180.426253,78.1968488 C180.539129,78.0336171 180.570426,77.8274111 180.511069,77.6380116 L176.102734,63.563593 C175.987449,63.2363955 175.633736,63.059474 175.30296,63.1635592 C174.972184,63.2676444 174.783359,63.6152859 174.876013,63.9496047 L179.188155,77.714593 C178.022459,79.2524302 176.302361,80.2148721 173.993725,80.6050233 L173.993725,80.6050233 Z M122.061845,61.347907 C122.19303,61.5388523 122.211522,61.7856062 122.110265,61.9939901 C122.009008,62.202374 121.803628,62.3402289 121.572512,62.3549397 C121.341396,62.3696505 121.120211,62.258947 120.993378,62.0650814 C110.132863,45.8577674 110.88379,33.6947791 124.133618,17.853814 C128.57712,12.5417558 137.815798,7.6860814 147.223073,5.85123256 C158.091863,3.73282558 167.713245,5.75705814 173.688597,12.4310233 C173.913983,12.6969128 173.886831,13.0940064 173.627353,13.3267075 C173.367875,13.5594086 172.970397,13.5431243 172.730803,13.2899767 C167.101953,7.00305814 157.934644,5.07403488 147.469245,7.11482558 C138.332966,8.89482558 129.358043,13.6128605 125.119339,18.6796512 C112.234631,34.0859651 111.521974,45.6197442 122.061845,61.347907 L122.061845,61.347907 Z" id="Shape"></path>
                    <path d="M167.045064,8.26251163 C166.862274,8.41082858 166.613129,8.44744897 166.395428,8.35799812 C166.177726,8.26854727 166.026214,8.06730193 166.000365,7.83325744 C165.974515,7.59921295 166.078454,7.36972386 166.271382,7.23487209 C176.260987,-0.304255814 186.089236,-1.60613953 193.70918,2.82316279 C200.747828,6.91302326 204.952399,15.4797907 204.721742,25.2553023 C204.372137,40.0334419 195.867837,46.600814 181.554712,46.2386047 C170.952781,45.9705698 157.567455,41.794814 146.126678,36.1371047 C145.915507,36.0382677 145.7743,35.8328626 145.757583,35.6002047 C145.740866,35.3675468 145.851256,35.144045 146.046125,35.0160023 C146.240995,34.8879597 146.48985,34.8754139 146.696597,34.9832093 C157.984292,40.566407 171.20309,44.6904186 181.587811,44.9522442 C195.24103,45.2978953 203.105077,39.2251977 203.436064,25.2252907 C203.656378,15.8947791 199.671086,7.7750814 193.063755,3.93566279 C185.926845,-0.213186047 176.647828,1.01522093 167.046099,8.26147674 L167.045064,8.26251163 Z M130.724399,81.8075581 C130.915621,81.6767566 131.162359,81.6589045 131.370401,81.7608183 C131.578443,81.862732 131.715666,82.0686758 131.729674,82.3000138 C131.743682,82.5313519 131.632313,82.7523647 131.43809,82.8786628 L121.792918,89.3104651 C121.601995,89.4488226 121.350729,89.4716227 121.138042,89.3698893 C120.925355,89.2681559 120.785313,89.0581835 120.773047,88.8226355 C120.760782,88.5870875 120.878258,88.3636914 121.079227,88.2403953 L130.724399,81.8065233 L130.724399,81.8075581 Z M159.673361,110.103349 C159.868256,109.974158 160.117858,109.960917 160.325314,110.068764 C160.532771,110.176611 160.665426,110.38857 160.672047,110.622395 C160.678187,110.85622 160.557288,111.075105 160.356021,111.194116 L134.636253,127.276209 C134.441313,127.408976 134.189396,127.424395 133.979734,127.316391 C133.770073,127.208387 133.636271,126.994272 133.630875,126.758387 C133.625798,126.522502 133.749965,126.302653 133.954627,126.185442 L159.673361,110.103349 L159.673361,110.103349 Z" id="Shape"></path>
                    <g transform="translate(160.950764, 63.869919)" id="Oval">
                        <ellipse cx="1.91455365" cy="1.91556977" rx="1.91455365" ry="1.91556977"></ellipse>
                        <ellipse cx="20.1064335" cy="3.83217442" rx="1.91455365" ry="1.91556977"></ellipse>
                    </g>
                    <path d="M121.529163,83.3412558 C121.575039,83.1098267 121.743783,82.9220541 121.968929,82.8518996 C122.194075,82.7817452 122.43954,82.8404523 122.608637,83.0048969 C122.777734,83.1693415 122.843363,83.4131686 122.779674,83.6403372 C118.917468,99.7845233 123.669202,114.817244 137.081421,128.802663 C137.253174,128.966016 137.321271,129.210612 137.258659,129.439284 C137.196047,129.667955 137.012863,129.843676 136.78188,129.896639 C136.550897,129.949602 136.309514,129.871232 136.153622,129.692663 C122.450755,115.405058 117.560421,99.9325116 121.528129,83.3402209 L121.529163,83.3412558 Z M123.013433,76.1192969 C123.24924,76.1101833 123.4714,76.2304821 123.592286,76.4332823 C123.713171,76.6360824 123.713375,76.8888266 123.592815,77.0918212 C123.472256,77.2948157 123.250289,77.4154719 123.014468,77.4061977 C98.343515,77.4434535 72.4158455,88.1855465 45.2283562,109.659384 C18.2632489,130.957291 22.6467597,175.652884 58.6343691,243.841372 C58.7545875,244.045703 58.7528016,244.299616 58.629721,244.502234 C58.5066403,244.704853 58.2821953,244.823367 58.0455541,244.811617 C57.8089129,244.79802 57.5983949,244.656211 57.4976352,244.441605 C21.2504077,175.762581 16.8089742,130.467791 44.4308841,108.649337 C71.8293777,87.0099186 98.0239056,76.157093 123.012399,76.1192969 L123.013433,76.1192969 Z" id="Shape"></path>
                    <path d="M15.9504764,344.52314 C16.2363118,344.716639 16.3186358,345.101323 16.1370499,345.394959 C15.9554639,345.688596 15.5746596,345.786574 15.2740215,345.617012 C12.1296438,343.66936 12.3603004,338.845767 16.0994206,337.389686 C26.6082618,333.297756 33.523824,329.987163 36.613382,326.610337 C40.3845665,322.488395 42.8038755,316.537814 45.0897554,306.076174 C45.8272361,302.700384 63.8422446,217.314198 63.4409227,219.217349 L63.5691803,218.610907 C74.7275837,165.796651 81.1704549,135.602884 82.0713605,132.123605 C83.1315536,128.033744 85.8311674,125.045 89.5237425,123.453349 C89.8472417,123.324927 90.2141617,123.477182 90.3518661,123.796983 C90.4895705,124.116783 90.3481276,124.488169 90.0326352,124.635186 C86.6938026,126.073674 84.2724249,128.754023 83.3166996,132.446488 C82.4230343,135.894721 75.9646481,166.163 64.8269313,218.876872 L64.6986738,219.483314 C65.1051674,217.5605 47.0849871,302.970488 46.3464721,306.351453 C44.0150815,317.014895 41.5202661,323.151756 37.561867,327.478605 C34.2747511,331.071721 27.3209185,334.401977 16.5648712,338.589116 C15.3682034,339.019153 14.5238265,340.097421 14.3928081,341.362839 C14.2617897,342.628257 14.8673242,343.856805 15.9504764,344.52314 L15.9504764,344.52314 Z" id="Path"></path>
                    <path d="M24.2779056,350.064942 C24.499036,349.993772 24.7413393,350.047394 24.9118428,350.205234 C25.0823463,350.363074 25.1545691,350.600618 25.100799,350.826718 C25.047029,351.052819 24.8756171,351.232361 24.6523348,351.296453 C23.1742704,351.746628 21.6217339,352.22164 19.9926567,352.720453 C16.653824,353.741884 13.8528455,352.683198 12.779206,350.35264 C11.7324592,348.080035 12.7812747,345.508349 15.4560644,344.466221 C18.776279,343.173651 27.8111931,339.346651 42.5452918,332.98936 C42.7569996,332.894264 43.003487,332.920613 43.190336,333.058314 C43.3771849,333.196014 43.4754346,333.423723 43.4474501,333.654216 C43.4194655,333.88471 43.2695842,334.082261 43.0552189,334.171198 C28.3025021,340.535733 19.2634506,344.364802 15.9225494,345.665651 C11.3859571,347.432198 14.0400601,353.1965 19.6171931,351.489977 L24.2779056,350.064942 L24.2779056,350.064942 Z" id="Path"></path>
                    <path d="M65.0772403,331.690581 C65.1034984,331.348618 65.3931256,331.087309 65.7357942,331.096188 C66.0784629,331.105528 66.3538127,331.381856 66.3618841,331.724733 C66.2584506,335.585884 64.8527897,339.421163 62.4996781,341.920407 C58.3354464,346.34143 46.1923562,351.001512 31.5596223,355.295244 C28.2890558,356.254581 25.5066953,355.181407 24.4144378,352.883965 C23.3387296,350.625849 24.353412,348.082105 27.0292361,347.039977 C30.356691,345.744302 39.3926395,342.130488 54.1339785,336.200605 C54.4588859,336.08568 54.8166017,336.247314 54.9452569,336.567181 C55.0739122,336.887047 54.9278118,337.251539 54.6139099,337.393826 C39.8673991,343.326814 30.829382,346.940628 27.495721,348.239407 C23.0139485,349.984221 25.7187339,355.667802 31.1976052,354.060628 C45.521073,349.859 57.6352017,345.208233 61.5636052,341.037651 C63.6870944,338.78264 64.9810472,335.252651 65.0772403,331.690581 L65.0772403,331.690581 Z" id="Path"></path>
                    <path d="M68.7801588,311.857035 C72.1086481,314.43286 73.3777768,316.760314 73.3777768,321.712233 C73.3777768,325.598221 75.4929914,327.96914 77.8388627,327.457907 C82.5109528,326.437512 85.3843348,327.605895 86.3235107,330.722965 C87.1354635,333.413663 86.0421717,336.174733 83.8204206,337.655651 C82.2172017,338.724686 78.5484163,339.749221 75.1940687,340.361872 C71.1653348,341.097674 67.8233991,339.976895 64.8765794,337.052314 C64.6459062,336.79884 64.6542487,336.408959 64.8955531,336.165595 C65.1368575,335.922231 65.5264529,335.910778 65.7816223,336.139547 C68.437794,338.77436 71.3597897,339.754395 74.963412,339.096209 C78.1367511,338.516674 81.7041717,337.520081 83.1077639,336.584547 C84.8713047,335.409953 85.7349742,333.226349 85.0936867,331.094488 C84.3737897,328.711151 82.193412,327.824256 78.1129614,328.714256 C74.8496352,329.426256 72.0920987,326.334023 72.0920987,321.712233 C72.0920987,317.181512 71.0215622,315.218337 67.99303,312.874326 C67.6579056,312.615605 66.4291159,311.696628 66.271897,311.577616 C66.0637312,311.419603 65.9717604,311.151315 66.0391717,310.898733 L107.536682,155.659965 C107.585731,155.426816 107.759484,155.239843 107.988329,155.173956 C108.217174,155.108068 108.463677,155.174042 108.62908,155.345447 C108.794483,155.516853 108.851729,155.76565 108.777884,155.992163 L67.3941502,310.811802 C67.8285708,311.137791 68.5319185,311.665581 68.7801588,311.857035 L68.7801588,311.857035 Z M171.207227,237.614477 C166.793721,213.116709 155.591876,156.567558 155.255717,154.663372 C155.212535,154.435491 155.295223,154.201988 155.472166,154.052141 C155.64911,153.902294 155.892943,153.859277 156.110439,153.939537 C156.327934,154.019797 156.485456,154.210922 156.522777,154.439837 C156.855833,156.327465 168.055609,212.872477 172.472219,237.385767 C175.184245,252.437116 177.605622,266.793023 179.730146,280.584919 C179.760446,280.782382 179.697393,280.98273 179.559481,281.127198 C176.71506,284.100419 175.555571,287.815651 176.600249,291.155221 C176.869176,292.018314 177.122588,292.635105 177.942815,294.522733 C178.143476,294.984291 178.273803,295.284407 178.403094,295.594872 C179.198498,297.488709 179.620506,298.831988 179.735318,300.114209 C179.942185,302.420965 177.514601,305.004035 174.720863,306.666058 C171.913678,308.337395 172.114339,312.291686 174.769476,314.21864 C177.009845,315.843407 180.488313,315.660233 183.141382,314.177244 C186.419189,312.3455 188.271682,309.771744 188.697828,304.718407 C189.049502,300.553 190.543082,298.371465 193.195116,297.826081 C195.110704,297.431791 196.664275,297.722593 201.362223,299.014128 C202.600322,299.354605 203.355386,299.552267 204.151824,299.733372 C206.468734,300.264267 208.276751,300.430884 209.87273,300.178372 C212.565103,299.755105 215.944275,299.129 219.94715,298.32593 C220.791167,298.157244 221.658974,297.980279 222.553674,297.797105 C226.199704,297.046814 235.422867,295.070186 235.619391,295.028791 C237.214335,294.699698 238.062489,292.986965 237.53291,291.363233 C236.928858,289.505616 234.822953,288.546279 231.521356,289.274837 L228.184592,290.014779 C227.141983,290.245558 226.271073,290.434942 225.43533,290.611907 C216.982747,292.408465 211.975532,292.957988 209.123871,291.954151 C208.901383,291.882197 208.735428,291.695132 208.69042,291.46556 C208.645412,291.235989 208.728436,291.000058 208.907269,290.84934 C209.086102,290.698623 209.332585,290.656849 209.551052,290.740233 C212.077931,291.630233 216.996193,291.090023 225.169506,289.353488 C226.000077,289.177558 226.867884,288.988174 227.907391,288.75843 L231.244155,288.018488 C235.147734,287.15643 237.92906,288.424163 238.756528,290.964802 C239.511592,293.282942 238.266253,295.79564 235.879009,296.289279 C235.689725,296.328605 226.465528,298.306267 222.812258,299.056558 C221.915489,299.240767 221.045614,299.418767 220.200562,299.587453 C216.181137,300.394663 212.786451,301.022837 210.072356,301.450244 C208.283991,301.731733 206.328064,301.551663 203.864279,300.987651 C202.911065,300.764597 201.963026,300.519957 201.020893,300.253919 C196.567047,299.028616 195.079674,298.751267 193.4537,299.085535 C191.434678,299.501558 190.288635,301.17807 189.979369,304.826035 C189.513918,310.332651 187.399738,313.270686 183.768189,315.301128 C180.716901,317.006616 176.712991,317.217733 174.014412,315.259733 C170.660064,312.824651 170.400446,307.740267 174.063026,305.560802 C176.452339,304.138872 178.599618,301.853849 178.454811,300.229081 C178.354481,299.112442 177.965571,297.873686 177.217747,296.092651 C177.090524,295.78943 176.962266,295.492419 176.763674,295.03707 C175.921725,293.100802 175.662107,292.464349 175.372494,291.539163 C174.20473,287.803233 175.42421,283.723721 178.411369,280.471081 C176.301326,266.785779 173.896498,252.542674 171.207227,237.614477 L171.207227,237.614477 Z" id="Shape"></path>
                    <path d="M232.528059,282.97964 C232.525362,283.209611 232.400519,283.42083 232.200263,283.533735 C232.000007,283.646639 231.754761,283.644075 231.556907,283.527008 C231.359053,283.409941 231.23865,283.196157 231.241052,282.966186 C231.257601,281.453186 230.506674,280.563186 228.838292,280.164756 C227.77603,279.911209 226.518279,280.050919 220.245039,280.976105 C219.079343,281.147895 218.186712,281.274151 217.313734,281.386953 C213.562202,281.873349 210.823283,282.025477 208.692554,281.763651 C202.238305,280.966791 195.115876,275.822384 193.622296,270.659349 C192.954116,268.347419 190.976468,250.417023 187.823815,219.203895 L187.424562,215.240291 C186.493661,205.981186 182.664554,167.304477 182.193931,162.813081 C182.096704,161.883756 182.000511,160.904756 181.877425,159.610116 C181.05306,150.90157 180.854468,149.052233 180.208009,145.036884 C177.384275,127.511128 170.886584,116.995674 157.188888,113.172814 C156.962828,113.115181 156.785661,112.939626 156.725875,112.714013 C156.666089,112.488401 156.733053,112.248084 156.900881,112.085963 C157.068709,111.923842 157.311101,111.865321 157.534356,111.933023 C165.244288,114.085581 170.887618,118.46314 174.839811,124.859756 C178.118652,130.167674 180.160429,136.6595 181.477137,144.833012 C182.130837,148.886651 182.330464,150.747372 183.157931,159.488 C183.279983,160.779535 183.375142,161.754395 183.472369,162.678547 C183.944026,167.175116 187.773133,205.855965 188.704034,215.111965 L189.103288,219.074535 C192.220773,249.939942 194.224279,268.11457 194.857292,270.301279 C196.194687,274.926174 202.871318,279.749767 208.850807,280.486605 C210.84397,280.731872 213.498073,280.584919 217.14824,280.110942 C218.01191,279.999174 218.899369,279.872919 220.05679,279.703198 C226.7117,278.722128 227.819472,278.598977 229.13618,278.913581 C231.370343,279.446547 232.549485,280.844674 232.528059,282.97964 L232.528059,282.97964 Z" id="Path"></path>
                    <path d="M237.808043,290.499105 C237.468712,290.552567 237.14726,290.329875 237.077873,289.993265 C237.008485,289.656655 237.215642,289.324882 237.548425,289.239651 C239.143369,288.909523 239.991524,287.196791 239.461944,285.574093 C238.857893,283.716477 236.751987,282.756105 233.450391,283.485698 L230.112592,284.22564 C229.071017,284.455384 228.199073,284.644767 227.364365,284.822767 C218.911781,286.618291 213.904567,287.167814 211.052906,286.163977 C210.82591,286.0957 210.654824,285.908071 210.607643,285.67566 C210.560462,285.443249 210.644829,285.203706 210.827215,285.052234 C211.0096,284.900762 211.260457,284.8619 211.480086,284.951093 C214.006966,285.840058 218.925227,285.299849 227.098541,283.564349 C227.929112,283.388419 228.796918,283.199035 229.835391,282.969291 L233.173189,282.229349 C237.076768,281.367291 239.858094,282.635023 240.685562,285.174628 C241.440627,287.492767 240.195288,290.0065 237.808043,290.499105 L237.808043,290.499105 Z M124.202918,162.728221 C123.97681,162.462159 124.003994,162.064237 124.264182,161.831431 C124.52437,161.598626 124.922637,161.615874 125.161747,161.870302 C135.459192,173.3752 145.752892,184.883453 156.042845,196.395058 C158.633854,199.297907 160.351884,203.328779 160.42015,207.185791 C160.502897,211.803442 158.296661,215.852942 153.648361,218.704047 C147.185837,222.667651 136.501159,228.055256 121.583983,234.87514 C121.373293,234.983713 121.120005,234.967601 120.924755,234.833205 C120.729505,234.69881 120.623913,234.467897 120.649933,234.232211 C120.675953,233.996526 120.829371,233.794238 121.049232,233.705721 C135.922966,226.9055 146.568339,221.536523 152.976043,217.60707 C157.235433,214.995023 159.208944,211.371895 159.134472,207.208558 C159.072412,203.673395 157.477468,199.93436 155.084017,197.252977 C152.18788,194.008616 141.895215,182.500709 124.203953,162.729256 L124.202918,162.728221 Z" id="Shape"></path>
                    <polygon id="Path" points="131.436021 206.436535 132.065931 207.558349 91.9895966 230.065 91.3596867 228.943186"></polygon>
                    <path d="M103.094215,175.019535 C102.877973,174.750944 102.911738,174.359555 103.170781,174.132009 C103.429823,173.904464 103.822084,173.921628 104.060283,174.17093 L135.930206,210.432221 C136.093533,210.603161 136.150027,210.849941 136.077345,211.074966 C136.004664,211.299991 135.814512,211.467022 135.582091,211.510002 C135.349669,211.552983 135.112408,211.464991 134.964137,211.280826 L103.094215,175.02057 L103.094215,175.019535 Z M125.485494,237.077372 L100.9097,225.037535 L93.0022103,229.463733 L117.855206,241.573942 L125.486528,237.077372 L125.485494,237.077372 Z M117.601794,242.88307 L91.332794,230.081558 C91.1185846,229.976173 90.9803014,229.760786 90.9733205,229.522049 C90.9668525,229.283312 91.0927922,229.060475 91.3007296,228.943186 L100.576644,223.75014 C100.760823,223.647006 100.983847,223.640819 101.173455,223.733581 L127.124914,236.448163 C127.337191,236.552445 127.475176,236.764841 127.484248,237.001276 C127.49332,237.237711 127.372017,237.460067 127.168356,237.580326 L118.209983,242.858233 C118.024062,242.967681 117.795692,242.976618 117.601794,242.882035 L117.601794,242.88307 Z M84.9323305,241.686744 C84.8423046,241.468501 84.8789186,241.218461 85.0277334,241.035229 C85.1765482,240.851997 85.4136791,240.764983 85.6456108,240.808501 C85.8775424,240.852019 86.0670501,241.019085 86.1393991,241.243814 C89.1141459,249.378 91.1828155,255.316163 92.3474764,259.061407 C93.5783348,263.016733 93.1842532,267.362209 90.9221631,270.850802 C88.1987597,275.05243 83.0229485,277.76486 75.3730086,278.500663 C75.1419469,278.52724 74.9145386,278.426971 74.7782338,278.238414 C74.6419289,278.049857 74.617953,277.802374 74.7155259,277.591135 C74.8130988,277.379895 75.0170265,277.237794 75.2488884,277.219477 C82.5347425,276.51886 87.3506052,273.994779 89.8433519,270.151221 C91.8840944,267.003105 92.2430086,263.051919 91.119721,259.443279 C89.9623004,255.722872 87.8998369,249.802302 84.9323305,241.685709 L84.9323305,241.686744 Z M41.5119914,246.355105 C41.2827976,246.293551 41.1060809,246.110759 41.0522159,245.879524 C40.9983509,245.648288 41.0760852,245.406161 41.2544622,245.249565 C41.4328393,245.092969 41.6828912,245.047335 41.9050386,245.130837 L57.3869614,250.108628 C57.6119837,250.173807 57.7838111,250.356211 57.8355342,250.584813 C57.8872574,250.813416 57.8107,251.052079 57.6356734,251.207868 C57.4606469,251.363657 57.2148187,251.411946 56.9939142,251.33393 L41.5119914,246.35614 L41.5119914,246.355105 Z M41.9795107,268.412616 C41.6505621,268.297799 41.472727,267.941862 41.5783488,267.609691 C41.6839707,267.27752 42.0346682,267.089822 42.3694549,267.186279 L53.0406867,270.591047 C53.2687184,270.653333 53.4442473,270.835716 53.4978466,271.066058 C53.5514458,271.2964 53.4744822,271.537599 53.297397,271.694255 C53.1203119,271.85091 52.8716284,271.897789 52.6497082,271.816349 L41.9795107,268.411581 L41.9795107,268.412616 Z" id="Shape"></path>
                    <path d="M35.2790901,271.662151 L41.3506352,273.785733 L41.3506352,246.239198 L35.2790901,244.646512 L35.2790901,271.662151 L35.2790901,271.662151 Z M34.7991588,243.19043 L42.1574163,245.120488 C42.4399786,245.194738 42.6370668,245.450154 42.6373476,245.742453 L42.6373476,274.691256 C42.6373476,274.899726 42.5362818,275.095247 42.3663728,275.215911 C42.1964638,275.336576 41.9786703,275.36744 41.7819528,275.298733 L34.4236953,272.726012 C34.1658953,272.635476 33.993412,272.391899 33.993412,272.118535 L33.993412,243.81343 C33.993412,243.391198 34.3916309,243.083837 34.8001931,243.19043 L34.7991588,243.19043 Z" id="Shape"></path>
                    <path d="M21.3197082,245.64 C21.4022534,245.985788 21.1890016,246.333056 20.843397,246.415645 C20.4977924,246.498234 20.1507083,246.284869 20.0681631,245.939081 C18.9955579,241.429058 14.1724549,238.47343 8.96044206,239.059174 C3.82290129,239.63664 0.313403433,245.206384 1.57115451,251.222163 C2.73684979,256.797081 11.0063562,295.724233 12.025176,300.45986 C12.8298884,304.198895 18.1867082,307.393581 23.7131588,306.479779 C26.4334592,306.029605 28.4700644,304.29307 29.7071288,301.699651 C30.7476695,299.516047 31.0879657,296.897791 30.6649227,295.1685 C30.3287639,293.790035 29.8415923,291.393244 29.0410172,287.261988 L28.9665451,286.879081 C27.492618,279.266477 27.4688283,279.1485 27.214382,278.098093 C27.1946378,278.016669 27.1780758,277.934506 27.1647339,277.851791 C26.964073,276.605791 26.96097,276.613035 28.6231459,273.239314 C29.5561159,271.348581 29.9926052,269.902849 29.9926052,268.11664 C29.9926052,264.133372 26.3020987,261.513047 22.172,261.799709 C18.6087167,262.048081 15.8108412,265.307965 15.8108412,269.339872 C15.8203022,269.575812 15.6998891,269.797996 15.4970985,269.918784 C15.294308,270.039571 15.0416963,270.039571 14.8389058,269.918784 C14.6361152,269.797996 14.5157021,269.575812 14.5251631,269.339872 C14.5251631,264.654953 17.8205536,260.81243 22.0830472,260.516453 C26.8906352,260.182186 31.2782833,263.299256 31.2782833,268.11664 C31.2782833,270.134663 30.7890429,271.756326 29.7774635,273.8085 C28.3138798,276.778616 28.3004335,276.812767 28.434897,277.646884 C28.4421373,277.696558 28.4524807,277.746233 28.4638584,277.794872 C28.7265794,278.87736 28.7420944,278.953942 30.2284335,286.633814 L30.3029056,287.017756 C31.0993433,291.124174 31.5854807,293.512686 31.9143991,294.862174 C32.4108798,296.893651 32.031279,299.813058 30.8676524,302.254349 C29.4609571,305.203767 27.0892275,307.224895 23.9231288,307.749581 C17.7502189,308.769977 11.7252189,305.175826 10.7684592,300.729965 C9.74860515,295.992267 1.47806438,257.063047 0.312369099,251.486058 C-1.09329185,244.762419 2.88579399,238.447558 8.81666953,237.781093 C14.6430773,237.126012 20.0878155,240.461442 21.3197082,245.641035 L21.3197082,245.64 Z" id="Path"></path>
                    <path d="M90.1660644,270.575523 C90.109281,270.347281 90.1814419,270.106222 90.3542764,269.946789 C90.5271109,269.787355 90.7730978,269.734934 90.9958658,269.810062 C91.2186339,269.88519 91.3827108,270.075904 91.4238155,270.307488 C93.2266609,278.78836 94.6716266,285.568919 94.9684807,286.950488 C95.7721588,290.689523 101.128979,293.884209 106.656464,292.970407 C109.37573,292.520233 111.412335,290.783698 112.649399,288.190279 C113.68994,286.006674 114.030236,283.388419 113.608227,281.659128 C113.271034,280.280663 112.783863,277.883872 111.983288,273.752616 L111.908815,273.369709 C110.434888,265.757105 110.412133,265.639128 110.156652,264.588721 C110.136908,264.507297 110.120346,264.425134 110.107004,264.342419 C109.906343,263.096419 109.90324,263.103663 111.566451,259.729942 C112.498386,257.839209 112.934876,256.393477 112.934876,254.607267 C112.934876,250.624 109.244369,248.003674 105.11427,248.290337 C101.550987,248.538709 98.7531116,251.798593 98.7531116,255.8305 C98.7337746,256.171282 98.451939,256.437712 98.1107897,256.437712 C97.7696404,256.437712 97.4878048,256.171282 97.4684678,255.8305 C97.4684678,251.145581 100.762824,247.303058 105.025318,247.007081 C109.832906,246.672814 114.220554,249.789884 114.220554,254.607267 C114.220554,256.625291 113.731313,258.246953 112.720768,260.299128 C111.25615,263.269244 111.24167,263.303395 111.376133,264.137512 C111.385442,264.187186 111.394751,264.235826 111.407163,264.2855 C111.66885,265.367988 111.684365,265.44457 113.171738,273.124442 L113.245176,273.508384 C114.041614,277.614802 114.527751,280.003314 114.85667,281.352802 C115.35315,283.384279 114.973549,286.303686 113.809923,288.744977 C112.403227,291.694395 110.031498,293.715523 106.865399,294.240209 C100.692489,295.260605 94.6674893,291.666453 93.7107296,287.220593 C93.4128412,285.837988 91.9689099,279.05743 90.1660644,270.575523 L90.1660644,270.575523 Z" id="Path"></path>
                    <path d="M68.3498755,171.832093 C68.0445439,171.650054 67.944517,171.254831 68.1264593,170.949337 C68.3084015,170.643844 68.7034151,170.543764 69.0087468,170.725802 C77.2244678,175.624942 90.3274206,178.469837 101.593395,177.555 C101.938532,177.540826 102.233261,177.80188 102.26105,178.146372 C102.288839,178.490863 102.03977,178.79583 101.696828,178.837221 C90.1722704,179.773791 76.8024592,176.870942 68.3498755,171.831058 L68.3498755,171.832093 Z M187.057373,166.864651 C187.221807,166.694572 187.46625,166.628472 187.693927,166.692522 C187.921604,166.756571 188.095801,166.940441 188.147553,167.171338 C188.199305,167.402234 188.120267,167.642923 187.94173,167.798116 C183.835421,171.693419 180.925837,173.746628 177.005708,175.104395 C172.270524,176.744686 166.416189,177.038593 158.463189,175.887802 C158.227814,175.864167 158.02439,175.7132 157.933482,175.494692 C157.842575,175.276184 157.87885,175.025387 158.02794,174.84163 C158.177031,174.657872 158.414886,174.570799 158.6473,174.614895 C166.412052,175.737744 172.065725,175.454186 176.584734,173.888407 C180.297996,172.602047 183.071047,170.645081 187.057373,166.863616 L187.057373,166.864651 Z M28.3500815,134.280302 C28.3406205,134.044362 28.4610337,133.822178 28.6638242,133.701391 C28.8666148,133.580603 29.1192264,133.580603 29.322017,133.701391 C29.5248075,133.822178 29.6452207,134.044362 29.6357597,134.280302 C29.6357597,141.615558 34.2023476,152.148605 41.6392146,161.789581 C49.8094249,172.380581 60.3679142,180.651372 71.3928884,184.418349 C71.6147085,184.489291 71.7808955,184.674629 71.8274018,184.902936 C71.873908,185.131243 71.7934724,185.366872 71.6170945,185.519013 C71.4407166,185.671155 71.1959343,185.716054 70.9770858,185.636407 C59.6924936,181.78043 48.935412,173.354407 40.6214292,162.576093 C33.026309,152.729174 28.3500815,141.943616 28.3500815,134.280302 L28.3500815,134.280302 Z M166.910601,139.806581 C166.983108,139.585606 167.169116,139.420951 167.397163,139.375872 C167.62521,139.330793 167.859827,139.412303 168.010877,139.589087 C168.161927,139.765871 168.205916,140.010432 168.125944,140.228814 C167.002657,143.47007 166.140021,145.389779 164.631961,147.535093 C162.625352,150.391372 159.834717,152.852326 155.943549,154.984186 C146.466974,160.177233 130.76267,163.212547 106.753691,163.731023 C106.518948,163.743985 106.295831,163.627802 106.171764,163.427998 C106.047696,163.228194 106.042436,162.97659 106.158045,162.77177 C106.273653,162.56695 106.491719,162.441534 106.726798,162.444663 C130.547528,161.930326 146.062549,158.931233 155.326052,153.855128 C161.999579,150.198884 164.582313,146.526081 166.910601,139.806581 L166.910601,139.806581 Z" id="Shape"></path>
                </g>
            </g>
        </g>
    </g>
</svg>