<svg xmlns="http://www.w3.org/2000/svg" viewBox="0 0 15.272 20">
  <defs>
    <style>
      .cls-1 {
        fill: #c1c7cd;
      }
    </style>
  </defs>
  <g id="Symbol_7_6" data-name="Symbol 7 – 6" transform="translate(-16 -331)">
    <path id="Subtraction_1" data-name="Subtraction 1" class="cls-1" d="M-1820.46,2511c-.763,0-2.6-1.949-4.357-4.635-1.993-3.038-3.183-5.928-3.183-7.73a7.645,7.645,0,0,1,7.637-7.635,7.644,7.644,0,0,1,7.635,7.635c0,2.565-2.3,6.182-3.294,7.617-1.667,2.416-3.614,4.54-4.342,4.735A.371.371,0,0,1-1820.46,2511Zm-.041-16a3.5,3.5,0,0,0-3.5,3.5,3.5,3.5,0,0,0,3.5,3.5,3.5,3.5,0,0,0,3.5-3.5A3.5,3.5,0,0,0-1820.5,2495Z" transform="translate(1844 -2160)"/>
  </g>
</svg>
