<svg xmlns="http://www.w3.org/2000/svg" viewBox="0 0 15.272 20">
  <defs>
    <style>
      .cls-1 {
        fill: #de5548;
      }
    </style>
  </defs>
  <g id="Symbol_2_22" data-name="Symbol 2 – 22" transform="translate(-973 -135)">
    <path id="Subtraction_2" data-name="Subtraction 2" class="cls-1" d="M-863.46,2194h0c-.763,0-2.595-1.949-4.357-4.634-1.993-3.038-3.183-5.928-3.183-7.73a7.645,7.645,0,0,1,7.637-7.636,7.645,7.645,0,0,1,7.636,7.636c0,2.565-2.3,6.182-3.294,7.617-1.667,2.416-3.614,4.54-4.342,4.734A.37.37,0,0,1-863.46,2194Zm-.04-16a3.5,3.5,0,0,0-3.5,3.5,3.5,3.5,0,0,0,3.5,3.5,3.5,3.5,0,0,0,3.5-3.5A3.5,3.5,0,0,0-863.5,2178Z" transform="translate(1844 -2039)"/>
  </g>
</svg>
