<svg width="197" height="47" viewBox="0 0 197 47" fill="none" xmlns="http://www.w3.org/2000/svg">
<path fill-rule="evenodd" clip-rule="evenodd" d="M177.504 16.4298C176.328 16.4298 175.575 16.4495 175.248 16.4889V22.0504C175.387 22.0504 175.759 22.0573 176.362 22.0701C176.963 22.0829 177.344 22.0898 177.504 22.0898C178.236 22.1085 178.967 22.0238 179.675 21.8376C180.193 21.7016 180.649 21.3932 180.964 20.9647C181.284 20.4602 181.437 19.8701 181.404 19.275V19.1273C181.431 18.5677 181.281 18.015 180.973 17.545C180.655 17.1244 180.202 16.8229 179.689 16.6879C178.977 16.4978 178.241 16.4101 177.503 16.4298H177.504ZM187.694 14.9031C187.921 14.9041 188.104 15.0854 188.104 15.31V21.1985H195.135V15.31C195.137 15.2055 195.18 15.107 195.256 15.0331C195.326 14.9523 195.427 14.9051 195.536 14.9041H196.589C196.808 14.9218 196.982 15.0942 197.001 15.31V29.5855C197.001 29.6949 196.954 29.8003 196.871 29.8722C196.796 29.9461 196.695 29.9885 196.589 29.9914H195.538C195.432 29.9914 195.332 29.9491 195.258 29.8732C195.179 29.7983 195.135 29.6929 195.137 29.5855V22.8438H188.106V29.5855C188.11 29.6959 188.067 29.8043 187.987 29.8811C187.908 29.956 187.804 29.9964 187.696 29.9944H186.652C186.425 29.9944 186.241 29.8121 186.24 29.5885V15.31C186.243 15.2055 186.287 15.106 186.362 15.0331C186.435 14.9504 186.539 14.9031 186.651 14.9041H187.696L187.694 14.9031ZM177.504 14.7651C178.521 14.7473 179.531 14.8892 180.502 15.1857C181.309 15.432 182.015 15.9237 182.524 16.5897C183.043 17.3335 183.301 18.2241 183.261 19.1265V19.2753C183.301 20.2398 182.99 21.1866 182.384 21.9423C181.771 22.6526 180.948 23.1521 180.031 23.3698L183.812 29.6051C183.851 29.6603 183.872 29.7263 183.872 29.7933C183.872 29.9253 183.785 29.9904 183.612 29.9904H182.167C182.082 29.9973 181.997 29.9854 181.918 29.9559C181.839 29.8899 181.771 29.8111 181.719 29.7224L178.047 23.6762H177.506C177.025 23.6762 176.272 23.6565 175.249 23.6171V29.5854C175.254 29.6928 175.219 29.7982 175.15 29.881C175.081 29.9569 174.982 29.9992 174.879 29.9943H173.774C173.674 29.9973 173.577 29.9559 173.51 29.881C173.437 29.8002 173.399 29.6938 173.404 29.5854V15.369C173.404 15.1059 173.568 14.9562 173.896 14.9237C174.304 14.8774 174.829 14.8399 175.475 14.8094C176.121 14.7798 176.796 14.7651 177.506 14.7651H177.504ZM16.0723 15.7969C22.231 17.2294 29.6397 19.2953 30.5447 20.0579C31.1776 20.9446 31.4717 26.0578 31.4248 30.7562C25.2651 29.3217 17.8514 27.2548 16.9504 26.4922C16.3204 25.6056 16.0274 20.4963 16.0733 15.7969H16.0723ZM88.3351 15.3553C85.3887 15.3553 84.0202 17.1286 84.0222 21.2882V25.4162C84.0222 29.5776 85.3937 31.3461 88.339 31.3441C91.2844 31.3421 92.6908 29.5707 92.6878 25.4132V21.2842C92.6868 17.1217 91.2834 15.3533 88.3351 15.3553ZM118.16 10.4496C118.547 10.4328 118.875 10.7264 118.895 11.1087V14.681C118.875 15.0633 118.548 15.3588 118.16 15.3411H112.479L112.488 35.5269C112.488 35.9082 112.176 36.2185 111.791 36.2214H107.194C106.808 36.2214 106.496 35.9131 106.496 35.5318L106.486 15.345H100.765C100.392 15.3598 100.076 15.0731 100.062 14.7037C100.062 14.6968 100.061 14.6909 100.061 14.685V11.1126C100.067 10.7432 100.373 10.4476 100.747 10.4535C100.753 10.4535 100.759 10.4535 100.765 10.4535L118.17 10.4456L118.16 10.4496ZM75.8071 10.4699C76.1938 10.4531 76.5227 10.7467 76.5447 11.129V14.7013C76.5237 15.0836 76.1948 15.3791 75.8081 15.3614H70.1267L70.1367 35.5482C70.1327 35.9294 69.8197 36.2368 69.434 36.2378H64.8371C64.4534 36.2348 64.1424 35.9284 64.1394 35.5482L64.1294 15.3614H58.4102C58.0394 15.3781 57.7245 15.0934 57.7085 14.7269C57.7085 14.719 57.7075 14.7102 57.7075 14.7023V11.13C57.7115 10.7615 58.0165 10.4659 58.3893 10.4699C58.3943 10.4699 58.3992 10.4699 58.4052 10.4699L75.8101 10.462L75.8071 10.4699ZM153.603 10.1224C156.1 10.1381 158.591 10.3923 161.04 10.881C161.351 10.9273 161.577 11.1962 161.568 11.5066V15.009C161.605 15.2986 161.398 15.5636 161.105 15.6001C161.06 15.606 161.015 15.606 160.97 15.6001H160.902C159.92 15.5311 155.848 15.2208 153.463 15.2218C151.461 15.2218 150.726 15.8129 150.727 17.0611C150.727 18.0325 151.182 18.4828 153.077 19.4887L157.569 21.8798C161.221 23.8206 162.31 26.1092 162.311 28.919C162.311 32.5958 159.859 36.5169 152.736 36.5198C150.502 36.5484 148.272 36.2932 146.103 35.7593C145.753 35.6607 145.405 35.447 145.405 35.0696V31.6707C145.358 31.3564 145.576 31.0628 145.894 31.0155C145.941 31.0076 145.989 31.0067 146.036 31.0116H146.143C147.581 31.1495 151.443 31.4244 152.809 31.4244C155.231 31.4244 155.931 30.6589 155.931 28.9949C155.931 27.988 155.437 27.4343 153.615 26.3604L148.77 23.5181C145.505 21.6118 144.629 19.4276 144.628 16.8956C144.628 13.0799 146.797 10.1302 153.608 10.1273L153.603 10.1224ZM142.268 10.4387C142.566 10.4092 142.833 10.623 142.864 10.9185C142.866 10.9432 142.867 10.9678 142.866 10.9924C142.851 11.0506 142.841 11.1087 142.832 11.1668L137.614 32.6737C136.808 36.0047 134.246 36.5259 131.824 36.5278C129.402 36.5298 126.806 36.0106 125.996 32.6787L120.757 11.1776C120.757 11.1077 120.722 11.0732 120.722 11.0033C120.742 10.6781 121.024 10.4299 121.353 10.4486H126.237C126.59 10.4673 126.881 10.7274 126.935 11.0722L131.331 31.0846C131.402 31.4659 131.507 31.6028 131.823 31.6028C132.14 31.6028 132.244 31.4649 132.314 31.0846L136.692 11.0673C136.73 10.7264 137.011 10.4624 137.358 10.4437H142.27L142.268 10.4387ZM88.3328 10.1522C94.1238 10.1522 98.7207 13.2329 98.7237 21.285V25.413C98.7237 33.4601 94.1338 36.5457 88.3428 36.5516C82.5518 36.5575 77.9569 33.466 77.9529 25.4179V21.2899C77.9439 13.2418 82.5428 10.1551 88.3328 10.1522ZM39.7973 13.2193C38.2813 11.9405 18.4574 6.99478 16.9444 7.51694C16.4012 8.00954 16.1131 11.7533 16.0732 15.7926C11.9009 14.8222 8.29878 14.1414 7.69376 14.3503C6.52062 15.4212 6.52759 31.6731 7.70074 33.3253C9.21377 34.606 29.0407 39.5517 30.5537 39.0286C31.0959 38.536 31.3869 34.7922 31.4258 30.7529C35.5971 31.7233 39.1943 32.4041 39.8053 32.1933C40.9774 31.1253 40.9735 14.8764 39.7953 13.2173L39.7973 13.2193ZM23.763 3.39005e-06C36.8938 -0.00689302 47.5429 10.5091 47.5498 23.4882C47.5558 36.4662 36.9178 46.9931 23.7869 47C10.656 47.0069 0.00698052 36.4909 3.42939e-06 23.5118C-0.00697366 10.5328 10.6331 0.0068998 23.763 3.39005e-06Z" fill="#494440"/>
</svg>