<!-- Generated by IcoMoon.io -->
<svg version="1.1" xmlns="http://www.w3.org/2000/svg" width="1024" height="1024" viewBox="0 0 1024 1024">
<title></title>
<g id="icomoon-ignore">
</g>
<path d="M908.197 743.663c-163.907-2.809-306.060-93.321-381.829-226.503l-1.158-2.211c-30.954-55.794-49.179-122.351-49.179-193.166 0-86.46 27.157-166.571 73.406-232.275l-0.853 1.279c-232.371 2.576-420.4 188.772-425.935 420.167l-0.008 0.52c0 5.899 0.895 11.797 0.895 17.686 25.793-11 55.787-17.473 87.268-17.686h0.086c0.85-131.124 77.126-244.22 187.57-298.191l1.97-0.876c-8.633 33.695-13.587 72.381-13.587 112.215 0 84.075 22.058 163.004 60.71 231.302l-1.217-2.337c65.34 116.534 170.368 204.253 296.389 245.77l3.731 1.062c-52.219 30.462-114.956 48.443-181.886 48.443-0.116 0-0.232 0-0.358 0h0.015c-23.105-0.048-45.679-2.195-67.587-6.255l2.301 0.357c-16.839 29.86-41.549 53.571-71.331 68.743l-0.96 0.441c41.012 13.292 88.202 20.989 137.171 21.057h0.039c0.95 0.006 2.070 0.009 3.201 0.009 150.803 0 284.167-74.651 365.164-189.003l0.939-1.389c-7.479 0.316-16.327 0.843-24.954 0.843z"></path>
<path d="M355.525 673.795h-7.953c-18.76-51.677-67.434-87.923-124.568-87.923-73.020 0-132.206 59.186-132.206 132.206s59.186 132.206 132.206 132.206c0.055 0 0.109 0 0.164 0h132.357c48.734 0 88.239-39.506 88.239-88.239s-39.506-88.239-88.239-88.239v0z"></path>
</svg>
