<svg xmlns="http://www.w3.org/2000/svg" width="17" height="20.111" viewBox="0 0 17 20.111">
  <g id="Grupo_4571" data-name="Grupo 4571" transform="translate(-664 -540)">
    <path id="icon" d="M7,17.111a.774.774,0,0,1-.536-.214C2.114,12.763,0,9.522,0,6.989a7,7,0,0,1,14,0c0,2.533-2.114,5.774-6.464,9.909A.774.774,0,0,1,7,17.111ZM7,1.553A5.446,5.446,0,0,0,1.555,6.989a6.855,6.855,0,0,0,1.356,3.517A29.887,29.887,0,0,0,7,15.256a29.9,29.9,0,0,0,4.089-4.75,6.855,6.855,0,0,0,1.356-3.517A5.446,5.446,0,0,0,7,1.553Zm0,8.557A3.111,3.111,0,1,1,10.111,7,3.114,3.114,0,0,1,7,10.111ZM7,5.445A1.555,1.555,0,1,0,8.555,7,1.557,1.557,0,0,0,7,5.445Z" transform="translate(664 543)" fill="#c64840"/>
    <g id="Grupo_4526" data-name="Grupo 4526" transform="translate(-3 2)">
      <rect id="Retângulo_1484" data-name="Retângulo 1484" width="8" height="8" rx="3" transform="translate(676 538)" fill="#fff"/>
      <path id="Caminho_2993" data-name="Caminho 2993" d="M20.18,2.407l-.947-.947L17.82,2.88,16.407,1.46l-.947.947L16.88,3.82,15.46,5.233l.947.947L17.82,4.76l1.413,1.42.947-.947L18.76,3.82Z" transform="translate(662.539 537.873)" fill="#c64840"/>
    </g>
  </g>
</svg>
