<?xml version="1.0" encoding="UTF-8"?>
<svg width="271px" height="260px" viewBox="0 0 271 260" version="1.1" xmlns="http://www.w3.org/2000/svg" xmlns:xlink="http://www.w3.org/1999/xlink">
    <title>process-stoped</title>
    <g id="Mobile" stroke="none" stroke-width="1" fill="none" fill-rule="evenodd">
        <g id="36" transform="translate(-52.000000, -228.000000)">
            <g id="Group-2" transform="translate(16.000000, 228.000000)">
                <g id="process-stoped" transform="translate(37.000000, 0.000000)">
                    <rect id="Rectangle" fill-opacity="0" fill="#D8D8D8" fill-rule="nonzero" x="0" y="0" width="270" height="260" rx="2"></rect>
                    <circle id="Oval" fill="#9DA7A9" fill-rule="nonzero" opacity="0.3" cx="135" cy="130" r="123"></circle>
                    <path d="M183.51481,245.644851 L177.429721,239.80422 L179.095979,232.902601 L119.769392,157.963439 L83.2995415,113.787707 C78.228057,117.593912 74.6973205,120.441415 72.7047352,122.328481 C69.718454,125.159514 53.3129504,139.397894 44.5073161,146.317716 C38.6377588,150.93093 34.3418418,154.495293 31.6195652,157.011671 C30.2865585,159.46217 28.8237135,161.030247 27.2284335,161.715901 C24.8359462,162.745683 19.9730686,163.37066 18.7266208,163.999104 C17.8956556,164.418645 16.4544503,165.646062 14.403005,167.683088 L9,155.118536 L9,151.262922 C13.2093581,148.92771 15.6884043,147.760104 16.4380041,147.760104 C17.5615383,147.760104 19.9929771,147.051046 23.3237626,149.156551 C26.6545481,151.262922 30.5817243,148.706671 33.7696876,145.98139 C36.957651,143.256976 53.7258363,128.017419 62.5479168,112.597563 C71.3691317,97.1785745 74.3225205,91.3951536 77.35035,88.2659345 C79.3689029,86.1794995 80.8646403,84.4813997 81.8392932,83.172502 L100.809536,76.6756884 C100.342118,75.8834152 106.474815,75.3520547 119.208491,75.0824738 C138.310303,74.677669 155.691325,72.8356771 157.743636,72.8356771 C159.795082,72.8356771 166.236793,69.4507462 168.355754,69.4507462 C170.47385,69.4507462 177.743064,68.4365672 179.095979,69.4507462 C180.44976,70.4649253 180.44976,72.9396955 178.477084,74.0578929 C176.375434,75.2480363 172.932988,75.0035932 170.180415,75.8400742 C167.427843,76.6756884 168.280448,77.3717446 162.649793,77.9733174 C157.800765,78.4916756 149.614027,80.4290176 145.130277,82.2441381 C140.646527,84.0592585 135.807886,85.5051138 133.650839,87.0203146 C132.21223,88.0292927 130.452489,89.6251077 128.371613,91.8068929 C130.443833,98.3340452 133.069163,104.515336 136.248471,110.3499 C141.016999,119.101311 147.461307,128.6658 167.428709,135.344646 C187.395244,142.024358 206.676234,148.052222 211.884481,149.612498 C217.092729,151.172773 220.361192,154.871493 221.981574,164.957807 C223.061829,171.68086 224.636335,183.424533 226.705092,200.187093 L229.178945,199.660066 C229.161633,204.750031 229.564132,207.295014 230.389038,207.295014 C231.626829,207.295014 234.671105,206.944819 234.992239,207.868849 C235.206039,208.484291 231.00274,214.404669 222.384073,225.627384 C217.142067,223.407459 214.521065,221.973739 214.521065,221.326224 L214.521065,212.337304 L213.082456,212.337304 L213.082456,204.915594 L214.521065,204.346094 L206.718648,163.132284 L162.668836,147.760104 L144.66459,159.752554 C149.659903,171.69733 155.820298,182.132972 163.14491,191.057748 C170.471253,199.98339 177.260931,208.015341 183.515676,215.155335 C184.336254,212.139669 185.839781,210.63227 188.027124,210.63227 C191.30684,210.63227 199.115316,216.547447 199.501369,223.48894 C199.888287,230.430432 198.684253,231.038939 200.018991,234.264375 C200.908816,236.414088 196.911527,240.99263 188.027124,248 L184.642672,240.647635 L183.515676,245.644851 L183.51481,245.644851 Z" id="Path" fill="#FFFFFF" fill-rule="nonzero"></path>
                    <path d="M183,215 C169.052571,199.152972 159.982286,187.837972 155.790857,181.055 C151.599429,174.270306 146.669143,164.9195 141,153" id="Path" stroke="#281F57" stroke-linecap="round"></path>
                    <path d="M125.429749,153.252497 C124.414489,156.983151 125.203944,161.10198 127.736061,164.267305 C130.268177,167.432629 164.923182,211.902615 166.916642,214.712763 C168.910964,217.522043 176.213423,225.285554 177.043384,227.757894 C177.873346,230.230234 179.028226,233.570976 178.450786,236.410649 C177.873346,239.250323 176.213423,242.22981 177.043384,243.811169 C177.873346,245.392529 182.216211,249.027659 183.057377,247.722451 C183.898543,246.417243 185.185285,242.815981 185.185285,241.221595 C185.185285,239.62721 181.61033,229.932372 181.61033,224.550887 C181.61033,219.169401 183.779607,217.079158 183.779607,214.711895 C183.779607,212.3455 183.716692,211.374627 181.61033,209.53622 C179.503967,207.69955 162.204044,187.179217 156.978645,179.381837 C151.754108,171.58359 147.360395,163.048069 147.360395,161.416342 C147.360395,159.784615 147.238874,158.378672 148.982397,157.443404 C150.726782,156.507267 163.318417,148.455445 164.640495,147.373417 C165.963436,146.292257 168.183562,146.492858 169.737479,147.373417 C171.291395,148.253976 204.306298,158.379541 205.67664,159.530173 C207.047844,160.679937 207.610633,162.388952 208.383713,165.13397 C209.156792,167.878119 216.15588,203.982791 215.263864,204.786931 C214.372711,205.591071 213.102344,205.20029 213.102344,206.320528 C213.102344,207.440767 212.477502,213.124456 214.321862,213.124456 C216.166222,213.124456 230.921101,209.796741 230.921101,208.478507 C230.921101,207.159405 231.497679,200.923411 229.533522,200.923411 C227.569364,200.923411 225.78792,197.335175 225.78792,195.200644 C225.78792,193.064376 223.098085,160.388154 221.142546,156.171195 C219.188731,151.955105 216.962572,147.976956 209.705791,146.570145 C202.449011,145.163334 166.582244,133.350465 164.640495,132.376987 C162.698746,131.404377 159.683132,132.437775 158.600648,134.061686 C157.518164,135.685598 149.597758,141.127003 142.656415,142.394001 C135.716796,143.661868 126.445009,149.522711 125.429749,153.252497 L125.429749,153.252497 Z" id="Path" fill-opacity="0.2" fill="#52A4C5" fill-rule="nonzero"></path>
                    <path d="M84,114 C104.368948,138.21852 121.44626,158.977872 135.230201,176.278055 C149.014143,193.578238 163.732854,212.469083 179.3846,232.952326 M188.33948,210.377432 C184.860543,210.377432 181.458781,217.657836 182.054502,226.126894 C182.649355,234.595952 186.719676,248.078374 192.265857,253.742067 C197.812037,259.405761 201.715869,258.993335 204.227085,258.993335 C206.738302,258.993335 209.661406,255.195543 206.852763,250.058886 C204.044987,244.923098 199.946051,236.639849 199.946051,232.49996 C199.946051,228.360072 201.207729,225.379318 198.810107,219.611432 C196.413352,213.843547 191.819283,210.377432 188.33948,210.377432 L188.33948,210.377432 Z" id="Shape" stroke="#281F57" stroke-linecap="round"></path>
                    <path d="M180.386602,226.19135 L177,239.552891 L183.046265,245.3827 L183.939759,241.643876 M218.644627,215.937063 C218.872771,218.243514 220.266795,219.39674 222.828434,219.39674 C226.670458,219.39674 225.089928,214.322372 225.089928,211.727178 C225.089928,209.131985 227.676723,207 231.761639,207 C235.847422,207 235.227181,208.419288 235.227181,211.728051 C235.227181,215.035069 235.392,217.270862 238.615518,221.520001 C241.838169,225.76914 249,230.6577 249,239.730847 C249,248.804867 246.093976,247.980511 242.895614,247.980511 C239.696386,247.980511 231.58988,241.457197 228.33947,234.478524 C226.173398,229.826366 221.493398,225.506568 214.301205,221.520001 L214.301205,212.397131" id="Shape" stroke="#281F57" stroke-linecap="round"></path>
                    <polyline id="Path" stroke="#281F57" stroke-linecap="round" points="225.3301 208.774267 213 212 213 204.382 228.8423 199 230 206.312933"></polyline>
                    <path d="M227,200 C223.829921,174.713267 221.765039,160.5424 220.803622,157.4874 C219.362362,152.904467 216.427008,150.528067 211.395591,148.900467 C206.363307,147.272867 165.016299,135.3042 155.787559,130.059133 C146.558819,124.8132 140.327795,118.9164 135.648898,107.9782 C130.97,97.0408667 129.667323,87.3836 117,83" id="Path" stroke="#281F57" stroke-linecap="round"></path>
                    <path d="M120.473015,157.988235 C122.010597,150.474188 126.083929,145.080024 132.69388,141.806612 C142.608807,136.896494 148.794688,138.644635 157.763477,131 M145.622397,159.459529 L162.992814,147.541176 L207.19502,163.211765 M206.3278,158.858824 L215,205 M26.0570351,150.135529 C23.3513086,150.135529 22.0860345,146.9692 18.2693991,147.626494 C14.4527637,148.283788 9.74462612,152.392965 7.20020252,152.392965 C4.6549117,152.392965 6.57060077,155.328588 9.11589159,155.328588 C11.6611824,155.328588 14.9574858,154.495435 15.8940834,153.444635 C16.8306811,152.392965 19.6491462,158.489694 26.0570351,155.328588" id="Shape" stroke="#281F57" stroke-linecap="round"></path>
                    <path d="M82.4829589,83 C76.8938603,88.4690547 73.087909,93.2329255 71.0625097,97.2933365 C68.0257084,103.382229 61.2417885,114.874658 54.739919,123.431694 C48.2380496,131.990454 34.2549207,145.082047 30.4948243,147.497603 C27.9883818,149.107974 26.2839663,149.68557 25.3807125,149.23039 M92,108.862491 C85.8113278,111.398739 78.8958996,116.285025 71.2537157,123.522212 C63.6123969,130.758537 50.272966,141.676819 31.2354232,156.276195 C30.428205,158.896927 29.0888978,160.630576 27.2166363,161.477142 C24.4091092,162.74699 19.4507308,161.813354 17.8691716,164.034942 C16.2876124,166.257392 11.2401199,169.833312 8,168.824675 M11.5377437,156.277057 C12.8009146,159.902978 14.919754,162.255603 17.8951272,163.335793" id="Shape" stroke="#281F57" stroke-linecap="round"></path>
                    <path d="M61.4420508,107.521061 C65.139051,108.132593 68.5052216,109.731053 71.54229,112.315577 C74.5784947,114.900966 75.674638,117.590151 74.8298562,120.385727 M120.7504,75 C121.353322,75 126.060951,75.8044201 129.694895,79.8697689 C132.117812,82.5788481 133.552559,85.7411705 134,89.3567361 M10.077933,155.171273 C6.24272708,158.887175 3.5269867,161.180205 1.9315756,162.050363 C-0.462836727,163.354734 2.32546161,164 3.95456033,164 C5.04120199,164 7.08146242,162.590102 10.0787968,159.768577" id="Shape" stroke="#281F57" stroke-linecap="round" stroke-linejoin="round"></path>
                    <path d="M4.11263409,164.005439 C2.43551716,165.312821 1.2234976,165.973895 0.47657542,165.986926 C-0.64380785,166.007774 0.237975279,169.419997 2.8401,168.450536 C4.57427349,167.804229 7.32682004,166.051209 11.0968752,163.189737 M2.88764713,168.533062 C3.64407874,169.757049 4.59502133,170.21485 5.7404749,169.907333 C6.88679297,169.600685 9.42494519,167.997079 13.3540671,165.099122 M100.549451,76.3526677 C106.315621,75.2520348 114.88102,74.7021527 126.24392,74.7021527 C143.289134,74.7021527 158.265615,73.0377386 160.580728,71.8910651 C162.895841,70.7443915 166.12213,69.0495732 169.890456,69.0495732 C173.658782,69.0495732 175.427535,69.4257168 177.615568,69.0495732 C179.802736,68.6734295 179.22439,70.5480671 177.096007,70.9589584" id="Shape" stroke="#281F57" stroke-linecap="round" stroke-linejoin="round"></path>
                    <path d="M179.141819,70 L180,70 C180,71.4196643 179.4879,72.5139888 178.466177,73.2829736 C176.932353,74.4372502 173.818452,74.5115907 170,75" id="Path" stroke="#281F57" stroke-linecap="round" stroke-linejoin="round"></path>
                    <path d="M166.005079,71.8487146 C166.005079,71.8487146 171.504108,71 172.599628,71 C173.695147,71 172.350178,72.8601725 170.879199,73.2609058 C169.408219,73.6616391 170.979493,75.7878005 168.35556,76.8657556 C165.730771,77.9419608 155.961958,78.9306696 146.010558,82.3019041 C139.377435,84.5505604 133.706963,87.7826757 129,92" id="Path" stroke="#281F57" stroke-linecap="round" stroke-linejoin="round"></path>
                    <g id="Group" transform="translate(130.000000, 0.000000)">
                        <path d="M15.5348235,27.7142857 C11.5273445,29.7175089 7.50255462,32.4490982 3.46218487,35.9081875 C3.46218487,35.9081875 6.72096639,35.0585714 9.5227395,37.5615179 C11.3905882,39.2295714 13.8885546,43.3044375 17.0183697,49.7861161 L31.3059412,40.7677143 C30.4862689,35.96275 28.2765294,32.6127857 24.6801849,30.7195536 M28.1977647,18.1545893 C23.4814034,14.1420804 20.9341008,8.37924107 20.5549916,0.866071429 L5.19327731,9.30853571 C6.27521008,15.10775 8.28154622,19.4675536 11.2114202,22.3914107 C15.6057983,26.7754643 18.3850672,28.7960089 23.699521,28.1161429 C29.0148403,27.4362768 34.3517983,21.6846964 35.2502353,19.6892679 C35.8491933,18.3598482 36.0439412,16.2362411 35.8336134,13.3193125 L28.1977647,18.1545893 M96.9074202,84.8074464 C97.167084,86.7976786 97.8474034,88.1461518 98.9466471,88.8537321 L85.2987143,96.8519018 C82.5004034,95.6948304 81.1008151,92.7224732 81.1008151,87.9348304 C81.1008151,80.7533661 83.1608151,76.8863571 85.2987143,75.8756518 C87.4366134,74.8649464 98.0430168,71.5946607 99.6797647,71.5946607 C101.316513,71.5946607 102.525681,72.325625 102.525681,75.3057768 C102.525681,77.2925446 100.913168,78.5301607 97.6872773,79.0177589 C96.9082857,80.8876071 96.6477563,82.8172143 96.9082857,84.8074464 L96.9074202,84.8074464 Z" id="Shape" fill="#FFFFFF" fill-rule="nonzero"></path>
                        <path d="M15.5348235,27.7142857 C11.5273445,29.7175089 7.50255462,32.4490982 3.46218487,35.9081875 C3.46218487,35.9081875 6.72096639,35.0585714 9.5227395,37.5615179 C11.3905882,39.2295714 13.8885546,43.3044375 17.0183697,49.7861161 L31.3059412,40.7677143 C30.4862689,35.96275 28.2765294,32.6127857 24.6801849,30.7195536 M28.1977647,18.1545893 C23.4814034,14.1420804 20.9341008,8.37924107 20.5549916,0.866071429 L5.19327731,9.30853571 C6.27521008,15.10775 8.28154622,19.4675536 11.2114202,22.3914107 C15.6057983,26.7754643 18.3850672,28.7960089 23.699521,28.1161429 C29.0148403,27.4362768 34.3517983,21.6846964 35.2502353,19.6892679 C35.8491933,18.3598482 36.0439412,16.2362411 35.8336134,13.3193125 L28.1977647,18.1545893" id="Shape" fill="#FD9800" fill-rule="nonzero" opacity="0.2"></path>
                        <path d="M23.0979664,20.8775179 C22.1510588,20.8775179 23.0789244,23.1812679 22.2826218,24.9671071 C21.4863193,26.7529464 21.0492185,28.4547768 23.699521,28.1161429 C29.0148403,27.4362768 34.3517983,21.6846964 35.2502353,19.6892679 C35.8491933,18.3598482 36.0439412,16.2362411 35.8336134,13.3193125 C27.9744538,18.3581161 23.7289496,20.8775179 23.0979664,20.8775179 L23.0979664,20.8775179 Z M96.9074202,84.8074464 C97.167084,86.7976786 97.8474034,88.1461518 98.9466471,88.8537321 L85.2987143,96.8519018 C82.5004034,95.6948304 81.1008151,92.7224732 81.1008151,87.9348304 C81.1008151,80.7533661 83.1608151,76.8863571 85.2987143,75.8756518 C87.4366134,74.8649464 98.0430168,71.5946607 99.6797647,71.5946607 C101.316513,71.5946607 102.525681,72.325625 102.525681,75.3057768 C102.525681,77.2925446 100.913168,78.5301607 97.6872773,79.0177589 C96.9082857,80.8876071 96.6477563,82.8172143 96.9082857,84.8074464 L96.9074202,84.8074464 Z" id="Shape" fill="#FD9800" fill-rule="nonzero" opacity="0.2"></path>
                        <path d="M88.3791933,82.5729821 C87.4859496,82.8778393 88.3791933,80.7334464 88.3791933,79.0177589 C88.3791933,77.1721607 86.8013025,75.308375 88.129916,74.8311696 C90.4539076,73.9962768 98.0430168,71.5946607 99.6797647,71.5946607 C101.316513,71.5946607 102.525681,72.325625 102.525681,75.3057768 C102.525681,77.2925446 100.913168,78.5301607 97.6872773,79.0177589 C92.9051345,80.9031964 89.8021513,82.0879821 88.3791933,82.5729821 L88.3791933,82.5729821 Z" id="Path" fill="#FD9800" fill-rule="nonzero" opacity="0.2"></path>
                        <path d="M12.8135462,27.6683839 C8.80606723,29.6716071 4.78127731,32.4031964 0.740907563,35.8631518 C0.740907563,35.8631518 4.00055462,35.0126696 6.80146218,37.5156161 C8.66931092,39.1836696 11.1681429,43.2594018 14.2970924,49.7410804 L28.5846639,40.7226786 C27.7649916,35.9168482 25.5561176,32.56775 21.9589076,30.6736518 M23.6034454,16.3912679 C19.9309328,12.8143929 18.1254034,7.54954464 18.1868571,0.597589286 L2.82514286,9.04005357 C3.90707563,14.8392679 5.91427731,19.1999375 8.84328571,22.1229286 C13.2376639,26.5069821 16.0169328,28.5275268 21.3322521,27.8476607 C26.6467059,27.1686607 31.9836639,21.4162143 32.8821008,19.4207857 C33.4810588,18.0913661 33.6758067,15.968625 33.4663445,13.0508304 L21.3313866,20.7874464 C22.2220336,24.1677232 21.1426975,26.5208393 18.0942437,27.8476607 M95.0915042,79.0177589 C94.3107815,80.8876071 94.0511176,82.8172143 94.3107815,84.8074464 C94.5704454,86.7976786 95.2507647,88.1461518 96.3500084,88.8537321 L82.7020756,96.8519018 C79.9037647,95.6948304 78.5041765,92.7224732 78.5041765,87.9348304 C78.5041765,80.7533661 80.5641765,76.8863571 82.7020756,75.8756518 C84.8399748,74.8649464 95.4463782,71.5946607 97.0831261,71.5946607 C98.7198739,71.5946607 99.929042,72.325625 99.929042,75.3057768 C99.929042,77.2925446 95.490521,79.3295446 86.613479,81.4167768 C87.202916,79.1190893 87.202916,77.5575625 86.613479,76.7313304 C86.0231765,75.9059643 84.5275126,75.7154286 82.1247563,76.1597232" id="Shape" stroke="#FD9800" stroke-linecap="round" stroke-linejoin="round"></path>
                    </g>
                    <g id="Group" transform="translate(42.000000, 7.000000)">
                        <g>
                            <path d="M28.1474088,62.5641871 C24.6382117,64.5773333 20.1857007,63.9680234 17.6128686,60.9128187 C16.6630255,59.7851341 16.0518422,58.413255 15.8495839,56.9549006 L15.6498029,56.8735439 C10.6934964,55.648 6.90547445,53.6210058 4.28486861,50.7925614 C0.355262774,46.5498947 -0.911175182,36.113731 1.48011679,29.7904094 C3.87227737,23.4670877 8.27093431,18.7830175 10.0785182,17.2718596 C11.2832847,16.2644211 13.527781,14.9765614 16.8137445,13.4082807 C17.5294818,9.35775439 19.6245766,5.77892398 23.0981606,2.67352047 C28.3081022,-1.98545029 37.2235474,0.0250994152 41.2356715,5.28126316 C45.2486642,10.5374269 45.7029489,13.6549474 45.1722263,16.3492398 C44.8187007,18.1460117 44.1481314,19.544655 43.1613869,20.5451696 C51.2203796,30.5087719 56.1037226,36.6468772 57.8131533,38.9586199 C60.3764307,42.4258012 65.8929927,49.7626199 64.1227591,54.4994854 C62.9414453,57.6576842 59.5104234,60.822807 53.826219,63.9965848 L62.2170219,73.9601871 C60.5362555,76.9253801 58.7573358,79.1116257 56.8802628,80.5180585 C55.0023212,81.9244912 51.7354672,83.4339181 47.0788321,85.0446082 L28.1474088,62.5641871 Z" id="Path" fill="#FFFFFF" fill-rule="nonzero"></path>
                            <path d="M21.7274891,33.5059883 C23.9554818,37.4812164 24.6851168,41.9359298 24.0214964,47.0544795 C22.2173869,47.1661287 20.4080657,47.8464094 18.8897299,49.1160936 C15.2563212,52.1539883 14.6647956,57.411883 17.5685693,60.8608889 C20.4723431,64.3081637 25.7717518,64.6413801 29.4051606,61.6026199 C30.7111181,60.5181245 31.6760763,59.0818892 32.1847226,57.4655439 M40.763146,66.2650526 C46.6488686,67.2577778 60.0897883,63.2920702 63.8474088,55.1866901 C67.1194745,48.1285614 55.8909124,36.8320936 43.1292482,20.4490994 M53.3154745,53.859883 C49.1635036,57.3322573 43.1066642,56.9523041 39.7876934,53.0116959" id="Shape" stroke="#262254" stroke-linecap="round" stroke-linejoin="round"></path>
                            <path d="M43.0337007,35.7701287 L50.7139781,40.5130526 C50.8103942,41.8865965 50.3074672,43.209076 49.2060657,44.4778947 M15.7444818,56.9592281 C4.43861314,53.9723977 -0.0573284672,48.3181053 0.236262774,35.4654737 C0.423014599,27.2986433 10.2253139,11.6270877 21.9620146,13.011883" id="Shape" stroke="#262254" stroke-linecap="round" stroke-linejoin="round"></path>
                            <path d="M16.7425182,13.3208655 C20.8223942,-2.61985965 34.6706934,-3.00673684 41.9661752,6.10781287 C54.0659562,21.2228538 29.7743212,31.4019649 17.7084161,34.5757427 M28.2742263,62.6377544 L47.0519051,84.9355556 M53.8739927,64.0329357 L62.1362409,73.8442105 M44.1863504,85.8114386 C52.836,84.0094737 58.9658029,81.0650526 63.1142993,72.1521637" id="Shape" stroke="#262254" stroke-linecap="round" stroke-linejoin="round"></path>
                        </g>
                        <g stroke-linecap="round" stroke-linejoin="round" transform="translate(34.744526, 34.619883)" id="Shape" stroke="#262254">
                            <path d="M0.768722628,7.58867836 C3.14611679,7.39394152 6.01167153,7.20266667 7.35889051,4.41403509 M12.1883796,1.58126316 C12.830937,1.32441738 13.3744315,0.869895752 13.7397226,0.283883041"></path>
                        </g>
                        <path d="M35.7859927,114.81338 C37.2652409,114.81338 45.2017591,106.581637 47.0371387,108.17848 C48.8733869,109.775322 69.0590876,135.501357 70.8023942,137.484211 C72.5448321,139.466199 78.7519416,149.048982 81.3829708,147.904795 C84.0148686,146.761474 82.6876277,143.79455 85.2726204,141.355579 C87.8584818,138.916608 95.8644891,133.936538 103.701117,132.897942 C111.536876,131.860211 118.781978,125.589684 118.781978,123.785988 C118.781978,121.982292 117.299255,121.16786 115.119905,120.396702 C112.940555,119.626409 104.89546,115.404515 99.3849781,106.581637 C93.8744964,97.7578947 89.5045036,86.9833216 90.4903796,85.8071111 C91.4771241,84.6300351 94.4634161,84.3833684 95.3320292,82.8981754 C96.2006423,81.412117 93.4358467,72.9830409 90.4903796,71.3178246 C87.545781,69.6517427 84.5221387,69.7094854 80.010562,69.7094854 C75.499854,69.7094854 65.5681314,69.7599298 64.5344818,70.5388772 C63.5008321,71.3178246 63.4174453,72.5295205 64.5344818,73.8424795 C65.6523869,75.1545731 65.2146058,78.8433216 55.4183869,80.8703158 C45.6212993,82.8981754 45.1609343,76.3022222 43.7207737,76.3022222 C42.2806131,76.3022222 36.0761095,83.2435088 34.4196642,85.8071111 C32.7640876,88.3707135 26.076635,97.681731 27.0625109,99.4058012 C28.0483869,101.12814 33.0542044,102.429848 34.4196642,106.580772 C35.7859927,110.732561 34.3067445,114.81338 35.7859927,114.81338 L35.7859927,114.81338 Z" id="Path" fill-opacity="0.2" fill="#281F57" fill-rule="nonzero"></path>
                    </g>
                </g>
            </g>
        </g>
    </g>
</svg>