<?xml version="1.0" encoding="utf-8"?>
<!-- Generator: Adobe Illustrator 20.1.0, SVG Export Plug-In . SVG Version: 6.00 Build 0)  -->
<svg version="1.1" id="Layer_1" xmlns="http://www.w3.org/2000/svg" xmlns:xlink="http://www.w3.org/1999/xlink" x="0px" y="0px"
	 viewBox="0 0 96 96" style="enable-background:new 0 0 96 96;" xml:space="preserve">
<style type="text/css">
	.st0{fill:none;stroke:url(#SVGID_1_);stroke-width:2;stroke-miterlimit:10;}
	.st1{fill:url(#SVGID_2_);}
	.st2{clip-path:url(#SVGID_4_);}
	.st3{fill:url(#SVGID_5_);}
	.st4{fill:#1A7272;}
	.st5{fill:url(#SVGID_6_);}
	.st6{fill:url(#SVGID_7_);}
	.st7{fill:url(#SVGID_8_);}
	.st8{fill:#FCDD2B;}
	.st9{fill:#EBF5FE;stroke:#C9AA14;stroke-width:2;stroke-linecap:round;stroke-linejoin:round;stroke-miterlimit:10;}
	.st10{fill:url(#SVGID_9_);}
	.st11{fill:url(#SVGID_10_);}
	.st12{fill:url(#SVGID_11_);}
	.st13{fill:url(#SVGID_12_);}
	.st14{fill:url(#SVGID_13_);}
	.st15{fill:url(#SVGID_14_);}
	.st16{fill:url(#SVGID_15_);}
	.st17{fill:url(#SVGID_16_);}
	.st18{fill:url(#SVGID_17_);}
	.st19{fill:url(#SVGID_18_);}
	.st20{fill:none;stroke:url(#SVGID_19_);stroke-width:2;stroke-miterlimit:10;}
	.st21{fill:#1E0470;}
	.st22{fill:url(#SVGID_20_);}
	.st23{clip-path:url(#SVGID_22_);}
	.st24{fill:#525CDB;}
	.st25{fill:#FFFFFF;}
	.st26{fill:url(#SVGID_23_);}
	.st27{fill:url(#SVGID_24_);}
	.st28{fill:url(#SVGID_25_);}
	.st29{fill:url(#SVGID_26_);}
	.st30{fill:url(#SVGID_27_);}
	.st31{fill:#440ACA;}
	.st32{fill:url(#SVGID_28_);}
	.st33{fill:url(#SVGID_29_);}
	.st34{fill:url(#SVGID_30_);}
	.st35{fill:url(#SVGID_31_);}
	.st36{fill:url(#SVGID_32_);}
</style>
<g>
	<g>
		
			<linearGradient id="SVGID_1_" gradientUnits="userSpaceOnUse" x1="-435.719" y1="-1266.8608" x2="-430.399" y2="-1272.1809" gradientTransform="matrix(0.7071 0.7071 -0.7071 0.7071 -518.6195 1227.0582)">
			<stop  offset="0" style="stop-color:#95B3C6"/>
			<stop  offset="1" style="stop-color:#445975"/>
		</linearGradient>
		<line class="st0" x1="75.9" y1="20.1" x2="69.8" y2="26.2"/>
		
			<linearGradient id="SVGID_2_" gradientUnits="userSpaceOnUse" x1="-463.299" y1="-1233.8809" x2="-402.819" y2="-1233.8809" gradientTransform="matrix(0.7071 0.7071 -0.7071 0.7071 -518.6195 1227.0582)">
			<stop  offset="0" style="stop-color:#314F9D"/>
			<stop  offset="1" style="stop-color:#1D1450"/>
		</linearGradient>
		<path class="st1" d="M69,69.7C56.8,82,37.3,82.3,25.5,70.5S14,39.2,26.3,27S58,14.4,69.8,26.2S81.3,57.5,69,69.7z"/>
		<g>
			<defs>
				
					<ellipse id="SVGID_3_" transform="matrix(0.7071 -0.7071 0.7071 0.7071 -20.2357 47.854)" cx="47.6" cy="48.4" rx="31.3" ry="30.2"/>
			</defs>
			<clipPath id="SVGID_4_">
				<use xlink:href="#SVGID_3_"  style="overflow:visible;"/>
			</clipPath>
			<g class="st2">
				<g>
					
						<linearGradient id="SVGID_5_" gradientUnits="userSpaceOnUse" x1="-415.7566" y1="-1221.3007" x2="-383.4014" y2="-1239.9811" gradientTransform="matrix(0.7071 0.7071 -0.7071 0.7071 -518.6195 1227.0582)">
						<stop  offset="0" style="stop-color:#36B1C1"/>
						<stop  offset="1" style="stop-color:#78D0C1"/>
					</linearGradient>
					<path class="st3" d="M67.8,91.4L51.9,75.6c-2-2-2-5.1,0-7.1l11.3-11.3c2-2,5.1-2,7.1,0l15.8,15.8c2,2,2,5.1,0,7.1L74.9,91.4
						C72.9,93.4,69.7,93.4,67.8,91.4z"/>
					<path class="st4" d="M71.3,95c-0.5,0-0.9-0.2-1.3-0.5L48.8,73.3c-0.3-0.3-0.5-0.8-0.5-1.3s0.2-0.9,0.5-1.3l16.6-16.6
						c0.3-0.3,0.8-0.5,1.3-0.5c0.5,0,0.9,0.2,1.3,0.5l21.2,21.2c0.7,0.7,0.7,1.8,0,2.5L72.6,94.5C72.2,94.9,71.8,95,71.3,95z
						 M66.7,54.8c-0.2,0-0.3,0.1-0.4,0.2L49.7,71.6c-0.1,0.1-0.2,0.3-0.2,0.4c0,0.2,0.1,0.3,0.2,0.4l21.2,21.2
						c0.2,0.2,0.6,0.2,0.8,0L88.4,77c0.2-0.2,0.2-0.6,0-0.8L67.2,55C67,54.9,66.9,54.8,66.7,54.8z"/>
				</g>
				<polygon class="st4" points="82.4,69.4 81.6,68.5 72.8,77.3 66.1,70.5 74.8,61.8 74,60.9 65.2,69.7 58,62.4 57.2,63.3 
					64.4,70.5 55.6,79.2 56.5,80.1 65.2,71.3 72,78.1 63.3,86.9 64.1,87.7 72.8,79 80.1,86.2 80.9,85.3 73.7,78.1 				"/>
			</g>
		</g>
		<linearGradient id="SVGID_6_" gradientUnits="userSpaceOnUse" x1="36.9556" y1="43.7717" x2="52.2291" y2="59.0452">
			<stop  offset="0.4862" style="stop-color:#F1F1F1"/>
			<stop  offset="1" style="stop-color:#9FBACC"/>
		</linearGradient>
		<polygon class="st5" points="42.3,69 27,53.7 46.9,33.8 62.2,49.1 		"/>
		
			<linearGradient id="SVGID_7_" gradientUnits="userSpaceOnUse" x1="-441.699" y1="-1245.7609" x2="-424.419" y2="-1245.7609" gradientTransform="matrix(0.7071 0.7071 -0.7071 0.7071 -518.6195 1227.0582)">
			<stop  offset="0" style="stop-color:#E3EEF1"/>
			<stop  offset="1" style="stop-color:#9FBACC"/>
		</linearGradient>
		<polygon class="st6" points="60.6,47.6 48.4,35.4 51.5,32.3 63.7,44.5 		"/>
		
			<linearGradient id="SVGID_8_" gradientUnits="userSpaceOnUse" x1="-441.699" y1="-1213.3608" x2="-424.419" y2="-1213.3608" gradientTransform="matrix(0.7071 0.7071 -0.7071 0.7071 -518.6195 1227.0582)">
			<stop  offset="0" style="stop-color:#E3EEF1"/>
			<stop  offset="1" style="stop-color:#9FBACC"/>
		</linearGradient>
		<polygon class="st7" points="37.7,70.5 25.5,58.3 28.6,55.2 40.8,67.4 		"/>
		<ellipse transform="matrix(0.7071 -0.7071 0.7071 0.7071 8.0203 59.5581)" class="st8" cx="75.9" cy="20.1" rx="2.2" ry="2.2"/>
		<line class="st9" x1="82" y1="14" x2="79" y2="17"/>
		<line class="st9" x1="82" y1="26.2" x2="79" y2="23.2"/>
		<line class="st9" x1="72.8" y1="17" x2="69.8" y2="14"/>
		
			<linearGradient id="SVGID_9_" gradientUnits="userSpaceOnUse" x1="-435.219" y1="-1251.1609" x2="-430.899" y2="-1251.1609" gradientTransform="matrix(0.7071 0.7071 -0.7071 0.7071 -518.6195 1227.0582)">
			<stop  offset="0" style="stop-color:#95B3C6"/>
			<stop  offset="1" style="stop-color:#445975"/>
		</linearGradient>
		<polygon class="st10" points="59.1,40 56,36.9 60.6,32.3 63.7,35.4 		"/>
		
			<linearGradient id="SVGID_10_" gradientUnits="userSpaceOnUse" x1="-446.019" y1="-1258.7208" x2="-420.099" y2="-1258.7208" gradientTransform="matrix(0.7071 0.7071 -0.7071 0.7071 -518.6195 1227.0582)">
			<stop  offset="0" style="stop-color:#E3EEF1"/>
			<stop  offset="1" style="stop-color:#9FBACC"/>
		</linearGradient>
		<path class="st11" d="M79,35.4c-5.1,5.1-13.3,5.1-18.3,0s-5.1-13.3,0-18.3L79,35.4z"/>
		
			<linearGradient id="SVGID_11_" gradientUnits="userSpaceOnUse" x1="-439.539" y1="-1228.4808" x2="-426.579" y2="-1228.4808" gradientTransform="matrix(0.7071 0.7071 -0.7071 0.7071 -518.6195 1227.0582)">
			<stop  offset="0" style="stop-color:#717B82"/>
			<stop  offset="1" style="stop-color:#444747"/>
		</linearGradient>
		<polygon class="st12" points="43.8,43 34.7,52.2 43.8,61.3 53,52.2 		"/>
		
			<linearGradient id="SVGID_12_" gradientUnits="userSpaceOnUse" x1="-447.099" y1="-1232.8009" x2="-447.099" y2="-1228.4808" gradientTransform="matrix(0.7071 0.7071 -0.7071 0.7071 -518.6195 1227.0582)">
			<stop  offset="0" style="stop-color:#95B3C6"/>
			<stop  offset="1" style="stop-color:#445975"/>
		</linearGradient>
		<polygon class="st13" points="36.2,44.5 31.6,40 34.7,36.9 39.2,41.5 		"/>
		
			<linearGradient id="SVGID_13_" gradientUnits="userSpaceOnUse" x1="-419.019" y1="-1232.8009" x2="-419.019" y2="-1228.4808" gradientTransform="matrix(0.7071 0.7071 -0.7071 0.7071 -518.6195 1227.0582)">
			<stop  offset="0" style="stop-color:#95B3C6"/>
			<stop  offset="1" style="stop-color:#445975"/>
		</linearGradient>
		<polygon class="st14" points="56,64.4 51.5,59.8 54.5,56.8 59.1,61.3 		"/>
		
			<linearGradient id="SVGID_14_" gradientUnits="userSpaceOnUse" x1="-441.699" y1="-1204.7208" x2="-424.419" y2="-1204.7208" gradientTransform="matrix(0.7071 0.7071 -0.7071 0.7071 -518.6195 1227.0582)">
			<stop  offset="0" style="stop-color:#95B3C6"/>
			<stop  offset="1" style="stop-color:#445975"/>
		</linearGradient>
		<path class="st15" d="M22.9,74L22,73.1c-0.7-0.7-1.1-1.6-1.1-2.6l0,0c0-1,0.4-1.9,1.1-2.6l1.2-1.2c0.5-0.5,0.9-1.2,1-1.9l1.3-6.5
			l12.2,12.2l-6.5,1.3c-0.7,0.1-1.4,0.5-1.9,1L28.1,74c-0.7,0.7-1.6,1.1-2.6,1.1h0C24.5,75.1,23.6,74.7,22.9,74z"/>
		<line class="st9" x1="75.9" y1="10.9" x2="75.9" y2="15.3"/>
		<line class="st9" x1="85.1" y1="20.1" x2="80.7" y2="20.1"/>
		
			<linearGradient id="SVGID_15_" gradientUnits="userSpaceOnUse" x1="-435.219" y1="-1230.6409" x2="-426.179" y2="-1230.6409" gradientTransform="matrix(0.7071 0.7071 -0.7071 0.7071 -518.6195 1227.0582)">
			<stop  offset="0" style="stop-color:#FFFFFF"/>
			<stop  offset="1" style="stop-color:#EBF5FE"/>
		</linearGradient>
		<path class="st16" d="M49.9,43l-9.2,9.2c1.6,2.9,2.6,6,3.1,9.2c3.4-2.7,6.5-5.7,9.2-9.2C52.6,48.7,51.5,45.6,49.9,43z"/>
		<g>
			
				<linearGradient id="SVGID_16_" gradientUnits="userSpaceOnUse" x1="-437.379" y1="-1200.5607" x2="-428.739" y2="-1200.5607" gradientTransform="matrix(0.7071 0.7071 -0.7071 0.7071 -518.6195 1227.0582)">
				<stop  offset="0" style="stop-color:#E3EEF1"/>
				<stop  offset="1" style="stop-color:#9FBACC"/>
			</linearGradient>
			<path class="st17" d="M22.7,67.2L22,67.9c-0.7,0.7-1.1,1.6-1.1,2.6s0.4,1.9,1.1,2.6l0.9,0.9c0.7,0.7,1.6,1.1,2.6,1.1
				c1,0,1.9-0.4,2.6-1.1l0.7-0.7c-1.1-0.8-2.2-1.8-3.3-2.8S23.5,68.4,22.7,67.2z"/>
		</g>
		<g>
			<g>
				
					<linearGradient id="SVGID_17_" gradientUnits="userSpaceOnUse" x1="-482.7166" y1="-1221.3007" x2="-450.3614" y2="-1239.9811" gradientTransform="matrix(0.7071 0.7071 -0.7071 0.7071 -518.6195 1227.0582)">
					<stop  offset="0" style="stop-color:#36B1C1"/>
					<stop  offset="1" style="stop-color:#78D0C1"/>
				</linearGradient>
				<path class="st18" d="M20.4,44.1L4.6,28.2c-2-2-2-5.1,0-7.1L15.9,9.9c2-2,5.1-2,7.1,0l15.8,15.8c2,2,2,5.1,0,7.1L27.5,44.1
					C25.6,46,22.4,46,20.4,44.1z"/>
				<path class="st4" d="M24,47.7c-0.5,0-0.9-0.2-1.3-0.5L1.5,26C1.1,25.6,1,25.2,1,24.7c0-0.5,0.2-0.9,0.5-1.3L18.1,6.8
					c0.3-0.3,0.8-0.5,1.3-0.5c0.5,0,0.9,0.2,1.3,0.5L41.9,28c0.3,0.3,0.5,0.8,0.5,1.3c0,0.5-0.2,0.9-0.5,1.3L25.2,47.2
					C24.9,47.5,24.4,47.7,24,47.7z M23.5,46.3c0.2,0.2,0.6,0.2,0.8,0L41,29.7c0.1-0.1,0.2-0.3,0.2-0.4c0-0.2-0.1-0.3-0.2-0.4
					L19.8,7.6c-0.2-0.2-0.6-0.2-0.8,0L2.3,24.3c-0.1,0.1-0.2,0.3-0.2,0.4c0,0.2,0.1,0.3,0.2,0.4L23.5,46.3z"/>
			</g>
			<polygon class="st4" points="35.1,22 34.2,21.2 25.5,29.9 18.7,23.2 27.5,14.4 26.6,13.6 17.9,22.3 10.7,15.1 9.8,15.9 17,23.2 
				8.3,31.9 9.1,32.7 17.9,24 24.7,30.8 15.9,39.5 16.8,40.4 25.5,31.6 32.7,38.9 33.6,38 26.3,30.8 			"/>
		</g>
		
			<linearGradient id="SVGID_18_" gradientUnits="userSpaceOnUse" x1="-434.499" y1="-1232.6809" x2="-432.339" y2="-1232.6809" gradientTransform="matrix(0.7071 0.7071 -0.7071 0.7071 -518.6195 1227.0582)">
			<stop  offset="0" style="stop-color:#717B82"/>
			<stop  offset="1" style="stop-color:#444747"/>
		</linearGradient>
		<path class="st19" d="M45.8,49.7L45.8,49.7c-0.4-0.4-0.4-1.1,0-1.5v0c0.4-0.4,1.1-0.4,1.5,0v0c0.4,0.4,0.4,1.1,0,1.5l0,0
			C46.9,50.1,46.2,50.1,45.8,49.7z"/>
	</g>
	<g>
		
			<linearGradient id="SVGID_19_" gradientUnits="userSpaceOnUse" x1="-435.719" y1="-1266.8608" x2="-430.399" y2="-1272.1809" gradientTransform="matrix(0.7071 0.7071 -0.7071 0.7071 -518.6195 1227.0582)">
			<stop  offset="0" style="stop-color:#95B3C6"/>
			<stop  offset="1" style="stop-color:#445975"/>
		</linearGradient>
		<line class="st20" x1="75.9" y1="20.1" x2="69.8" y2="26.2"/>
		
			<ellipse transform="matrix(0.7071 -0.7071 0.7071 0.7071 -20.2357 47.854)" class="st21" cx="47.6" cy="48.4" rx="31.3" ry="30.2"/>
		
			<linearGradient id="SVGID_20_" gradientUnits="userSpaceOnUse" x1="-419.019" y1="-1232.8009" x2="-419.019" y2="-1228.4808" gradientTransform="matrix(0.7071 0.7071 -0.7071 0.7071 -518.6195 1227.0582)">
			<stop  offset="0" style="stop-color:#95B3C6"/>
			<stop  offset="1" style="stop-color:#445975"/>
		</linearGradient>
		<polygon class="st22" points="56,64.4 51.5,59.8 54.5,56.8 59.1,61.3 		"/>
		<g>
			<defs>
				
					<ellipse id="SVGID_21_" transform="matrix(0.7071 -0.7071 0.7071 0.7071 -20.2357 47.854)" cx="47.6" cy="48.4" rx="31.3" ry="30.2"/>
			</defs>
			<clipPath id="SVGID_22_">
				<use xlink:href="#SVGID_21_"  style="overflow:visible;"/>
			</clipPath>
			<g class="st23">
				<g>
					<path class="st24" d="M70.4,94L49.3,72.9c-0.5-0.5-0.5-1.3,0-1.8l16.5-16.5c0.5-0.5,1.3-0.5,1.8,0l21.1,21.1
						c0.5,0.5,0.5,1.3,0,1.8L72.2,94C71.7,94.5,70.9,94.5,70.4,94z"/>
					<path class="st25" d="M71.3,95c-0.5,0-0.9-0.2-1.3-0.5L48.8,73.3c-0.3-0.3-0.5-0.8-0.5-1.3s0.2-0.9,0.5-1.3l16.6-16.6
						c0.3-0.3,0.8-0.5,1.3-0.5c0.5,0,0.9,0.2,1.3,0.5l21.2,21.2c0.7,0.7,0.7,1.8,0,2.5L72.6,94.5C72.2,94.9,71.8,95,71.3,95z
						 M66.7,54.8c-0.2,0-0.3,0.1-0.4,0.2L49.7,71.6c-0.1,0.1-0.2,0.3-0.2,0.4c0,0.2,0.1,0.3,0.2,0.4l21.2,21.2
						c0.2,0.2,0.6,0.2,0.8,0L88.4,77c0.2-0.2,0.2-0.6,0-0.8L67.2,55C67,54.9,66.9,54.8,66.7,54.8z"/>
				</g>
				<polygon class="st25" points="82.4,69.4 81.6,68.5 72.8,77.3 66.1,70.5 74.8,61.8 74,60.9 65.2,69.7 58,62.4 57.2,63.3 
					64.4,70.5 55.6,79.2 56.5,80.1 65.2,71.3 72,78.1 63.3,86.9 64.1,87.7 72.8,79 80.1,86.2 80.9,85.3 73.7,78.1 				"/>
			</g>
		</g>
		<linearGradient id="SVGID_23_" gradientUnits="userSpaceOnUse" x1="36.9556" y1="43.7717" x2="52.2291" y2="59.0452">
			<stop  offset="0.4862" style="stop-color:#F1F1F1"/>
			<stop  offset="1" style="stop-color:#9FBACC"/>
		</linearGradient>
		<polygon class="st26" points="42.3,69 27,53.7 46.9,33.8 62.2,49.1 		"/>
		
			<linearGradient id="SVGID_24_" gradientUnits="userSpaceOnUse" x1="-441.699" y1="-1245.7609" x2="-424.419" y2="-1245.7609" gradientTransform="matrix(0.7071 0.7071 -0.7071 0.7071 -518.6195 1227.0582)">
			<stop  offset="0" style="stop-color:#E3EEF1"/>
			<stop  offset="1" style="stop-color:#9FBACC"/>
		</linearGradient>
		<polygon class="st27" points="60.6,47.6 48.4,35.4 51.5,32.3 63.7,44.5 		"/>
		
			<linearGradient id="SVGID_25_" gradientUnits="userSpaceOnUse" x1="-441.699" y1="-1213.3608" x2="-424.419" y2="-1213.3608" gradientTransform="matrix(0.7071 0.7071 -0.7071 0.7071 -518.6195 1227.0582)">
			<stop  offset="0" style="stop-color:#E3EEF1"/>
			<stop  offset="1" style="stop-color:#9FBACC"/>
		</linearGradient>
		<polygon class="st28" points="37.7,70.5 25.5,58.3 28.6,55.2 40.8,67.4 		"/>
		<ellipse transform="matrix(0.7071 -0.7071 0.7071 0.7071 8.0203 59.5581)" class="st8" cx="75.9" cy="20.1" rx="2.2" ry="2.2"/>
		<line class="st9" x1="82" y1="14" x2="79" y2="17"/>
		<line class="st9" x1="82" y1="26.2" x2="79" y2="23.2"/>
		<line class="st9" x1="72.8" y1="17" x2="69.8" y2="14"/>
		
			<linearGradient id="SVGID_26_" gradientUnits="userSpaceOnUse" x1="-435.219" y1="-1251.1609" x2="-430.899" y2="-1251.1609" gradientTransform="matrix(0.7071 0.7071 -0.7071 0.7071 -518.6195 1227.0582)">
			<stop  offset="0" style="stop-color:#95B3C6"/>
			<stop  offset="1" style="stop-color:#445975"/>
		</linearGradient>
		<polygon class="st29" points="59.1,40 56,36.9 60.6,32.3 63.7,35.4 		"/>
		
			<linearGradient id="SVGID_27_" gradientUnits="userSpaceOnUse" x1="-446.019" y1="-1258.7208" x2="-420.099" y2="-1258.7208" gradientTransform="matrix(0.7071 0.7071 -0.7071 0.7071 -518.6195 1227.0582)">
			<stop  offset="0" style="stop-color:#E3EEF1"/>
			<stop  offset="1" style="stop-color:#9FBACC"/>
		</linearGradient>
		<path class="st30" d="M79,35.4c-5.1,5.1-13.3,5.1-18.3,0s-5.1-13.3,0-18.3L79,35.4z"/>
		
			<rect x="37.3" y="45.7" transform="matrix(0.7071 -0.7071 0.7071 0.7071 -24.0541 46.2724)" class="st31" width="13" height="13"/>
		
			<linearGradient id="SVGID_28_" gradientUnits="userSpaceOnUse" x1="-447.099" y1="-1232.8009" x2="-447.099" y2="-1228.4808" gradientTransform="matrix(0.7071 0.7071 -0.7071 0.7071 -518.6195 1227.0582)">
			<stop  offset="0" style="stop-color:#95B3C6"/>
			<stop  offset="1" style="stop-color:#445975"/>
		</linearGradient>
		<polygon class="st32" points="36.2,44.5 31.6,40 34.7,36.9 39.2,41.5 		"/>
		
			<linearGradient id="SVGID_29_" gradientUnits="userSpaceOnUse" x1="-441.699" y1="-1204.7208" x2="-424.419" y2="-1204.7208" gradientTransform="matrix(0.7071 0.7071 -0.7071 0.7071 -518.6195 1227.0582)">
			<stop  offset="0" style="stop-color:#95B3C6"/>
			<stop  offset="1" style="stop-color:#445975"/>
		</linearGradient>
		<path class="st33" d="M22.9,74L22,73.1c-0.7-0.7-1.1-1.6-1.1-2.6l0,0c0-1,0.4-1.9,1.1-2.6l1.2-1.2c0.5-0.5,0.9-1.2,1-1.9l1.3-6.5
			l12.2,12.2l-6.5,1.3c-0.7,0.1-1.4,0.5-1.9,1L28.1,74c-0.7,0.7-1.6,1.1-2.6,1.1h0C24.5,75.1,23.6,74.7,22.9,74z"/>
		<line class="st9" x1="75.9" y1="10.9" x2="75.9" y2="15.3"/>
		<line class="st9" x1="85.1" y1="20.1" x2="80.7" y2="20.1"/>
		
			<linearGradient id="SVGID_30_" gradientUnits="userSpaceOnUse" x1="-435.219" y1="-1230.6409" x2="-426.179" y2="-1230.6409" gradientTransform="matrix(0.7071 0.7071 -0.7071 0.7071 -518.6195 1227.0582)">
			<stop  offset="0" style="stop-color:#FFFFFF"/>
			<stop  offset="1" style="stop-color:#EBF5FE"/>
		</linearGradient>
		<path class="st34" d="M49.9,43l-9.2,9.2c1.6,2.9,2.6,6,3.1,9.2c3.4-2.7,6.5-5.7,9.2-9.2C52.6,48.7,51.5,45.6,49.9,43z"/>
		<g>
			
				<linearGradient id="SVGID_31_" gradientUnits="userSpaceOnUse" x1="-437.379" y1="-1200.5607" x2="-428.739" y2="-1200.5607" gradientTransform="matrix(0.7071 0.7071 -0.7071 0.7071 -518.6195 1227.0582)">
				<stop  offset="0" style="stop-color:#E3EEF1"/>
				<stop  offset="1" style="stop-color:#9FBACC"/>
			</linearGradient>
			<path class="st35" d="M22.7,67.2L22,67.9c-0.7,0.7-1.1,1.6-1.1,2.6s0.4,1.9,1.1,2.6l0.9,0.9c0.7,0.7,1.6,1.1,2.6,1.1
				c1,0,1.9-0.4,2.6-1.1l0.7-0.7c-1.1-0.8-2.2-1.8-3.3-2.8S23.5,68.4,22.7,67.2z"/>
		</g>
		<g>
			<g>
				<path class="st24" d="M23.7,47.3L1.3,24.9c-0.1-0.1-0.1-0.4,0-0.5L19.1,6.6c0.1-0.1,0.4-0.1,0.5,0L42,29c0.1,0.1,0.1,0.4,0,0.5
					L24.2,47.3C24.1,47.5,23.9,47.5,23.7,47.3z"/>
				<path class="st25" d="M24,47.7c-0.5,0-0.9-0.2-1.3-0.5L1.5,26C1.1,25.6,1,25.2,1,24.7c0-0.5,0.2-0.9,0.5-1.3L18.1,6.8
					c0.3-0.3,0.8-0.5,1.3-0.5c0.5,0,0.9,0.2,1.3,0.5L41.9,28c0.3,0.3,0.5,0.8,0.5,1.3c0,0.5-0.2,0.9-0.5,1.3L25.2,47.2
					C24.9,47.5,24.4,47.7,24,47.7z M23.5,46.3c0.2,0.2,0.6,0.2,0.8,0L41,29.7c0.1-0.1,0.2-0.3,0.2-0.4c0-0.2-0.1-0.3-0.2-0.4
					L19.8,7.6c-0.2-0.2-0.6-0.2-0.8,0L2.3,24.3c-0.1,0.1-0.2,0.3-0.2,0.4c0,0.2,0.1,0.3,0.2,0.4L23.5,46.3z"/>
			</g>
			<polygon class="st25" points="35.1,22 34.2,21.2 25.5,29.9 18.7,23.2 27.5,14.4 26.6,13.6 17.9,22.3 10.7,15.1 9.8,15.9 17,23.2 
				8.3,31.9 9.1,32.7 17.9,24 24.7,30.8 15.9,39.5 16.8,40.4 25.5,31.6 32.7,38.9 33.6,38 26.3,30.8 			"/>
		</g>
		
			<linearGradient id="SVGID_32_" gradientUnits="userSpaceOnUse" x1="-434.499" y1="-1232.6809" x2="-432.339" y2="-1232.6809" gradientTransform="matrix(0.7071 0.7071 -0.7071 0.7071 -518.6195 1227.0582)">
			<stop  offset="0" style="stop-color:#717B82"/>
			<stop  offset="1" style="stop-color:#444747"/>
		</linearGradient>
		<path class="st36" d="M45.8,49.7L45.8,49.7c-0.4-0.4-0.4-1.1,0-1.5v0c0.4-0.4,1.1-0.4,1.5,0v0c0.4,0.4,0.4,1.1,0,1.5l0,0
			C46.9,50.1,46.2,50.1,45.8,49.7z"/>
	</g>
</g>
</svg>
