<!-- Generated by IcoMoon.io -->
<svg version="1.1" xmlns="http://www.w3.org/2000/svg" width="32" height="32" viewBox="0 0 32 32">
<title>substitution</title>
<path d="M13.733 7.067c1.733 0 3.333 0.667 4.533 1.867 0.133 0 0.133 0.133 0 0.267l-2.933 2.8c-0.133 0.133 0 0.267 0.133 0.267h7.467c0.133 0 0.133-0.133 0.133-0.133v-7.333c0-0.133-0.133-0.267-0.267-0.133l-2.4 2.4c0 0-0.133 0-0.267 0-3.6-3.6-9.467-3.6-13.067 0-1.333 1.333-2.267 3.2-2.667 5.067 0 0.133 0 0.133 0.133 0.133h2.4c0.133 0 0.133 0 0.133-0.133 0.8-2.933 3.467-5.067 6.667-5.067zM21.333 19.067c0.8-1.2 1.333-2.533 1.6-3.867 0-0.133 0-0.133-0.133-0.133h-2.4c-0.133 0-0.133 0-0.133 0.133-0.8 3.6-4.267 5.867-7.867 5.067-1.2-0.267-2.4-0.8-3.2-1.733-0.133 0-0.133-0.133 0-0.267l2.8-2.933c0.133-0.133 0-0.267-0.133-0.267h-7.333c-0.133 0-0.133 0.133-0.133 0.133v7.467c0 0.133 0.133 0.267 0.267 0.133l2.4-2.4c0 0 0.133 0 0.267 0 3.2 3.067 8.267 3.467 11.867 0.933 0 0 0.133 0 0.267 0l6.267 6.267c0 0 0.133 0 0.267 0l1.733-1.733c0 0 0-0.133 0-0.267l-6.4-6.267c-0.133-0.133-0.133-0.133 0-0.267z"></path>
</svg>
