<!-- Generated by IcoMoon.io -->
<svg version="1.1" xmlns="http://www.w3.org/2000/svg" width="32" height="32" viewBox="0 0 32 32">
<title>timesheet-2</title>
<path d="M16.667 18.133c4.4 0 8-3.6 8-8s-3.6-8-8-8-8 3.6-8 8 3.6 8 8 8zM16.667 4.8c2.933 0 5.333 2.4 5.333 5.333s-2.4 5.333-5.333 5.333c-2.933 0-5.333-2.4-5.333-5.333s2.4-5.333 5.333-5.333z"></path>
<path d="M17.867 13.333c0.267 0.267 0.533 0.4 0.933 0.4s0.8-0.133 0.933-0.4c0.533-0.533 0.4-1.333-0.133-1.867l-1.6-1.333v-1.333c0-0.8-0.533-1.333-1.333-1.333s-1.333 0.533-1.333 1.333v1.733c0 0.4 0.133 0.8 0.4 0.933l2.133 1.867z"></path>
<path d="M18 22.933c0.8 0 1.333-0.667 1.333-1.333 0-0.8-0.667-1.333-1.333-1.333h-8.667l0.133-0.133c0.533-0.533 0.533-1.333 0.133-1.867-0.533-0.533-1.333-0.533-1.867-0.133l-2.533 2.4c-0.267 0.267-0.4 0.667-0.4 0.933 0 0.4 0.133 0.667 0.4 0.933l2.533 2.267c0.267 0.267 0.533 0.4 0.933 0.4s0.667-0.133 0.933-0.4c0.4-0.533 0.4-1.2 0-1.733h8.4z"></path>
<path d="M26.933 25.2l-2.533-2.267c-0.533-0.533-1.333-0.533-1.867 0.133-0.4 0.533-0.4 1.2 0 1.733h-8.533c-0.8 0-1.333 0.667-1.333 1.333 0 0.8 0.667 1.333 1.333 1.333h8.667l-0.133 0.133c-0.533 0.533-0.533 1.333-0.133 1.867 0.267 0.267 0.667 0.4 0.933 0.4s0.667-0.133 0.933-0.4l2.533-2.4c0.267-0.267 0.4-0.667 0.4-0.933 0.133-0.4 0-0.8-0.267-0.933z"></path>
</svg>
