<?xml version="1.0" encoding="UTF-8"?>
<svg width="298px" height="286px" viewBox="0 0 298 286" version="1.1" xmlns="http://www.w3.org/2000/svg" xmlns:xlink="http://www.w3.org/1999/xlink">
    <title>Group</title>
    <g id="Mobile" stroke="none" stroke-width="1" fill="none" fill-rule="evenodd">
        <g id="40" transform="translate(-39.000000, -320.000000)" fill-rule="nonzero">
            <g id="Group" transform="translate(39.000000, 320.000000)">
                <path d="M43.6429063,260.808935 C-14.5476354,227.222467 -14.5476354,172.769741 43.6429063,139.188454 C101.833399,105.607006 196.168216,105.600691 254.359195,139.188454 C312.550174,172.776217 312.543696,227.222467 254.359195,260.808935 C196.174694,294.397022 101.827083,294.397022 43.6429063,260.808935 Z" id="Path" fill="#F5F5F5"></path>
                <path d="M240.918644,35.4199724 L245.188865,37.9605304 C245.188865,37.7607555 245.158511,37.5672236 245.158511,37.373856 L245.158511,36.0841909 C245.158511,33.8143804 246.700136,32.8986361 248.61239,34.0335413 C249.433525,34.5528574 250.134844,35.247798 250.67002,36.0712121 C250.983137,33.2211345 253.178155,32.1570376 255.798118,33.7240217 C258.651322,35.4199724 260.966156,39.5275145 260.966156,42.9322303 L260.966156,44.8668922 C260.983729,45.6267267 260.83356,46.3809754 260.526833,47.0721373 L264.074966,49.1807808 C264.634104,49.5524015 265.100586,50.0544673 265.434471,50.6460703 C265.768357,51.2376734 265.963257,51.9022205 266,52.5854966 C266,53.8751617 265.142122,54.3524199 264.081356,53.7268091 L240.918644,39.9725722 C240.361103,39.5991443 239.896219,39.0957642 239.562334,38.5030112 C239.230046,37.9102581 239.036743,37.2450538 239,36.5612849 C239,35.3038204 239.859476,34.7945259 240.918644,35.4199724 Z" id="Path" fill="#E6E6E6"></path>
                <path d="M263.086145,19.5805741 L265.464814,20.512504 L265.464814,15.1914006 C265.464814,10.9693916 268.773355,9.9540268 272.371978,12.0682895 C275.970601,14.1761341 278.887532,19.3107532 278.887532,23.5263769 L278.887532,24.3296179 C279.393564,24.1719496 279.928603,24.132819 280.452361,24.2151733 C280.97612,24.2975276 281.474093,24.4992383 281.910827,24.8052427 L281.910827,24.8052427 C283.275822,25.7093391 284.411974,26.9276262 285.225814,28.361377 C286.039654,29.7951279 286.510231,31.4037384 286.597255,33.0565549 L286.597255,33.4036546 L289.912243,35.3315313 C290.809884,35.9266762 291.55765,36.7284437 292.094301,37.6718344 C292.630952,38.6152251 292.940372,39.6738791 293,40.7616764 C293,42.7602828 291.614055,43.5700729 289.912243,42.5739623 L263.086145,26.8230051 C262.186893,26.2283514 261.439127,25.4265839 260.904088,24.4831932 C260.367437,23.5396387 260.058016,22.480821 260,21.3928601 C260,19.3942536 261.377887,18.5846273 263.086145,19.5805741 Z" id="Path" fill="#E6E6E6"></path>
                <path d="M229.256582,18.5051672 C233.954267,15.6017579 235.408547,9.44027331 232.504912,4.74304978 C229.601276,0.0458098363 223.441103,-1.40843893 218.743418,1.49490472 C214.045733,4.39823197 212.591453,10.5597166 215.495088,15.2569073 C218.398724,19.9541636 224.560538,21.4084124 229.256582,18.5051672 Z" id="Path" fill="#F28F8F"></path>
                <path d="M68.5,238 C75.4034813,238 81,234.866403 81,230.999209 C81,227.133597 75.4034813,224 68.5,224 C61.5963557,224 56,227.133597 56,230.999209 C56,234.866403 61.5963557,238 68.5,238 Z" id="Path" fill="#E0E0E0"></path>
                <polygon id="Path" fill="#E0E0E0" points="193.904394 266 48 181.972761 93.0949571 156 239 240.033384"></polygon>
                <path d="M240.298151,222.978085 C239.738042,223.007305 239.176342,223.007305 238.617825,222.978085 C236.544467,222.812505 234.214923,221.590133 232.139975,220.429448 C230.766753,219.653494 228.930487,218.595079 228.255811,217.085377 C228.071229,216.718503 227.996442,216.30293 228.040996,215.893849 C228.08555,215.483145 228.246263,215.095168 228.505632,214.778618 C229.130981,214.140647 230.241651,214.08383 230.623544,213.288396 C229.236001,212.147191 227.213563,211.853367 226.133125,210.413469 C225.377297,209.311224 224.984266,207.993075 225.008134,206.648954 C224.947668,205.767483 225.226131,204.897375 225.783057,204.220444 C226.464099,203.584096 227.550901,203.75617 228.462669,203.959087 C228.701352,204.025644 228.952764,204.0435 229.199403,204.011034 C229.321927,203.991554 229.436495,203.934737 229.527194,203.8487 C229.619485,203.762663 229.683134,203.64903 229.711776,203.525656 C229.754738,203.220469 229.504917,202.959112 229.267826,202.761065 C228.755453,202.353608 228.193753,202.009461 227.70684,201.569537 C227.19765,201.150717 226.841218,200.569562 226.694825,199.920228 C226.639133,199.126417 226.823714,198.33423 227.224701,197.650805 C227.781628,196.438174 228.406976,195.259632 229.099156,194.121674 C229.660857,193.116829 230.155725,192.073025 230.57899,191 C233.853717,191.577907 236.974096,192.852226 239.73486,194.740165 C241.271977,195.74014 243.407392,197.460875 243.482179,199.519264 C243.488544,200.100419 243.350108,200.675079 243.082783,201.188053 C242.950712,201.407204 242.805911,201.61986 242.651563,201.824401 C242.564046,201.965631 242.196475,202.494838 242.651563,202.360101 C242.750219,202.319518 242.839327,202.257831 242.914114,202.181535 L244.963604,200.238402 C245.152959,200.027368 245.394824,199.871528 245.662148,199.785491 C246.242943,199.671858 247.423627,200.384502 248.35449,201.978618 C248.932102,203.074369 249.129413,204.338947 248.91619,205.564566 C248.647274,207.509321 247.667084,209.2609 246.693258,210.962156 L248.435642,209.777121 C250.464445,208.387546 250.022087,212.166671 249.796134,212.962105 C249.070538,215.338668 247.854847,217.528548 246.230213,219.385644 C244.568981,221.099886 242.657928,222.494331 240.298151,222.978085 Z" id="Path" fill="#407BFF"></path>
                <path d="M240.298151,222.978085 C239.738042,223.007305 239.176342,223.007305 238.617825,222.978085 C236.544467,222.812505 234.214923,221.590133 232.139975,220.429448 C230.766753,219.653494 228.930487,218.595079 228.255811,217.085377 C228.071229,216.718503 227.996442,216.30293 228.040996,215.893849 C228.08555,215.483145 228.246263,215.095168 228.505632,214.778618 C229.130981,214.140647 230.241651,214.08383 230.623544,213.288396 C229.236001,212.147191 227.213563,211.853367 226.133125,210.413469 C225.377297,209.311224 224.984266,207.993075 225.008134,206.648954 C224.947668,205.767483 225.226131,204.897375 225.783057,204.220444 C226.464099,203.584096 227.550901,203.75617 228.462669,203.959087 C228.701352,204.025644 228.952764,204.0435 229.199403,204.011034 C229.321927,203.991554 229.436495,203.934737 229.527194,203.8487 C229.619485,203.762663 229.683134,203.64903 229.711776,203.525656 C229.754738,203.220469 229.504917,202.959112 229.267826,202.761065 C228.755453,202.353608 228.193753,202.009461 227.70684,201.569537 C227.19765,201.150717 226.841218,200.569562 226.694825,199.920228 C226.639133,199.126417 226.823714,198.33423 227.224701,197.650805 C227.781628,196.438174 228.406976,195.259632 229.099156,194.121674 C229.660857,193.116829 230.155725,192.073025 230.57899,191 C233.853717,191.577907 236.974096,192.852226 239.73486,194.740165 C241.271977,195.74014 243.407392,197.460875 243.482179,199.519264 C243.488544,200.100419 243.350108,200.675079 243.082783,201.188053 C242.950712,201.407204 242.805911,201.61986 242.651563,201.824401 C242.564046,201.965631 242.196475,202.494838 242.651563,202.360101 C242.750219,202.319518 242.839327,202.257831 242.914114,202.181535 L244.963604,200.238402 C245.152959,200.027368 245.394824,199.871528 245.662148,199.785491 C246.242943,199.671858 247.423627,200.384502 248.35449,201.978618 C248.932102,203.074369 249.129413,204.338947 248.91619,205.564566 C248.647274,207.509321 247.667084,209.2609 246.693258,210.962156 L248.435642,209.777121 C250.464445,208.387546 250.022087,212.166671 249.796134,212.962105 C249.070538,215.338668 247.854847,217.528548 246.230213,219.385644 C244.568981,221.099886 242.657928,222.494331 240.298151,222.978085 Z" id="Path" fill="#FFFFFF" opacity="0.5"></path>
                <path d="M240.173813,211.494485 C241.462264,208.524635 243.404853,205.862342 245.866126,203.698227 L245.923941,203.646968 C245.971845,203.602116 246,203.539643 246,203.473967 C246.001579,203.408291 245.975149,203.345818 245.927245,203.297762 C245.880993,203.251308 245.81657,203.225678 245.748844,203.224077 C245.681118,203.224077 245.616695,203.249706 245.567139,203.294558 L245.515932,203.345818 C243.20663,205.391395 241.338375,207.858261 240.018538,210.607054 C238.624367,203.062289 235.361941,196.706104 233.041076,194.109487 C233.019602,194.079052 232.991521,194.055024 232.958483,194.035802 C232.925446,194.018181 232.889105,194.005366 232.851112,194.002163 C232.81312,193.997357 232.775127,194.000561 232.738786,194.011774 C232.704097,194.022987 232.669408,194.040607 232.641326,194.064635 C232.613244,194.088663 232.590118,194.119098 232.5736,194.152737 C232.557081,194.184775 232.548822,194.221617 232.548822,194.25846 C232.54717,194.295303 232.553777,194.332146 232.568644,194.365785 C232.583511,194.399424 232.604985,194.429859 232.633067,194.455489 C234.920894,197.013661 238.137068,203.257716 239.504809,210.720786 C236.97581,208.415708 233.723295,206.996459 230.26595,206.690504 C230.232912,206.688902 230.198223,206.693708 230.166838,206.704921 C230.135453,206.716134 230.105719,206.733754 230.080941,206.75618 C230.056163,206.777004 230.036341,206.804236 230.023126,206.834671 C230.008259,206.865107 230.001652,206.897144 230,206.929181 C230,206.974033 230.011563,207.017284 230.034689,207.055728 C230.057815,207.095775 230.090852,207.127812 230.130497,207.150238 C230.165186,207.16946 230.206483,207.180673 230.247779,207.180673 C233.822407,207.51386 237.155862,209.074073 239.648521,211.582588 C240.231628,215.103478 240.368732,220.006775 239.764151,222.678679 C239.75424,222.728337 239.757544,222.777994 239.774062,222.824448 C239.792233,222.870902 239.821966,222.912551 239.861611,222.942986 C239.8963,222.967014 239.932641,222.983033 239.972286,222.994246 C240.043316,223.008662 240.115998,222.995848 240.177116,222.957403 C240.238235,222.92056 240.281184,222.861291 240.29605,222.792411 C240.912195,220.045219 240.763527,215.077848 240.173813,211.494485 Z" id="Path" fill="#FFFFFF"></path>
                <path d="M236.069772,237.551304 C236.226428,237.676602 237.556406,238.29506 237.745033,238.37056 C239.896657,239.215519 242.946655,239.045242 245.713714,238.799465 C247.545631,238.642039 250.005772,238.409113 251.58672,237.109548 C251.98955,236.815579 252.306059,236.420409 252.507474,235.962589 C252.707291,235.504769 252.78402,235.001971 252.728071,234.505598 C252.496284,233.528916 251.42367,232.910457 251.529173,231.863094 C253.588082,231.315317 255.771676,231.996424 257.715491,230.981189 C259.146177,230.153901 260.3179,228.942686 261.097984,227.480876 C261.606317,226.624673 262.039519,225.36366 261.801338,224.486574 C261.512004,223.445636 260.325893,223.117934 259.291643,222.885008 C259.016696,222.844848 258.756135,222.738827 258.53234,222.576582 C258.418845,222.486625 258.335721,222.362933 258.297356,222.224784 C258.257393,222.085028 258.262189,221.937241 258.311743,221.800698 C258.404458,221.633634 258.533939,221.490666 258.688996,221.381432 C258.844054,221.272197 259.021491,221.19991 259.210118,221.170995 C259.963026,220.981442 260.727125,220.886665 261.475237,220.653739 C262.255321,220.446516 262.955478,220.007972 263.482993,219.392727 C264.005713,218.591141 264.295047,217.657831 264.317427,216.700426 C264.498061,215.127775 264.58598,213.547092 264.579586,211.964802 C264.579586,211.592121 264.875315,207.834786 265,207.87334 C261.486427,206.776179 257.470915,206.832402 253.656818,207.386605 C251.535567,207.703063 248.380065,208.503043 247.062875,210.678088 C246.708001,211.290121 246.493797,211.972834 246.434652,212.678037 C246.415469,212.986463 246.415469,213.294889 246.434652,213.603315 C246.434652,213.799294 246.479411,214.549476 246.108551,214.184827 C246.030223,214.093263 245.977472,213.980816 245.958289,213.861943 C245.668955,212.829038 245.374825,211.794526 245.085491,210.760014 C245.035936,210.445162 244.888872,210.154406 244.665077,209.927906 C244.163138,209.511852 242.563008,209.701406 240.681536,210.955993 C239.444272,211.853962 238.49954,213.100517 237.964032,214.536625 C237.054467,216.763075 236.972942,219.140525 236.910599,221.440868 L235.893933,219.310801 C234.714217,216.788777 232.882299,221.100314 232.637724,222.04005 C232.011099,224.505851 231.747342,228.383664 232.305229,230.70971 C233.002189,233.434139 234.02525,235.861387 236.069772,237.551304 Z" id="Path" fill="#407BFF"></path>
                <path d="M236.069772,237.551304 C236.226428,237.676602 237.556406,238.29506 237.745033,238.37056 C239.896657,239.215519 242.946655,239.045242 245.713714,238.799465 C247.545631,238.642039 250.005772,238.409113 251.58672,237.109548 C251.98955,236.815579 252.306059,236.420409 252.507474,235.962589 C252.707291,235.504769 252.78402,235.001971 252.728071,234.505598 C252.496284,233.528916 251.42367,232.910457 251.529173,231.863094 C253.588082,231.315317 255.771676,231.996424 257.715491,230.981189 C259.146177,230.153901 260.3179,228.942686 261.097984,227.480876 C261.606317,226.624673 262.039519,225.36366 261.801338,224.486574 C261.512004,223.445636 260.325893,223.117934 259.291643,222.885008 C259.016696,222.844848 258.756135,222.738827 258.53234,222.576582 C258.418845,222.486625 258.335721,222.362933 258.297356,222.224784 C258.257393,222.085028 258.262189,221.937241 258.311743,221.800698 C258.404458,221.633634 258.533939,221.490666 258.688996,221.381432 C258.844054,221.272197 259.021491,221.19991 259.210118,221.170995 C259.963026,220.981442 260.727125,220.886665 261.475237,220.653739 C262.255321,220.446516 262.955478,220.007972 263.482993,219.392727 C264.005713,218.591141 264.295047,217.657831 264.317427,216.700426 C264.498061,215.127775 264.58598,213.547092 264.579586,211.964802 C264.579586,211.592121 264.875315,207.834786 265,207.87334 C261.486427,206.776179 257.470915,206.832402 253.656818,207.386605 C251.535567,207.703063 248.380065,208.503043 247.062875,210.678088 C246.708001,211.290121 246.493797,211.972834 246.434652,212.678037 C246.415469,212.986463 246.415469,213.294889 246.434652,213.603315 C246.434652,213.799294 246.479411,214.549476 246.108551,214.184827 C246.030223,214.093263 245.977472,213.980816 245.958289,213.861943 C245.668955,212.829038 245.374825,211.794526 245.085491,210.760014 C245.035936,210.445162 244.888872,210.154406 244.665077,209.927906 C244.163138,209.511852 242.563008,209.701406 240.681536,210.955993 C239.444272,211.853962 238.49954,213.100517 237.964032,214.536625 C237.054467,216.763075 236.972942,219.140525 236.910599,221.440868 L235.893933,219.310801 C234.714217,216.788777 232.882299,221.100314 232.637724,222.04005 C232.011099,224.505851 231.747342,228.383664 232.305229,230.70971 C233.002189,233.434139 234.02525,235.861387 236.069772,237.551304 Z" id="Path" fill="#FFFFFF" opacity="0.3"></path>
                <path d="M242.139784,226.109898 C242.736059,222.400867 242.503014,218.607395 241.458327,214.997144 L241.458327,214.909516 C241.442255,214.833041 241.455113,214.751787 241.495293,214.683278 C241.533866,214.614769 241.598154,214.562193 241.672086,214.535108 C241.705837,214.520769 241.741196,214.512803 241.778162,214.512803 C241.815128,214.512803 241.850486,214.520769 241.884238,214.536701 C241.916382,214.552633 241.945312,214.574939 241.96942,214.602023 C241.991921,214.630701 242.0096,214.662566 242.019243,214.697617 L242.019243,214.778872 C242.993213,218.172444 243.272867,221.725339 242.838921,225.228844 C248.806492,217.724747 256.781469,210.744822 260.603415,209.032104 C260.638774,209.012985 260.677347,209.003425 260.71592,209 C260.754493,208.998646 260.794673,209.005019 260.831639,209.019358 C260.866998,209.032104 260.900749,209.054409 260.928072,209.083087 C260.955394,209.111765 260.976288,209.145223 260.989146,209.181867 C261.01004,209.263121 261.000396,209.349156 260.963431,209.424037 C260.926465,209.500512 260.863784,209.561055 260.786637,209.594512 C257.001657,211.283333 249.140792,218.186783 243.261617,225.590507 C246.924449,224.258569 250.944082,224.24423 254.616557,225.54749 C254.650309,225.563422 254.680846,225.58732 254.703347,225.615998 C254.727455,225.644676 254.745134,225.678134 254.754777,225.714778 C254.766028,225.749829 254.767635,225.788067 254.762813,225.824711 C254.756385,225.861355 254.743527,225.896406 254.72424,225.928271 C254.700132,225.977661 254.664774,226.020678 254.619772,226.052542 C254.573163,226.084407 254.521732,226.105119 254.46548,226.109898 C254.422085,226.122644 254.377083,226.122644 254.333688,226.109898 C254.282258,226.109898 249.15365,223.858669 242.599446,226.434917 C239.880047,229.968693 237.660489,233.577351 236.599731,236.752652 C236.578837,236.810008 236.545085,236.860991 236.500083,236.902415 C236.455082,236.943839 236.400436,236.97411 236.342577,236.991636 C236.299182,237.002788 236.252573,237.002788 236.209178,236.991636 C236.170605,236.982076 236.135247,236.962957 236.10471,236.939059 C236.074173,236.915161 236.048457,236.883296 236.030778,236.849838 C236.013099,236.814787 236.001848,236.77655 236,236.736719 C235.998634,236.696889 236.005063,236.658651 236.019528,236.622007 C237.104395,233.376605 239.370561,229.705811 242.139784,226.109898 Z" id="Path" fill="#FFFFFF"></path>
                <path d="M75.0740663,224.680908 C71.163963,222.439697 64.784588,222.439697 60.9260951,224.680908 C58.9968486,225.798261 57.9936405,227.2718 58,228.74046 L58,230.25954 C58,231.7282 58.9711253,233.203365 60.9260951,234.319092 C64.8360346,236.560303 71.2154096,236.560303 75.0740663,234.319092 C77.0033128,233.203365 78,231.7282 78,230.25954 L78,228.74046 C78.006521,227.2718 77.0290361,225.80314 75.0740663,224.680908 Z" id="Path" fill="#407BFF"></path>
                <path d="M68,234 C73.5227957,234 78,231.53722 78,228.5 C78,225.46278 73.5227957,223 68,223 C62.4770408,223 58,225.46278 58,228.5 C58,231.53722 62.4770408,234 68,234 Z" id="Path" fill="#407BFF"></path>
                <path d="M68,234 C73.5227957,234 78,231.53722 78,228.5 C78,225.46278 73.5227957,223 68,223 C62.4770408,223 58,225.46278 58,228.5 C58,231.53722 62.4770408,234 68,234 Z" id="Path" fill="#FFFFFF" opacity="0.3"></path>
                <path d="M67,173 L69,173 L69,229.364343 C68.9921266,229.460753 68.96093,229.552262 68.9096784,229.632332 C68.8584268,229.710768 68.7889029,229.772863 68.7083859,229.812081 C68.4891183,229.936271 68.2462304,230 67.9999257,230 C67.753621,230 67.5108817,229.936271 67.2914655,229.812081 C67.2109485,229.772863 67.1415732,229.710768 67.0903216,229.632332 C67.03907,229.552262 67.0078734,229.460753 67,229.364343 L67,229.364343 L67,173 Z" id="Path" fill="#407BFF"></path>
                <polygon id="Path" fill="#000000" opacity="0.15" points="67 185.669081 69 187 69 176 67 176.105117"></polygon>
                <polygon id="Path" fill="#407BFF" points="50 174.183382 50 146.814938 51.3913738 146 82 163.815974 82 191.183935 80.6025587 192"></polygon>
                <polygon id="Path" fill="#FFFFFF" opacity="0.5" points="82 164.175669 80.6025587 165 50 146.831392 51.3913738 146"></polygon>
                <polygon id="Path" fill="#407BFF" points="81 193 50 174.862049 50 147 81 165.130249"></polygon>
                <polygon id="Path" fill="#FFFFFF" opacity="0.3" points="81 193 50 174.862049 50 147 81 165.130249"></polygon>
                <polygon id="Path" fill="#407BFF" points="80 166.26449 52 150 52.0192142 173.800816 80 190"></polygon>
                <polygon id="Path" fill="#FAFAFA" points="80 165.588295 80 188 53 172.468509 53 150"></polygon>
                <polygon id="Path" fill="#000000" opacity="0.25" points="53.7144 173.339827 52.3092 174 52.2856 150 53.7144 150.678612"></polygon>
                <path d="M61.683241,160.719659 C61.7812938,160.785418 61.8572478,160.879125 61.9017726,160.989271 C61.9644674,161.110925 61.9975336,161.245731 61.9981884,161.383825 L61.9981884,168.480868 C62.013903,169.163118 61.9273089,169.845368 61.7411887,170.501314 C61.6243112,170.955051 61.3733682,171.361113 61.0215897,171.668536 C60.7087703,171.916777 60.312467,172.031855 59.9164911,171.9924 C59.4111675,171.94308 58.9245051,171.775395 58.4964452,171.500851 C57.9652579,171.191784 57.4843248,170.802161 57.0701788,170.34678 C56.6306603,169.863451 56.2587474,169.322583 55.9650803,168.738972 C55.6517698,168.102753 55.4124491,167.432011 55.2518653,166.739898 C55.080805,165.978737 54.9968299,165.201137 55.0012497,164.421892 L55.0012497,157.32485 C54.993065,157.221937 55.0253127,157.12001 55.0912814,157.040771 C55.1215648,157.014467 55.1603603,157 55.2004653,157 C55.2405704,157 55.2793659,157.014467 55.3096493,157.040771 L56.8195632,157.911913 C56.9158153,157.980467 56.9912783,158.074174 57.0379311,158.183005 C57.0950603,158.304166 57.1256711,158.436177 57.1279628,158.570161 L57.1279628,165.597335 C57.1151947,166.236841 57.2309264,166.874704 57.4684465,167.468179 C57.6683169,167.972879 58.0300808,168.395381 58.4964452,168.668281 C58.9590446,168.939537 59.2996919,168.932961 59.5309916,168.668281 C59.7996135,168.226052 59.9168185,167.706555 59.8650912,167.190347 L59.8650912,160.144268 C59.8611625,160.093304 59.8677103,160.040697 59.8842434,159.993022 C59.9007765,159.943703 59.9269675,159.899315 59.9613433,159.85986 C59.9917904,159.833556 60.0305859,159.820404 60.0706909,159.820404 C60.1107959,159.820404 60.1494277,159.833556 60.1798748,159.85986 L61.683241,160.719659 Z" id="Path" fill="#37474F"></path>
                <path d="M67.7075915,163.895933 C68.7181411,164.443789 69.5477597,165.245608 70.1035367,166.215137 C70.3976129,166.729451 70.6201935,167.277307 70.7653768,167.845927 C70.9242184,168.460867 71.001953,169.09178 70.9970629,169.725888 C71.0166231,170.286522 70.9383826,170.845558 70.7653768,171.380636 C70.6574589,171.741614 70.4242551,172.05787 70.1035367,172.27829 C69.7969825,172.461973 69.4295559,172.533849 69.0710663,172.477946 C68.587628,172.399681 68.1247615,172.233567 67.7075915,171.989188 L66.19202,171.161813 L66.19202,174.685342 C66.200451,174.784372 66.1672326,174.883401 66.0994467,174.961666 C66.068083,174.987222 66.0281197,175 65.9868074,175 C65.9454951,175 65.9055318,174.987222 65.8743367,174.961666 L64.3189705,174.108736 C64.2183034,174.046443 64.1398943,173.956997 64.0940292,173.851579 C64.0358547,173.731785 64.0043225,173.600811 64.0012873,173.468239 L64.0012873,162.316255 C63.9928562,162.215628 64.0260747,162.116599 64.0940292,162.039931 C64.1252242,162.014375 64.1651875,162 64.2064999,162 C64.2478122,162 64.2877755,162.014375 64.3189705,162.039931 L67.7075915,163.895933 Z M66.19202,168.478437 L67.648068,169.275464 C67.7645856,169.358521 67.9006633,169.414424 68.0446662,169.436786 C68.1886691,169.459147 68.3365503,169.449564 68.4753259,169.406438 C68.6871147,169.312201 68.799754,169.024696 68.799754,168.534341 C68.8124006,168.106278 68.7002672,167.684605 68.4753259,167.312446 C68.2714623,166.994594 67.9871662,166.729451 67.648068,166.540976 L66.19202,165.745546 L66.19202,168.478437 Z" id="Shape" fill="#37474F"></path>
                <polygon id="Path" fill="#407BFF" points="75.0031949 168 72 171.421514 73.6913246 172.372908 73.6913246 180.535458 76.3086754 182 76.3086754 173.842231 78 174.787251"></polygon>
                <polygon id="Path" fill="#407BFF" points="59.2840452 71.0747423 54 68 54 123.274178 98.9076857 149.377065 98.9076857 170.874745 143.809076 196.977307 143.815371 218.474012 188.716762 244.578199 188.716762 259.931596 193.995157 263 194 241.503295 149.093121 215.399108 149.093121 193.908903 104.191731 167.806341 104.191731 146.308823 59.2840452 120.205936"></polygon>
                <polygon id="Path" fill="#000000" opacity="0.25" points="59.2840452 71.0747423 54 68 54 123.274178 98.9076857 149.377065 98.9076857 170.874745 143.809076 196.977307 143.815371 218.474012 188.716762 244.578199 188.716762 259.931596 193.995157 263 194 241.503295 149.093121 215.399108 149.093121 193.908903 104.191731 167.806341 104.191731 146.308823 59.2840452 120.205936"></polygon>
                <path d="M108.03627,39.3478841 L81.3766819,17.6950745 C81.2442808,17.5855837 81.1027098,17.4878992 80.9535776,17.4029913 L75.7000067,14.349703 C75.3945029,14.1693748 75.0547325,14.0555173 74.7027356,14.0158937 C74.3507386,13.9761082 73.9942371,14.0112035 73.6565581,14.119077 C73.3190399,14.2267887 73.0075838,14.404691 72.7429425,14.641301 C72.4781404,14.8779111 72.2657839,15.1678918 72.1197084,15.4923208 L43.3637434,72.2300472 C42.9218166,73.0996659 42.8965591,73.6710556 43.212198,73.8614111 C43.5279979,74.0519282 48.1628392,76.7243439 48.4784782,76.9148611 C48.7942781,77.1052165 49.2551882,76.9719515 49.9623997,76.55938 L107.745728,43.0233452 C109.299148,42.1218658 109.425435,40.4777253 108.03627,39.3478841 Z" id="Path" fill="#407BFF"></path>
                <path d="M107.73735,42.9956967 L49.7035538,76.5720242 C48.1498634,77.4744248 47.5473559,76.9025104 48.3654024,75.3009235 L77.2650789,18.5013433 C77.4285913,18.1362054 77.6756371,17.8151108 77.9863429,17.5638053 C78.2970487,17.3124998 78.6626894,17.1382699 79.0532125,17.055365 C79.4437356,16.9722982 79.8483155,16.9828232 80.234153,17.0861305 C80.6198288,17.1894378 80.9757752,17.3824508 81.2730704,17.6496248 L108.048217,39.3284497 C109.424339,40.4470184 109.297503,42.0931343 107.73735,42.9956967 Z" id="Path" fill="#407BFF"></path>
                <path d="M75.8672488,14.3472896 C76.006921,14.4235784 80.0090233,16.750468 81,17.3162362 C80.6958933,17.1647924 80.3641111,17.0768416 80.0248841,17.0578909 C79.685657,17.0389401 79.3461063,17.0891514 79.026948,17.2057713 C78.7077898,17.3223911 78.4156596,17.5028279 78.1683605,17.7359056 C77.9210614,17.9691453 77.7239342,18.2503287 77.5887937,18.5622867 L48.634244,75.3725054 C48.2022798,76.230795 48.1640844,76.7965632 48.4754741,77 C48.0181003,76.7265913 43.4506735,74.1073422 43.1901031,73.9484477 C42.9296946,73.7893912 42.897973,73.1918765 43.3425611,72.3144742 L72.2717011,15.4916217 C72.4188181,15.1675157 72.6321298,14.8780718 72.8980411,14.6417546 C73.1639524,14.4052755 73.476475,14.2274303 73.8153783,14.1195569 C74.1542817,14.0116836 74.5119591,13.9762117 74.8654285,14.0155709 C75.2188979,14.0547681 75.5602289,14.1678246 75.8672488,14.3472896 L75.8672488,14.3472896 Z" id="Path" fill="#FFFFFF" opacity="0.3"></path>
                <polygon id="Path" fill="#407BFF" points="59 67.6387025 59 120 101 95.3612975 101 43"></polygon>
                <polygon id="Path" fill="#407BFF" points="59 119.726162 103.82158 146 146 121.273674 101.184704 95"></polygon>
                <polygon id="Path" fill="#FFFFFF" opacity="0.3" points="59 119.726162 103.82158 146 146 121.273674 101.184704 95"></polygon>
                <polygon id="Path" fill="#407BFF" points="146 122 146 143.461408 104 168 104 146.531938"></polygon>
                <polygon id="Path" fill="#407BFF" points="104 167.726653 148.81845 194 191 169.267621 146.181227 143"></polygon>
                <polygon id="Path" fill="#FFFFFF" opacity="0.3" points="104 167.726653 148.81845 194 191 169.267621 146.181227 143"></polygon>
                <polygon id="Path" fill="#407BFF" points="191 169 191 190.467857 149 215 149 193.538635"></polygon>
                <polygon id="Path" fill="#407BFF" points="149 214.725439 193.821189 241 236 216.272926 191.178972 190"></polygon>
                <polygon id="Path" fill="#FFFFFF" opacity="0.3" points="149 214.725439 193.821189 241 236 216.272926 191.178972 190"></polygon>
                <polygon id="Path" fill="#407BFF" points="236 217 236 238.468722 194 263 194.004812 241.532901"></polygon>
                <path d="M170.400377,168.070939 C165.296284,167.854768 158.10313,168.070939 154.784103,169.59059 C152.329638,170.705323 151.193876,171.870067 152.462103,174.175354 C153.162529,175.44173 154.468695,176.074111 155.377304,177.087212 C155.547226,177.242081 155.679048,177.434054 155.76216,177.648612 C155.845272,177.86317 155.877263,178.09386 155.855883,178.322937 C155.834502,178.553627 155.76007,178.774638 155.638697,178.969837 C155.517164,179.165036 155.352064,179.329584 155.156421,179.448963 C153.957481,180.373336 152.727194,181.2477 151.559763,182.209178 C147.559441,185.514661 152.380116,185.375924 153.541116,185.375924 C157.557997,185.254932 161.542726,184.616098 165.397562,183.475554 C168.053298,182.652813 168.924611,182.297905 168.924611,182.297905 L168.924611,203.631093 C168.924611,203.631093 172.136573,205.752475 176.099278,207.904507 C185.33005,212.932906 188.932656,215.225288 193.223309,215.857669 C197.412684,216.491664 200.93491,215.047834 200.997606,210.716345 C201.086023,204.276381 198.706793,201.572628 196.927192,199.951344 C194.871087,198.102597 188.781542,192.062711 188.781542,192.062711 L188.781542,170.774692 C188.781542,170.774692 182.540884,168.57749 170.400377,168.070939 Z" id="Path" fill="#000000" opacity="0.25"></path>
                <path d="M136.231989,21.0794866 C137.619837,20.4460275 138.352041,23.7337204 139.217905,26.1471592 C140.013695,28.3706409 141.268046,31.2148318 141.764563,31.3479793 C142.477627,31.5379363 142.063835,28.7127895 142.974306,27.5472248 C143.884615,26.3814987 144.489486,26.8629276 144.413087,28.1806839 C144.349501,29.2321452 144.667752,32.3487639 144.126628,34.6166281 C143.927924,35.1519615 143.8512,35.7247377 143.901809,36.2931562 C143.952417,36.8617362 144.129223,37.4119176 144.419413,37.9043211 C148.02934,44.1312641 154.727212,52.5816889 154.727212,52.5816889 C154.727212,52.5816889 162.724042,55.7869112 167.606487,57.1551828 C171.241557,58.1687173 175.017748,59.3851201 177.965058,60.5506848 C178.258653,61.6591172 176.743635,72.2570086 171.840103,70.8761485 C170.96256,67.8290893 159.807713,65.1241787 152.970019,62.4129738 C148.818804,60.7659802 147.793815,60.2338746 146.768826,58.5045717 C143.801889,53.4874144 143.540897,52.5816889 141.38889,48.2423732 C138.944099,43.3204365 138.256501,42.3385346 137.849036,41.9077824 C136.575707,40.5267609 135.340659,39.6463739 134.544707,38.5377801 C133.466514,37.1630529 132.638931,35.6107957 132.099916,33.9515364 C132.018001,33.7244595 131.985884,33.482696 132.005673,33.242385 C132.025463,33.0019127 132.096672,32.7685415 132.214596,32.5579264 C132.354582,32.3552195 132.571129,32.2157778 132.71744,32.0193652 C132.904303,31.6502643 133.117119,31.2945589 133.354104,30.9551539 C133.729777,30.5878284 134.500262,30.6385051 134.850306,30.2456798 C135.003105,30.0746055 135.194186,29.3841754 135.404245,29.2765277 C135.742934,29.1309532 136.101088,29.0349256 136.467515,28.9915115 C136.677573,28.9343791 137.295097,28.9534232 137.295097,28.6556571 C137.087634,27.4673363 136.813503,26.2914426 136.473841,25.1336247 C136.015442,23.3029683 135.448852,21.4342236 136.231989,21.0794866 Z" id="Path" fill="#B16668"></path>
                <path d="M178,60.5981499 C177.332563,60.3424261 176.275253,59.7415568 174.946798,59.3195312 C173.618342,58.8976685 162.981068,55.5475248 159.946156,54.4479128 C156.910762,53.3483008 155.14751,52.6322744 155.14751,52.6322744 L150.739379,47 C150.739379,47 150.172699,48.3872605 147.918175,49.5572373 C146.378738,50.3110522 144.706777,50.7456196 143,50.8358559 C143,50.8358559 144.064209,53.2269542 145.588082,56.5896397 C146.904345,59.5177578 147.030291,60.2593566 149.316262,61.2758992 C151.942209,62.4522283 158.87569,65.035038 162.055802,66.2625118 C165.941214,67.7585771 170.513798,69.5549955 171.205301,70.9997532 C171.211719,71.0445455 177.666282,64.9838932 178,60.5981499 Z" id="Path" fill="#407BFF"></path>
                <path d="M178,60.5981499 C177.332563,60.3424261 176.275253,59.7415568 174.946798,59.3195312 C173.618342,58.8976685 162.981068,55.5475248 159.946156,54.4479128 C156.910762,53.3483008 155.14751,52.6322744 155.14751,52.6322744 L150.739379,47 C150.739379,47 150.172699,48.3872605 147.918175,49.5572373 C146.378738,50.3110522 144.706777,50.7456196 143,50.8358559 C143,50.8358559 144.064209,53.2269542 145.588082,56.5896397 C146.904345,59.5177578 147.030291,60.2593566 149.316262,61.2758992 C151.942209,62.4522283 158.87569,65.035038 162.055802,66.2625118 C165.941214,67.7585771 170.513798,69.5549955 171.205301,70.9997532 C171.211719,71.0445455 177.666282,64.9838932 178,60.5981499 Z" id="Path" fill="#FFFFFF" opacity="0.6"></path>
                <path d="M150,46.7884577 C149.337125,48.2586366 148.145822,49.3937261 146.686698,49.9456666 C145.443213,50.538146 144.109328,50.8951136 142.746896,51 L141,47.2115423 C142.520515,46.9055701 143.984703,46.3471949 145.337312,45.5573296 C146.265092,44.9394329 147.000102,44.0504726 147.451791,43 L150,46.7884577 Z" id="Path" fill="#407BFF"></path>
                <path d="M150,46.7884577 C149.337125,48.2586366 148.145822,49.3937261 146.686698,49.9456666 C145.443213,50.538146 144.109328,50.8951136 142.746896,51 L141,47.2115423 C142.520515,46.9055701 143.984703,46.3471949 145.337312,45.5573296 C146.265092,44.9394329 147.000102,44.0504726 147.451791,43 L150,46.7884577 Z" id="Path" fill="#FFFFFF" opacity="0.85"></path>
                <path d="M140.729152,30 C141.076979,31.4047619 141.879656,32.8571429 141.28438,33.5 C141.160143,33.6217774 141.007788,33.718077 140.837539,33.7820746 C140.66746,33.8460722 140.483577,33.8764028 140.298841,33.87064 C140.114277,33.8650288 139.93312,33.8236275 139.768324,33.7493176 C139.603528,33.6750076 139.458842,33.5696087 139.34449,33.4404004 C139.36068,33.6370943 139.318586,33.8340916 139.222299,34.0116773 C139.126012,34.189263 138.97911,34.3412193 138.795909,34.452381 C138.611344,34.551562 138.399682,34.604034 138.183931,34.604034 C137.968179,34.604034 137.756518,34.551562 137.571953,34.452381 C137.525769,34.5937216 137.447717,34.7253564 137.342568,34.8389445 C137.237248,34.9526843 137.107218,35.0459509 136.960146,35.1134365 C136.812903,35.1807704 136.652026,35.2208068 136.48689,35.2309675 C136.321753,35.2411283 136.156105,35.2212618 136,35.1725811 C136.347827,35.5059145 137.264175,35.922657 137.712379,35.1131332 C137.712379,35.1131332 139.110333,35.422657 139.511672,34.4165908 C139.511672,34.4165908 138.996663,35.529724 140.227436,37 C139.892049,36.1422505 139.892049,35.2088262 140.227436,34.3510767 C140.560095,34.3670003 140.891391,34.3028511 141.186899,34.1657567 C141.482237,34.0285108 141.730709,33.8233242 141.906412,33.5714286 C142.408128,32.7023051 140.729152,30 140.729152,30 Z" id="Path" fill="#9A4A4D"></path>
                <path d="M201.366383,37.9152856 C201.317453,38.1326458 201.245688,38.3442225 201.149458,38.5458388 C200.963522,38.9619236 200.554136,39.2898113 200.438334,39.7312789 C200.182264,40.7274726 201.443041,41.8751598 201.821438,42.70749 C202.499942,44.2270831 201.097265,45.5134117 200.086034,46.4530565 C199.834857,46.6749148 199.648921,46.9597481 199.549428,47.2771935 C199.448305,47.5947996 199.436888,47.9331295 199.516808,48.2563583 C199.554321,48.3670465 199.614669,48.4685776 199.694589,48.5542044 C199.77614,48.6398311 199.874001,48.7076256 199.983279,48.752929 C200.092558,48.7982325 200.209991,48.8202416 200.327424,48.8171892 C200.446489,48.8142975 200.562291,48.7863443 200.668307,48.7355788 C200.586756,48.8713284 200.469323,48.9829805 200.329055,49.0594502 C200.187157,49.1359198 200.028948,49.1741546 199.869108,49.1706203 C199.490712,49.2059634 199.112315,49.1063601 198.802422,48.8899639 C198.490897,48.6735677 198.27071,48.3548371 198.179372,47.9916063 C198.12718,48.3509815 198.306592,48.723048 198.28702,49.10138 C198.290282,49.3809118 198.202207,49.6540177 198.037474,49.8808562 C197.87111,50.1076947 197.636243,50.2763777 197.365494,50.3624864 C196.892498,50.5327759 196.373834,50.5894855 195.899208,50.7849972 C195.316934,51.0182617 195.15057,51.3839023 194.791746,51.8631227 C194.088777,52.8027675 193.159096,53.0233406 192.007597,52.9981185 C191.410644,52.9561887 190.82837,52.784614 190.306444,52.4957644 C189.784518,52.2069148 189.332726,51.8078589 188.985319,51.3271926 C188.691735,50.9740828 188.345959,50.6461952 188.096413,50.2678632 C187.212401,49.0509357 186.028281,48.0924948 185.100231,46.888098 C184.155871,45.629562 183.299587,44.3085329 182.539532,42.9344892 C181.596803,41.1951262 180.763352,39.4011421 180.042442,37.5621758 C179.941318,37.195732 179.766799,36.8527432 179.530302,36.5532907 C179.275863,36.3065315 178.972493,36.1134296 178.639765,35.9857125 C177.411608,35.4939613 175.984467,35.2984496 175.310856,34.0183864 C175.164064,33.7817483 175.066203,33.5182814 175.023796,33.2438904 C174.98139,32.9693387 174.996069,32.6893249 175.064572,32.4202353 C175.134706,32.1511457 175.257032,31.8982818 175.426658,31.6769054 C175.596284,31.4553684 175.809947,31.2694957 176.0546,31.1303724 C176.444414,30.9350214 176.873372,30.4241528 176.463986,30.0270248 C176.168772,29.73689 175.715348,29.7116678 175.472327,29.358558 C175.074358,28.7280048 175.643584,27.5550955 176.43789,27.6749408 C175.79853,27.9523842 176.18182,28.5892028 176.757569,28.6648692 C176.995698,28.6976419 177.23872,28.6613349 177.455646,28.5604463 C177.672571,28.4597185 177.855245,28.2987467 177.980834,28.0974516 C178.165139,27.8506924 178.432626,27.6781538 178.735995,27.6119658 C179.088296,27.5425648 179.376986,27.7506072 179.729286,27.7820947 C180.644288,27.8577611 181.07977,26.2939891 181.694664,25.8211947 C182.272045,25.3771567 182.965228,25.1006772 183.694293,25.0227617 C184.42499,24.9446855 185.160579,25.0683864 185.822773,25.3797271 C186.411571,25.7347647 186.913925,26.2125393 187.295583,26.7796355 C187.551653,27.0948318 187.974087,27.6497187 188.370424,27.7632986 C188.915185,27.8762359 189.481148,27.8121363 189.985133,27.5803176 C190.949065,27.0813372 192.067944,26.9553872 193.121583,27.2272078 C194.017012,27.3465712 194.830891,27.7975171 195.400116,28.4883143 C195.739368,29.1122808 195.908994,29.8115924 195.892684,30.5187759 C195.884529,30.9138155 196.024796,31.2979309 196.285759,31.598026 C196.546722,31.8981211 196.91044,32.0929902 197.308408,32.1456836 C197.540013,32.1916296 197.778142,32.178135 198.003222,32.1063242 C198.226672,32.0345134 198.428918,31.9067963 198.588758,31.7357035 C198.691512,31.6230875 198.755122,31.4804298 198.769801,31.3290971 C198.782849,31.1777643 198.746967,31.0261102 198.665416,30.8971079 C198.985096,31.0265922 199.244428,31.267086 199.396113,31.5728039 C199.546166,31.8785218 199.578787,32.2282579 199.484188,32.555503 C199.36023,32.9058817 199.133519,33.2124029 198.83178,33.4365103 C198.531673,33.6607784 198.171217,33.7929938 197.794452,33.8166094 C198.813839,33.8921151 199.782664,34.2902071 200.554136,34.9516052 C201.084217,35.4788601 201.407159,36.1731916 201.469138,36.9126659 C201.478924,37.2497106 201.443041,37.5865947 201.366383,37.9152856 L201.366383,37.9152856 Z" id="Path" fill="#263238"></path>
                <path d="M196.689184,187 C196.864469,188.305249 197.248111,189.831238 197.494502,192.505718 C197.740893,195.180198 197.137318,195.255377 198.566055,201.992764 C199.429251,206.041274 199.143173,207.642443 196.436179,210.851179 C193.542324,214.311047 190.764224,213.437682 189.142012,209.344384 C187.759577,205.847726 187.939823,204.265752 188.128336,200.730703 C188.31685,197.195655 188.336694,196.159134 188.323465,193.347091 C188.323465,190.867759 188.616158,189.19141 188.556627,187.287922 L196.689184,187 Z" id="Path" fill="#37474F"></path>
                <path d="M196.862555,186.539197 C196.91549,188.891588 196.862555,192.48157 197.161973,195.969765 C197.395221,198.582276 198.070153,201.162475 198.005638,203.014013 C197.999021,203.169116 197.954356,203.320987 197.874953,203.455087 C197.795549,203.589186 197.684714,203.702282 197.550721,203.786296 C197.416727,203.87031 197.264536,203.920395 197.105729,203.93332 C196.948575,203.947861 196.789768,203.923626 196.64254,203.863847 C194.639249,203.170732 192.447375,203.194966 190.460627,203.93332 C190.315053,203.989868 190.159554,204.010871 190.004055,203.994715 C189.848556,203.980174 189.699674,203.930089 189.568989,203.84769 C189.438303,203.765292 189.329123,203.653812 189.249719,203.521328 C189.17197,203.390461 189.125651,203.243436 189.11738,203.089949 C188.642612,198.016798 188.720361,186.602208 188.720361,186.602208 C187.812181,178.142647 185.559099,163.716479 185.272915,160.603116 C184.844465,156.024193 183.856881,150.2408 183.526032,146.651465 C183.195183,143.06213 181,118.114828 181,118.114828 L197.883224,95 C197.883224,95 198.070153,98.5449048 200.609419,103.909843 C204.032052,111.145546 203.077553,116.922637 202.025453,123.486067 C201.148703,128.958769 198.733506,153.550951 198.733506,153.550951 C198.733506,153.550951 198.616054,158.62394 198.869154,164.49684 C199.181806,172.403847 196.733524,181.275399 196.862555,186.539197 Z" id="Path" fill="#B16668"></path>
                <path d="M198,95 C187.942742,97.2333012 178.452476,97.781954 172.517628,95.5551553 C172.327015,98.6241969 167.445384,104.315718 161.37113,113.421077 C154.415694,123.764036 150.446582,130.074599 150.446582,130.074599 C147.91046,134.758062 146.984857,135.944777 149.425834,141.629958 C152.0634,147.774544 159.995162,159.62967 160.705276,163.905097 C160.882805,164.989398 160.362981,167.733474 159.74785,169.775275 C159.132881,171.817077 158.06141,174.52864 157.046961,175.868166 C157.046961,175.868166 154.111359,179.390923 154.821473,179.696543 C155.531588,180.003789 162.100143,180.335419 164.9658,179.282005 C167.831456,178.230218 168.015608,175.721859 168.769983,171.114801 C169.524358,166.507743 170.038044,159.572773 170.038044,159.572773 C169.55505,159.338681 169.144747,158.974538 168.852366,158.519684 C168.219143,157.690121 167.464768,156.605333 166.994697,153.912789 C166.526242,151.220083 165.657176,145.4967 164.668573,142.210636 C164.148425,140.389271 163.39082,138.644962 162.416755,137.023063 L181.894818,119.546481 L198,95 Z" id="Path" fill="#B16668"></path>
                <path d="M173,167 C172.881895,168.025814 172.139113,169.23064 171.882981,170.837074 C171.557125,172.669218 171.397754,174.530938 171.407715,176.397328 L171.407715,179 L170.765963,179 L170.765963,174.258529 C170.765963,172.81087 170.637897,171.753924 170.006106,171.601375 C169.983339,171.582696 169.87804,167 173,167 Z" id="Path" fill="#263238"></path>
                <path d="M169.345475,159 C169.885103,160.228649 171.571845,161.901427 172.319892,163.058756 C172.701186,163.669839 172.932225,164.363588 172.992004,165.083271 C173.017854,165.381519 172.980694,165.681387 172.885371,165.965046 C172.788431,166.248705 172.634944,166.509671 172.434603,166.730115 C171.65909,167.56002 170.944971,168.445037 170.297094,169.377059 C169.473111,170.649473 167.951166,173.531449 167.595723,175.534892 C167.240279,177.539957 167.062557,179.308368 165.421054,180.383031 C164.152766,181.229146 158.768603,182.597193 156.029101,182.927858 C152.287572,183.380092 151.222211,181.618164 152.54123,180.097751 C153.860249,178.577339 156.117801,175.967675 156.529954,175.643493 C157.707119,175.436017 158.917889,175.538134 160.043191,175.943361 C162.192979,176.731123 162.928101,177.92087 165.078535,176.693842 C167.018935,175.586761 167.615111,171.832736 167.151418,166.514534 C166.626331,160.450714 169.345475,159 169.345475,159 Z" id="Path" fill="#37474F"></path>
                <path d="M198.443724,95 C199.872385,98.3858018 201.222764,100.246308 203.028161,105.011809 C204.65416,109.302469 204.135536,115.675335 202.246964,126.7821 C200.358391,137.888704 199.544576,154.197437 199.544576,154.197437 C199.648953,160.301361 199.40432,166.404156 198.809044,172.481154 C198.809044,172.481154 196.728026,174 192.810625,174 C188.893223,174 187.280271,172.840711 187.280271,172.840711 C187.280271,172.840711 185.437363,160.627058 184.860028,155.98845 C184.104925,149.894039 183.778747,146.457609 183.074201,138.964634 C182.172318,129.408479 181.275328,121.915343 181.275328,121.915343 L162.846252,137.629275 C163.801955,139.491232 164.486929,141.476696 164.881605,143.527461 C165.522545,146.944865 165.868294,148.659936 165.868294,148.659936 C165.868294,148.659936 163.02565,151.621686 160.074878,152.457052 C158.358364,152.978974 156.522959,152.978974 154.806609,152.457052 C154.806609,152.457052 149.160625,143.312372 147.681895,139.8 C146.203329,136.287627 147.374635,134.737017 148.866249,131.825895 C150.357699,128.914773 165.163749,107.600136 167.993346,103.625821 C170.822943,99.651507 171.578046,98.0820326 172.289115,95.9809619 C172.289115,95.9809619 173.677004,96.879532 180.892068,96.8035897 C188.105502,96.7276473 198.443724,95 198.443724,95 Z" id="Path" fill="#455A64"></path>
                <path d="M162.524522,137 C161.248804,138.146602 159.656699,138.800114 158,138.857152 C158,138.857152 161.574013,139.493163 163,138.081138 L162.524522,137 Z" id="Path" fill="#37474F"></path>
                <path d="M181,121.504264 L180.776258,118.167997 C179.121874,117.563727 177.625906,116.607153 176.396142,115.367456 C175.166377,114.127601 174.233847,112.635779 173.667143,111 C173.667143,111 173.596917,115.09504 178.302031,118.776261 C178.302031,118.776261 179.097377,120.344136 176.92365,122.677014 C174.749923,125.009893 165,135 165,135 L181,121.504264 Z" id="Path" fill="#37474F"></path>
                <path d="M200,79.6210624 C194.584823,76.5637224 194.565483,66.5212997 195.401934,61.6080183 L189.45491,60.972422 L177.941212,60 C176.853341,61.0041613 174.874223,63.0571781 170.231031,69.1780116 C167.826435,72.3561554 166.23895,77.4409264 171.578379,81.6484934 L172.292344,86.5489819 C172.73555,90.6104832 170.648451,93.6550303 172.292344,94.9007991 C173.918509,96.7186857 183.743187,101.256925 197.854881,94.1063442 C198.905683,93.3881607 198.267466,92.56812 198.488263,87.9791951 C198.849275,85.1689685 199.355336,82.3793077 200,79.6210624 L200,79.6210624 Z" id="Path" fill="#407BFF"></path>
                <path d="M200,79.6210624 C194.584823,76.5637224 194.565483,66.5212997 195.401934,61.6080183 L189.45491,60.972422 L177.941212,60 C176.853341,61.0041613 174.874223,63.0571781 170.231031,69.1780116 C167.826435,72.3561554 166.23895,77.4409264 171.578379,81.6484934 L172.292344,86.5489819 C172.73555,90.6104832 170.648451,93.6550303 172.292344,94.9007991 C173.918509,96.7186857 183.743187,101.256925 197.854881,94.1063442 C198.905683,93.3881607 198.267466,92.56812 198.488263,87.9791951 C198.849275,85.1689685 199.355336,82.3793077 200,79.6210624 L200,79.6210624 Z" id="Path" fill="#FFFFFF" opacity="0.5"></path>
                <path d="M189.785277,54 C190.422493,51.3604434 192.407106,47.6440126 192.827053,43.6812077 C193.247,39.7184028 193.183764,36.3329492 189.315066,33.4792406 C187.94497,32.4593743 186.386789,31.7309929 184.734567,31.3377198 C183.082344,30.9444467 181.370129,30.8940482 179.698449,31.189664 C177.973263,31.5269205 176,33.1353745 176,33.1353745 L189.785277,54 Z" id="Path" fill="#407BFF"></path>
                <path d="M172.293915,40.2149487 C171.604937,38.6379002 171.857669,33.9813984 176.039832,33.5824512 C176.039832,33.5824512 181.67722,31.5191064 186.572507,35.1594997 C187.985879,36.1932368 189.125591,37.5476244 189.895057,39.1079972 C190.666133,40.66837 191.042818,42.388671 190.996134,44.1234244 L189.827447,50.7559219 L189.73891,53 L172.293915,40.2149487 Z" id="Path" fill="#263238"></path>
                <path d="M174.755481,35 C173.861962,35.5053387 172.11467,37.0596503 172.003377,45.6945701 C171.903214,53.0117961 174.055929,54.8987089 175.154544,55.4615724 C176.25316,56.0244359 178.412234,55.7878181 180.520432,55.4615724 L180.358263,60.7320219 C180.358263,60.7320219 177.793766,63.2904925 179.110197,65.682744 C179.378889,66.1688534 178.149902,71.816718 178.692056,71.9958109 C179.235799,72.1749039 181.107103,66.552624 181.862302,66.4247004 C183.110367,66.2136674 184.458596,66.1752088 185.693943,65.3245581 C188.983431,63.0602301 189.401572,61.3012408 189.401572,61.3012408 L189.826074,50.4277407 C189.826074,50.4277407 191.010544,51.75179 193.163258,49.8841065 C194.942348,48.3361503 195.622822,45.6497561 194.33024,44.1273846 C193.997952,43.7705024 193.58458,43.5027593 193.128281,43.3474585 C192.670392,43.1923207 192.182295,43.154351 191.708507,43.2369717 C191.233129,43.3197553 190.784779,43.5205219 190.403205,43.8218348 C190.021631,44.1231477 189.717961,44.5158811 189.519225,44.9653245 C185.512695,44.9653245 187.023093,34.7314421 182.848035,36.1897703 C178.205548,37.8464208 175.135466,37.8143177 174.755481,35 Z" id="Path" fill="#B16668"></path>
                <path d="M189.943082,45 L189.857082,48 C189.613082,48.001082 189.373082,47.9630237 189.149082,47.8881703 C188.925082,47.813317 188.723082,47.7032478 188.555082,47.5645955 C188.387082,47.4259431 188.255082,47.2617079 188.171082,47.0818388 C188.085082,46.9021276 188.047082,46.7104146 188.059082,46.5187016 C188.069082,46.1235897 188.269082,45.7463225 188.619082,45.4639644 C188.969082,45.1817641 189.443082,45.0157918 189.943082,45 Z" id="Path" fill="#263238"></path>
                <path d="M176,44.0218576 C175.996306,44.2177721 175.93535,44.408147 175.822673,44.5691625 C175.711844,44.7301781 175.554837,44.855002 175.373816,44.9281237 C175.190948,45.0010608 174.991455,45.0189719 174.799352,44.9796413 C174.607248,44.9404953 174.431769,44.8455848 174.293232,44.7070967 C174.154696,44.5686086 174.060491,44.3922671 174.019854,44.2004149 C173.981064,44.0083781 173.999535,43.8091398 174.071574,43.6272588 C174.14546,43.4453777 174.269219,43.2889785 174.431769,43.1774494 C174.592471,43.0659203 174.782727,43.004247 174.978525,43 C175.250057,43.0018465 175.508658,43.1100519 175.698914,43.3013501 C175.891018,43.4926483 175.998153,43.7513441 176,44.0218576 L176,44.0218576 Z" id="Path" fill="#263238"></path>
                <path d="M182.999976,44.0218633 C182.996282,44.218847 182.93348,44.4102923 182.820807,44.5720147 C182.708134,44.7337371 182.55113,44.8585366 182.366419,44.9307209 C182.183556,45.0027205 181.982222,45.0191512 181.790123,44.9774283 C181.596177,44.9358901 181.420702,44.8382289 181.282169,44.6968142 C181.145483,44.555584 181.053128,44.3766925 181.016186,44.1828472 C180.981091,43.9890019 181.003256,43.7888797 181.080835,43.6075881 C181.158413,43.426112 181.28771,43.2717742 181.452103,43.1637747 C181.616495,43.0555905 181.810441,42.9987292 182.008081,43.0000215 C182.274064,43.0075907 182.527117,43.1185441 182.711828,43.3094356 C182.896538,43.5001425 183.001823,43.7558336 182.999976,44.0218633 L182.999976,44.0218633 Z" id="Path" fill="#263238"></path>
                <path d="M180.963603,50 L179,50.83359 C179.026129,51.0281448 179.079694,51.2126496 179.156775,51.3759165 C179.233856,51.5389937 179.334453,51.67723 179.450727,51.7819028 C179.565695,51.8867653 179.696341,51.955599 179.830906,51.9846116 C179.965471,52.0134345 180.103955,52.0016778 180.235907,51.9500999 C180.505037,51.8198278 180.729748,51.5458201 180.864313,51.1838267 C181.000184,50.8216436 181.035458,50.3984014 180.963603,50 Z" id="Path" fill="#9A4A4D"></path>
                <path d="M173.153154,42 L175,40.6174586 C174.934393,40.4739855 174.840902,40.3478473 174.72773,40.2473424 C174.614557,40.147022 174.483342,40.0745478 174.343927,40.0348991 C174.204511,39.9952504 174.058535,39.9893492 173.915839,40.0173799 C173.774783,40.0454106 173.638648,40.10682 173.520555,40.1977354 C173.272887,40.3952413 173.099028,40.6880886 173.03178,41.0204001 C172.962892,41.3527117 173.007177,41.7012515 173.153154,42 Z" id="Path" fill="#263238"></path>
                <path d="M183.846343,42 L182,40.6222453 C182.067229,40.4773748 182.160694,40.3501489 182.273836,40.2491111 C182.388618,40.1478875 182.519796,40.0748951 182.659174,40.0351486 C182.800191,39.9952164 182.946128,39.989273 183.088785,40.0175042 C183.231442,40.045921 183.3659,40.1077696 183.487241,40.1995208 C183.731562,40.3969532 183.903734,40.6896657 183.969323,41.0217533 C184.036553,41.3540266 183.99228,41.7022727 183.846343,42 L183.846343,42 Z" id="Path" fill="#263238"></path>
                <polygon id="Path" fill="#9A4A4D" points="178 43 177.829716 49 175 47.9947251"></polygon>
                <path d="M181.040125,55.4640534 C183.362382,55.2312983 188.035319,53.6821385 189,52 C188.668966,52.9869223 188.055381,53.8506912 187.234483,54.4800108 C185.76489,55.7100217 181,57 181,57 L181.040125,55.4640534 Z" id="Path" fill="#9A4A4D"></path>
                <path d="M206.69996,107.075659 C206.617519,107.026078 206.523979,107 206.428855,107 C206.33373,107 206.24019,107.026078 206.157749,107.075659 L206.157749,107.075659 L188,117.728457 L189.044788,133 L207.204122,122.35348 C207.670234,122.138576 208,121.178189 208,119.826145 L208,111.081405 C208,109.293275 207.414982,107.498867 206.69996,107.075659 Z" id="Path" fill="#407BFF"></path>
                <path d="M196.336243,112.966339 C196.839834,112.698728 197.603117,113.227608 197.025829,115.505155 C196.446787,117.782703 194.737736,123.345619 195.034275,124.708406 C195.330815,126.071193 195.578224,126.643671 196.797722,124.976017 C198.01722,123.308363 200,111 200,111 L196.336243,112.966339 Z" id="Path" fill="#000000" opacity="0.3"></path>
                <path d="M188.502749,117.093524 C189.331093,117.533558 190,119.392783 190,121.258536 L190,130.331212 C190,132.190437 189.331093,133.346678 188.502749,132.906476 C187.676237,132.466274 187,130.607217 187,128.747992 L187,119.668788 C187,117.809563 187.676237,116.653322 188.502749,117.093524 Z" id="Path" fill="#407BFF"></path>
                <path d="M188.502749,117.093524 C189.331093,117.533558 190,119.392783 190,121.258536 L190,130.331212 C190,132.190437 189.331093,133.346678 188.502749,132.906476 C187.676237,132.466274 187,130.607217 187,128.747992 L187,119.668788 C187,117.809563 187.676237,116.653322 188.502749,117.093524 Z" id="Path" fill="#000000" opacity="0.3"></path>
                <path d="M189,122.237139 C189,123.453685 196.036484,121.72659 198.495854,120.346071 C200.956882,118.965552 208,113.519278 208,112 L208,112.762851 C208,112.762851 205.552239,116.885297 198.920398,120.579263 C192.286899,124.273228 189,122.640566 189,122.640566 L189,122.237139 Z" id="Path" fill="#000000" opacity="0.3"></path>
                <path d="M198.9971,119.07736 C199.550039,118.813535 199.998577,119.24679 199.998577,120.038104 C200.01211,120.394083 199.928976,120.747982 199.754975,121.074043 C199.580973,121.399944 199.321904,121.689687 198.9971,121.921993 C198.449961,122.185818 198.001424,121.758803 198.001424,120.967489 C197.98789,120.61119 198.071024,120.256971 198.243093,119.93011 C198.415161,119.603249 198.672297,119.312066 198.9971,119.07736 L198.9971,119.07736 Z" id="Path" fill="#FAFAFA"></path>
                <path d="M195.040213,62 C199.932408,62.6984974 202.859093,63.949709 204.429509,67.8934605 C205.998266,71.8373738 210.513627,85.2563873 211.446581,88.0508622 C212.377874,90.8451754 212.097324,92.0962251 210.878841,94.8588252 C210.101933,96.5904256 209.334985,98.3263947 208.579658,100.066409 C207.568682,102.371758 205.601511,105.985272 205.256219,106.893464 C204.927527,107.919934 204.788082,108.995105 204.846184,110.06882 C204.894326,111.105483 204.856145,112.144087 204.72832,113.17444 C204.565634,114.401057 204.222002,115.598551 203.712364,116.730838 C203.360431,117.518326 203.126363,118.375713 202.721308,119.131488 C202.371036,119.646017 201.964321,120.123008 201.509465,120.554048 C201.066229,121.081035 200.890263,121.760602 200.349083,122.224163 C199.404509,123.030744 198.433375,123.113263 197.555203,123.494306 C197.156789,124.015145 196.479485,125.12025 196.042889,125.602904 C194.922349,126.873046 194.739742,124.751828 194.804485,124.046858 C194.892468,123.287685 195.065114,122.540162 195.319103,121.817718 C195.933325,120.005702 196.439643,118.161002 196.838058,116.29268 C196.967542,115.657608 197.795912,111.472449 196.094351,112.215442 L193,113.930215 C193.131145,112.698096 194.1139,111.351745 196.577428,108.303403 C199.040956,105.255062 202.193409,90.8260828 202.193409,90.8260828 L197.535282,79.3946399 C195.387166,76.4034142 194.098959,72.9055878 193.808449,69.2652142 C193.527899,63.6066896 195.040213,62 195.040213,62 Z" id="Path" fill="#B16668"></path>
                <path d="M195.452172,62 C197.789737,62.2702713 201.019098,62.6284449 202.82991,64.7464241 C204.639121,66.8642433 204.864872,67.7189283 207.34173,75.0152933 C209.816987,82.3114981 211.602181,87.829324 211.80872,88.8410802 C212.016859,89.8529965 212.437941,91.442922 210.551878,95 C210.551878,95 209.565618,93.7431103 206.594029,92.8884253 C203.620839,92.0335801 201.942916,92.4421894 201.942916,92.4421894 L202.245519,90.6761392 L197.179728,79.2070605 C195.114346,75.9905436 194.011208,72.2512566 194,68.429031 C194.025617,63.4579921 195.452172,62 195.452172,62 Z" id="Path" fill="#407BFF"></path>
                <path d="M195.452172,62 C197.789737,62.2702713 201.019098,62.6284449 202.82991,64.7464241 C204.639121,66.8642433 204.864872,67.7189283 207.34173,75.0152933 C209.816987,82.3114981 211.602181,87.829324 211.80872,88.8410802 C212.016859,89.8529965 212.437941,91.442922 210.551878,95 C210.551878,95 209.565618,93.7431103 206.594029,92.8884253 C203.620839,92.0335801 201.942916,92.4421894 201.942916,92.4421894 L202.245519,90.6761392 L197.179728,79.2070605 C195.114346,75.9905436 194.011208,72.2512566 194,68.429031 C194.025617,63.4579921 195.452172,62 195.452172,62 Z" id="Path" fill="#FFFFFF" opacity="0.6"></path>
                <path d="M202.127063,93.1582515 L201,97.4073374 C203.909241,97.3232395 206.747525,98.247705 208.960396,100 L211,95.600761 C211,95.600761 210.605611,94.5986196 207.113861,93.5963252 C203.622112,92.5940308 202.127063,93.1582515 202.127063,93.1582515 Z" id="Path" fill="#407BFF"></path>
                <path d="M202.127063,93.1582515 L201,97.4073374 C203.909241,97.3232395 206.747525,98.247705 208.960396,100 L211,95.600761 C211,95.600761 210.605611,94.5986196 207.113861,93.5963252 C203.622112,92.5940308 202.127063,93.1582515 202.127063,93.1582515 Z" id="Path" fill="#FFFFFF" opacity="0.85"></path>
            </g>
        </g>
    </g>
</svg>