<?xml version="1.0" encoding="UTF-8"?>
<svg width="32px" height="32px" viewBox="0 0 32 32" version="1.1" xmlns="http://www.w3.org/2000/svg" xmlns:xlink="http://www.w3.org/1999/xlink">
    <title>Loader / Circular</title>
    <g id="Mobile" stroke="none" stroke-width="1" fill="none" fill-rule="evenodd">
        <g id="11.1" transform="translate(-168.000000, -561.000000)">
            <g id="Loader-/-Circular" transform="translate(168.000000, 561.000000)">
                <path d="M17,22 C17.5522847,22 18,22.4477153 18,23 L18,31 C18,31.5522847 17.5522847,32 17,32 L15,32 C14.4477153,32 14,31.5522847 14,31 L14,23 C14,22.4477153 14.4477153,22 15,22 L17,22 Z M20.1213203,18.7071068 C20.5118446,18.3165825 21.1450096,18.3165825 21.5355339,18.7071068 L21.5355339,18.7071068 L27.1923882,24.363961 C27.5829124,24.7544853 27.5829124,25.3876503 27.1923882,25.7781746 L27.1923882,25.7781746 L25.7781746,27.1923882 C25.3876503,27.5829124 24.7544853,27.5829124 24.363961,27.1923882 L24.363961,27.1923882 L18.7071068,21.5355339 C18.3165825,21.1450096 18.3165825,20.5118446 18.7071068,20.1213203 L18.7071068,20.1213203 Z M11.7781746,18.7071068 L13.1923882,20.1213203 C13.5829124,20.5118446 13.5829124,21.1450096 13.1923882,21.5355339 L7.53553391,27.1923882 C7.14500961,27.5829124 6.51184464,27.5829124 6.12132034,27.1923882 L4.70710678,25.7781746 C4.31658249,25.3876503 4.31658249,24.7544853 4.70710678,24.363961 L10.363961,18.7071068 C10.7544853,18.3165825 11.3876503,18.3165825 11.7781746,18.7071068 Z M31,14 C31.5522847,14 32,14.4477153 32,15 L32,17 C32,17.5522847 31.5522847,18 31,18 L23,18 C22.4477153,18 22,17.5522847 22,17 L22,15 C22,14.4477153 22.4477153,14 23,14 L31,14 Z M9,14 C9.55228475,14 10,14.4477153 10,15 L10,17 C10,17.5522847 9.55228475,18 9,18 L1,18 C0.44771525,18 1.28867715e-16,17.5522847 6.123234e-17,17 L1.8369702e-16,15 C1.16061645e-16,14.4477153 0.44771525,14 1,14 L9,14 Z M25.7781746,4.70710678 L27.1923882,6.12132034 C27.5829124,6.51184464 27.5829124,7.14500961 27.1923882,7.53553391 L21.5355339,13.1923882 C21.1450096,13.5829124 20.5118446,13.5829124 20.1213203,13.1923882 L18.7071068,11.7781746 C18.3165825,11.3876503 18.3165825,10.7544853 18.7071068,10.363961 L24.363961,4.70710678 C24.7544853,4.31658249 25.3876503,4.31658249 25.7781746,4.70710678 Z M6.12132034,4.70710678 C6.51184464,4.31658249 7.14500961,4.31658249 7.53553391,4.70710678 L7.53553391,4.70710678 L13.1923882,10.363961 C13.5829124,10.7544853 13.5829124,11.3876503 13.1923882,11.7781746 L13.1923882,11.7781746 L11.7781746,13.1923882 C11.3876503,13.5829124 10.7544853,13.5829124 10.363961,13.1923882 L10.363961,13.1923882 L4.70710678,7.53553391 C4.31658249,7.14500961 4.31658249,6.51184464 4.70710678,6.12132034 L4.70710678,6.12132034 Z M17,0 C17.5522847,-1.01453063e-16 18,0.44771525 18,1 L18,9 C18,9.55228475 17.5522847,10 17,10 L15,10 C14.4477153,10 14,9.55228475 14,9 L14,1 C14,0.44771525 14.4477153,1.01453063e-16 15,0 L17,0 Z" id="loader" fill="#29B6C5"></path>
                <g id="Opacity" stroke-width="1" fill="#FFFFFF">
                    <rect id="1" opacity="0" x="14" y="0" width="4" height="10" rx="2"></rect>
                    <path d="M21.9497475,3.94974747 L23.9497475,3.94974747 C24.5020322,3.94974747 24.9497475,4.39746272 24.9497475,4.94974747 L24.9497475,12.9497475 C24.9497475,13.5020322 24.5020322,13.9497475 23.9497475,13.9497475 L21.9497475,13.9497475 C21.3974627,13.9497475 20.9497475,13.5020322 20.9497475,12.9497475 L20.9497475,4.94974747 C20.9497475,4.39746272 21.3974627,3.94974747 21.9497475,3.94974747 Z" id="2" opacity="0.129999995" transform="translate(22.949747, 8.949747) rotate(-135.000000) translate(-22.949747, -8.949747) "></path>
                    <rect id="3" opacity="0.25" transform="translate(27.000000, 16.000000) rotate(-90.000000) translate(-27.000000, -16.000000) " x="25" y="11" width="4" height="10" rx="2"></rect>
                    <path d="M21.9497475,17.9497475 L23.9497475,17.9497475 C24.5020322,17.9497475 24.9497475,18.3974627 24.9497475,18.9497475 L24.9497475,26.9497475 C24.9497475,27.5020322 24.5020322,27.9497475 23.9497475,27.9497475 L21.9497475,27.9497475 C21.3974627,27.9497475 20.9497475,27.5020322 20.9497475,26.9497475 L20.9497475,18.9497475 C20.9497475,18.3974627 21.3974627,17.9497475 21.9497475,17.9497475 Z" id="4" opacity="0.379999995" transform="translate(22.949747, 22.949747) scale(-1, 1) rotate(-135.000000) translate(-22.949747, -22.949747) "></path>
                    <rect id="5" opacity="0.5" x="14" y="22" width="4" height="10" rx="2"></rect>
                    <rect id="6" opacity="0.629999995" transform="translate(8.949747, 22.949747) rotate(-135.000000) translate(-8.949747, -22.949747) " x="6.94974747" y="17.9497475" width="4" height="10" rx="2"></rect>
                    <path d="M4,11 L6,11 C6.55228475,11 7,11.4477153 7,12 L7,20 C7,20.5522847 6.55228475,21 6,21 L4,21 C3.44771525,21 3,20.5522847 3,20 L3,12 C3,11.4477153 3.44771525,11 4,11 Z" id="7" opacity="0.75" transform="translate(5.000000, 16.000000) rotate(-90.000000) translate(-5.000000, -16.000000) "></path>
                    <path d="M7.94974747,3.94974747 L9.94974747,3.94974747 C10.5020322,3.94974747 10.9497475,4.39746272 10.9497475,4.94974747 L10.9497475,12.9497475 C10.9497475,13.5020322 10.5020322,13.9497475 9.94974747,13.9497475 L7.94974747,13.9497475 C7.39746272,13.9497475 6.94974747,13.5020322 6.94974747,12.9497475 L6.94974747,4.94974747 C6.94974747,4.39746272 7.39746272,3.94974747 7.94974747,3.94974747 Z" id="8" opacity="0.879999995" transform="translate(8.949747, 8.949747) scale(-1, 1) rotate(-135.000000) translate(-8.949747, -8.949747) "></path>
                </g>
            </g>
        </g>
    </g>
</svg>