<?xml version="1.0" encoding="UTF-8"?>
<svg width="263px" height="281px" viewBox="0 0 263 281" version="1.1" xmlns="http://www.w3.org/2000/svg" xmlns:xlink="http://www.w3.org/1999/xlink">
    <title>empty-state</title>
    <g id="Mobile" stroke="none" stroke-width="1" fill="none" fill-rule="evenodd">
        <g id="61" transform="translate(-56.000000, -132.000000)" fill-rule="nonzero">
            <g id="empty-state" transform="translate(56.000000, 132.000000)">
                <rect id="Rectangle" fill-opacity="0" fill="#D8D8D8" x="0" y="15.9430605" width="263" height="263.060498" rx="2"></rect>
                <g id="Group" transform="translate(0.000000, 74.733096)" fill="#2CB6C5">
                    <path d="M262.111486,33.0025576 L187.108507,0.852163082 C186.962645,0.789575822 186.861268,0.653959988 186.842563,0.49640075 C186.823857,0.338841513 186.890666,0.183275869 187.017822,0.088303891 C187.144978,-0.00666808674 187.313164,-0.0266178957 187.459025,0.0359693641 L262.73078,32.3018211 C262.893943,32.3717346 263,32.5320283 263,32.7094739 L263,115.684136 C263,115.846388 262.911387,115.995701 262.768986,116.073582 L187.497231,157.286036 C187.393092,157.343235 187.270369,157.35635 187.156486,157.322449 L171.630157,152.685954 C171.478026,152.640501 171.361711,152.517374 171.325026,152.362955 C171.288341,152.208536 171.33686,152.046284 171.452305,151.937318 C171.567751,151.828351 171.732585,151.789226 171.884716,151.834679 L187.232899,156.41833 L262.111486,115.421249 L262.111486,33.0025576 Z" id="Path"></path>
                    <path d="M122.902743,41.212898 C122.902743,41.458149 122.703843,41.6569643 122.458486,41.6569643 C122.21313,41.6569643 122.01423,41.458149 122.01423,41.212898 L122.01423,19.2604843 C122.01423,19.0628745 122.145081,18.8891162 122.334983,18.8341807 L187.160041,0.0723827944 C187.258393,0.0439905249 187.363537,0.0504219708 187.457693,0.0905895095 L214.708402,11.6833823 C214.857325,11.7435692 214.962144,11.8794261 214.982538,12.0386928 C215.002932,12.1979595 214.935724,12.3558256 214.806768,12.4515644 C214.677811,12.5473031 214.507194,12.5660005 214.360549,12.5004642 L187.255111,0.969840631 L122.902743,19.593978 L122.902743,41.212898 L122.902743,41.212898 Z M122.01423,75.8696024 C122.01423,75.6243513 122.21313,75.4255361 122.458486,75.4255361 C122.703843,75.4255361 122.902743,75.6243513 122.902743,75.8696024 L122.902743,120.276225 C122.902743,120.521476 122.703843,120.720291 122.458486,120.720291 C122.21313,120.720291 122.01423,120.521476 122.01423,120.276225 L122.01423,75.8696024 Z" id="Shape"></path>
                    <path d="M178.384637,148.134719 L178.384637,127.884411 L125.395024,120.168761 L0.888513514,151.810699 L0.888513514,181.390839 L76.5143412,203.244226 L178.384637,148.134719 Z M76.4419274,204.1479 L0.320753378,182.15108 C0.1308517,182.096145 0,181.922386 0,181.724776 L0,151.465216 C0,151.262084 0.137995679,151.084886 0.334969595,151.034916 L125.262191,119.286401 C125.318799,119.272842 125.377675,119.26907 125.435451,119.27752 L178.892867,127.060668 C179.111283,127.092438 179.27315,127.279672 179.27315,127.500294 L179.27315,148.399383 C179.27315,148.562491 179.183866,148.712521 179.04036,148.790161 L76.776897,204.111931 C76.6742351,204.167267 76.5539201,204.180027 76.4419274,204.147456 L76.4419274,204.1479 Z" id="Shape"></path>
                    <path d="M75.8141926,168.832646 L0.471800676,152.197481 C0.316812862,152.163213 0.191887977,152.048898 0.144084027,151.897598 C0.0962800777,151.746298 0.132859622,151.580999 0.240043498,151.463967 C0.347227373,151.346936 0.508731794,151.295951 0.663719595,151.33022 L76.3544088,168.042208 C76.5579693,168.087221 76.7027062,168.267668 76.7027062,168.476061 L76.7027062,203.38233 C76.7027062,203.627581 76.5038056,203.826396 76.2584493,203.826396 C76.0130931,203.826396 75.8141926,203.627581 75.8141926,203.38233 L75.8141926,168.832646 Z" id="Path"></path>
                    <path d="M178.575667,127.088201 C178.723756,127.025261 178.894317,127.047289 179.021539,127.145784 C179.14876,127.244279 179.21275,127.403842 179.188818,127.562903 C179.164885,127.721964 179.056772,127.855654 178.906194,127.912387 L76.3615169,169.019598 C76.1337036,169.110954 75.874934,169.000412 75.7835389,168.772697 C75.6921437,168.544981 75.8027323,168.286323 76.0305456,168.194967 L178.575667,127.087756 L178.575667,127.088201 Z" id="Path"></path>
                    <path d="M41.3349814,160.965569 C41.1015965,161.026413 40.8622758,160.890006 40.7958081,160.658253 C40.7293403,160.426499 40.8600091,160.184069 41.0901959,160.112073 L125.561176,135.901583 C125.631008,135.881568 125.704685,135.878976 125.775752,135.894034 L145.768639,140.125097 C146.002938,140.181023 146.149961,140.413406 146.100081,140.648971 C146.0502,140.884536 145.821592,141.037449 145.584716,140.99369 L125.699784,136.785719 L41.3354257,160.965569 L41.3349814,160.965569 Z M187.766007,156.89659 C187.766007,157.141841 187.567106,157.340656 187.32175,157.340656 C187.076394,157.340656 186.877493,157.141841 186.877493,156.89659 L186.877493,0.980054154 C186.877493,0.734803151 187.076394,0.535987931 187.32175,0.535987931 C187.567106,0.535987931 187.766007,0.734803151 187.766007,0.980054154 L187.766007,156.89659 Z M125.89037,23.3987374 L125.89037,40.2932369 C125.89037,40.5384879 125.691469,40.7373031 125.446113,40.7373031 C125.200757,40.7373031 125.001856,40.5384879 125.001856,40.2932369 L125.001856,23.0519217 C125.001856,22.8481084 125.140763,22.6705003 125.338603,22.6211775 L178.705834,9.33871267 C178.838508,9.30563633 178.979028,9.33547301 179.086794,9.41960185 C179.19456,9.50373069 179.257601,9.63277782 179.257601,9.76945691 L179.257601,131.029732 C179.257601,131.274983 179.058701,131.473799 178.813345,131.473799 C178.567988,131.473799 178.369088,131.274983 178.369088,131.029732 L178.369088,10.3378617 L125.89037,23.3987374 L125.89037,23.3987374 Z" id="Shape"></path>
                    <path d="M125.001856,76.1706793 C125.001856,75.9254282 125.200757,75.726613 125.446113,75.726613 C125.691469,75.726613 125.89037,75.9254282 125.89037,76.1706793 L125.89037,136.448228 C125.89037,136.693479 125.691469,136.892295 125.446113,136.892295 C125.200757,136.892295 125.001856,136.693479 125.001856,136.448228 L125.001856,76.1706793 Z" id="Path"></path>
                    <path d="M178.479708,67.9461287 C178.991492,68.0136268 178.995046,68.7534411 178.483706,68.8258239 L125.642919,76.3145567 L125.551846,76.3176652 L85.5940608,73.7243184 C85.0796115,73.6905694 85.0254122,72.9551957 85.5291993,72.8468436 L134.944767,62.2070169 C134.994704,62.1963796 135.046102,62.1944267 135.096703,62.201244 L178.479708,67.9461287 L178.479708,67.9461287 Z M135.05672,63.0920408 L88.8318041,73.044453 L125.563841,75.4286446 L175.150892,68.4012966 L135.05672,63.0920408 Z" id="Shape"></path>
                    <path d="M85.7624341,73.2811403 C85.7624341,73.5263913 85.5635336,73.7252066 85.3181774,73.7252066 C85.0728211,73.7252066 84.8739206,73.5263913 84.8739206,73.2811403 L84.8739206,52.2044252 C84.8739206,52.0071857 85.0039677,51.8335459 85.1933412,51.7781216 L134.693318,37.2891289 C134.92886,37.2202134 135.175695,37.3552089 135.24464,37.5906499 C135.313585,37.8260908 135.178532,38.0728205 134.94299,38.141736 L85.7624341,52.5374749 L85.7624341,73.2811403 Z" id="Path"></path>
                    <path d="M135.587606,62.583585 C135.587606,62.828836 135.388706,63.0276512 135.14335,63.0276512 C134.897993,63.0276512 134.699093,62.828836 134.699093,62.583585 L134.699093,37.7767136 C134.699093,37.6442363 134.75826,37.5186758 134.860448,37.4343146 C134.962636,37.3499534 135.097169,37.3156024 135.227314,37.3406406 L178.774694,45.6953025 C178.930634,45.7252079 179.058768,45.8359991 179.110828,45.985942 C179.162888,46.1358849 179.130965,46.3021996 179.027085,46.422237 C178.923205,46.5422745 178.76315,46.5977981 178.607209,46.5678926 L135.587606,38.3140337 L135.587606,62.583141 L135.587606,62.583585 Z M178.804459,99.3242921 C179.049816,99.3296876 179.24434,99.5328768 179.239052,99.7781278 C179.233545,100.023379 179.030268,100.21782 178.784912,100.212425 L125.422568,99.0267678 C125.26385,99.0232775 125.119052,98.9354138 125.042717,98.796274 C124.966382,98.6571343 124.970108,98.4878572 125.05249,98.3522078 C125.134873,98.2165584 125.283397,98.135145 125.442115,98.1386353 L178.804459,99.3242921 L178.804459,99.3242921 Z" id="Shape"></path>
                    <g transform="translate(145.271959, 21.315179)">
                        <path d="M3.99831081,7.99319202 C1.79010472,7.99319202 -2.56596091e-14,6.20385503 -2.56596091e-14,3.99659601 C-2.56596091e-14,1.78933698 1.79010472,0 3.99831081,0 C6.2065169,0 7.99662162,1.78933698 7.99662162,3.99659601 C7.99662162,6.20385503 6.2065169,7.99319202 3.99831081,7.99319202 L3.99831081,7.99319202 Z M3.99831081,7.10505957 C5.71580443,7.10505957 7.10810811,5.71335303 7.10810811,3.99659601 C7.10810811,2.27983899 5.71580443,0.888132446 3.99831081,0.888132446 C2.28081719,0.888132446 0.888513514,2.27983899 0.888513514,3.99659601 C0.888513514,5.71335303 2.28081719,7.10505957 3.99831081,7.10505957 Z" id="Shape"></path>
                        <path d="M4.95124155,0.384117283 L5.33241385,1.18654495 C4.24612906,1.70096329 3.55370677,2.79508496 3.55405405,3.99659601 C3.55375294,5.19220083 4.23949793,6.28201594 5.31775338,6.79954201 L4.93258277,7.60019341 C3.54653876,6.93466907 2.66512118,5.5336038 2.66554039,3.99659601 C2.66512634,2.45213058 3.55503158,1.04566328 4.95124155,0.384117283 Z" id="Path"></path>
                    </g>
                    <g transform="translate(104.400338, 47.959152)">
                        <path d="M3.99831081,7.99319202 C1.79010472,7.99319202 0,6.20385503 0,3.99659601 C0,1.78933698 1.79010472,-1.2390247e-14 3.99831081,-1.2390247e-14 C6.2065169,-1.2390247e-14 7.99662162,1.78933698 7.99662162,3.99659601 C7.99662162,6.20385503 6.2065169,7.99319202 3.99831081,7.99319202 Z M3.99831081,7.10505957 C5.71580443,7.10505957 7.10810811,5.71335303 7.10810811,3.99659601 C7.10810811,2.27983899 5.71580443,0.888132446 3.99831081,0.888132446 C2.28081719,0.888132446 0.888513514,2.27983899 0.888513514,3.99659601 C0.888513514,5.71335303 2.28081719,7.10505957 3.99831081,7.10505957 L3.99831081,7.10505957 Z" id="Shape"></path>
                        <path d="M4.95124155,0.384117283 L5.33241385,1.18654495 C4.24612906,1.70096329 3.55370677,2.79508496 3.55405405,3.99659601 C3.55375294,5.19220083 4.23949793,6.28201594 5.31775338,6.79954201 L4.93258277,7.60019341 C3.54653876,6.93466907 2.66512118,5.5336038 2.66554039,3.99659601 C2.66512634,2.45213058 3.55503158,1.04566328 4.95124155,0.384117283 L4.95124155,0.384117283 Z" id="Path"></path>
                    </g>
                    <g transform="translate(31.097973, 162.528238)">
                        <path d="M5.77533784,11.5457218 C2.58557432,11.5457218 0,8.96125638 0,5.7728609 C0,2.58446542 2.58557432,0 5.77533784,0 C8.96510135,0 11.5506757,2.58446542 11.5506757,5.7728609 C11.5506757,8.96125638 8.96510135,11.5457218 5.77533784,11.5457218 Z M5.77533784,10.6575894 C8.47419764,10.6575894 10.6621622,8.47056321 10.6621622,5.7728609 C10.6621622,3.0751586 8.47419764,0.888132446 5.77533784,0.888132446 C3.07647804,0.888132446 0.888513514,3.0751586 0.888513514,5.7728609 C0.888513514,8.47056321 3.07647804,10.6575894 5.77533784,10.6575894 Z" id="Shape"></path>
                        <path d="M7.30002703,0.555082779 L7.68075507,1.35751044 C5.97412855,2.16599651 4.88633415,3.8850776 4.88682432,5.7728609 C4.88627987,7.65163373 5.96377476,9.36421597 7.65809797,10.1775538 L7.27292736,10.9777611 C5.27096022,10.0164944 3.99781897,7.99287639 3.99831067,5.7728609 C3.99783502,3.54202169 5.28330219,1.51056834 7.30002703,0.555082779 Z" id="Path"></path>
                    </g>
                    <g transform="translate(145.271959, 75.935324)">
                        <path d="M3.99831081,7.99319202 C1.79010472,7.99319202 -2.56596091e-14,6.20385503 -2.56596091e-14,3.99659601 C-2.56596091e-14,1.78933698 1.79010472,0 3.99831081,0 C6.2065169,0 7.99662162,1.78933698 7.99662162,3.99659601 C7.99662162,6.20385503 6.2065169,7.99319202 3.99831081,7.99319202 L3.99831081,7.99319202 Z M3.99831081,7.10505957 C5.71580443,7.10505957 7.10810811,5.71335303 7.10810811,3.99659601 C7.10810811,2.27983899 5.71580443,0.888132446 3.99831081,0.888132446 C2.28081719,0.888132446 0.888513514,2.27983899 0.888513514,3.99659601 C0.888513514,5.71335303 2.28081719,7.10505957 3.99831081,7.10505957 Z" id="Shape"></path>
                        <path d="M4.95124155,0.384117283 L5.33241385,1.18654495 C4.24612906,1.70096329 3.55370677,2.79508496 3.55405405,3.99659601 C3.55375294,5.19220083 4.23949793,6.28201594 5.31775338,6.79954201 L4.93258277,7.60019341 C3.54653876,6.93466907 2.66512118,5.5336038 2.66554039,3.99659601 C2.66512634,2.45213058 3.55503158,1.04566328 4.95124155,0.384117283 Z" id="Path"></path>
                    </g>
                    <g transform="translate(145.271959, 101.247099)">
                        <path d="M3.99831081,7.99319202 C1.79010472,7.99319202 -2.56596091e-14,6.20385503 -2.56596091e-14,3.99659601 C-2.56596091e-14,1.78933698 1.79010472,0 3.99831081,0 C6.2065169,0 7.99662162,1.78933698 7.99662162,3.99659601 C7.99662162,6.20385503 6.2065169,7.99319202 3.99831081,7.99319202 L3.99831081,7.99319202 Z M3.99831081,7.10505957 C5.71580443,7.10505957 7.10810811,5.71335303 7.10810811,3.99659601 C7.10810811,2.27983899 5.71580443,0.888132446 3.99831081,0.888132446 C2.28081719,0.888132446 0.888513514,2.27983899 0.888513514,3.99659601 C0.888513514,5.71335303 2.28081719,7.10505957 3.99831081,7.10505957 L3.99831081,7.10505957 Z" id="Shape"></path>
                        <path d="M4.95124155,0.384117283 L5.33241385,1.18654495 C4.24612906,1.70096329 3.55370677,2.79508496 3.55405405,3.99659601 C3.55375294,5.19220083 4.23949793,6.28201594 5.31775338,6.79954201 L4.93258277,7.60019341 C3.54653876,6.93466907 2.66512118,5.5336038 2.66554039,3.99659601 C2.66512634,2.45213058 3.55503158,1.04566328 4.95124155,0.384117283 L4.95124155,0.384117283 Z" id="Path"></path>
                    </g>
                    <g transform="translate(8.885135, 3.108464)">
                        <path d="M70.7980895,166.79749 C67.4328446,168.521355 65.75,171.35361 65.75,175.293809 L65.75,197.237342 C65.75,200.003874 67.4021909,202.217544 70.7980895,200.460374 C74.1944324,198.70276 160.731206,151.862655 163.963174,150.021557 C167.194698,148.180458 167.794444,145.203438 167.794444,142.456444 L167.794444,131.716259 C167.794444,130.392941 166.261758,128.401748 163.963174,129.583853 C162.430488,130.371626 131.375164,142.776172 70.7980895,166.79749 Z M4.33105912,147.358491 C-0.769896959,148.762185 -1.1044223,152.278745 2.49805574,152.991027 C6.10097804,153.70331 21.1515084,156.946769 24.5225287,157.755858 C27.893549,158.564058 32.7221757,158.390429 36.8577618,157.199443 C40.9929037,156.008457 107.861098,137.033508 110.440008,136.438459 C113.019363,135.842966 114.906122,134.393978 114.906122,131.362782 L114.906122,122.800741 C114.906122,121.769619 113.435632,120.021331 110.440453,120.813545 C107.445274,121.605315 9.4320152,145.954798 4.33105912,147.358491 Z" id="Shape" fill-opacity="0.4"></path>
                        <path d="M122.859206,137.735576 C119.53972,137.151185 115.397914,136.985993 110.411576,138.273341 C105.425682,139.561133 45.9321503,156.208731 42.6681959,157.203884 C39.4037973,158.19948 36.5667736,160.751973 40.0826216,161.640105 C43.5984696,162.528238 55.6986909,165.269458 58.8489155,165.896924 C61.9991402,166.524834 69.0459409,166.603877 75.5263142,163.915501 C82.0062432,161.227568 126.766,143.154072 129.514617,142.183788 C132.263233,141.213059 131.516438,139.498075 129.514617,139.102856 C127.512796,138.707637 126.178248,138.319523 122.858762,137.735132 L122.859206,137.735576 Z" id="Path" fill-opacity="0.2"></path>
                        <path d="M130.544848,38.2616339 C127.618973,37.7203172 124.248841,38.181702 124.248841,42.15121 L124.248841,56.380868 C124.248841,58.6851276 125.233314,61.1576884 130.51686,61.725205 C135.800405,62.2927216 159.084346,65.6716215 163.135524,65.9873526 C167.186257,66.3026396 167.40261,63.3460467 167.294655,60.6190361 C167.186257,57.8924694 167.40261,50.674173 167.294655,48.8472845 C167.186257,47.0203961 166.866836,45.2947548 163.135524,44.4066223 C159.403767,43.5184899 133.471167,38.8025066 130.544848,38.2616339 L130.544848,38.2616339 Z" id="Path" opacity="0.4"></path>
                        <path d="M133.12909,63.1395559 C130.072603,62.8788891 124.348799,61.7842658 115.581836,63.5449884 C106.814873,65.305711 90.2485389,68.8959864 87.3933007,69.5754077 C84.5380625,70.2552731 85.5985034,72.2291475 89.435549,72.6008309 C93.2725946,72.9725143 106.802434,73.5680071 109.450649,73.7003389 C112.098419,73.8322265 117.104304,73.6279561 120.454889,73.1283816 C123.804584,72.628363 151.432468,69.0802739 154.158427,68.6433127 C156.884387,68.2063515 156.212671,66.1085827 151.220557,65.4562494 C146.228,64.8034721 136.185576,63.4002228 133.12909,63.1395559 L133.12909,63.1395559 Z" id="Path" fill-opacity="0.6"></path>
                        <path d="M175.571603,11.3623225 C175.571603,6.36524524 175.216198,-1.42412038 180.691662,0.842393625 C186.166682,3.10846356 240.576584,26.5547161 244.217269,28.0685378 C247.857508,29.5828037 249.635868,32.6290979 249.635868,41.5237444 L249.635868,107.246434 C249.635868,110.349568 248.88774,113.036169 243.647287,115.917271 C238.40639,118.798372 186.543856,147.19996 183.617537,148.868761 C180.691662,150.538006 175.572047,149.308386 175.572047,141.212615 L175.572047,11.3623225 L175.571603,11.3623225 Z" id="Path" fill-opacity="0.4"></path>
                    </g>
                </g>
                <g id="Group" transform="translate(69.734848, 0.000000)">
                    <path d="M80.8606124,87.231351 C82.5643863,86.7724958 82.6895072,85.4550084 81.5864911,84.7038717 C80.4839187,83.9531793 78.5383331,81.0841127 76.3842128,81.7321957 C74.2300924,82.3802787 74.1040842,84.5839386 74.1040842,86.3074219 C74.1040842,88.0309051 75.7599394,88.613247 76.9809773,88.2943138 C78.2020153,87.9753805 79.1572822,87.6902062 80.8606124,87.231351 L80.8606124,87.231351 Z M98.5989394,56.1908845 C96.1905841,57.2951576 93.968579,58.6339665 95.923482,60.4107533 C97.8779414,62.1875402 101.556584,64.7194615 103.168958,68.1175664 C104.781775,71.5156712 107.213646,78.1550795 110.125591,78.1666286 C113.037092,78.178622 116.63099,76.4018351 118.191008,75.9576384 C119.751026,75.5134417 120.613561,75.6968949 122.77345,76.9379805 C124.933338,78.178622 130.713302,80.6292552 131.957856,80.4311435 C133.202409,80.2330318 133.745487,79.0670154 135.066799,79.0670154 C136.388112,79.0670154 137.498227,79.797719 137.498227,76.6865652 L137.498227,62.5588887 C137.498227,60.7110303 136.676511,59.2549535 134.603142,57.9654504 C132.530217,56.6759473 128.611094,55.5241453 127.083465,56.8571796 C125.555837,58.1897698 125.210645,55.5112636 124.819753,53.7478026 C124.429305,51.9843416 122.61727,47.979464 119.751026,46.5109497 C117.840492,45.5314959 115.794189,46.3839094 113.611672,49.067746 C112.120426,50.7157158 110.623856,52.1300382 109.122405,53.3111572 C106.870229,55.0826137 101.006851,55.0866115 98.5989394,56.1908845 L98.5989394,56.1908845 Z" id="Shape" fill="#262254" opacity="0.2"></path>
                    <path d="M137.012829,85.8423479 C138.756978,86.4966497 143.584781,88.7975886 141.680459,93.5802547 C139.776137,98.3629207 136.604633,103.170462 138.190385,105.88939 C139.776137,108.608318 147.495475,112.973883 151.375997,108.225865 C155.25652,103.478734 154.224494,98.0524272 156.539231,95.6950752 C157.084971,95.1398294 157.81085,94.7622621 158.723078,94.7622621 C159.16677,94.7622621 158.575329,92.2463319 158.575329,91.2171282 C158.575329,87.3526167 148.536374,85.0561197 145.279681,85.1605059 C143.743623,85.2093676 146.56328,87.0563375 145.279681,87.0563375 C142.912589,87.0563375 136.091282,85.4963187 137.012829,85.8423479 L137.012829,85.8423479 Z" id="Path" fill="#FFFFFF"></path>
                    <g fill="#262254">
                        <g transform="translate(52.490714, 52.282802) scale(-1, 1) rotate(31.000000) translate(-52.490714, -52.282802) translate(14.634654, 14.418034)">
                            <path d="M36.9004588,68.7634284 C36.6728131,68.6722908 36.5620672,68.4136557 36.653101,68.1857506 C36.7441348,67.9578454 37.0024756,67.8469734 37.2301213,67.9381109 C37.636986,68.1011311 38.0549431,68.2717026 38.5820481,68.4898032 C42.2424998,70.0054024 42.9648289,70.2856905 44.5044371,70.713452 C46.5676007,71.2864657 48.3148563,71.4179479 49.9556261,71.054595 C51.8732591,70.629943 54.5469417,66.6841435 56.4650184,60.9779925 C58.7655568,54.1338095 59.7811658,45.6954045 59.0384269,36.8181332 C59.0255639,36.5784245 59.2052588,36.371853 59.4441917,36.351679 C59.6831246,36.3315051 59.8948393,36.5050285 59.9222595,36.7435081 C60.6756471,45.7420452 59.6453963,54.3017159 57.3062567,61.26139 C55.2950049,67.2447198 52.4744605,71.406843 50.1473006,71.9221112 C48.3476895,72.3205557 46.4593401,72.1784127 44.2670623,71.5698632 C42.6773171,71.1278875 41.9456704,70.8436016 38.2426244,69.3111229 C37.7190689,69.0939107 37.3042177,68.9246718 36.9004588,68.7634284 L36.9004588,68.7634284 Z" id="Path"></path>
                            <path d="M47.9780948,55.0892767 C47.736359,55.1298776 47.5732696,55.3589801 47.6138244,55.6009913 C47.6543791,55.8430025 47.8832208,56.0062778 48.1249566,55.9656768 C49.5860314,55.720036 50.6957029,55.069732 51.4260184,54.01743 C51.5045887,53.9046313 51.5265437,53.7617607 51.485473,53.6305347 L49.1960269,46.3488179 C49.1484722,46.1974217 49.0238529,46.0829249 48.8691119,46.0484573 C48.7143709,46.0139897 48.5530169,46.0647878 48.4458306,46.1817163 C48.3386442,46.2986449 48.3019096,46.4639398 48.3494643,46.6153359 L50.5710257,53.6816173 C49.984466,54.4278678 49.1276985,54.8960511 47.9780948,55.0897209 L47.9780948,55.0892767 Z" id="Path"></path>
                            <ellipse id="Oval" cx="28.2919638" cy="52.9837842" rx="1" ry="1"></ellipse>
                            <path d="M36.1674811,66.269708 C35.0161026,66.9626549 33.5235257,66.5935274 32.833586,65.4443905 C32.14409,64.2948094 32.5194527,62.8023085 33.6708312,62.1093616 C34.8222096,61.4168589 36.3147865,61.7859864 37.0047262,62.9355675 C37.6942222,64.0847044 37.3188595,65.5772053 36.1674811,66.2701522 L36.1674811,66.269708 Z M35.7104792,65.5083548 C36.4425696,65.0681559 36.6808317,64.1206843 36.2437959,63.3926459 C35.8072039,62.6650517 34.8594797,62.4305158 34.1273893,62.8711589 C33.395299,63.3113579 33.1574806,64.2588295 33.5945163,64.9864237 C34.0311084,65.7149063 34.9788326,65.948998 35.7109229,65.5083548 L35.7104792,65.5083548 Z" id="Shape"></path>
                            <path d="M29.3168903,55.7591253 C29.2352548,55.6230433 29.2323367,55.4536967 29.3092352,55.3148767 C29.3861338,55.1760567 29.5311663,55.0888534 29.6897004,55.0860491 C29.8482344,55.0833774 29.996185,55.1655207 30.0778205,55.3016027 L34.248517,62.2506161 C34.3301525,62.3866981 34.3330706,62.5560447 34.2561721,62.6948647 C34.1792735,62.8336847 34.034241,62.9208881 33.8757069,62.9236924 C33.7171728,62.926364 33.5692223,62.8442207 33.4875867,62.7081387 L29.3168903,55.7591253 L29.3168903,55.7591253 Z" id="Path"></path>
                            <path d="M41.7038588,23.4513656 C41.7038588,23.2060425 41.902506,23.0071689 42.1475499,23.0071689 C42.3925937,23.0071689 42.591241,23.2060425 42.591241,23.4513656 C42.591241,33.6714436 39.1060473,39.1110766 31.2948653,43.8546533 C31.1379485,43.9498822 30.9386673,43.9385826 30.7934943,43.8262248 C29.650302,42.9412279 28.2453757,42.4623835 26.8002743,42.465206 C23.1997209,42.465206 20.2815645,45.3733619 20.2815645,48.9602504 C20.2815645,52.5466947 23.1997209,55.4552948 26.8002743,55.4552948 C28.1171495,55.4552948 29.3745701,55.0657343 30.4420909,54.3479124 C30.5736312,54.2561438 30.7443913,54.242559 30.8887574,54.3123778 C31.0331235,54.3821966 31.1286364,54.5245571 31.1385956,54.6847581 C31.1485549,54.8449591 31.0714112,54.9980777 30.9368065,55.0852789 C29.713981,55.907954 28.2735531,56.3461587 26.8002743,56.3436986 C22.7103296,56.3436986 19.3941822,53.0384204 19.3941822,48.9602504 C19.3941822,44.8820803 22.7103296,41.5768126 26.8002743,41.5768126 C28.3598485,41.5768126 29.8475448,42.0592102 31.0885489,42.9396081 C38.4693506,38.3865918 41.7038588,33.2281353 41.7038588,23.4513656 Z M10.4546937,57.1032646 C10.4716017,56.8584322 10.6835584,56.6736786 10.9281121,56.6906058 C11.1726659,56.7075331 11.3572092,56.9197313 11.3403012,57.1645637 C11.3336458,57.257845 11.3305399,57.3511264 11.3305399,57.4448519 C11.3305399,59.6627261 13.1350317,61.4617228 15.3623611,61.4617228 C16.1988338,61.4634274 17.0150493,61.2041393 17.6975074,60.7199142 C17.8268109,60.6267057 17.9961079,60.6100659 18.1410489,60.6763196 C18.2859899,60.7425733 18.384317,60.8815461 18.3986561,61.0404148 C18.4129953,61.1992836 18.3411446,61.3536513 18.2104143,61.4448433 C17.3780156,62.035406 16.3825844,62.3518105 15.3623611,62.350123 C12.6460841,62.350123 10.4431577,60.1544518 10.4431577,57.4448519 C10.4431577,57.3306933 10.4471509,57.2165348 10.4546937,57.1028204 L10.4546937,57.1032646 Z" id="Shape"></path>
                            <path d="M6.1056334,32.6031505 C6.30889726,32.4660149 6.58471901,32.5198103 6.72169851,32.7233057 C6.85867802,32.9268012 6.80494393,33.2029373 6.60168007,33.3400729 C3.055257,35.7325164 0.887382226,39.7142958 0.887382226,44.0620932 C0.887382226,50.0991708 5.07050204,55.2958282 10.8890673,56.6581795 C11.0466313,56.6911917 11.173975,56.8070538 11.2218212,56.9609315 C11.2696675,57.1148092 11.2305098,57.2825608 11.1195006,57.3992728 C11.0084914,57.5159849 10.843047,57.5633464 10.6871878,57.5230305 C4.46974427,56.0673978 0,50.5149389 0,44.0620932 C0,39.4153514 2.31739868,35.1590584 6.1056334,32.6031505 Z" id="Path"></path>
                            <path d="M24.2002444,13.0007495 C24.3348241,13.0846204 24.4144872,13.2339996 24.4092254,13.3926173 C24.4039635,13.5512351 24.3145761,13.6949936 24.1747346,13.7697404 C24.034893,13.8444871 23.8658426,13.8388664 23.7312629,13.7549955 C21.6679528,12.4683795 19.2848618,11.7885016 16.8540506,11.7929786 C9.68355854,11.7929786 3.87120496,17.5861922 3.87120496,24.7315405 C3.867217,27.5806384 4.80983652,30.3501505 6.55065559,32.6040389 C6.69873704,32.7983953 6.66213579,33.0760096 6.46875459,33.2252441 C6.27537339,33.3744787 5.99789292,33.3392449 5.84784887,33.1464031 C3.98723854,30.7369919 2.97970803,27.7765865 2.98381018,24.7310963 C2.98381018,17.0940222 9.19416724,10.9041208 16.8544943,10.9041208 C19.4509324,10.8997063 21.9963294,11.6260542 24.2002444,13.0003053 L24.2002444,13.0007495 Z M59.5211628,47.8857385 C59.3626077,47.8690001 59.2252134,47.7683816 59.1612602,47.6221699 C59.097307,47.4759581 59.1166288,47.3066355 59.2118734,47.1786316 C59.3071181,47.0506277 59.4636401,46.9836253 59.6218807,47.0031197 C60.1143778,47.0590885 60.6117555,47.087517 61.1131265,47.087517 C68.2840623,47.087517 74.0964158,41.2943035 74.0964158,34.1489551 C74.0964158,27.2101582 68.6026325,21.5128911 61.6695152,21.2219423 C61.4277584,21.2078512 61.2419431,21.0022929 61.2519944,20.7600598 C61.2620456,20.5178266 61.4642503,20.3284056 61.7063415,20.3342971 C69.1137646,20.645375 74.9837981,26.7326467 74.9837981,34.1489551 C74.9837981,41.7860292 68.7734536,47.9759107 61.1131265,47.9759107 C60.5811962,47.9759107 60.0496888,47.9458906 59.5211628,47.8857385 Z" id="Shape"></path>
                            <path d="M62.0328982,20.695125 C62.0302571,20.8569458 61.9399135,21.0045222 61.7970845,21.0803268 C61.6542554,21.1561313 61.4815478,21.1481658 61.3462856,21.0595352 C61.2110233,20.9709047 61.1346155,20.8156374 61.146847,20.6542589 C61.1601578,20.3619774 61.1668131,20.0688076 61.1668131,19.7747494 C61.1672568,9.3450105 52.6825517,0.888393431 42.216322,0.888393431 C34.1429185,0.888393431 27.0372053,5.96556189 24.3648538,13.4191828 C24.3142253,13.5723314 24.1846409,13.6859621 24.0263298,13.7160294 C23.8680187,13.7460966 23.7058692,13.6878736 23.6027334,13.5639287 C23.4999353,13.4399838 23.4716896,13.2698024 23.5298271,13.11935 C26.3272996,5.3148137 33.7657811,0 42.216322,0 C53.171943,0 62.0541953,8.85284054 62.0541953,19.7747494 C62.0541953,20.0825777 62.0470963,20.3895176 62.0328982,20.695125 L62.0328982,20.695125 Z M64.5144626,34.3435133 C64.7215246,34.2121428 64.9957572,34.2736942 65.1269781,34.4809922 C65.2581991,34.6882901 65.1967178,34.9628352 64.9896557,35.0942057 C59.2283266,38.7512773 51.1101104,37.9881473 40.6602973,32.8714454 C40.4401254,32.7635032 40.3490456,32.4973108 40.4568649,32.2768881 C40.5646842,32.0564653 40.8305736,31.9652817 41.0507454,32.0732239 C51.2516478,37.0682159 59.0646046,37.8029173 64.5144626,34.3435133 Z M26.0712898,55.668065 C26.2814149,55.5417236 26.5540583,55.6098378 26.6802558,55.8202024 C26.8064534,56.0305669 26.7384167,56.303521 26.5282916,56.4298624 L11.5483923,65.4408369 C11.4124652,65.5225655 11.2433113,65.5254869 11.1046494,65.4485007 C10.9659874,65.3715145 10.8788833,65.2263168 10.8760821,65.067602 C10.8734136,64.9088873 10.9554633,64.7607681 11.0913904,64.6790396 L26.0712898,55.668065 L26.0712898,55.668065 Z M36.7225386,67.9034635 C36.9326637,67.7771222 37.2053071,67.8452364 37.3315047,68.0556009 C37.4577022,68.2659655 37.3896656,68.5389195 37.1795405,68.6652609 L26.9826313,74.7991733 C26.8467042,74.8809019 26.6775504,74.8838233 26.5388884,74.8068371 C26.4002264,74.729851 26.3131223,74.5846532 26.3103211,74.4259384 C26.3076526,74.2672237 26.3897024,74.1191045 26.5256295,74.037376 L36.7225386,67.9034635 L36.7225386,67.9034635 Z M47.3280873,62.5184667 C47.5582463,62.5928405 47.6865119,62.8380508 47.6164841,63.0698057 C47.5464562,63.3015605 47.3039345,63.4344769 47.0711902,63.3686593 L39.5151305,61.0823788 C39.280501,61.0112351 39.147904,60.7631402 39.2189667,60.5282434 C39.2900294,60.2933465 39.5378419,60.1605984 39.7724714,60.2317421 L47.3280873,62.5184667 Z" id="Shape"></path>
                        </g>
                        <g transform="translate(49.706336, 65.987680) scale(-1, 1) rotate(31.000000) translate(-49.706336, -65.987680) translate(43.729063, 64.493019)" id="Oval">
                            <ellipse cx="1.00318561" cy="0.888393431" rx="1.00318561" ry="1"></ellipse>
                            <ellipse cx="10.5327833" cy="1.77678686" rx="1.00318561" ry="1"></ellipse>
                        </g>
                        <path d="M83.8355613,62.2914822 C83.7185769,62.3986022 83.553396,62.4351035 83.4022407,62.3872365 C83.2510854,62.3393695 83.1369199,62.2144063 83.1027492,62.0594193 C83.0685784,61.9044323 83.1195938,61.7429678 83.2365783,61.6358479 C89.2907436,56.0931613 96.9222307,52.7985542 106.117729,51.7515826 C106.275293,51.7337292 106.430403,51.8013875 106.524629,51.9290712 C106.618855,52.0567549 106.637883,52.2250657 106.574544,52.3706027 C106.511206,52.5161397 106.375124,52.6167923 106.21756,52.6346456 C97.2021998,53.66074 89.7459707,56.8798336 83.8355613,62.2914822 L83.8355613,62.2914822 Z" id="Path"></path>
                        <path d="M146.459456,79.637364 C146.459456,79.3920409 146.658103,79.1931673 146.903147,79.1931673 C147.148191,79.1931673 147.346838,79.3920409 147.346838,79.637364 L147.346838,79.881228 L146.459456,79.881228 L146.459456,79.637364 Z M146.459456,59.1163641 C146.459456,35.5437328 145.225107,31.5379668 137.767547,31.5379668 C129.94971,31.5379668 105.419803,50.0209922 104.388665,56.5431325 C103.991561,59.0546208 104.505799,60.8833786 105.682024,62.2004219 C105.78951,62.3183941 105.825477,62.4850462 105.776231,62.6369219 C105.726984,62.7887976 105.600103,62.9025246 105.443898,62.9347988 C105.287694,62.9670731 105.126206,62.912928 105.020925,62.7929803 C103.663673,61.2738276 103.074008,59.1754423 103.512375,56.4045432 C104.614947,49.4257686 129.533971,30.6495734 137.767547,30.6495734 C142.210226,30.6495734 144.516089,32.1971547 145.793919,36.3441753 C146.983012,40.2029121 147.346395,46.2088959 147.346395,59.1163641 L147.346395,79.881228 L146.459012,79.881228 L146.459012,59.1163641 L146.459456,59.1163641 Z" id="Shape"></path>
                        <path d="M135.850802,44.6799708 C135.850802,44.4346478 136.049449,44.2357741 136.294493,44.2357741 C136.539537,44.2357741 136.738184,44.4346478 136.738184,44.6799708 L136.738184,79.0670154 C136.738184,79.3123385 136.539537,79.5112121 136.294493,79.5112121 C136.049449,79.5112121 135.850802,79.3123385 135.850802,79.0670154 L135.850802,44.6799708 Z" id="Path"></path>
                        <path d="M117.115501,61.4412897 C116.965703,61.4933421 116.799547,61.4614335 116.679621,61.3575837 C116.559695,61.2537338 116.504219,61.09372 116.53409,60.9378178 C116.563962,60.7819156 116.674642,60.6538103 116.824439,60.6017579 C118.071211,60.1686661 119.372557,59.3469022 120.726259,58.1324684 C122.119893,56.8820546 128.327131,51.2611894 139.345313,41.2725378 C139.527013,41.1078034 139.807701,41.1217246 139.972248,41.3036316 C140.136795,41.4855387 140.12289,41.7665471 139.94119,41.9312816 C128.92079,51.9217099 122.713995,57.5421309 121.318587,58.7938773 C119.882802,60.0820478 118.482957,60.9659992 117.115501,61.4412897 Z" id="Path"></path>
                        <path d="M124.866341,57.8481825 C124.857764,58.0933829 124.652264,58.2851965 124.407342,58.2766102 C124.162421,58.2680239 123.970826,58.0622891 123.979402,57.8170887 C124.266914,49.6851794 120.669466,44.5071783 113.119618,42.1791433 C112.885357,42.1070184 112.753852,41.8584263 112.825895,41.6238974 C112.897938,41.3893686 113.146247,41.2577142 113.380509,41.3298392 C121.317255,43.7773631 125.168051,49.3187171 124.866341,57.8481825 L124.866341,57.8481825 Z M143.651779,84.4124787 C143.566497,84.2786978 143.558984,84.1095302 143.632069,83.9686997 C143.705154,83.8278693 143.847734,83.7367714 144.006101,83.7297219 C144.164467,83.7226723 144.314561,83.8007421 144.399842,83.934523 C146.733657,87.5938155 147.286053,91.2149072 146.037062,94.7613738 C145.848202,95.2964465 145.646709,95.8269661 145.432755,96.3524864 C145.375519,96.4928525 143.659765,100.386237 143.450343,101.145369 C143.145083,102.250086 143.329659,102.783122 144.209055,103.183343 C146.260239,104.116157 148.960099,100.937929 149.981476,96.6358839 C150.619504,93.9507147 150.937187,91.8767603 150.937187,90.4233486 C150.937187,90.1780256 151.135834,89.9791519 151.380878,89.9791519 C151.625922,89.9791519 151.824569,90.1780256 151.824569,90.4233486 C151.824569,91.9589367 151.497569,94.0946345 150.845343,96.8411028 C149.711268,101.615773 146.619629,105.255077 143.842566,103.992226 C142.524803,103.393449 142.182274,102.402446 142.594906,100.908612 C142.824738,100.076187 144.579537,96.0948523 144.610595,96.0180063 C144.824898,95.4903006 145.019678,94.9785859 145.200261,94.4664271 C146.353858,91.189588 145.8445,87.8510054 143.651779,84.4124787 L143.651779,84.4124787 Z" id="Shape"></path>
                        <path d="M145.005037,103.702165 C145.069483,103.465428 145.313422,103.325819 145.549889,103.390339 C145.786357,103.454859 145.925807,103.699076 145.86136,103.935813 C145.43098,105.516265 145.938119,106.445524 147.476396,106.907045 C149.578161,107.536471 153.385031,102.459747 154.319444,98.0231102 C154.902454,95.2562089 155.128293,92.8957475 155.000954,90.9439472 C154.99065,90.7855684 155.065527,90.6337172 155.197379,90.5455945 C155.329232,90.4574718 155.498027,90.4464656 155.640183,90.5167217 C155.782339,90.5869779 155.876258,90.7278228 155.886561,90.8862016 C156.019668,92.9268413 155.785843,95.3659255 155.187748,98.2065635 C154.158828,103.092283 150.029395,108.59899 147.222161,107.758125 C145.219783,107.158016 144.449092,105.74547 145.005037,103.702609 L145.005037,103.702165 Z" id="Path"></path>
                        <path d="M149.943319,106.245636 C149.860984,106.014541 149.981364,105.760381 150.212196,105.677952 C150.443027,105.595524 150.696898,105.716041 150.779233,105.947135 C151.057427,106.728922 151.608935,107.072286 152.539799,107.025201 C153.537217,106.974118 154.969008,105.648191 156.102639,103.437868 C157.52245,100.66919 158.358808,96.8677546 158.358808,92.3018565 C158.358808,87.7897063 156.60889,84.5417399 153.523906,82.525531 C150.972682,80.8584607 147.592199,80.1393063 144.456191,80.3978288 C140.505121,80.7243133 138.645168,80.5937195 136.574462,79.9989401 C136.29893,79.9194289 135.253593,79.5991631 135.000246,79.5249822 C133.51388,79.0896694 132.499159,79.3286473 131.853145,80.2170407 C131.708936,80.4153844 131.431426,80.4591366 131.233308,80.314764 C131.03519,80.1703913 130.991488,79.8925649 131.135696,79.6942212 C132.024853,78.4713476 133.43091,78.1395327 135.2496,78.6721245 C135.510934,78.7485263 136.553165,79.068348 136.819379,79.1447498 C138.777388,79.7075471 140.532186,79.8305895 144.383425,79.5125447 C147.705341,79.2384753 151.281935,79.9993843 154.009304,81.7819457 C157.345418,83.9620632 159.24619,87.4898735 159.24619,92.3018565 C159.24619,97.0032346 158.379662,100.943259 156.891965,103.84342 C155.628777,106.306491 153.971147,107.84119 152.584612,107.912262 C151.273505,107.978891 150.357282,107.407654 149.943319,106.245636 L149.943319,106.245636 Z M89.3413244,57.9423522 C89.1075525,57.8687553 88.9776372,57.6193677 89.0511504,57.3853295 C89.1246635,57.1512913 89.3737672,57.0212279 89.607539,57.0948249 C96.5113727,59.2713888 101.896452,66.1511075 105.791172,77.6855636 C105.841897,77.8359283 105.808642,78.0019632 105.703933,78.1211248 C105.599224,78.2402863 105.43897,78.2944709 105.283536,78.2632677 C105.128102,78.2320646 105.001103,78.1202142 104.950378,77.9698495 C101.13774,66.6774806 95.9248131,60.0176392 89.3413244,57.9423522 L89.3413244,57.9423522 Z M75.5718144,78.6037182 C75.459721,78.4877158 75.4192992,78.3199699 75.4662311,78.1655597 C75.5131631,78.0111495 75.6400628,77.8943758 75.7976977,77.8605425 C75.9553327,77.8267092 76.1188947,77.8811409 76.2249277,78.0027201 C78.1092838,80.0549089 79.969237,81.5753942 81.7213732,82.6445757 C82.2498416,82.9708975 82.7984585,83.2633222 83.3639177,83.5200875 C83.5307455,83.5947125 83.6767199,83.6542349 83.7996224,83.7008755 C83.8706129,83.7275273 83.9167568,83.7435184 83.9367229,83.7497372 C84.091222,83.7945064 84.2094221,83.9194774 84.2456522,84.0763629 C84.2818824,84.2332483 84.2304685,84.3974783 84.1112763,84.5055962 C83.992084,84.6137141 83.8237803,84.6487875 83.6713956,84.5972645 C83.5449437,84.5572868 83.3182175,84.4724452 83.0027531,84.3316349 C82.402618,84.0594416 81.8203583,83.7493603 81.2594907,83.4032637 C79.4372513,82.2914394 77.5125193,80.7176504 75.5713707,78.6037182 L75.5718144,78.6037182 Z" id="Shape"></path>
                        <path d="M74.7802694,77.8032757 C74.8838593,77.6831427 75.0435976,77.6274627 75.1993124,77.6572099 C75.3550272,77.6869572 75.4830618,77.7976123 75.5351866,77.9474925 C75.5873115,78.0973728 75.5556077,78.2637078 75.4520178,78.3838408 C72.7632496,81.5043228 71.7276746,84.5048716 72.3066915,87.4068087 C72.3454878,87.6430106 72.1903534,87.8675092 71.955895,87.9144543 C71.7214367,87.9613994 71.4919883,87.813905 71.4370569,87.5809338 C70.7981417,84.3827175 71.9260045,81.1160948 74.7802694,77.8032757 L74.7802694,77.8032757 Z M126.574108,54.0698452 L126.826124,53.2178759 C131.125491,54.4904995 134.408805,56.2219783 136.67163,58.4211962 L136.053125,59.0586185 C133.904772,56.970894 130.746579,55.3047121 126.574551,54.0698452 L126.574108,54.0698452 Z" id="Shape"></path>
                    </g>
                </g>
            </g>
        </g>
    </g>
</svg>