<?xml version="1.0" encoding="utf-8"?>
<!-- Generator: Adobe Illustrator 13.0.0, SVG Export Plug-In . SVG Version: 6.00 Build 14948)  -->
<!DOCTYPE svg PUBLIC "-//W3C//DTD SVG 1.1//EN" "http://www.w3.org/Graphics/SVG/1.1/DTD/svg11.dtd">
<svg version="1.1" id="Layer_1" xmlns="http://www.w3.org/2000/svg" xmlns:xlink="http://www.w3.org/1999/xlink" x="0px" y="0px"
	 width="50px" height="32.7px" viewBox="0 0 50 32.7" style="enable-background:new 0 0 50 32.7;" xml:space="preserve">
<style type="text/css">
<![CDATA[
	.st0{fill:none;stroke:#000000;stroke-width:1.1062;}
	.st1{fill:none;stroke:#000000;stroke-width:0.5;}
]]>
</style>
<polygon class="st0" points="49.2,16.4 33.1,1.3 33.1,6.6 0.6,6.6 0.6,26.1 33.1,26.1 33.1,31.5 "/>
<g>
	<line class="st1" x1="47.6" y1="14.9" x2="47.6" y2="17.9"/>
</g>
<g>
	<line class="st1" x1="45.2" y1="12.6" x2="45.2" y2="20.1"/>
</g>
<g>
	<line class="st1" x1="42.9" y1="10.4" x2="42.9" y2="22.3"/>
</g>
<g>
	<line class="st1" x1="40.5" y1="8.2" x2="40.5" y2="24.5"/>
</g>
<g>
	<line class="st1" x1="38.2" y1="6" x2="38.2" y2="26.7"/>
</g>
<g>
	<line class="st1" x1="35.8" y1="3.8" x2="35.8" y2="28.9"/>
</g>
<g>
	<line class="st1" x1="33.5" y1="1.6" x2="33.5" y2="31.1"/>
</g>
<g>
	<line class="st1" x1="31.1" y1="6.7" x2="31.1" y2="26.2"/>
</g>
<g>
	<line class="st1" x1="28.8" y1="6.7" x2="28.8" y2="26.2"/>
</g>
<g>
	<line class="st1" x1="26.4" y1="6.7" x2="26.4" y2="26.2"/>
</g>
<g>
	<line class="st1" x1="24.1" y1="6.7" x2="24.1" y2="26.2"/>
</g>
<g>
	<line class="st1" x1="21.7" y1="6.7" x2="21.7" y2="26.2"/>
</g>
<g>
	<line class="st1" x1="19.4" y1="6.7" x2="19.4" y2="26.2"/>
</g>
<g>
	<line class="st1" x1="17" y1="6.7" x2="17" y2="26.2"/>
</g>
<g>
	<line class="st1" x1="14.7" y1="6.7" x2="14.7" y2="26.2"/>
</g>
<g>
	<line class="st1" x1="12.3" y1="6.7" x2="12.3" y2="26.2"/>
</g>
<g>
	<line class="st1" x1="10" y1="6.7" x2="10" y2="26.2"/>
</g>
<g>
	<line class="st1" x1="7.6" y1="6.7" x2="7.6" y2="26.2"/>
</g>
<g>
	<line class="st1" x1="5.3" y1="6.7" x2="5.3" y2="26.2"/>
</g>
<g>
	<line class="st1" x1="2.9" y1="6.7" x2="2.9" y2="26.2"/>
</g>
<g>
	<line class="st1" x1="0.6" y1="6.7" x2="0.6" y2="26.2"/>
</g>
</svg>
